M48
; DRILL file {KiCad (5.1.2)-2} date 08/04/19 04:46:52
; FORMAT={-:-/ absolute / metric / decimal}
; #@! TF.CreationDate,2019-08-04T04:46:52+05:30
; #@! TF.GenerationSoftware,Kicad,Pcbnew,(5.1.2)-2
FMAT,2
METRIC
T1C0.500
T2C0.800
T3C0.920
T4C1.000
T5C2.330
%
G90
G05
T1
X100.432Y-99.314
X101.194Y-106.451
X120.04Y-88.875
X144.501Y-103.962
X145.288Y-89.56
X151.333Y-94.361
X153.467Y-97.993
X153.822Y-89.179
X174.346Y-103.353
T2
X104.14Y-88.9
X104.14Y-91.44
X104.14Y-93.98
X104.14Y-96.52
X104.14Y-99.06
X104.14Y-101.6
X104.14Y-104.14
X111.76Y-88.9
X111.76Y-91.44
X111.76Y-93.98
X111.76Y-96.52
X111.76Y-99.06
X111.76Y-101.6
X111.76Y-104.14
X122.936Y-88.9
X122.936Y-91.44
X122.936Y-93.98
X122.936Y-96.52
X122.936Y-99.06
X122.936Y-101.6
X122.936Y-104.14
X130.556Y-88.9
X130.556Y-91.44
X130.556Y-93.98
X130.556Y-96.52
X130.556Y-99.06
X130.556Y-101.6
X130.556Y-104.14
T3
X177.8Y-95.504
X177.8Y-98.004
X179.8Y-95.504
X179.8Y-98.004
T4
X85.852Y-92.456
X85.852Y-94.996
X85.852Y-97.536
X85.852Y-100.076
X168.148Y-97.028
X168.148Y-99.568
X92.456Y-96.52
X94.996Y-96.52
X92.456Y-91.948
X94.996Y-91.948
T5
X182.51Y-90.734
X182.51Y-102.774
T0
M30
