M48
; DRILL file {KiCad (5.1.2)-2} date 08/09/19 03:15:41
; FORMAT={-:-/ absolute / metric / decimal}
; #@! TF.CreationDate,2019-08-09T03:15:41+05:30
; #@! TF.GenerationSoftware,Kicad,Pcbnew,(5.1.2)-2
FMAT,2
METRIC
T1C0.500
T2C0.800
T3C0.920
T4C1.000
T5C2.330
%
G90
G05
T1
X89.662Y-104.165
X92.126Y-86.03
X92.507Y-94.564
X97.307Y-88.519
X100.94Y-86.385
X105.791Y-69.063
X106.909Y-95.352
X107.086Y-124.003
X111.735Y-124.054
X124.917Y-99.212
X125.857Y-114.656
X125.984Y-91.084
X126.492Y-98.45
X126.949Y-78.257
X129.54Y-86.817
X139.649Y-136.169
X151.232Y-98.577
X151.536Y-89.687
X152.298Y-96.622
X152.908Y-77.292
X153.772Y-115.24
X155.956Y-86.893
T2
X120.904Y-72.644
X123.404Y-72.644
X99.974Y-72.684
X99.974Y-75.184
X91.846Y-126.568
X91.846Y-134.188
X94.386Y-126.568
X94.386Y-134.188
X96.926Y-126.568
X96.926Y-134.188
X99.466Y-126.568
X99.466Y-134.188
X102.006Y-126.568
X102.006Y-134.188
X104.546Y-126.568
X104.546Y-134.188
X107.086Y-126.568
X107.086Y-134.188
X146.304Y-72.644
X148.804Y-72.644
X91.846Y-107.772
X91.846Y-115.392
X94.386Y-107.772
X94.386Y-115.392
X96.926Y-107.772
X96.926Y-115.392
X99.466Y-107.772
X99.466Y-115.392
X102.006Y-107.772
X102.006Y-115.392
X104.546Y-107.772
X104.546Y-115.392
X107.086Y-107.772
X107.086Y-115.392
T3
X124.81Y-63.67
X124.81Y-65.67
X127.31Y-63.67
X127.31Y-65.67
X149.86Y-64.04
X149.86Y-66.04
X152.36Y-64.04
X152.36Y-66.04
X97.942Y-63.608
X97.942Y-65.608
X100.442Y-63.608
X100.442Y-65.608
T4
X121.92Y-138.684
X124.46Y-138.684
X127.0Y-138.684
X129.54Y-138.684
X120.904Y-119.888
X123.444Y-119.888
X125.984Y-119.888
X128.524Y-119.888
X97.028Y-119.38
X99.568Y-119.38
X148.336Y-119.888
X150.876Y-119.888
X153.416Y-119.888
X155.956Y-119.888
X147.32Y-131.064
X147.32Y-133.604
X149.86Y-131.064
X149.86Y-133.604
X152.4Y-131.064
X152.4Y-133.604
X154.94Y-131.064
X154.94Y-133.604
X157.48Y-131.064
X157.48Y-133.604
X120.904Y-127.0
X120.904Y-129.54
X123.444Y-127.0
X123.444Y-129.54
X125.984Y-127.0
X125.984Y-129.54
X128.524Y-127.0
X128.524Y-129.54
X131.064Y-127.0
X131.064Y-129.54
X94.488Y-138.684
X97.028Y-138.684
T5
X93.172Y-60.898
X105.212Y-60.898
X120.04Y-60.96
X132.08Y-60.96
X145.09Y-61.33
X157.13Y-61.33
T0
M30
