G04 #@! TF.GenerationSoftware,KiCad,Pcbnew,(5.1.2)-2*
G04 #@! TF.CreationDate,2019-08-09T03:15:36+05:30*
G04 #@! TF.ProjectId,renesas-prog,72656e65-7361-4732-9d70-726f672e6b69,rev?*
G04 #@! TF.SameCoordinates,Original*
G04 #@! TF.FileFunction,Soldermask,Top*
G04 #@! TF.FilePolarity,Negative*
%FSLAX46Y46*%
G04 Gerber Fmt 4.6, Leading zero omitted, Abs format (unit mm)*
G04 Created by KiCad (PCBNEW (5.1.2)-2) date 2019-08-09 03:15:36*
%MOMM*%
%LPD*%
G04 APERTURE LIST*
%ADD10C,0.100000*%
G04 APERTURE END LIST*
D10*
G36*
X122030443Y-137789519D02*
G01*
X122096627Y-137796037D01*
X122266466Y-137847557D01*
X122422991Y-137931222D01*
X122458729Y-137960552D01*
X122560186Y-138043814D01*
X122643448Y-138145271D01*
X122672778Y-138181009D01*
X122756443Y-138337534D01*
X122807963Y-138507373D01*
X122825359Y-138684000D01*
X122807963Y-138860627D01*
X122756443Y-139030466D01*
X122672778Y-139186991D01*
X122643448Y-139222729D01*
X122560186Y-139324186D01*
X122458729Y-139407448D01*
X122422991Y-139436778D01*
X122266466Y-139520443D01*
X122096627Y-139571963D01*
X122030443Y-139578481D01*
X121964260Y-139585000D01*
X121875740Y-139585000D01*
X121809557Y-139578481D01*
X121743373Y-139571963D01*
X121573534Y-139520443D01*
X121417009Y-139436778D01*
X121381271Y-139407448D01*
X121279814Y-139324186D01*
X121196552Y-139222729D01*
X121167222Y-139186991D01*
X121083557Y-139030466D01*
X121032037Y-138860627D01*
X121014641Y-138684000D01*
X121032037Y-138507373D01*
X121083557Y-138337534D01*
X121167222Y-138181009D01*
X121196552Y-138145271D01*
X121279814Y-138043814D01*
X121381271Y-137960552D01*
X121417009Y-137931222D01*
X121573534Y-137847557D01*
X121743373Y-137796037D01*
X121809557Y-137789519D01*
X121875740Y-137783000D01*
X121964260Y-137783000D01*
X122030443Y-137789519D01*
X122030443Y-137789519D01*
G37*
G36*
X130441000Y-139585000D02*
G01*
X128639000Y-139585000D01*
X128639000Y-137783000D01*
X130441000Y-137783000D01*
X130441000Y-139585000D01*
X130441000Y-139585000D01*
G37*
G36*
X97138443Y-137789519D02*
G01*
X97204627Y-137796037D01*
X97374466Y-137847557D01*
X97530991Y-137931222D01*
X97566729Y-137960552D01*
X97668186Y-138043814D01*
X97751448Y-138145271D01*
X97780778Y-138181009D01*
X97864443Y-138337534D01*
X97915963Y-138507373D01*
X97933359Y-138684000D01*
X97915963Y-138860627D01*
X97864443Y-139030466D01*
X97780778Y-139186991D01*
X97751448Y-139222729D01*
X97668186Y-139324186D01*
X97566729Y-139407448D01*
X97530991Y-139436778D01*
X97374466Y-139520443D01*
X97204627Y-139571963D01*
X97138443Y-139578481D01*
X97072260Y-139585000D01*
X96983740Y-139585000D01*
X96917557Y-139578481D01*
X96851373Y-139571963D01*
X96681534Y-139520443D01*
X96525009Y-139436778D01*
X96489271Y-139407448D01*
X96387814Y-139324186D01*
X96304552Y-139222729D01*
X96275222Y-139186991D01*
X96191557Y-139030466D01*
X96140037Y-138860627D01*
X96122641Y-138684000D01*
X96140037Y-138507373D01*
X96191557Y-138337534D01*
X96275222Y-138181009D01*
X96304552Y-138145271D01*
X96387814Y-138043814D01*
X96489271Y-137960552D01*
X96525009Y-137931222D01*
X96681534Y-137847557D01*
X96851373Y-137796037D01*
X96917557Y-137789519D01*
X96983740Y-137783000D01*
X97072260Y-137783000D01*
X97138443Y-137789519D01*
X97138443Y-137789519D01*
G37*
G36*
X95389000Y-139585000D02*
G01*
X93587000Y-139585000D01*
X93587000Y-137783000D01*
X95389000Y-137783000D01*
X95389000Y-139585000D01*
X95389000Y-139585000D01*
G37*
G36*
X124570443Y-137789519D02*
G01*
X124636627Y-137796037D01*
X124806466Y-137847557D01*
X124962991Y-137931222D01*
X124998729Y-137960552D01*
X125100186Y-138043814D01*
X125183448Y-138145271D01*
X125212778Y-138181009D01*
X125296443Y-138337534D01*
X125347963Y-138507373D01*
X125365359Y-138684000D01*
X125347963Y-138860627D01*
X125296443Y-139030466D01*
X125212778Y-139186991D01*
X125183448Y-139222729D01*
X125100186Y-139324186D01*
X124998729Y-139407448D01*
X124962991Y-139436778D01*
X124806466Y-139520443D01*
X124636627Y-139571963D01*
X124570443Y-139578481D01*
X124504260Y-139585000D01*
X124415740Y-139585000D01*
X124349557Y-139578481D01*
X124283373Y-139571963D01*
X124113534Y-139520443D01*
X123957009Y-139436778D01*
X123921271Y-139407448D01*
X123819814Y-139324186D01*
X123736552Y-139222729D01*
X123707222Y-139186991D01*
X123623557Y-139030466D01*
X123572037Y-138860627D01*
X123554641Y-138684000D01*
X123572037Y-138507373D01*
X123623557Y-138337534D01*
X123707222Y-138181009D01*
X123736552Y-138145271D01*
X123819814Y-138043814D01*
X123921271Y-137960552D01*
X123957009Y-137931222D01*
X124113534Y-137847557D01*
X124283373Y-137796037D01*
X124349557Y-137789519D01*
X124415740Y-137783000D01*
X124504260Y-137783000D01*
X124570443Y-137789519D01*
X124570443Y-137789519D01*
G37*
G36*
X127110443Y-137789519D02*
G01*
X127176627Y-137796037D01*
X127346466Y-137847557D01*
X127502991Y-137931222D01*
X127538729Y-137960552D01*
X127640186Y-138043814D01*
X127723448Y-138145271D01*
X127752778Y-138181009D01*
X127836443Y-138337534D01*
X127887963Y-138507373D01*
X127905359Y-138684000D01*
X127887963Y-138860627D01*
X127836443Y-139030466D01*
X127752778Y-139186991D01*
X127723448Y-139222729D01*
X127640186Y-139324186D01*
X127538729Y-139407448D01*
X127502991Y-139436778D01*
X127346466Y-139520443D01*
X127176627Y-139571963D01*
X127110443Y-139578481D01*
X127044260Y-139585000D01*
X126955740Y-139585000D01*
X126889557Y-139578481D01*
X126823373Y-139571963D01*
X126653534Y-139520443D01*
X126497009Y-139436778D01*
X126461271Y-139407448D01*
X126359814Y-139324186D01*
X126276552Y-139222729D01*
X126247222Y-139186991D01*
X126163557Y-139030466D01*
X126112037Y-138860627D01*
X126094641Y-138684000D01*
X126112037Y-138507373D01*
X126163557Y-138337534D01*
X126247222Y-138181009D01*
X126276552Y-138145271D01*
X126359814Y-138043814D01*
X126461271Y-137960552D01*
X126497009Y-137931222D01*
X126653534Y-137847557D01*
X126823373Y-137796037D01*
X126889557Y-137789519D01*
X126955740Y-137783000D01*
X127044260Y-137783000D01*
X127110443Y-137789519D01*
X127110443Y-137789519D01*
G37*
G36*
X107253223Y-133349513D02*
G01*
X107413642Y-133398176D01*
X107468269Y-133427375D01*
X107561478Y-133477196D01*
X107691059Y-133583541D01*
X107797404Y-133713122D01*
X107797405Y-133713124D01*
X107876424Y-133860958D01*
X107925087Y-134021377D01*
X107941517Y-134188200D01*
X107925087Y-134355023D01*
X107876424Y-134515442D01*
X107805514Y-134648106D01*
X107797404Y-134663278D01*
X107691059Y-134792859D01*
X107561478Y-134899204D01*
X107561476Y-134899205D01*
X107413642Y-134978224D01*
X107253223Y-135026887D01*
X107128204Y-135039200D01*
X107044596Y-135039200D01*
X106919577Y-135026887D01*
X106759158Y-134978224D01*
X106611324Y-134899205D01*
X106611322Y-134899204D01*
X106481741Y-134792859D01*
X106375396Y-134663278D01*
X106367286Y-134648106D01*
X106296376Y-134515442D01*
X106247713Y-134355023D01*
X106231283Y-134188200D01*
X106247713Y-134021377D01*
X106296376Y-133860958D01*
X106375395Y-133713124D01*
X106375396Y-133713122D01*
X106481741Y-133583541D01*
X106611322Y-133477196D01*
X106704531Y-133427375D01*
X106759158Y-133398176D01*
X106919577Y-133349513D01*
X107044596Y-133337200D01*
X107128204Y-133337200D01*
X107253223Y-133349513D01*
X107253223Y-133349513D01*
G37*
G36*
X104713223Y-133349513D02*
G01*
X104873642Y-133398176D01*
X104928269Y-133427375D01*
X105021478Y-133477196D01*
X105151059Y-133583541D01*
X105257404Y-133713122D01*
X105257405Y-133713124D01*
X105336424Y-133860958D01*
X105385087Y-134021377D01*
X105401517Y-134188200D01*
X105385087Y-134355023D01*
X105336424Y-134515442D01*
X105265514Y-134648106D01*
X105257404Y-134663278D01*
X105151059Y-134792859D01*
X105021478Y-134899204D01*
X105021476Y-134899205D01*
X104873642Y-134978224D01*
X104713223Y-135026887D01*
X104588204Y-135039200D01*
X104504596Y-135039200D01*
X104379577Y-135026887D01*
X104219158Y-134978224D01*
X104071324Y-134899205D01*
X104071322Y-134899204D01*
X103941741Y-134792859D01*
X103835396Y-134663278D01*
X103827286Y-134648106D01*
X103756376Y-134515442D01*
X103707713Y-134355023D01*
X103691283Y-134188200D01*
X103707713Y-134021377D01*
X103756376Y-133860958D01*
X103835395Y-133713124D01*
X103835396Y-133713122D01*
X103941741Y-133583541D01*
X104071322Y-133477196D01*
X104164531Y-133427375D01*
X104219158Y-133398176D01*
X104379577Y-133349513D01*
X104504596Y-133337200D01*
X104588204Y-133337200D01*
X104713223Y-133349513D01*
X104713223Y-133349513D01*
G37*
G36*
X102173223Y-133349513D02*
G01*
X102333642Y-133398176D01*
X102388269Y-133427375D01*
X102481478Y-133477196D01*
X102611059Y-133583541D01*
X102717404Y-133713122D01*
X102717405Y-133713124D01*
X102796424Y-133860958D01*
X102845087Y-134021377D01*
X102861517Y-134188200D01*
X102845087Y-134355023D01*
X102796424Y-134515442D01*
X102725514Y-134648106D01*
X102717404Y-134663278D01*
X102611059Y-134792859D01*
X102481478Y-134899204D01*
X102481476Y-134899205D01*
X102333642Y-134978224D01*
X102173223Y-135026887D01*
X102048204Y-135039200D01*
X101964596Y-135039200D01*
X101839577Y-135026887D01*
X101679158Y-134978224D01*
X101531324Y-134899205D01*
X101531322Y-134899204D01*
X101401741Y-134792859D01*
X101295396Y-134663278D01*
X101287286Y-134648106D01*
X101216376Y-134515442D01*
X101167713Y-134355023D01*
X101151283Y-134188200D01*
X101167713Y-134021377D01*
X101216376Y-133860958D01*
X101295395Y-133713124D01*
X101295396Y-133713122D01*
X101401741Y-133583541D01*
X101531322Y-133477196D01*
X101624531Y-133427375D01*
X101679158Y-133398176D01*
X101839577Y-133349513D01*
X101964596Y-133337200D01*
X102048204Y-133337200D01*
X102173223Y-133349513D01*
X102173223Y-133349513D01*
G37*
G36*
X97093223Y-133349513D02*
G01*
X97253642Y-133398176D01*
X97308269Y-133427375D01*
X97401478Y-133477196D01*
X97531059Y-133583541D01*
X97637404Y-133713122D01*
X97637405Y-133713124D01*
X97716424Y-133860958D01*
X97765087Y-134021377D01*
X97781517Y-134188200D01*
X97765087Y-134355023D01*
X97716424Y-134515442D01*
X97645514Y-134648106D01*
X97637404Y-134663278D01*
X97531059Y-134792859D01*
X97401478Y-134899204D01*
X97401476Y-134899205D01*
X97253642Y-134978224D01*
X97093223Y-135026887D01*
X96968204Y-135039200D01*
X96884596Y-135039200D01*
X96759577Y-135026887D01*
X96599158Y-134978224D01*
X96451324Y-134899205D01*
X96451322Y-134899204D01*
X96321741Y-134792859D01*
X96215396Y-134663278D01*
X96207286Y-134648106D01*
X96136376Y-134515442D01*
X96087713Y-134355023D01*
X96071283Y-134188200D01*
X96087713Y-134021377D01*
X96136376Y-133860958D01*
X96215395Y-133713124D01*
X96215396Y-133713122D01*
X96321741Y-133583541D01*
X96451322Y-133477196D01*
X96544531Y-133427375D01*
X96599158Y-133398176D01*
X96759577Y-133349513D01*
X96884596Y-133337200D01*
X96968204Y-133337200D01*
X97093223Y-133349513D01*
X97093223Y-133349513D01*
G37*
G36*
X94553223Y-133349513D02*
G01*
X94713642Y-133398176D01*
X94768269Y-133427375D01*
X94861478Y-133477196D01*
X94991059Y-133583541D01*
X95097404Y-133713122D01*
X95097405Y-133713124D01*
X95176424Y-133860958D01*
X95225087Y-134021377D01*
X95241517Y-134188200D01*
X95225087Y-134355023D01*
X95176424Y-134515442D01*
X95105514Y-134648106D01*
X95097404Y-134663278D01*
X94991059Y-134792859D01*
X94861478Y-134899204D01*
X94861476Y-134899205D01*
X94713642Y-134978224D01*
X94553223Y-135026887D01*
X94428204Y-135039200D01*
X94344596Y-135039200D01*
X94219577Y-135026887D01*
X94059158Y-134978224D01*
X93911324Y-134899205D01*
X93911322Y-134899204D01*
X93781741Y-134792859D01*
X93675396Y-134663278D01*
X93667286Y-134648106D01*
X93596376Y-134515442D01*
X93547713Y-134355023D01*
X93531283Y-134188200D01*
X93547713Y-134021377D01*
X93596376Y-133860958D01*
X93675395Y-133713124D01*
X93675396Y-133713122D01*
X93781741Y-133583541D01*
X93911322Y-133477196D01*
X94004531Y-133427375D01*
X94059158Y-133398176D01*
X94219577Y-133349513D01*
X94344596Y-133337200D01*
X94428204Y-133337200D01*
X94553223Y-133349513D01*
X94553223Y-133349513D01*
G37*
G36*
X92697400Y-135039200D02*
G01*
X90995400Y-135039200D01*
X90995400Y-133337200D01*
X92697400Y-133337200D01*
X92697400Y-135039200D01*
X92697400Y-135039200D01*
G37*
G36*
X99633223Y-133349513D02*
G01*
X99793642Y-133398176D01*
X99848269Y-133427375D01*
X99941478Y-133477196D01*
X100071059Y-133583541D01*
X100177404Y-133713122D01*
X100177405Y-133713124D01*
X100256424Y-133860958D01*
X100305087Y-134021377D01*
X100321517Y-134188200D01*
X100305087Y-134355023D01*
X100256424Y-134515442D01*
X100185514Y-134648106D01*
X100177404Y-134663278D01*
X100071059Y-134792859D01*
X99941478Y-134899204D01*
X99941476Y-134899205D01*
X99793642Y-134978224D01*
X99633223Y-135026887D01*
X99508204Y-135039200D01*
X99424596Y-135039200D01*
X99299577Y-135026887D01*
X99139158Y-134978224D01*
X98991324Y-134899205D01*
X98991322Y-134899204D01*
X98861741Y-134792859D01*
X98755396Y-134663278D01*
X98747286Y-134648106D01*
X98676376Y-134515442D01*
X98627713Y-134355023D01*
X98611283Y-134188200D01*
X98627713Y-134021377D01*
X98676376Y-133860958D01*
X98755395Y-133713124D01*
X98755396Y-133713122D01*
X98861741Y-133583541D01*
X98991322Y-133477196D01*
X99084531Y-133427375D01*
X99139158Y-133398176D01*
X99299577Y-133349513D01*
X99424596Y-133337200D01*
X99508204Y-133337200D01*
X99633223Y-133349513D01*
X99633223Y-133349513D01*
G37*
G36*
X152510442Y-132709518D02*
G01*
X152576627Y-132716037D01*
X152746466Y-132767557D01*
X152902991Y-132851222D01*
X152938729Y-132880552D01*
X153040186Y-132963814D01*
X153123448Y-133065271D01*
X153152778Y-133101009D01*
X153236443Y-133257534D01*
X153287963Y-133427373D01*
X153305359Y-133604000D01*
X153287963Y-133780627D01*
X153236443Y-133950466D01*
X153152778Y-134106991D01*
X153123448Y-134142729D01*
X153040186Y-134244186D01*
X152938729Y-134327448D01*
X152902991Y-134356778D01*
X152746466Y-134440443D01*
X152576627Y-134491963D01*
X152510442Y-134498482D01*
X152444260Y-134505000D01*
X152355740Y-134505000D01*
X152289558Y-134498482D01*
X152223373Y-134491963D01*
X152053534Y-134440443D01*
X151897009Y-134356778D01*
X151861271Y-134327448D01*
X151759814Y-134244186D01*
X151676552Y-134142729D01*
X151647222Y-134106991D01*
X151563557Y-133950466D01*
X151512037Y-133780627D01*
X151494641Y-133604000D01*
X151512037Y-133427373D01*
X151563557Y-133257534D01*
X151647222Y-133101009D01*
X151676552Y-133065271D01*
X151759814Y-132963814D01*
X151861271Y-132880552D01*
X151897009Y-132851222D01*
X152053534Y-132767557D01*
X152223373Y-132716037D01*
X152289558Y-132709518D01*
X152355740Y-132703000D01*
X152444260Y-132703000D01*
X152510442Y-132709518D01*
X152510442Y-132709518D01*
G37*
G36*
X155050442Y-132709518D02*
G01*
X155116627Y-132716037D01*
X155286466Y-132767557D01*
X155442991Y-132851222D01*
X155478729Y-132880552D01*
X155580186Y-132963814D01*
X155663448Y-133065271D01*
X155692778Y-133101009D01*
X155776443Y-133257534D01*
X155827963Y-133427373D01*
X155845359Y-133604000D01*
X155827963Y-133780627D01*
X155776443Y-133950466D01*
X155692778Y-134106991D01*
X155663448Y-134142729D01*
X155580186Y-134244186D01*
X155478729Y-134327448D01*
X155442991Y-134356778D01*
X155286466Y-134440443D01*
X155116627Y-134491963D01*
X155050442Y-134498482D01*
X154984260Y-134505000D01*
X154895740Y-134505000D01*
X154829558Y-134498482D01*
X154763373Y-134491963D01*
X154593534Y-134440443D01*
X154437009Y-134356778D01*
X154401271Y-134327448D01*
X154299814Y-134244186D01*
X154216552Y-134142729D01*
X154187222Y-134106991D01*
X154103557Y-133950466D01*
X154052037Y-133780627D01*
X154034641Y-133604000D01*
X154052037Y-133427373D01*
X154103557Y-133257534D01*
X154187222Y-133101009D01*
X154216552Y-133065271D01*
X154299814Y-132963814D01*
X154401271Y-132880552D01*
X154437009Y-132851222D01*
X154593534Y-132767557D01*
X154763373Y-132716037D01*
X154829558Y-132709518D01*
X154895740Y-132703000D01*
X154984260Y-132703000D01*
X155050442Y-132709518D01*
X155050442Y-132709518D01*
G37*
G36*
X157590442Y-132709518D02*
G01*
X157656627Y-132716037D01*
X157826466Y-132767557D01*
X157982991Y-132851222D01*
X158018729Y-132880552D01*
X158120186Y-132963814D01*
X158203448Y-133065271D01*
X158232778Y-133101009D01*
X158316443Y-133257534D01*
X158367963Y-133427373D01*
X158385359Y-133604000D01*
X158367963Y-133780627D01*
X158316443Y-133950466D01*
X158232778Y-134106991D01*
X158203448Y-134142729D01*
X158120186Y-134244186D01*
X158018729Y-134327448D01*
X157982991Y-134356778D01*
X157826466Y-134440443D01*
X157656627Y-134491963D01*
X157590442Y-134498482D01*
X157524260Y-134505000D01*
X157435740Y-134505000D01*
X157369558Y-134498482D01*
X157303373Y-134491963D01*
X157133534Y-134440443D01*
X156977009Y-134356778D01*
X156941271Y-134327448D01*
X156839814Y-134244186D01*
X156756552Y-134142729D01*
X156727222Y-134106991D01*
X156643557Y-133950466D01*
X156592037Y-133780627D01*
X156574641Y-133604000D01*
X156592037Y-133427373D01*
X156643557Y-133257534D01*
X156727222Y-133101009D01*
X156756552Y-133065271D01*
X156839814Y-132963814D01*
X156941271Y-132880552D01*
X156977009Y-132851222D01*
X157133534Y-132767557D01*
X157303373Y-132716037D01*
X157369558Y-132709518D01*
X157435740Y-132703000D01*
X157524260Y-132703000D01*
X157590442Y-132709518D01*
X157590442Y-132709518D01*
G37*
G36*
X149970442Y-132709518D02*
G01*
X150036627Y-132716037D01*
X150206466Y-132767557D01*
X150362991Y-132851222D01*
X150398729Y-132880552D01*
X150500186Y-132963814D01*
X150583448Y-133065271D01*
X150612778Y-133101009D01*
X150696443Y-133257534D01*
X150747963Y-133427373D01*
X150765359Y-133604000D01*
X150747963Y-133780627D01*
X150696443Y-133950466D01*
X150612778Y-134106991D01*
X150583448Y-134142729D01*
X150500186Y-134244186D01*
X150398729Y-134327448D01*
X150362991Y-134356778D01*
X150206466Y-134440443D01*
X150036627Y-134491963D01*
X149970442Y-134498482D01*
X149904260Y-134505000D01*
X149815740Y-134505000D01*
X149749558Y-134498482D01*
X149683373Y-134491963D01*
X149513534Y-134440443D01*
X149357009Y-134356778D01*
X149321271Y-134327448D01*
X149219814Y-134244186D01*
X149136552Y-134142729D01*
X149107222Y-134106991D01*
X149023557Y-133950466D01*
X148972037Y-133780627D01*
X148954641Y-133604000D01*
X148972037Y-133427373D01*
X149023557Y-133257534D01*
X149107222Y-133101009D01*
X149136552Y-133065271D01*
X149219814Y-132963814D01*
X149321271Y-132880552D01*
X149357009Y-132851222D01*
X149513534Y-132767557D01*
X149683373Y-132716037D01*
X149749558Y-132709518D01*
X149815740Y-132703000D01*
X149904260Y-132703000D01*
X149970442Y-132709518D01*
X149970442Y-132709518D01*
G37*
G36*
X148221000Y-134505000D02*
G01*
X146419000Y-134505000D01*
X146419000Y-132703000D01*
X148221000Y-132703000D01*
X148221000Y-134505000D01*
X148221000Y-134505000D01*
G37*
G36*
X112528604Y-132424347D02*
G01*
X112565144Y-132435432D01*
X112598821Y-132453433D01*
X112628341Y-132477659D01*
X112652567Y-132507179D01*
X112670568Y-132540856D01*
X112681653Y-132577396D01*
X112686000Y-132621538D01*
X112686000Y-133570462D01*
X112681653Y-133614604D01*
X112670568Y-133651144D01*
X112652567Y-133684821D01*
X112628341Y-133714341D01*
X112598821Y-133738567D01*
X112565144Y-133756568D01*
X112528604Y-133767653D01*
X112484462Y-133772000D01*
X111035538Y-133772000D01*
X110991396Y-133767653D01*
X110954856Y-133756568D01*
X110921179Y-133738567D01*
X110891659Y-133714341D01*
X110867433Y-133684821D01*
X110849432Y-133651144D01*
X110838347Y-133614604D01*
X110834000Y-133570462D01*
X110834000Y-132621538D01*
X110838347Y-132577396D01*
X110849432Y-132540856D01*
X110867433Y-132507179D01*
X110891659Y-132477659D01*
X110921179Y-132453433D01*
X110954856Y-132435432D01*
X110991396Y-132424347D01*
X111035538Y-132420000D01*
X112484462Y-132420000D01*
X112528604Y-132424347D01*
X112528604Y-132424347D01*
G37*
G36*
X115068604Y-132424347D02*
G01*
X115105144Y-132435432D01*
X115138821Y-132453433D01*
X115168341Y-132477659D01*
X115192567Y-132507179D01*
X115210568Y-132540856D01*
X115221653Y-132577396D01*
X115226000Y-132621538D01*
X115226000Y-133570462D01*
X115221653Y-133614604D01*
X115210568Y-133651144D01*
X115192567Y-133684821D01*
X115168341Y-133714341D01*
X115138821Y-133738567D01*
X115105144Y-133756568D01*
X115068604Y-133767653D01*
X115024462Y-133772000D01*
X113575538Y-133772000D01*
X113531396Y-133767653D01*
X113494856Y-133756568D01*
X113461179Y-133738567D01*
X113431659Y-133714341D01*
X113407433Y-133684821D01*
X113389432Y-133651144D01*
X113378347Y-133614604D01*
X113374000Y-133570462D01*
X113374000Y-132621538D01*
X113378347Y-132577396D01*
X113389432Y-132540856D01*
X113407433Y-132507179D01*
X113431659Y-132477659D01*
X113461179Y-132453433D01*
X113494856Y-132435432D01*
X113531396Y-132424347D01*
X113575538Y-132420000D01*
X115024462Y-132420000D01*
X115068604Y-132424347D01*
X115068604Y-132424347D01*
G37*
G36*
X149970442Y-130169518D02*
G01*
X150036627Y-130176037D01*
X150206466Y-130227557D01*
X150362991Y-130311222D01*
X150398729Y-130340552D01*
X150500186Y-130423814D01*
X150583448Y-130525271D01*
X150612778Y-130561009D01*
X150696443Y-130717534D01*
X150747963Y-130887373D01*
X150765359Y-131064000D01*
X150747963Y-131240627D01*
X150696443Y-131410466D01*
X150612778Y-131566991D01*
X150583448Y-131602729D01*
X150500186Y-131704186D01*
X150398729Y-131787448D01*
X150362991Y-131816778D01*
X150206466Y-131900443D01*
X150036627Y-131951963D01*
X149970443Y-131958481D01*
X149904260Y-131965000D01*
X149815740Y-131965000D01*
X149749557Y-131958481D01*
X149683373Y-131951963D01*
X149513534Y-131900443D01*
X149357009Y-131816778D01*
X149321271Y-131787448D01*
X149219814Y-131704186D01*
X149136552Y-131602729D01*
X149107222Y-131566991D01*
X149023557Y-131410466D01*
X148972037Y-131240627D01*
X148954641Y-131064000D01*
X148972037Y-130887373D01*
X149023557Y-130717534D01*
X149107222Y-130561009D01*
X149136552Y-130525271D01*
X149219814Y-130423814D01*
X149321271Y-130340552D01*
X149357009Y-130311222D01*
X149513534Y-130227557D01*
X149683373Y-130176037D01*
X149749558Y-130169518D01*
X149815740Y-130163000D01*
X149904260Y-130163000D01*
X149970442Y-130169518D01*
X149970442Y-130169518D01*
G37*
G36*
X152510442Y-130169518D02*
G01*
X152576627Y-130176037D01*
X152746466Y-130227557D01*
X152902991Y-130311222D01*
X152938729Y-130340552D01*
X153040186Y-130423814D01*
X153123448Y-130525271D01*
X153152778Y-130561009D01*
X153236443Y-130717534D01*
X153287963Y-130887373D01*
X153305359Y-131064000D01*
X153287963Y-131240627D01*
X153236443Y-131410466D01*
X153152778Y-131566991D01*
X153123448Y-131602729D01*
X153040186Y-131704186D01*
X152938729Y-131787448D01*
X152902991Y-131816778D01*
X152746466Y-131900443D01*
X152576627Y-131951963D01*
X152510443Y-131958481D01*
X152444260Y-131965000D01*
X152355740Y-131965000D01*
X152289557Y-131958481D01*
X152223373Y-131951963D01*
X152053534Y-131900443D01*
X151897009Y-131816778D01*
X151861271Y-131787448D01*
X151759814Y-131704186D01*
X151676552Y-131602729D01*
X151647222Y-131566991D01*
X151563557Y-131410466D01*
X151512037Y-131240627D01*
X151494641Y-131064000D01*
X151512037Y-130887373D01*
X151563557Y-130717534D01*
X151647222Y-130561009D01*
X151676552Y-130525271D01*
X151759814Y-130423814D01*
X151861271Y-130340552D01*
X151897009Y-130311222D01*
X152053534Y-130227557D01*
X152223373Y-130176037D01*
X152289558Y-130169518D01*
X152355740Y-130163000D01*
X152444260Y-130163000D01*
X152510442Y-130169518D01*
X152510442Y-130169518D01*
G37*
G36*
X147430442Y-130169518D02*
G01*
X147496627Y-130176037D01*
X147666466Y-130227557D01*
X147822991Y-130311222D01*
X147858729Y-130340552D01*
X147960186Y-130423814D01*
X148043448Y-130525271D01*
X148072778Y-130561009D01*
X148156443Y-130717534D01*
X148207963Y-130887373D01*
X148225359Y-131064000D01*
X148207963Y-131240627D01*
X148156443Y-131410466D01*
X148072778Y-131566991D01*
X148043448Y-131602729D01*
X147960186Y-131704186D01*
X147858729Y-131787448D01*
X147822991Y-131816778D01*
X147666466Y-131900443D01*
X147496627Y-131951963D01*
X147430443Y-131958481D01*
X147364260Y-131965000D01*
X147275740Y-131965000D01*
X147209557Y-131958481D01*
X147143373Y-131951963D01*
X146973534Y-131900443D01*
X146817009Y-131816778D01*
X146781271Y-131787448D01*
X146679814Y-131704186D01*
X146596552Y-131602729D01*
X146567222Y-131566991D01*
X146483557Y-131410466D01*
X146432037Y-131240627D01*
X146414641Y-131064000D01*
X146432037Y-130887373D01*
X146483557Y-130717534D01*
X146567222Y-130561009D01*
X146596552Y-130525271D01*
X146679814Y-130423814D01*
X146781271Y-130340552D01*
X146817009Y-130311222D01*
X146973534Y-130227557D01*
X147143373Y-130176037D01*
X147209558Y-130169518D01*
X147275740Y-130163000D01*
X147364260Y-130163000D01*
X147430442Y-130169518D01*
X147430442Y-130169518D01*
G37*
G36*
X155050442Y-130169518D02*
G01*
X155116627Y-130176037D01*
X155286466Y-130227557D01*
X155442991Y-130311222D01*
X155478729Y-130340552D01*
X155580186Y-130423814D01*
X155663448Y-130525271D01*
X155692778Y-130561009D01*
X155776443Y-130717534D01*
X155827963Y-130887373D01*
X155845359Y-131064000D01*
X155827963Y-131240627D01*
X155776443Y-131410466D01*
X155692778Y-131566991D01*
X155663448Y-131602729D01*
X155580186Y-131704186D01*
X155478729Y-131787448D01*
X155442991Y-131816778D01*
X155286466Y-131900443D01*
X155116627Y-131951963D01*
X155050443Y-131958481D01*
X154984260Y-131965000D01*
X154895740Y-131965000D01*
X154829557Y-131958481D01*
X154763373Y-131951963D01*
X154593534Y-131900443D01*
X154437009Y-131816778D01*
X154401271Y-131787448D01*
X154299814Y-131704186D01*
X154216552Y-131602729D01*
X154187222Y-131566991D01*
X154103557Y-131410466D01*
X154052037Y-131240627D01*
X154034641Y-131064000D01*
X154052037Y-130887373D01*
X154103557Y-130717534D01*
X154187222Y-130561009D01*
X154216552Y-130525271D01*
X154299814Y-130423814D01*
X154401271Y-130340552D01*
X154437009Y-130311222D01*
X154593534Y-130227557D01*
X154763373Y-130176037D01*
X154829558Y-130169518D01*
X154895740Y-130163000D01*
X154984260Y-130163000D01*
X155050442Y-130169518D01*
X155050442Y-130169518D01*
G37*
G36*
X157590442Y-130169518D02*
G01*
X157656627Y-130176037D01*
X157826466Y-130227557D01*
X157982991Y-130311222D01*
X158018729Y-130340552D01*
X158120186Y-130423814D01*
X158203448Y-130525271D01*
X158232778Y-130561009D01*
X158316443Y-130717534D01*
X158367963Y-130887373D01*
X158385359Y-131064000D01*
X158367963Y-131240627D01*
X158316443Y-131410466D01*
X158232778Y-131566991D01*
X158203448Y-131602729D01*
X158120186Y-131704186D01*
X158018729Y-131787448D01*
X157982991Y-131816778D01*
X157826466Y-131900443D01*
X157656627Y-131951963D01*
X157590443Y-131958481D01*
X157524260Y-131965000D01*
X157435740Y-131965000D01*
X157369557Y-131958481D01*
X157303373Y-131951963D01*
X157133534Y-131900443D01*
X156977009Y-131816778D01*
X156941271Y-131787448D01*
X156839814Y-131704186D01*
X156756552Y-131602729D01*
X156727222Y-131566991D01*
X156643557Y-131410466D01*
X156592037Y-131240627D01*
X156574641Y-131064000D01*
X156592037Y-130887373D01*
X156643557Y-130717534D01*
X156727222Y-130561009D01*
X156756552Y-130525271D01*
X156839814Y-130423814D01*
X156941271Y-130340552D01*
X156977009Y-130311222D01*
X157133534Y-130227557D01*
X157303373Y-130176037D01*
X157369558Y-130169518D01*
X157435740Y-130163000D01*
X157524260Y-130163000D01*
X157590442Y-130169518D01*
X157590442Y-130169518D01*
G37*
G36*
X115068604Y-129624347D02*
G01*
X115105144Y-129635432D01*
X115138821Y-129653433D01*
X115168341Y-129677659D01*
X115192567Y-129707179D01*
X115210568Y-129740856D01*
X115221653Y-129777396D01*
X115226000Y-129821538D01*
X115226000Y-130770462D01*
X115221653Y-130814604D01*
X115210568Y-130851144D01*
X115192567Y-130884821D01*
X115168341Y-130914341D01*
X115138821Y-130938567D01*
X115105144Y-130956568D01*
X115068604Y-130967653D01*
X115024462Y-130972000D01*
X113575538Y-130972000D01*
X113531396Y-130967653D01*
X113494856Y-130956568D01*
X113461179Y-130938567D01*
X113431659Y-130914341D01*
X113407433Y-130884821D01*
X113389432Y-130851144D01*
X113378347Y-130814604D01*
X113374000Y-130770462D01*
X113374000Y-129821538D01*
X113378347Y-129777396D01*
X113389432Y-129740856D01*
X113407433Y-129707179D01*
X113431659Y-129677659D01*
X113461179Y-129653433D01*
X113494856Y-129635432D01*
X113531396Y-129624347D01*
X113575538Y-129620000D01*
X115024462Y-129620000D01*
X115068604Y-129624347D01*
X115068604Y-129624347D01*
G37*
G36*
X112528604Y-129624347D02*
G01*
X112565144Y-129635432D01*
X112598821Y-129653433D01*
X112628341Y-129677659D01*
X112652567Y-129707179D01*
X112670568Y-129740856D01*
X112681653Y-129777396D01*
X112686000Y-129821538D01*
X112686000Y-130770462D01*
X112681653Y-130814604D01*
X112670568Y-130851144D01*
X112652567Y-130884821D01*
X112628341Y-130914341D01*
X112598821Y-130938567D01*
X112565144Y-130956568D01*
X112528604Y-130967653D01*
X112484462Y-130972000D01*
X111035538Y-130972000D01*
X110991396Y-130967653D01*
X110954856Y-130956568D01*
X110921179Y-130938567D01*
X110891659Y-130914341D01*
X110867433Y-130884821D01*
X110849432Y-130851144D01*
X110838347Y-130814604D01*
X110834000Y-130770462D01*
X110834000Y-129821538D01*
X110838347Y-129777396D01*
X110849432Y-129740856D01*
X110867433Y-129707179D01*
X110891659Y-129677659D01*
X110921179Y-129653433D01*
X110954856Y-129635432D01*
X110991396Y-129624347D01*
X111035538Y-129620000D01*
X112484462Y-129620000D01*
X112528604Y-129624347D01*
X112528604Y-129624347D01*
G37*
G36*
X131174443Y-128645519D02*
G01*
X131240627Y-128652037D01*
X131410466Y-128703557D01*
X131566991Y-128787222D01*
X131602729Y-128816552D01*
X131704186Y-128899814D01*
X131787448Y-129001271D01*
X131816778Y-129037009D01*
X131900443Y-129193534D01*
X131951963Y-129363373D01*
X131969359Y-129540000D01*
X131951963Y-129716627D01*
X131900443Y-129886466D01*
X131816778Y-130042991D01*
X131787448Y-130078729D01*
X131704186Y-130180186D01*
X131602729Y-130263448D01*
X131566991Y-130292778D01*
X131410466Y-130376443D01*
X131240627Y-130427963D01*
X131174443Y-130434481D01*
X131108260Y-130441000D01*
X131019740Y-130441000D01*
X130953557Y-130434481D01*
X130887373Y-130427963D01*
X130717534Y-130376443D01*
X130561009Y-130292778D01*
X130525271Y-130263448D01*
X130423814Y-130180186D01*
X130340552Y-130078729D01*
X130311222Y-130042991D01*
X130227557Y-129886466D01*
X130176037Y-129716627D01*
X130158641Y-129540000D01*
X130176037Y-129363373D01*
X130227557Y-129193534D01*
X130311222Y-129037009D01*
X130340552Y-129001271D01*
X130423814Y-128899814D01*
X130525271Y-128816552D01*
X130561009Y-128787222D01*
X130717534Y-128703557D01*
X130887373Y-128652037D01*
X130953557Y-128645519D01*
X131019740Y-128639000D01*
X131108260Y-128639000D01*
X131174443Y-128645519D01*
X131174443Y-128645519D01*
G37*
G36*
X128634443Y-128645519D02*
G01*
X128700627Y-128652037D01*
X128870466Y-128703557D01*
X129026991Y-128787222D01*
X129062729Y-128816552D01*
X129164186Y-128899814D01*
X129247448Y-129001271D01*
X129276778Y-129037009D01*
X129360443Y-129193534D01*
X129411963Y-129363373D01*
X129429359Y-129540000D01*
X129411963Y-129716627D01*
X129360443Y-129886466D01*
X129276778Y-130042991D01*
X129247448Y-130078729D01*
X129164186Y-130180186D01*
X129062729Y-130263448D01*
X129026991Y-130292778D01*
X128870466Y-130376443D01*
X128700627Y-130427963D01*
X128634443Y-130434481D01*
X128568260Y-130441000D01*
X128479740Y-130441000D01*
X128413557Y-130434481D01*
X128347373Y-130427963D01*
X128177534Y-130376443D01*
X128021009Y-130292778D01*
X127985271Y-130263448D01*
X127883814Y-130180186D01*
X127800552Y-130078729D01*
X127771222Y-130042991D01*
X127687557Y-129886466D01*
X127636037Y-129716627D01*
X127618641Y-129540000D01*
X127636037Y-129363373D01*
X127687557Y-129193534D01*
X127771222Y-129037009D01*
X127800552Y-129001271D01*
X127883814Y-128899814D01*
X127985271Y-128816552D01*
X128021009Y-128787222D01*
X128177534Y-128703557D01*
X128347373Y-128652037D01*
X128413557Y-128645519D01*
X128479740Y-128639000D01*
X128568260Y-128639000D01*
X128634443Y-128645519D01*
X128634443Y-128645519D01*
G37*
G36*
X123554443Y-128645519D02*
G01*
X123620627Y-128652037D01*
X123790466Y-128703557D01*
X123946991Y-128787222D01*
X123982729Y-128816552D01*
X124084186Y-128899814D01*
X124167448Y-129001271D01*
X124196778Y-129037009D01*
X124280443Y-129193534D01*
X124331963Y-129363373D01*
X124349359Y-129540000D01*
X124331963Y-129716627D01*
X124280443Y-129886466D01*
X124196778Y-130042991D01*
X124167448Y-130078729D01*
X124084186Y-130180186D01*
X123982729Y-130263448D01*
X123946991Y-130292778D01*
X123790466Y-130376443D01*
X123620627Y-130427963D01*
X123554443Y-130434481D01*
X123488260Y-130441000D01*
X123399740Y-130441000D01*
X123333557Y-130434481D01*
X123267373Y-130427963D01*
X123097534Y-130376443D01*
X122941009Y-130292778D01*
X122905271Y-130263448D01*
X122803814Y-130180186D01*
X122720552Y-130078729D01*
X122691222Y-130042991D01*
X122607557Y-129886466D01*
X122556037Y-129716627D01*
X122538641Y-129540000D01*
X122556037Y-129363373D01*
X122607557Y-129193534D01*
X122691222Y-129037009D01*
X122720552Y-129001271D01*
X122803814Y-128899814D01*
X122905271Y-128816552D01*
X122941009Y-128787222D01*
X123097534Y-128703557D01*
X123267373Y-128652037D01*
X123333557Y-128645519D01*
X123399740Y-128639000D01*
X123488260Y-128639000D01*
X123554443Y-128645519D01*
X123554443Y-128645519D01*
G37*
G36*
X121805000Y-130441000D02*
G01*
X120003000Y-130441000D01*
X120003000Y-128639000D01*
X121805000Y-128639000D01*
X121805000Y-130441000D01*
X121805000Y-130441000D01*
G37*
G36*
X126094443Y-128645519D02*
G01*
X126160627Y-128652037D01*
X126330466Y-128703557D01*
X126486991Y-128787222D01*
X126522729Y-128816552D01*
X126624186Y-128899814D01*
X126707448Y-129001271D01*
X126736778Y-129037009D01*
X126820443Y-129193534D01*
X126871963Y-129363373D01*
X126889359Y-129540000D01*
X126871963Y-129716627D01*
X126820443Y-129886466D01*
X126736778Y-130042991D01*
X126707448Y-130078729D01*
X126624186Y-130180186D01*
X126522729Y-130263448D01*
X126486991Y-130292778D01*
X126330466Y-130376443D01*
X126160627Y-130427963D01*
X126094443Y-130434481D01*
X126028260Y-130441000D01*
X125939740Y-130441000D01*
X125873557Y-130434481D01*
X125807373Y-130427963D01*
X125637534Y-130376443D01*
X125481009Y-130292778D01*
X125445271Y-130263448D01*
X125343814Y-130180186D01*
X125260552Y-130078729D01*
X125231222Y-130042991D01*
X125147557Y-129886466D01*
X125096037Y-129716627D01*
X125078641Y-129540000D01*
X125096037Y-129363373D01*
X125147557Y-129193534D01*
X125231222Y-129037009D01*
X125260552Y-129001271D01*
X125343814Y-128899814D01*
X125445271Y-128816552D01*
X125481009Y-128787222D01*
X125637534Y-128703557D01*
X125807373Y-128652037D01*
X125873557Y-128645519D01*
X125939740Y-128639000D01*
X126028260Y-128639000D01*
X126094443Y-128645519D01*
X126094443Y-128645519D01*
G37*
G36*
X123554443Y-126105519D02*
G01*
X123620627Y-126112037D01*
X123790466Y-126163557D01*
X123946991Y-126247222D01*
X123982729Y-126276552D01*
X124084186Y-126359814D01*
X124167448Y-126461271D01*
X124196778Y-126497009D01*
X124280443Y-126653534D01*
X124331963Y-126823373D01*
X124349359Y-127000000D01*
X124331963Y-127176627D01*
X124280443Y-127346466D01*
X124196778Y-127502991D01*
X124167448Y-127538729D01*
X124084186Y-127640186D01*
X123982729Y-127723448D01*
X123946991Y-127752778D01*
X123790466Y-127836443D01*
X123620627Y-127887963D01*
X123554442Y-127894482D01*
X123488260Y-127901000D01*
X123399740Y-127901000D01*
X123333558Y-127894482D01*
X123267373Y-127887963D01*
X123097534Y-127836443D01*
X122941009Y-127752778D01*
X122905271Y-127723448D01*
X122803814Y-127640186D01*
X122720552Y-127538729D01*
X122691222Y-127502991D01*
X122607557Y-127346466D01*
X122556037Y-127176627D01*
X122538641Y-127000000D01*
X122556037Y-126823373D01*
X122607557Y-126653534D01*
X122691222Y-126497009D01*
X122720552Y-126461271D01*
X122803814Y-126359814D01*
X122905271Y-126276552D01*
X122941009Y-126247222D01*
X123097534Y-126163557D01*
X123267373Y-126112037D01*
X123333557Y-126105519D01*
X123399740Y-126099000D01*
X123488260Y-126099000D01*
X123554443Y-126105519D01*
X123554443Y-126105519D01*
G37*
G36*
X126094443Y-126105519D02*
G01*
X126160627Y-126112037D01*
X126330466Y-126163557D01*
X126486991Y-126247222D01*
X126522729Y-126276552D01*
X126624186Y-126359814D01*
X126707448Y-126461271D01*
X126736778Y-126497009D01*
X126820443Y-126653534D01*
X126871963Y-126823373D01*
X126889359Y-127000000D01*
X126871963Y-127176627D01*
X126820443Y-127346466D01*
X126736778Y-127502991D01*
X126707448Y-127538729D01*
X126624186Y-127640186D01*
X126522729Y-127723448D01*
X126486991Y-127752778D01*
X126330466Y-127836443D01*
X126160627Y-127887963D01*
X126094442Y-127894482D01*
X126028260Y-127901000D01*
X125939740Y-127901000D01*
X125873558Y-127894482D01*
X125807373Y-127887963D01*
X125637534Y-127836443D01*
X125481009Y-127752778D01*
X125445271Y-127723448D01*
X125343814Y-127640186D01*
X125260552Y-127538729D01*
X125231222Y-127502991D01*
X125147557Y-127346466D01*
X125096037Y-127176627D01*
X125078641Y-127000000D01*
X125096037Y-126823373D01*
X125147557Y-126653534D01*
X125231222Y-126497009D01*
X125260552Y-126461271D01*
X125343814Y-126359814D01*
X125445271Y-126276552D01*
X125481009Y-126247222D01*
X125637534Y-126163557D01*
X125807373Y-126112037D01*
X125873557Y-126105519D01*
X125939740Y-126099000D01*
X126028260Y-126099000D01*
X126094443Y-126105519D01*
X126094443Y-126105519D01*
G37*
G36*
X121014443Y-126105519D02*
G01*
X121080627Y-126112037D01*
X121250466Y-126163557D01*
X121406991Y-126247222D01*
X121442729Y-126276552D01*
X121544186Y-126359814D01*
X121627448Y-126461271D01*
X121656778Y-126497009D01*
X121740443Y-126653534D01*
X121791963Y-126823373D01*
X121809359Y-127000000D01*
X121791963Y-127176627D01*
X121740443Y-127346466D01*
X121656778Y-127502991D01*
X121627448Y-127538729D01*
X121544186Y-127640186D01*
X121442729Y-127723448D01*
X121406991Y-127752778D01*
X121250466Y-127836443D01*
X121080627Y-127887963D01*
X121014442Y-127894482D01*
X120948260Y-127901000D01*
X120859740Y-127901000D01*
X120793558Y-127894482D01*
X120727373Y-127887963D01*
X120557534Y-127836443D01*
X120401009Y-127752778D01*
X120365271Y-127723448D01*
X120263814Y-127640186D01*
X120180552Y-127538729D01*
X120151222Y-127502991D01*
X120067557Y-127346466D01*
X120016037Y-127176627D01*
X119998641Y-127000000D01*
X120016037Y-126823373D01*
X120067557Y-126653534D01*
X120151222Y-126497009D01*
X120180552Y-126461271D01*
X120263814Y-126359814D01*
X120365271Y-126276552D01*
X120401009Y-126247222D01*
X120557534Y-126163557D01*
X120727373Y-126112037D01*
X120793557Y-126105519D01*
X120859740Y-126099000D01*
X120948260Y-126099000D01*
X121014443Y-126105519D01*
X121014443Y-126105519D01*
G37*
G36*
X128634443Y-126105519D02*
G01*
X128700627Y-126112037D01*
X128870466Y-126163557D01*
X129026991Y-126247222D01*
X129062729Y-126276552D01*
X129164186Y-126359814D01*
X129247448Y-126461271D01*
X129276778Y-126497009D01*
X129360443Y-126653534D01*
X129411963Y-126823373D01*
X129429359Y-127000000D01*
X129411963Y-127176627D01*
X129360443Y-127346466D01*
X129276778Y-127502991D01*
X129247448Y-127538729D01*
X129164186Y-127640186D01*
X129062729Y-127723448D01*
X129026991Y-127752778D01*
X128870466Y-127836443D01*
X128700627Y-127887963D01*
X128634442Y-127894482D01*
X128568260Y-127901000D01*
X128479740Y-127901000D01*
X128413558Y-127894482D01*
X128347373Y-127887963D01*
X128177534Y-127836443D01*
X128021009Y-127752778D01*
X127985271Y-127723448D01*
X127883814Y-127640186D01*
X127800552Y-127538729D01*
X127771222Y-127502991D01*
X127687557Y-127346466D01*
X127636037Y-127176627D01*
X127618641Y-127000000D01*
X127636037Y-126823373D01*
X127687557Y-126653534D01*
X127771222Y-126497009D01*
X127800552Y-126461271D01*
X127883814Y-126359814D01*
X127985271Y-126276552D01*
X128021009Y-126247222D01*
X128177534Y-126163557D01*
X128347373Y-126112037D01*
X128413557Y-126105519D01*
X128479740Y-126099000D01*
X128568260Y-126099000D01*
X128634443Y-126105519D01*
X128634443Y-126105519D01*
G37*
G36*
X131174443Y-126105519D02*
G01*
X131240627Y-126112037D01*
X131410466Y-126163557D01*
X131566991Y-126247222D01*
X131602729Y-126276552D01*
X131704186Y-126359814D01*
X131787448Y-126461271D01*
X131816778Y-126497009D01*
X131900443Y-126653534D01*
X131951963Y-126823373D01*
X131969359Y-127000000D01*
X131951963Y-127176627D01*
X131900443Y-127346466D01*
X131816778Y-127502991D01*
X131787448Y-127538729D01*
X131704186Y-127640186D01*
X131602729Y-127723448D01*
X131566991Y-127752778D01*
X131410466Y-127836443D01*
X131240627Y-127887963D01*
X131174442Y-127894482D01*
X131108260Y-127901000D01*
X131019740Y-127901000D01*
X130953558Y-127894482D01*
X130887373Y-127887963D01*
X130717534Y-127836443D01*
X130561009Y-127752778D01*
X130525271Y-127723448D01*
X130423814Y-127640186D01*
X130340552Y-127538729D01*
X130311222Y-127502991D01*
X130227557Y-127346466D01*
X130176037Y-127176627D01*
X130158641Y-127000000D01*
X130176037Y-126823373D01*
X130227557Y-126653534D01*
X130311222Y-126497009D01*
X130340552Y-126461271D01*
X130423814Y-126359814D01*
X130525271Y-126276552D01*
X130561009Y-126247222D01*
X130717534Y-126163557D01*
X130887373Y-126112037D01*
X130953557Y-126105519D01*
X131019740Y-126099000D01*
X131108260Y-126099000D01*
X131174443Y-126105519D01*
X131174443Y-126105519D01*
G37*
G36*
X94553223Y-125729513D02*
G01*
X94713642Y-125778176D01*
X94846306Y-125849086D01*
X94861478Y-125857196D01*
X94991059Y-125963541D01*
X95097404Y-126093122D01*
X95097405Y-126093124D01*
X95176424Y-126240958D01*
X95225087Y-126401377D01*
X95241517Y-126568200D01*
X95225087Y-126735023D01*
X95176424Y-126895442D01*
X95105514Y-127028106D01*
X95097404Y-127043278D01*
X94991059Y-127172859D01*
X94861478Y-127279204D01*
X94861476Y-127279205D01*
X94713642Y-127358224D01*
X94553223Y-127406887D01*
X94428204Y-127419200D01*
X94344596Y-127419200D01*
X94219577Y-127406887D01*
X94059158Y-127358224D01*
X93911324Y-127279205D01*
X93911322Y-127279204D01*
X93781741Y-127172859D01*
X93675396Y-127043278D01*
X93667286Y-127028106D01*
X93596376Y-126895442D01*
X93547713Y-126735023D01*
X93531283Y-126568200D01*
X93547713Y-126401377D01*
X93596376Y-126240958D01*
X93675395Y-126093124D01*
X93675396Y-126093122D01*
X93781741Y-125963541D01*
X93911322Y-125857196D01*
X93926494Y-125849086D01*
X94059158Y-125778176D01*
X94219577Y-125729513D01*
X94344596Y-125717200D01*
X94428204Y-125717200D01*
X94553223Y-125729513D01*
X94553223Y-125729513D01*
G37*
G36*
X97093223Y-125729513D02*
G01*
X97253642Y-125778176D01*
X97386306Y-125849086D01*
X97401478Y-125857196D01*
X97531059Y-125963541D01*
X97637404Y-126093122D01*
X97637405Y-126093124D01*
X97716424Y-126240958D01*
X97765087Y-126401377D01*
X97781517Y-126568200D01*
X97765087Y-126735023D01*
X97716424Y-126895442D01*
X97645514Y-127028106D01*
X97637404Y-127043278D01*
X97531059Y-127172859D01*
X97401478Y-127279204D01*
X97401476Y-127279205D01*
X97253642Y-127358224D01*
X97093223Y-127406887D01*
X96968204Y-127419200D01*
X96884596Y-127419200D01*
X96759577Y-127406887D01*
X96599158Y-127358224D01*
X96451324Y-127279205D01*
X96451322Y-127279204D01*
X96321741Y-127172859D01*
X96215396Y-127043278D01*
X96207286Y-127028106D01*
X96136376Y-126895442D01*
X96087713Y-126735023D01*
X96071283Y-126568200D01*
X96087713Y-126401377D01*
X96136376Y-126240958D01*
X96215395Y-126093124D01*
X96215396Y-126093122D01*
X96321741Y-125963541D01*
X96451322Y-125857196D01*
X96466494Y-125849086D01*
X96599158Y-125778176D01*
X96759577Y-125729513D01*
X96884596Y-125717200D01*
X96968204Y-125717200D01*
X97093223Y-125729513D01*
X97093223Y-125729513D01*
G37*
G36*
X99633223Y-125729513D02*
G01*
X99793642Y-125778176D01*
X99926306Y-125849086D01*
X99941478Y-125857196D01*
X100071059Y-125963541D01*
X100177404Y-126093122D01*
X100177405Y-126093124D01*
X100256424Y-126240958D01*
X100305087Y-126401377D01*
X100321517Y-126568200D01*
X100305087Y-126735023D01*
X100256424Y-126895442D01*
X100185514Y-127028106D01*
X100177404Y-127043278D01*
X100071059Y-127172859D01*
X99941478Y-127279204D01*
X99941476Y-127279205D01*
X99793642Y-127358224D01*
X99633223Y-127406887D01*
X99508204Y-127419200D01*
X99424596Y-127419200D01*
X99299577Y-127406887D01*
X99139158Y-127358224D01*
X98991324Y-127279205D01*
X98991322Y-127279204D01*
X98861741Y-127172859D01*
X98755396Y-127043278D01*
X98747286Y-127028106D01*
X98676376Y-126895442D01*
X98627713Y-126735023D01*
X98611283Y-126568200D01*
X98627713Y-126401377D01*
X98676376Y-126240958D01*
X98755395Y-126093124D01*
X98755396Y-126093122D01*
X98861741Y-125963541D01*
X98991322Y-125857196D01*
X99006494Y-125849086D01*
X99139158Y-125778176D01*
X99299577Y-125729513D01*
X99424596Y-125717200D01*
X99508204Y-125717200D01*
X99633223Y-125729513D01*
X99633223Y-125729513D01*
G37*
G36*
X104713223Y-125729513D02*
G01*
X104873642Y-125778176D01*
X105006306Y-125849086D01*
X105021478Y-125857196D01*
X105151059Y-125963541D01*
X105257404Y-126093122D01*
X105257405Y-126093124D01*
X105336424Y-126240958D01*
X105385087Y-126401377D01*
X105401517Y-126568200D01*
X105385087Y-126735023D01*
X105336424Y-126895442D01*
X105265514Y-127028106D01*
X105257404Y-127043278D01*
X105151059Y-127172859D01*
X105021478Y-127279204D01*
X105021476Y-127279205D01*
X104873642Y-127358224D01*
X104713223Y-127406887D01*
X104588204Y-127419200D01*
X104504596Y-127419200D01*
X104379577Y-127406887D01*
X104219158Y-127358224D01*
X104071324Y-127279205D01*
X104071322Y-127279204D01*
X103941741Y-127172859D01*
X103835396Y-127043278D01*
X103827286Y-127028106D01*
X103756376Y-126895442D01*
X103707713Y-126735023D01*
X103691283Y-126568200D01*
X103707713Y-126401377D01*
X103756376Y-126240958D01*
X103835395Y-126093124D01*
X103835396Y-126093122D01*
X103941741Y-125963541D01*
X104071322Y-125857196D01*
X104086494Y-125849086D01*
X104219158Y-125778176D01*
X104379577Y-125729513D01*
X104504596Y-125717200D01*
X104588204Y-125717200D01*
X104713223Y-125729513D01*
X104713223Y-125729513D01*
G37*
G36*
X107253223Y-125729513D02*
G01*
X107413642Y-125778176D01*
X107546306Y-125849086D01*
X107561478Y-125857196D01*
X107691059Y-125963541D01*
X107797404Y-126093122D01*
X107797405Y-126093124D01*
X107876424Y-126240958D01*
X107925087Y-126401377D01*
X107941517Y-126568200D01*
X107925087Y-126735023D01*
X107876424Y-126895442D01*
X107805514Y-127028106D01*
X107797404Y-127043278D01*
X107691059Y-127172859D01*
X107561478Y-127279204D01*
X107561476Y-127279205D01*
X107413642Y-127358224D01*
X107253223Y-127406887D01*
X107128204Y-127419200D01*
X107044596Y-127419200D01*
X106919577Y-127406887D01*
X106759158Y-127358224D01*
X106611324Y-127279205D01*
X106611322Y-127279204D01*
X106481741Y-127172859D01*
X106375396Y-127043278D01*
X106367286Y-127028106D01*
X106296376Y-126895442D01*
X106247713Y-126735023D01*
X106231283Y-126568200D01*
X106247713Y-126401377D01*
X106296376Y-126240958D01*
X106375395Y-126093124D01*
X106375396Y-126093122D01*
X106481741Y-125963541D01*
X106611322Y-125857196D01*
X106626494Y-125849086D01*
X106759158Y-125778176D01*
X106919577Y-125729513D01*
X107044596Y-125717200D01*
X107128204Y-125717200D01*
X107253223Y-125729513D01*
X107253223Y-125729513D01*
G37*
G36*
X92013223Y-125729513D02*
G01*
X92173642Y-125778176D01*
X92306306Y-125849086D01*
X92321478Y-125857196D01*
X92451059Y-125963541D01*
X92557404Y-126093122D01*
X92557405Y-126093124D01*
X92636424Y-126240958D01*
X92685087Y-126401377D01*
X92701517Y-126568200D01*
X92685087Y-126735023D01*
X92636424Y-126895442D01*
X92565514Y-127028106D01*
X92557404Y-127043278D01*
X92451059Y-127172859D01*
X92321478Y-127279204D01*
X92321476Y-127279205D01*
X92173642Y-127358224D01*
X92013223Y-127406887D01*
X91888204Y-127419200D01*
X91804596Y-127419200D01*
X91679577Y-127406887D01*
X91519158Y-127358224D01*
X91371324Y-127279205D01*
X91371322Y-127279204D01*
X91241741Y-127172859D01*
X91135396Y-127043278D01*
X91127286Y-127028106D01*
X91056376Y-126895442D01*
X91007713Y-126735023D01*
X90991283Y-126568200D01*
X91007713Y-126401377D01*
X91056376Y-126240958D01*
X91135395Y-126093124D01*
X91135396Y-126093122D01*
X91241741Y-125963541D01*
X91371322Y-125857196D01*
X91386494Y-125849086D01*
X91519158Y-125778176D01*
X91679577Y-125729513D01*
X91804596Y-125717200D01*
X91888204Y-125717200D01*
X92013223Y-125729513D01*
X92013223Y-125729513D01*
G37*
G36*
X102173223Y-125729513D02*
G01*
X102333642Y-125778176D01*
X102466306Y-125849086D01*
X102481478Y-125857196D01*
X102611059Y-125963541D01*
X102717404Y-126093122D01*
X102717405Y-126093124D01*
X102796424Y-126240958D01*
X102845087Y-126401377D01*
X102861517Y-126568200D01*
X102845087Y-126735023D01*
X102796424Y-126895442D01*
X102725514Y-127028106D01*
X102717404Y-127043278D01*
X102611059Y-127172859D01*
X102481478Y-127279204D01*
X102481476Y-127279205D01*
X102333642Y-127358224D01*
X102173223Y-127406887D01*
X102048204Y-127419200D01*
X101964596Y-127419200D01*
X101839577Y-127406887D01*
X101679158Y-127358224D01*
X101531324Y-127279205D01*
X101531322Y-127279204D01*
X101401741Y-127172859D01*
X101295396Y-127043278D01*
X101287286Y-127028106D01*
X101216376Y-126895442D01*
X101167713Y-126735023D01*
X101151283Y-126568200D01*
X101167713Y-126401377D01*
X101216376Y-126240958D01*
X101295395Y-126093124D01*
X101295396Y-126093122D01*
X101401741Y-125963541D01*
X101531322Y-125857196D01*
X101546494Y-125849086D01*
X101679158Y-125778176D01*
X101839577Y-125729513D01*
X101964596Y-125717200D01*
X102048204Y-125717200D01*
X102173223Y-125729513D01*
X102173223Y-125729513D01*
G37*
G36*
X107605004Y-120566547D02*
G01*
X107641544Y-120577632D01*
X107675221Y-120595633D01*
X107704741Y-120619859D01*
X107728967Y-120649379D01*
X107746968Y-120683056D01*
X107758053Y-120719596D01*
X107762400Y-120763738D01*
X107762400Y-122212662D01*
X107758053Y-122256804D01*
X107746968Y-122293344D01*
X107728967Y-122327021D01*
X107704741Y-122356541D01*
X107675221Y-122380767D01*
X107641544Y-122398768D01*
X107605004Y-122409853D01*
X107560862Y-122414200D01*
X106611938Y-122414200D01*
X106567796Y-122409853D01*
X106531256Y-122398768D01*
X106497579Y-122380767D01*
X106468059Y-122356541D01*
X106443833Y-122327021D01*
X106425832Y-122293344D01*
X106414747Y-122256804D01*
X106410400Y-122212662D01*
X106410400Y-120763738D01*
X106414747Y-120719596D01*
X106425832Y-120683056D01*
X106443833Y-120649379D01*
X106468059Y-120619859D01*
X106497579Y-120595633D01*
X106531256Y-120577632D01*
X106567796Y-120566547D01*
X106611938Y-120562200D01*
X107560862Y-120562200D01*
X107605004Y-120566547D01*
X107605004Y-120566547D01*
G37*
G36*
X104805004Y-120566547D02*
G01*
X104841544Y-120577632D01*
X104875221Y-120595633D01*
X104904741Y-120619859D01*
X104928967Y-120649379D01*
X104946968Y-120683056D01*
X104958053Y-120719596D01*
X104962400Y-120763738D01*
X104962400Y-122212662D01*
X104958053Y-122256804D01*
X104946968Y-122293344D01*
X104928967Y-122327021D01*
X104904741Y-122356541D01*
X104875221Y-122380767D01*
X104841544Y-122398768D01*
X104805004Y-122409853D01*
X104760862Y-122414200D01*
X103811938Y-122414200D01*
X103767796Y-122409853D01*
X103731256Y-122398768D01*
X103697579Y-122380767D01*
X103668059Y-122356541D01*
X103643833Y-122327021D01*
X103625832Y-122293344D01*
X103614747Y-122256804D01*
X103610400Y-122212662D01*
X103610400Y-120763738D01*
X103614747Y-120719596D01*
X103625832Y-120683056D01*
X103643833Y-120649379D01*
X103668059Y-120619859D01*
X103697579Y-120595633D01*
X103731256Y-120577632D01*
X103767796Y-120566547D01*
X103811938Y-120562200D01*
X104760862Y-120562200D01*
X104805004Y-120566547D01*
X104805004Y-120566547D01*
G37*
G36*
X121014442Y-118993518D02*
G01*
X121080627Y-119000037D01*
X121250466Y-119051557D01*
X121406991Y-119135222D01*
X121442729Y-119164552D01*
X121544186Y-119247814D01*
X121627448Y-119349271D01*
X121656778Y-119385009D01*
X121740443Y-119541534D01*
X121791963Y-119711373D01*
X121809359Y-119888000D01*
X121791963Y-120064627D01*
X121740443Y-120234466D01*
X121656778Y-120390991D01*
X121627448Y-120426729D01*
X121544186Y-120528186D01*
X121477658Y-120582783D01*
X121406991Y-120640778D01*
X121250466Y-120724443D01*
X121080627Y-120775963D01*
X121014442Y-120782482D01*
X120948260Y-120789000D01*
X120859740Y-120789000D01*
X120793558Y-120782482D01*
X120727373Y-120775963D01*
X120557534Y-120724443D01*
X120401009Y-120640778D01*
X120330342Y-120582783D01*
X120263814Y-120528186D01*
X120180552Y-120426729D01*
X120151222Y-120390991D01*
X120067557Y-120234466D01*
X120016037Y-120064627D01*
X119998641Y-119888000D01*
X120016037Y-119711373D01*
X120067557Y-119541534D01*
X120151222Y-119385009D01*
X120180552Y-119349271D01*
X120263814Y-119247814D01*
X120365271Y-119164552D01*
X120401009Y-119135222D01*
X120557534Y-119051557D01*
X120727373Y-119000037D01*
X120793558Y-118993518D01*
X120859740Y-118987000D01*
X120948260Y-118987000D01*
X121014442Y-118993518D01*
X121014442Y-118993518D01*
G37*
G36*
X123554442Y-118993518D02*
G01*
X123620627Y-119000037D01*
X123790466Y-119051557D01*
X123946991Y-119135222D01*
X123982729Y-119164552D01*
X124084186Y-119247814D01*
X124167448Y-119349271D01*
X124196778Y-119385009D01*
X124280443Y-119541534D01*
X124331963Y-119711373D01*
X124349359Y-119888000D01*
X124331963Y-120064627D01*
X124280443Y-120234466D01*
X124196778Y-120390991D01*
X124167448Y-120426729D01*
X124084186Y-120528186D01*
X124017658Y-120582783D01*
X123946991Y-120640778D01*
X123790466Y-120724443D01*
X123620627Y-120775963D01*
X123554442Y-120782482D01*
X123488260Y-120789000D01*
X123399740Y-120789000D01*
X123333558Y-120782482D01*
X123267373Y-120775963D01*
X123097534Y-120724443D01*
X122941009Y-120640778D01*
X122870342Y-120582783D01*
X122803814Y-120528186D01*
X122720552Y-120426729D01*
X122691222Y-120390991D01*
X122607557Y-120234466D01*
X122556037Y-120064627D01*
X122538641Y-119888000D01*
X122556037Y-119711373D01*
X122607557Y-119541534D01*
X122691222Y-119385009D01*
X122720552Y-119349271D01*
X122803814Y-119247814D01*
X122905271Y-119164552D01*
X122941009Y-119135222D01*
X123097534Y-119051557D01*
X123267373Y-119000037D01*
X123333558Y-118993518D01*
X123399740Y-118987000D01*
X123488260Y-118987000D01*
X123554442Y-118993518D01*
X123554442Y-118993518D01*
G37*
G36*
X129425000Y-120789000D02*
G01*
X127623000Y-120789000D01*
X127623000Y-118987000D01*
X129425000Y-118987000D01*
X129425000Y-120789000D01*
X129425000Y-120789000D01*
G37*
G36*
X148446442Y-118993518D02*
G01*
X148512627Y-119000037D01*
X148682466Y-119051557D01*
X148838991Y-119135222D01*
X148874729Y-119164552D01*
X148976186Y-119247814D01*
X149059448Y-119349271D01*
X149088778Y-119385009D01*
X149172443Y-119541534D01*
X149223963Y-119711373D01*
X149241359Y-119888000D01*
X149223963Y-120064627D01*
X149172443Y-120234466D01*
X149088778Y-120390991D01*
X149059448Y-120426729D01*
X148976186Y-120528186D01*
X148909658Y-120582783D01*
X148838991Y-120640778D01*
X148682466Y-120724443D01*
X148512627Y-120775963D01*
X148446442Y-120782482D01*
X148380260Y-120789000D01*
X148291740Y-120789000D01*
X148225558Y-120782482D01*
X148159373Y-120775963D01*
X147989534Y-120724443D01*
X147833009Y-120640778D01*
X147762342Y-120582783D01*
X147695814Y-120528186D01*
X147612552Y-120426729D01*
X147583222Y-120390991D01*
X147499557Y-120234466D01*
X147448037Y-120064627D01*
X147430641Y-119888000D01*
X147448037Y-119711373D01*
X147499557Y-119541534D01*
X147583222Y-119385009D01*
X147612552Y-119349271D01*
X147695814Y-119247814D01*
X147797271Y-119164552D01*
X147833009Y-119135222D01*
X147989534Y-119051557D01*
X148159373Y-119000037D01*
X148225558Y-118993518D01*
X148291740Y-118987000D01*
X148380260Y-118987000D01*
X148446442Y-118993518D01*
X148446442Y-118993518D01*
G37*
G36*
X153526442Y-118993518D02*
G01*
X153592627Y-119000037D01*
X153762466Y-119051557D01*
X153918991Y-119135222D01*
X153954729Y-119164552D01*
X154056186Y-119247814D01*
X154139448Y-119349271D01*
X154168778Y-119385009D01*
X154252443Y-119541534D01*
X154303963Y-119711373D01*
X154321359Y-119888000D01*
X154303963Y-120064627D01*
X154252443Y-120234466D01*
X154168778Y-120390991D01*
X154139448Y-120426729D01*
X154056186Y-120528186D01*
X153989658Y-120582783D01*
X153918991Y-120640778D01*
X153762466Y-120724443D01*
X153592627Y-120775963D01*
X153526442Y-120782482D01*
X153460260Y-120789000D01*
X153371740Y-120789000D01*
X153305558Y-120782482D01*
X153239373Y-120775963D01*
X153069534Y-120724443D01*
X152913009Y-120640778D01*
X152842342Y-120582783D01*
X152775814Y-120528186D01*
X152692552Y-120426729D01*
X152663222Y-120390991D01*
X152579557Y-120234466D01*
X152528037Y-120064627D01*
X152510641Y-119888000D01*
X152528037Y-119711373D01*
X152579557Y-119541534D01*
X152663222Y-119385009D01*
X152692552Y-119349271D01*
X152775814Y-119247814D01*
X152877271Y-119164552D01*
X152913009Y-119135222D01*
X153069534Y-119051557D01*
X153239373Y-119000037D01*
X153305558Y-118993518D01*
X153371740Y-118987000D01*
X153460260Y-118987000D01*
X153526442Y-118993518D01*
X153526442Y-118993518D01*
G37*
G36*
X150986442Y-118993518D02*
G01*
X151052627Y-119000037D01*
X151222466Y-119051557D01*
X151378991Y-119135222D01*
X151414729Y-119164552D01*
X151516186Y-119247814D01*
X151599448Y-119349271D01*
X151628778Y-119385009D01*
X151712443Y-119541534D01*
X151763963Y-119711373D01*
X151781359Y-119888000D01*
X151763963Y-120064627D01*
X151712443Y-120234466D01*
X151628778Y-120390991D01*
X151599448Y-120426729D01*
X151516186Y-120528186D01*
X151449658Y-120582783D01*
X151378991Y-120640778D01*
X151222466Y-120724443D01*
X151052627Y-120775963D01*
X150986442Y-120782482D01*
X150920260Y-120789000D01*
X150831740Y-120789000D01*
X150765558Y-120782482D01*
X150699373Y-120775963D01*
X150529534Y-120724443D01*
X150373009Y-120640778D01*
X150302342Y-120582783D01*
X150235814Y-120528186D01*
X150152552Y-120426729D01*
X150123222Y-120390991D01*
X150039557Y-120234466D01*
X149988037Y-120064627D01*
X149970641Y-119888000D01*
X149988037Y-119711373D01*
X150039557Y-119541534D01*
X150123222Y-119385009D01*
X150152552Y-119349271D01*
X150235814Y-119247814D01*
X150337271Y-119164552D01*
X150373009Y-119135222D01*
X150529534Y-119051557D01*
X150699373Y-119000037D01*
X150765558Y-118993518D01*
X150831740Y-118987000D01*
X150920260Y-118987000D01*
X150986442Y-118993518D01*
X150986442Y-118993518D01*
G37*
G36*
X156857000Y-120789000D02*
G01*
X155055000Y-120789000D01*
X155055000Y-118987000D01*
X156857000Y-118987000D01*
X156857000Y-120789000D01*
X156857000Y-120789000D01*
G37*
G36*
X126094442Y-118993518D02*
G01*
X126160627Y-119000037D01*
X126330466Y-119051557D01*
X126486991Y-119135222D01*
X126522729Y-119164552D01*
X126624186Y-119247814D01*
X126707448Y-119349271D01*
X126736778Y-119385009D01*
X126820443Y-119541534D01*
X126871963Y-119711373D01*
X126889359Y-119888000D01*
X126871963Y-120064627D01*
X126820443Y-120234466D01*
X126736778Y-120390991D01*
X126707448Y-120426729D01*
X126624186Y-120528186D01*
X126557658Y-120582783D01*
X126486991Y-120640778D01*
X126330466Y-120724443D01*
X126160627Y-120775963D01*
X126094442Y-120782482D01*
X126028260Y-120789000D01*
X125939740Y-120789000D01*
X125873558Y-120782482D01*
X125807373Y-120775963D01*
X125637534Y-120724443D01*
X125481009Y-120640778D01*
X125410342Y-120582783D01*
X125343814Y-120528186D01*
X125260552Y-120426729D01*
X125231222Y-120390991D01*
X125147557Y-120234466D01*
X125096037Y-120064627D01*
X125078641Y-119888000D01*
X125096037Y-119711373D01*
X125147557Y-119541534D01*
X125231222Y-119385009D01*
X125260552Y-119349271D01*
X125343814Y-119247814D01*
X125445271Y-119164552D01*
X125481009Y-119135222D01*
X125637534Y-119051557D01*
X125807373Y-119000037D01*
X125873558Y-118993518D01*
X125939740Y-118987000D01*
X126028260Y-118987000D01*
X126094442Y-118993518D01*
X126094442Y-118993518D01*
G37*
G36*
X97929000Y-120281000D02*
G01*
X96127000Y-120281000D01*
X96127000Y-118479000D01*
X97929000Y-118479000D01*
X97929000Y-120281000D01*
X97929000Y-120281000D01*
G37*
G36*
X99678442Y-118485518D02*
G01*
X99744627Y-118492037D01*
X99914466Y-118543557D01*
X100070991Y-118627222D01*
X100106729Y-118656552D01*
X100208186Y-118739814D01*
X100291448Y-118841271D01*
X100320778Y-118877009D01*
X100404443Y-119033534D01*
X100455963Y-119203373D01*
X100473359Y-119380000D01*
X100455963Y-119556627D01*
X100404443Y-119726466D01*
X100320778Y-119882991D01*
X100316667Y-119888000D01*
X100208186Y-120020186D01*
X100106729Y-120103448D01*
X100070991Y-120132778D01*
X99914466Y-120216443D01*
X99744627Y-120267963D01*
X99678442Y-120274482D01*
X99612260Y-120281000D01*
X99523740Y-120281000D01*
X99457558Y-120274482D01*
X99391373Y-120267963D01*
X99221534Y-120216443D01*
X99065009Y-120132778D01*
X99029271Y-120103448D01*
X98927814Y-120020186D01*
X98819333Y-119888000D01*
X98815222Y-119882991D01*
X98731557Y-119726466D01*
X98680037Y-119556627D01*
X98662641Y-119380000D01*
X98680037Y-119203373D01*
X98731557Y-119033534D01*
X98815222Y-118877009D01*
X98844552Y-118841271D01*
X98927814Y-118739814D01*
X99029271Y-118656552D01*
X99065009Y-118627222D01*
X99221534Y-118543557D01*
X99391373Y-118492037D01*
X99457558Y-118485518D01*
X99523740Y-118479000D01*
X99612260Y-118479000D01*
X99678442Y-118485518D01*
X99678442Y-118485518D01*
G37*
G36*
X104805004Y-118026547D02*
G01*
X104841544Y-118037632D01*
X104875221Y-118055633D01*
X104904741Y-118079859D01*
X104928967Y-118109379D01*
X104946968Y-118143056D01*
X104958053Y-118179596D01*
X104962400Y-118223738D01*
X104962400Y-119672662D01*
X104958053Y-119716804D01*
X104946968Y-119753344D01*
X104928967Y-119787021D01*
X104904741Y-119816541D01*
X104875221Y-119840767D01*
X104841544Y-119858768D01*
X104805004Y-119869853D01*
X104760862Y-119874200D01*
X103811938Y-119874200D01*
X103767796Y-119869853D01*
X103731256Y-119858768D01*
X103697579Y-119840767D01*
X103668059Y-119816541D01*
X103643833Y-119787021D01*
X103625832Y-119753344D01*
X103614747Y-119716804D01*
X103610400Y-119672662D01*
X103610400Y-118223738D01*
X103614747Y-118179596D01*
X103625832Y-118143056D01*
X103643833Y-118109379D01*
X103668059Y-118079859D01*
X103697579Y-118055633D01*
X103731256Y-118037632D01*
X103767796Y-118026547D01*
X103811938Y-118022200D01*
X104760862Y-118022200D01*
X104805004Y-118026547D01*
X104805004Y-118026547D01*
G37*
G36*
X107605004Y-118026547D02*
G01*
X107641544Y-118037632D01*
X107675221Y-118055633D01*
X107704741Y-118079859D01*
X107728967Y-118109379D01*
X107746968Y-118143056D01*
X107758053Y-118179596D01*
X107762400Y-118223738D01*
X107762400Y-119672662D01*
X107758053Y-119716804D01*
X107746968Y-119753344D01*
X107728967Y-119787021D01*
X107704741Y-119816541D01*
X107675221Y-119840767D01*
X107641544Y-119858768D01*
X107605004Y-119869853D01*
X107560862Y-119874200D01*
X106611938Y-119874200D01*
X106567796Y-119869853D01*
X106531256Y-119858768D01*
X106497579Y-119840767D01*
X106468059Y-119816541D01*
X106443833Y-119787021D01*
X106425832Y-119753344D01*
X106414747Y-119716804D01*
X106410400Y-119672662D01*
X106410400Y-118223738D01*
X106414747Y-118179596D01*
X106425832Y-118143056D01*
X106443833Y-118109379D01*
X106468059Y-118079859D01*
X106497579Y-118055633D01*
X106531256Y-118037632D01*
X106567796Y-118026547D01*
X106611938Y-118022200D01*
X107560862Y-118022200D01*
X107605004Y-118026547D01*
X107605004Y-118026547D01*
G37*
G36*
X92697400Y-116243200D02*
G01*
X90995400Y-116243200D01*
X90995400Y-114541200D01*
X92697400Y-114541200D01*
X92697400Y-116243200D01*
X92697400Y-116243200D01*
G37*
G36*
X107253223Y-114553513D02*
G01*
X107413642Y-114602176D01*
X107546306Y-114673086D01*
X107561478Y-114681196D01*
X107691059Y-114787541D01*
X107797404Y-114917122D01*
X107797405Y-114917124D01*
X107876424Y-115064958D01*
X107925087Y-115225377D01*
X107941517Y-115392200D01*
X107925087Y-115559023D01*
X107876424Y-115719442D01*
X107805514Y-115852106D01*
X107797404Y-115867278D01*
X107691059Y-115996859D01*
X107561478Y-116103204D01*
X107561476Y-116103205D01*
X107413642Y-116182224D01*
X107253223Y-116230887D01*
X107128204Y-116243200D01*
X107044596Y-116243200D01*
X106919577Y-116230887D01*
X106759158Y-116182224D01*
X106611324Y-116103205D01*
X106611322Y-116103204D01*
X106481741Y-115996859D01*
X106375396Y-115867278D01*
X106367286Y-115852106D01*
X106296376Y-115719442D01*
X106247713Y-115559023D01*
X106231283Y-115392200D01*
X106247713Y-115225377D01*
X106296376Y-115064958D01*
X106375395Y-114917124D01*
X106375396Y-114917122D01*
X106481741Y-114787541D01*
X106611322Y-114681196D01*
X106626494Y-114673086D01*
X106759158Y-114602176D01*
X106919577Y-114553513D01*
X107044596Y-114541200D01*
X107128204Y-114541200D01*
X107253223Y-114553513D01*
X107253223Y-114553513D01*
G37*
G36*
X104713223Y-114553513D02*
G01*
X104873642Y-114602176D01*
X105006306Y-114673086D01*
X105021478Y-114681196D01*
X105151059Y-114787541D01*
X105257404Y-114917122D01*
X105257405Y-114917124D01*
X105336424Y-115064958D01*
X105385087Y-115225377D01*
X105401517Y-115392200D01*
X105385087Y-115559023D01*
X105336424Y-115719442D01*
X105265514Y-115852106D01*
X105257404Y-115867278D01*
X105151059Y-115996859D01*
X105021478Y-116103204D01*
X105021476Y-116103205D01*
X104873642Y-116182224D01*
X104713223Y-116230887D01*
X104588204Y-116243200D01*
X104504596Y-116243200D01*
X104379577Y-116230887D01*
X104219158Y-116182224D01*
X104071324Y-116103205D01*
X104071322Y-116103204D01*
X103941741Y-115996859D01*
X103835396Y-115867278D01*
X103827286Y-115852106D01*
X103756376Y-115719442D01*
X103707713Y-115559023D01*
X103691283Y-115392200D01*
X103707713Y-115225377D01*
X103756376Y-115064958D01*
X103835395Y-114917124D01*
X103835396Y-114917122D01*
X103941741Y-114787541D01*
X104071322Y-114681196D01*
X104086494Y-114673086D01*
X104219158Y-114602176D01*
X104379577Y-114553513D01*
X104504596Y-114541200D01*
X104588204Y-114541200D01*
X104713223Y-114553513D01*
X104713223Y-114553513D01*
G37*
G36*
X99633223Y-114553513D02*
G01*
X99793642Y-114602176D01*
X99926306Y-114673086D01*
X99941478Y-114681196D01*
X100071059Y-114787541D01*
X100177404Y-114917122D01*
X100177405Y-114917124D01*
X100256424Y-115064958D01*
X100305087Y-115225377D01*
X100321517Y-115392200D01*
X100305087Y-115559023D01*
X100256424Y-115719442D01*
X100185514Y-115852106D01*
X100177404Y-115867278D01*
X100071059Y-115996859D01*
X99941478Y-116103204D01*
X99941476Y-116103205D01*
X99793642Y-116182224D01*
X99633223Y-116230887D01*
X99508204Y-116243200D01*
X99424596Y-116243200D01*
X99299577Y-116230887D01*
X99139158Y-116182224D01*
X98991324Y-116103205D01*
X98991322Y-116103204D01*
X98861741Y-115996859D01*
X98755396Y-115867278D01*
X98747286Y-115852106D01*
X98676376Y-115719442D01*
X98627713Y-115559023D01*
X98611283Y-115392200D01*
X98627713Y-115225377D01*
X98676376Y-115064958D01*
X98755395Y-114917124D01*
X98755396Y-114917122D01*
X98861741Y-114787541D01*
X98991322Y-114681196D01*
X99006494Y-114673086D01*
X99139158Y-114602176D01*
X99299577Y-114553513D01*
X99424596Y-114541200D01*
X99508204Y-114541200D01*
X99633223Y-114553513D01*
X99633223Y-114553513D01*
G37*
G36*
X97093223Y-114553513D02*
G01*
X97253642Y-114602176D01*
X97386306Y-114673086D01*
X97401478Y-114681196D01*
X97531059Y-114787541D01*
X97637404Y-114917122D01*
X97637405Y-114917124D01*
X97716424Y-115064958D01*
X97765087Y-115225377D01*
X97781517Y-115392200D01*
X97765087Y-115559023D01*
X97716424Y-115719442D01*
X97645514Y-115852106D01*
X97637404Y-115867278D01*
X97531059Y-115996859D01*
X97401478Y-116103204D01*
X97401476Y-116103205D01*
X97253642Y-116182224D01*
X97093223Y-116230887D01*
X96968204Y-116243200D01*
X96884596Y-116243200D01*
X96759577Y-116230887D01*
X96599158Y-116182224D01*
X96451324Y-116103205D01*
X96451322Y-116103204D01*
X96321741Y-115996859D01*
X96215396Y-115867278D01*
X96207286Y-115852106D01*
X96136376Y-115719442D01*
X96087713Y-115559023D01*
X96071283Y-115392200D01*
X96087713Y-115225377D01*
X96136376Y-115064958D01*
X96215395Y-114917124D01*
X96215396Y-114917122D01*
X96321741Y-114787541D01*
X96451322Y-114681196D01*
X96466494Y-114673086D01*
X96599158Y-114602176D01*
X96759577Y-114553513D01*
X96884596Y-114541200D01*
X96968204Y-114541200D01*
X97093223Y-114553513D01*
X97093223Y-114553513D01*
G37*
G36*
X102173223Y-114553513D02*
G01*
X102333642Y-114602176D01*
X102466306Y-114673086D01*
X102481478Y-114681196D01*
X102611059Y-114787541D01*
X102717404Y-114917122D01*
X102717405Y-114917124D01*
X102796424Y-115064958D01*
X102845087Y-115225377D01*
X102861517Y-115392200D01*
X102845087Y-115559023D01*
X102796424Y-115719442D01*
X102725514Y-115852106D01*
X102717404Y-115867278D01*
X102611059Y-115996859D01*
X102481478Y-116103204D01*
X102481476Y-116103205D01*
X102333642Y-116182224D01*
X102173223Y-116230887D01*
X102048204Y-116243200D01*
X101964596Y-116243200D01*
X101839577Y-116230887D01*
X101679158Y-116182224D01*
X101531324Y-116103205D01*
X101531322Y-116103204D01*
X101401741Y-115996859D01*
X101295396Y-115867278D01*
X101287286Y-115852106D01*
X101216376Y-115719442D01*
X101167713Y-115559023D01*
X101151283Y-115392200D01*
X101167713Y-115225377D01*
X101216376Y-115064958D01*
X101295395Y-114917124D01*
X101295396Y-114917122D01*
X101401741Y-114787541D01*
X101531322Y-114681196D01*
X101546494Y-114673086D01*
X101679158Y-114602176D01*
X101839577Y-114553513D01*
X101964596Y-114541200D01*
X102048204Y-114541200D01*
X102173223Y-114553513D01*
X102173223Y-114553513D01*
G37*
G36*
X94553223Y-114553513D02*
G01*
X94713642Y-114602176D01*
X94846306Y-114673086D01*
X94861478Y-114681196D01*
X94991059Y-114787541D01*
X95097404Y-114917122D01*
X95097405Y-114917124D01*
X95176424Y-115064958D01*
X95225087Y-115225377D01*
X95241517Y-115392200D01*
X95225087Y-115559023D01*
X95176424Y-115719442D01*
X95105514Y-115852106D01*
X95097404Y-115867278D01*
X94991059Y-115996859D01*
X94861478Y-116103204D01*
X94861476Y-116103205D01*
X94713642Y-116182224D01*
X94553223Y-116230887D01*
X94428204Y-116243200D01*
X94344596Y-116243200D01*
X94219577Y-116230887D01*
X94059158Y-116182224D01*
X93911324Y-116103205D01*
X93911322Y-116103204D01*
X93781741Y-115996859D01*
X93675396Y-115867278D01*
X93667286Y-115852106D01*
X93596376Y-115719442D01*
X93547713Y-115559023D01*
X93531283Y-115392200D01*
X93547713Y-115225377D01*
X93596376Y-115064958D01*
X93675395Y-114917124D01*
X93675396Y-114917122D01*
X93781741Y-114787541D01*
X93911322Y-114681196D01*
X93926494Y-114673086D01*
X94059158Y-114602176D01*
X94219577Y-114553513D01*
X94344596Y-114541200D01*
X94428204Y-114541200D01*
X94553223Y-114553513D01*
X94553223Y-114553513D01*
G37*
G36*
X130485000Y-111714000D02*
G01*
X121483000Y-111714000D01*
X121483000Y-109862000D01*
X130485000Y-109862000D01*
X130485000Y-111714000D01*
X130485000Y-111714000D01*
G37*
G36*
X157409000Y-111670000D02*
G01*
X148407000Y-111670000D01*
X148407000Y-109818000D01*
X157409000Y-109818000D01*
X157409000Y-111670000D01*
X157409000Y-111670000D01*
G37*
G36*
X107253223Y-106933513D02*
G01*
X107413642Y-106982176D01*
X107546306Y-107053086D01*
X107561478Y-107061196D01*
X107691059Y-107167541D01*
X107797404Y-107297122D01*
X107797405Y-107297124D01*
X107876424Y-107444958D01*
X107925087Y-107605377D01*
X107941517Y-107772200D01*
X107925087Y-107939023D01*
X107876424Y-108099442D01*
X107805514Y-108232106D01*
X107797404Y-108247278D01*
X107691059Y-108376859D01*
X107561478Y-108483204D01*
X107561476Y-108483205D01*
X107413642Y-108562224D01*
X107253223Y-108610887D01*
X107128204Y-108623200D01*
X107044596Y-108623200D01*
X106919577Y-108610887D01*
X106759158Y-108562224D01*
X106611324Y-108483205D01*
X106611322Y-108483204D01*
X106481741Y-108376859D01*
X106375396Y-108247278D01*
X106367286Y-108232106D01*
X106296376Y-108099442D01*
X106247713Y-107939023D01*
X106231283Y-107772200D01*
X106247713Y-107605377D01*
X106296376Y-107444958D01*
X106375395Y-107297124D01*
X106375396Y-107297122D01*
X106481741Y-107167541D01*
X106611322Y-107061196D01*
X106626494Y-107053086D01*
X106759158Y-106982176D01*
X106919577Y-106933513D01*
X107044596Y-106921200D01*
X107128204Y-106921200D01*
X107253223Y-106933513D01*
X107253223Y-106933513D01*
G37*
G36*
X104713223Y-106933513D02*
G01*
X104873642Y-106982176D01*
X105006306Y-107053086D01*
X105021478Y-107061196D01*
X105151059Y-107167541D01*
X105257404Y-107297122D01*
X105257405Y-107297124D01*
X105336424Y-107444958D01*
X105385087Y-107605377D01*
X105401517Y-107772200D01*
X105385087Y-107939023D01*
X105336424Y-108099442D01*
X105265514Y-108232106D01*
X105257404Y-108247278D01*
X105151059Y-108376859D01*
X105021478Y-108483204D01*
X105021476Y-108483205D01*
X104873642Y-108562224D01*
X104713223Y-108610887D01*
X104588204Y-108623200D01*
X104504596Y-108623200D01*
X104379577Y-108610887D01*
X104219158Y-108562224D01*
X104071324Y-108483205D01*
X104071322Y-108483204D01*
X103941741Y-108376859D01*
X103835396Y-108247278D01*
X103827286Y-108232106D01*
X103756376Y-108099442D01*
X103707713Y-107939023D01*
X103691283Y-107772200D01*
X103707713Y-107605377D01*
X103756376Y-107444958D01*
X103835395Y-107297124D01*
X103835396Y-107297122D01*
X103941741Y-107167541D01*
X104071322Y-107061196D01*
X104086494Y-107053086D01*
X104219158Y-106982176D01*
X104379577Y-106933513D01*
X104504596Y-106921200D01*
X104588204Y-106921200D01*
X104713223Y-106933513D01*
X104713223Y-106933513D01*
G37*
G36*
X92013223Y-106933513D02*
G01*
X92173642Y-106982176D01*
X92306306Y-107053086D01*
X92321478Y-107061196D01*
X92451059Y-107167541D01*
X92557404Y-107297122D01*
X92557405Y-107297124D01*
X92636424Y-107444958D01*
X92685087Y-107605377D01*
X92701517Y-107772200D01*
X92685087Y-107939023D01*
X92636424Y-108099442D01*
X92565514Y-108232106D01*
X92557404Y-108247278D01*
X92451059Y-108376859D01*
X92321478Y-108483204D01*
X92321476Y-108483205D01*
X92173642Y-108562224D01*
X92013223Y-108610887D01*
X91888204Y-108623200D01*
X91804596Y-108623200D01*
X91679577Y-108610887D01*
X91519158Y-108562224D01*
X91371324Y-108483205D01*
X91371322Y-108483204D01*
X91241741Y-108376859D01*
X91135396Y-108247278D01*
X91127286Y-108232106D01*
X91056376Y-108099442D01*
X91007713Y-107939023D01*
X90991283Y-107772200D01*
X91007713Y-107605377D01*
X91056376Y-107444958D01*
X91135395Y-107297124D01*
X91135396Y-107297122D01*
X91241741Y-107167541D01*
X91371322Y-107061196D01*
X91386494Y-107053086D01*
X91519158Y-106982176D01*
X91679577Y-106933513D01*
X91804596Y-106921200D01*
X91888204Y-106921200D01*
X92013223Y-106933513D01*
X92013223Y-106933513D01*
G37*
G36*
X97093223Y-106933513D02*
G01*
X97253642Y-106982176D01*
X97386306Y-107053086D01*
X97401478Y-107061196D01*
X97531059Y-107167541D01*
X97637404Y-107297122D01*
X97637405Y-107297124D01*
X97716424Y-107444958D01*
X97765087Y-107605377D01*
X97781517Y-107772200D01*
X97765087Y-107939023D01*
X97716424Y-108099442D01*
X97645514Y-108232106D01*
X97637404Y-108247278D01*
X97531059Y-108376859D01*
X97401478Y-108483204D01*
X97401476Y-108483205D01*
X97253642Y-108562224D01*
X97093223Y-108610887D01*
X96968204Y-108623200D01*
X96884596Y-108623200D01*
X96759577Y-108610887D01*
X96599158Y-108562224D01*
X96451324Y-108483205D01*
X96451322Y-108483204D01*
X96321741Y-108376859D01*
X96215396Y-108247278D01*
X96207286Y-108232106D01*
X96136376Y-108099442D01*
X96087713Y-107939023D01*
X96071283Y-107772200D01*
X96087713Y-107605377D01*
X96136376Y-107444958D01*
X96215395Y-107297124D01*
X96215396Y-107297122D01*
X96321741Y-107167541D01*
X96451322Y-107061196D01*
X96466494Y-107053086D01*
X96599158Y-106982176D01*
X96759577Y-106933513D01*
X96884596Y-106921200D01*
X96968204Y-106921200D01*
X97093223Y-106933513D01*
X97093223Y-106933513D01*
G37*
G36*
X102173223Y-106933513D02*
G01*
X102333642Y-106982176D01*
X102466306Y-107053086D01*
X102481478Y-107061196D01*
X102611059Y-107167541D01*
X102717404Y-107297122D01*
X102717405Y-107297124D01*
X102796424Y-107444958D01*
X102845087Y-107605377D01*
X102861517Y-107772200D01*
X102845087Y-107939023D01*
X102796424Y-108099442D01*
X102725514Y-108232106D01*
X102717404Y-108247278D01*
X102611059Y-108376859D01*
X102481478Y-108483204D01*
X102481476Y-108483205D01*
X102333642Y-108562224D01*
X102173223Y-108610887D01*
X102048204Y-108623200D01*
X101964596Y-108623200D01*
X101839577Y-108610887D01*
X101679158Y-108562224D01*
X101531324Y-108483205D01*
X101531322Y-108483204D01*
X101401741Y-108376859D01*
X101295396Y-108247278D01*
X101287286Y-108232106D01*
X101216376Y-108099442D01*
X101167713Y-107939023D01*
X101151283Y-107772200D01*
X101167713Y-107605377D01*
X101216376Y-107444958D01*
X101295395Y-107297124D01*
X101295396Y-107297122D01*
X101401741Y-107167541D01*
X101531322Y-107061196D01*
X101546494Y-107053086D01*
X101679158Y-106982176D01*
X101839577Y-106933513D01*
X101964596Y-106921200D01*
X102048204Y-106921200D01*
X102173223Y-106933513D01*
X102173223Y-106933513D01*
G37*
G36*
X99633223Y-106933513D02*
G01*
X99793642Y-106982176D01*
X99926306Y-107053086D01*
X99941478Y-107061196D01*
X100071059Y-107167541D01*
X100177404Y-107297122D01*
X100177405Y-107297124D01*
X100256424Y-107444958D01*
X100305087Y-107605377D01*
X100321517Y-107772200D01*
X100305087Y-107939023D01*
X100256424Y-108099442D01*
X100185514Y-108232106D01*
X100177404Y-108247278D01*
X100071059Y-108376859D01*
X99941478Y-108483204D01*
X99941476Y-108483205D01*
X99793642Y-108562224D01*
X99633223Y-108610887D01*
X99508204Y-108623200D01*
X99424596Y-108623200D01*
X99299577Y-108610887D01*
X99139158Y-108562224D01*
X98991324Y-108483205D01*
X98991322Y-108483204D01*
X98861741Y-108376859D01*
X98755396Y-108247278D01*
X98747286Y-108232106D01*
X98676376Y-108099442D01*
X98627713Y-107939023D01*
X98611283Y-107772200D01*
X98627713Y-107605377D01*
X98676376Y-107444958D01*
X98755395Y-107297124D01*
X98755396Y-107297122D01*
X98861741Y-107167541D01*
X98991322Y-107061196D01*
X99006494Y-107053086D01*
X99139158Y-106982176D01*
X99299577Y-106933513D01*
X99424596Y-106921200D01*
X99508204Y-106921200D01*
X99633223Y-106933513D01*
X99633223Y-106933513D01*
G37*
G36*
X94553223Y-106933513D02*
G01*
X94713642Y-106982176D01*
X94846306Y-107053086D01*
X94861478Y-107061196D01*
X94991059Y-107167541D01*
X95097404Y-107297122D01*
X95097405Y-107297124D01*
X95176424Y-107444958D01*
X95225087Y-107605377D01*
X95241517Y-107772200D01*
X95225087Y-107939023D01*
X95176424Y-108099442D01*
X95105514Y-108232106D01*
X95097404Y-108247278D01*
X94991059Y-108376859D01*
X94861478Y-108483204D01*
X94861476Y-108483205D01*
X94713642Y-108562224D01*
X94553223Y-108610887D01*
X94428204Y-108623200D01*
X94344596Y-108623200D01*
X94219577Y-108610887D01*
X94059158Y-108562224D01*
X93911324Y-108483205D01*
X93911322Y-108483204D01*
X93781741Y-108376859D01*
X93675396Y-108247278D01*
X93667286Y-108232106D01*
X93596376Y-108099442D01*
X93547713Y-107939023D01*
X93531283Y-107772200D01*
X93547713Y-107605377D01*
X93596376Y-107444958D01*
X93675395Y-107297124D01*
X93675396Y-107297122D01*
X93781741Y-107167541D01*
X93911322Y-107061196D01*
X93926494Y-107053086D01*
X94059158Y-106982176D01*
X94219577Y-106933513D01*
X94344596Y-106921200D01*
X94428204Y-106921200D01*
X94553223Y-106933513D01*
X94553223Y-106933513D01*
G37*
G36*
X130485000Y-104514000D02*
G01*
X121483000Y-104514000D01*
X121483000Y-102662000D01*
X130485000Y-102662000D01*
X130485000Y-104514000D01*
X130485000Y-104514000D01*
G37*
G36*
X157409000Y-104470000D02*
G01*
X148407000Y-104470000D01*
X148407000Y-102618000D01*
X157409000Y-102618000D01*
X157409000Y-104470000D01*
X157409000Y-104470000D01*
G37*
G36*
X110395004Y-99232547D02*
G01*
X110431544Y-99243632D01*
X110465221Y-99261633D01*
X110494741Y-99285859D01*
X110518967Y-99315379D01*
X110536968Y-99349056D01*
X110548053Y-99385596D01*
X110552400Y-99429738D01*
X110552400Y-100378662D01*
X110548053Y-100422804D01*
X110536968Y-100459344D01*
X110518967Y-100493021D01*
X110494741Y-100522541D01*
X110465221Y-100546767D01*
X110431544Y-100564768D01*
X110395004Y-100575853D01*
X110350862Y-100580200D01*
X108901938Y-100580200D01*
X108857796Y-100575853D01*
X108821256Y-100564768D01*
X108787579Y-100546767D01*
X108758059Y-100522541D01*
X108733833Y-100493021D01*
X108715832Y-100459344D01*
X108704747Y-100422804D01*
X108700400Y-100378662D01*
X108700400Y-99429738D01*
X108704747Y-99385596D01*
X108715832Y-99349056D01*
X108733833Y-99315379D01*
X108758059Y-99285859D01*
X108787579Y-99261633D01*
X108821256Y-99243632D01*
X108857796Y-99232547D01*
X108901938Y-99228200D01*
X110350862Y-99228200D01*
X110395004Y-99232547D01*
X110395004Y-99232547D01*
G37*
G36*
X107855004Y-99232547D02*
G01*
X107891544Y-99243632D01*
X107925221Y-99261633D01*
X107954741Y-99285859D01*
X107978967Y-99315379D01*
X107996968Y-99349056D01*
X108008053Y-99385596D01*
X108012400Y-99429738D01*
X108012400Y-100378662D01*
X108008053Y-100422804D01*
X107996968Y-100459344D01*
X107978967Y-100493021D01*
X107954741Y-100522541D01*
X107925221Y-100546767D01*
X107891544Y-100564768D01*
X107855004Y-100575853D01*
X107810862Y-100580200D01*
X106361938Y-100580200D01*
X106317796Y-100575853D01*
X106281256Y-100564768D01*
X106247579Y-100546767D01*
X106218059Y-100522541D01*
X106193833Y-100493021D01*
X106175832Y-100459344D01*
X106164747Y-100422804D01*
X106160400Y-100378662D01*
X106160400Y-99429738D01*
X106164747Y-99385596D01*
X106175832Y-99349056D01*
X106193833Y-99315379D01*
X106218059Y-99285859D01*
X106247579Y-99261633D01*
X106281256Y-99243632D01*
X106317796Y-99232547D01*
X106361938Y-99228200D01*
X107810862Y-99228200D01*
X107855004Y-99232547D01*
X107855004Y-99232547D01*
G37*
G36*
X103459400Y-100062200D02*
G01*
X94457400Y-100062200D01*
X94457400Y-98210200D01*
X103459400Y-98210200D01*
X103459400Y-100062200D01*
X103459400Y-100062200D01*
G37*
G36*
X110395004Y-96432547D02*
G01*
X110431544Y-96443632D01*
X110465221Y-96461633D01*
X110494741Y-96485859D01*
X110518967Y-96515379D01*
X110536968Y-96549056D01*
X110548053Y-96585596D01*
X110552400Y-96629738D01*
X110552400Y-97578662D01*
X110548053Y-97622804D01*
X110536968Y-97659344D01*
X110518967Y-97693021D01*
X110494741Y-97722541D01*
X110465221Y-97746767D01*
X110431544Y-97764768D01*
X110395004Y-97775853D01*
X110350862Y-97780200D01*
X108901938Y-97780200D01*
X108857796Y-97775853D01*
X108821256Y-97764768D01*
X108787579Y-97746767D01*
X108758059Y-97722541D01*
X108733833Y-97693021D01*
X108715832Y-97659344D01*
X108704747Y-97622804D01*
X108700400Y-97578662D01*
X108700400Y-96629738D01*
X108704747Y-96585596D01*
X108715832Y-96549056D01*
X108733833Y-96515379D01*
X108758059Y-96485859D01*
X108787579Y-96461633D01*
X108821256Y-96443632D01*
X108857796Y-96432547D01*
X108901938Y-96428200D01*
X110350862Y-96428200D01*
X110395004Y-96432547D01*
X110395004Y-96432547D01*
G37*
G36*
X107855004Y-96432547D02*
G01*
X107891544Y-96443632D01*
X107925221Y-96461633D01*
X107954741Y-96485859D01*
X107978967Y-96515379D01*
X107996968Y-96549056D01*
X108008053Y-96585596D01*
X108012400Y-96629738D01*
X108012400Y-97578662D01*
X108008053Y-97622804D01*
X107996968Y-97659344D01*
X107978967Y-97693021D01*
X107954741Y-97722541D01*
X107925221Y-97746767D01*
X107891544Y-97764768D01*
X107855004Y-97775853D01*
X107810862Y-97780200D01*
X106361938Y-97780200D01*
X106317796Y-97775853D01*
X106281256Y-97764768D01*
X106247579Y-97746767D01*
X106218059Y-97722541D01*
X106193833Y-97693021D01*
X106175832Y-97659344D01*
X106164747Y-97622804D01*
X106160400Y-97578662D01*
X106160400Y-96629738D01*
X106164747Y-96585596D01*
X106175832Y-96549056D01*
X106193833Y-96515379D01*
X106218059Y-96485859D01*
X106247579Y-96461633D01*
X106281256Y-96443632D01*
X106317796Y-96432547D01*
X106361938Y-96428200D01*
X107810862Y-96428200D01*
X107855004Y-96432547D01*
X107855004Y-96432547D01*
G37*
G36*
X131842604Y-95598347D02*
G01*
X131879144Y-95609432D01*
X131912821Y-95627433D01*
X131942341Y-95651659D01*
X131966567Y-95681179D01*
X131984568Y-95714856D01*
X131995653Y-95751396D01*
X132000000Y-95795538D01*
X132000000Y-97244462D01*
X131995653Y-97288604D01*
X131984568Y-97325144D01*
X131966567Y-97358821D01*
X131942341Y-97388341D01*
X131912821Y-97412567D01*
X131879144Y-97430568D01*
X131842604Y-97441653D01*
X131798462Y-97446000D01*
X130849538Y-97446000D01*
X130805396Y-97441653D01*
X130768856Y-97430568D01*
X130735179Y-97412567D01*
X130705659Y-97388341D01*
X130681433Y-97358821D01*
X130663432Y-97325144D01*
X130652347Y-97288604D01*
X130648000Y-97244462D01*
X130648000Y-95795538D01*
X130652347Y-95751396D01*
X130663432Y-95714856D01*
X130681433Y-95681179D01*
X130705659Y-95651659D01*
X130735179Y-95627433D01*
X130768856Y-95609432D01*
X130805396Y-95598347D01*
X130849538Y-95594000D01*
X131798462Y-95594000D01*
X131842604Y-95598347D01*
X131842604Y-95598347D01*
G37*
G36*
X129042604Y-95598347D02*
G01*
X129079144Y-95609432D01*
X129112821Y-95627433D01*
X129142341Y-95651659D01*
X129166567Y-95681179D01*
X129184568Y-95714856D01*
X129195653Y-95751396D01*
X129200000Y-95795538D01*
X129200000Y-97244462D01*
X129195653Y-97288604D01*
X129184568Y-97325144D01*
X129166567Y-97358821D01*
X129142341Y-97388341D01*
X129112821Y-97412567D01*
X129079144Y-97430568D01*
X129042604Y-97441653D01*
X128998462Y-97446000D01*
X128049538Y-97446000D01*
X128005396Y-97441653D01*
X127968856Y-97430568D01*
X127935179Y-97412567D01*
X127905659Y-97388341D01*
X127881433Y-97358821D01*
X127863432Y-97325144D01*
X127852347Y-97288604D01*
X127848000Y-97244462D01*
X127848000Y-95795538D01*
X127852347Y-95751396D01*
X127863432Y-95714856D01*
X127881433Y-95681179D01*
X127905659Y-95651659D01*
X127935179Y-95627433D01*
X127968856Y-95609432D01*
X128005396Y-95598347D01*
X128049538Y-95594000D01*
X128998462Y-95594000D01*
X129042604Y-95598347D01*
X129042604Y-95598347D01*
G37*
G36*
X158258604Y-95598347D02*
G01*
X158295144Y-95609432D01*
X158328821Y-95627433D01*
X158358341Y-95651659D01*
X158382567Y-95681179D01*
X158400568Y-95714856D01*
X158411653Y-95751396D01*
X158416000Y-95795538D01*
X158416000Y-97244462D01*
X158411653Y-97288604D01*
X158400568Y-97325144D01*
X158382567Y-97358821D01*
X158358341Y-97388341D01*
X158328821Y-97412567D01*
X158295144Y-97430568D01*
X158258604Y-97441653D01*
X158214462Y-97446000D01*
X157265538Y-97446000D01*
X157221396Y-97441653D01*
X157184856Y-97430568D01*
X157151179Y-97412567D01*
X157121659Y-97388341D01*
X157097433Y-97358821D01*
X157079432Y-97325144D01*
X157068347Y-97288604D01*
X157064000Y-97244462D01*
X157064000Y-95795538D01*
X157068347Y-95751396D01*
X157079432Y-95714856D01*
X157097433Y-95681179D01*
X157121659Y-95651659D01*
X157151179Y-95627433D01*
X157184856Y-95609432D01*
X157221396Y-95598347D01*
X157265538Y-95594000D01*
X158214462Y-95594000D01*
X158258604Y-95598347D01*
X158258604Y-95598347D01*
G37*
G36*
X155458604Y-95598347D02*
G01*
X155495144Y-95609432D01*
X155528821Y-95627433D01*
X155558341Y-95651659D01*
X155582567Y-95681179D01*
X155600568Y-95714856D01*
X155611653Y-95751396D01*
X155616000Y-95795538D01*
X155616000Y-97244462D01*
X155611653Y-97288604D01*
X155600568Y-97325144D01*
X155582567Y-97358821D01*
X155558341Y-97388341D01*
X155528821Y-97412567D01*
X155495144Y-97430568D01*
X155458604Y-97441653D01*
X155414462Y-97446000D01*
X154465538Y-97446000D01*
X154421396Y-97441653D01*
X154384856Y-97430568D01*
X154351179Y-97412567D01*
X154321659Y-97388341D01*
X154297433Y-97358821D01*
X154279432Y-97325144D01*
X154268347Y-97288604D01*
X154264000Y-97244462D01*
X154264000Y-95795538D01*
X154268347Y-95751396D01*
X154279432Y-95714856D01*
X154297433Y-95681179D01*
X154321659Y-95651659D01*
X154351179Y-95627433D01*
X154384856Y-95609432D01*
X154421396Y-95598347D01*
X154465538Y-95594000D01*
X155414462Y-95594000D01*
X155458604Y-95598347D01*
X155458604Y-95598347D01*
G37*
G36*
X91091004Y-93644547D02*
G01*
X91127544Y-93655632D01*
X91161221Y-93673633D01*
X91190741Y-93697859D01*
X91214967Y-93727379D01*
X91232968Y-93761056D01*
X91244053Y-93797596D01*
X91248400Y-93841738D01*
X91248400Y-94790662D01*
X91244053Y-94834804D01*
X91232968Y-94871344D01*
X91214967Y-94905021D01*
X91190741Y-94934541D01*
X91161221Y-94958767D01*
X91127544Y-94976768D01*
X91091004Y-94987853D01*
X91046862Y-94992200D01*
X89597938Y-94992200D01*
X89553796Y-94987853D01*
X89517256Y-94976768D01*
X89483579Y-94958767D01*
X89454059Y-94934541D01*
X89429833Y-94905021D01*
X89411832Y-94871344D01*
X89400747Y-94834804D01*
X89396400Y-94790662D01*
X89396400Y-93841738D01*
X89400747Y-93797596D01*
X89411832Y-93761056D01*
X89429833Y-93727379D01*
X89454059Y-93697859D01*
X89483579Y-93673633D01*
X89517256Y-93655632D01*
X89553796Y-93644547D01*
X89597938Y-93640200D01*
X91046862Y-93640200D01*
X91091004Y-93644547D01*
X91091004Y-93644547D01*
G37*
G36*
X158258604Y-92550347D02*
G01*
X158295144Y-92561432D01*
X158328821Y-92579433D01*
X158358341Y-92603659D01*
X158382567Y-92633179D01*
X158400568Y-92666856D01*
X158411653Y-92703396D01*
X158416000Y-92747538D01*
X158416000Y-94196462D01*
X158411653Y-94240604D01*
X158400568Y-94277144D01*
X158382567Y-94310821D01*
X158358341Y-94340341D01*
X158328821Y-94364567D01*
X158295144Y-94382568D01*
X158258604Y-94393653D01*
X158214462Y-94398000D01*
X157265538Y-94398000D01*
X157221396Y-94393653D01*
X157184856Y-94382568D01*
X157151179Y-94364567D01*
X157121659Y-94340341D01*
X157097433Y-94310821D01*
X157079432Y-94277144D01*
X157068347Y-94240604D01*
X157064000Y-94196462D01*
X157064000Y-92747538D01*
X157068347Y-92703396D01*
X157079432Y-92666856D01*
X157097433Y-92633179D01*
X157121659Y-92603659D01*
X157151179Y-92579433D01*
X157184856Y-92561432D01*
X157221396Y-92550347D01*
X157265538Y-92546000D01*
X158214462Y-92546000D01*
X158258604Y-92550347D01*
X158258604Y-92550347D01*
G37*
G36*
X129042604Y-92550347D02*
G01*
X129079144Y-92561432D01*
X129112821Y-92579433D01*
X129142341Y-92603659D01*
X129166567Y-92633179D01*
X129184568Y-92666856D01*
X129195653Y-92703396D01*
X129200000Y-92747538D01*
X129200000Y-94196462D01*
X129195653Y-94240604D01*
X129184568Y-94277144D01*
X129166567Y-94310821D01*
X129142341Y-94340341D01*
X129112821Y-94364567D01*
X129079144Y-94382568D01*
X129042604Y-94393653D01*
X128998462Y-94398000D01*
X128049538Y-94398000D01*
X128005396Y-94393653D01*
X127968856Y-94382568D01*
X127935179Y-94364567D01*
X127905659Y-94340341D01*
X127881433Y-94310821D01*
X127863432Y-94277144D01*
X127852347Y-94240604D01*
X127848000Y-94196462D01*
X127848000Y-92747538D01*
X127852347Y-92703396D01*
X127863432Y-92666856D01*
X127881433Y-92633179D01*
X127905659Y-92603659D01*
X127935179Y-92579433D01*
X127968856Y-92561432D01*
X128005396Y-92550347D01*
X128049538Y-92546000D01*
X128998462Y-92546000D01*
X129042604Y-92550347D01*
X129042604Y-92550347D01*
G37*
G36*
X131842604Y-92550347D02*
G01*
X131879144Y-92561432D01*
X131912821Y-92579433D01*
X131942341Y-92603659D01*
X131966567Y-92633179D01*
X131984568Y-92666856D01*
X131995653Y-92703396D01*
X132000000Y-92747538D01*
X132000000Y-94196462D01*
X131995653Y-94240604D01*
X131984568Y-94277144D01*
X131966567Y-94310821D01*
X131942341Y-94340341D01*
X131912821Y-94364567D01*
X131879144Y-94382568D01*
X131842604Y-94393653D01*
X131798462Y-94398000D01*
X130849538Y-94398000D01*
X130805396Y-94393653D01*
X130768856Y-94382568D01*
X130735179Y-94364567D01*
X130705659Y-94340341D01*
X130681433Y-94310821D01*
X130663432Y-94277144D01*
X130652347Y-94240604D01*
X130648000Y-94196462D01*
X130648000Y-92747538D01*
X130652347Y-92703396D01*
X130663432Y-92666856D01*
X130681433Y-92633179D01*
X130705659Y-92603659D01*
X130735179Y-92579433D01*
X130768856Y-92561432D01*
X130805396Y-92550347D01*
X130849538Y-92546000D01*
X131798462Y-92546000D01*
X131842604Y-92550347D01*
X131842604Y-92550347D01*
G37*
G36*
X155458604Y-92550347D02*
G01*
X155495144Y-92561432D01*
X155528821Y-92579433D01*
X155558341Y-92603659D01*
X155582567Y-92633179D01*
X155600568Y-92666856D01*
X155611653Y-92703396D01*
X155616000Y-92747538D01*
X155616000Y-94196462D01*
X155611653Y-94240604D01*
X155600568Y-94277144D01*
X155582567Y-94310821D01*
X155558341Y-94340341D01*
X155528821Y-94364567D01*
X155495144Y-94382568D01*
X155458604Y-94393653D01*
X155414462Y-94398000D01*
X154465538Y-94398000D01*
X154421396Y-94393653D01*
X154384856Y-94382568D01*
X154351179Y-94364567D01*
X154321659Y-94340341D01*
X154297433Y-94310821D01*
X154279432Y-94277144D01*
X154268347Y-94240604D01*
X154264000Y-94196462D01*
X154264000Y-92747538D01*
X154268347Y-92703396D01*
X154279432Y-92666856D01*
X154297433Y-92633179D01*
X154321659Y-92603659D01*
X154351179Y-92579433D01*
X154384856Y-92561432D01*
X154421396Y-92550347D01*
X154465538Y-92546000D01*
X155414462Y-92546000D01*
X155458604Y-92550347D01*
X155458604Y-92550347D01*
G37*
G36*
X103459400Y-92862200D02*
G01*
X94457400Y-92862200D01*
X94457400Y-91010200D01*
X103459400Y-91010200D01*
X103459400Y-92862200D01*
X103459400Y-92862200D01*
G37*
G36*
X91091004Y-90844547D02*
G01*
X91127544Y-90855632D01*
X91161221Y-90873633D01*
X91190741Y-90897859D01*
X91214967Y-90927379D01*
X91232968Y-90961056D01*
X91244053Y-90997596D01*
X91248400Y-91041738D01*
X91248400Y-91990662D01*
X91244053Y-92034804D01*
X91232968Y-92071344D01*
X91214967Y-92105021D01*
X91190741Y-92134541D01*
X91161221Y-92158767D01*
X91127544Y-92176768D01*
X91091004Y-92187853D01*
X91046862Y-92192200D01*
X89597938Y-92192200D01*
X89553796Y-92187853D01*
X89517256Y-92176768D01*
X89483579Y-92158767D01*
X89454059Y-92134541D01*
X89429833Y-92105021D01*
X89411832Y-92071344D01*
X89400747Y-92034804D01*
X89396400Y-91990662D01*
X89396400Y-91041738D01*
X89400747Y-90997596D01*
X89411832Y-90961056D01*
X89429833Y-90927379D01*
X89454059Y-90897859D01*
X89483579Y-90873633D01*
X89517256Y-90855632D01*
X89553796Y-90844547D01*
X89597938Y-90840200D01*
X91046862Y-90840200D01*
X91091004Y-90844547D01*
X91091004Y-90844547D01*
G37*
G36*
X156474604Y-87978347D02*
G01*
X156511144Y-87989432D01*
X156544821Y-88007433D01*
X156574341Y-88031659D01*
X156598567Y-88061179D01*
X156616568Y-88094856D01*
X156627653Y-88131396D01*
X156632000Y-88175538D01*
X156632000Y-89624462D01*
X156627653Y-89668604D01*
X156616568Y-89705144D01*
X156598567Y-89738821D01*
X156574341Y-89768341D01*
X156544821Y-89792567D01*
X156511144Y-89810568D01*
X156474604Y-89821653D01*
X156430462Y-89826000D01*
X155481538Y-89826000D01*
X155437396Y-89821653D01*
X155400856Y-89810568D01*
X155367179Y-89792567D01*
X155337659Y-89768341D01*
X155313433Y-89738821D01*
X155295432Y-89705144D01*
X155284347Y-89668604D01*
X155280000Y-89624462D01*
X155280000Y-88175538D01*
X155284347Y-88131396D01*
X155295432Y-88094856D01*
X155313433Y-88061179D01*
X155337659Y-88031659D01*
X155367179Y-88007433D01*
X155400856Y-87989432D01*
X155437396Y-87978347D01*
X155481538Y-87974000D01*
X156430462Y-87974000D01*
X156474604Y-87978347D01*
X156474604Y-87978347D01*
G37*
G36*
X153674604Y-87978347D02*
G01*
X153711144Y-87989432D01*
X153744821Y-88007433D01*
X153774341Y-88031659D01*
X153798567Y-88061179D01*
X153816568Y-88094856D01*
X153827653Y-88131396D01*
X153832000Y-88175538D01*
X153832000Y-89624462D01*
X153827653Y-89668604D01*
X153816568Y-89705144D01*
X153798567Y-89738821D01*
X153774341Y-89768341D01*
X153744821Y-89792567D01*
X153711144Y-89810568D01*
X153674604Y-89821653D01*
X153630462Y-89826000D01*
X152681538Y-89826000D01*
X152637396Y-89821653D01*
X152600856Y-89810568D01*
X152567179Y-89792567D01*
X152537659Y-89768341D01*
X152513433Y-89738821D01*
X152495432Y-89705144D01*
X152484347Y-89668604D01*
X152480000Y-89624462D01*
X152480000Y-88175538D01*
X152484347Y-88131396D01*
X152495432Y-88094856D01*
X152513433Y-88061179D01*
X152537659Y-88031659D01*
X152567179Y-88007433D01*
X152600856Y-87989432D01*
X152637396Y-87978347D01*
X152681538Y-87974000D01*
X153630462Y-87974000D01*
X153674604Y-87978347D01*
X153674604Y-87978347D01*
G37*
G36*
X130058604Y-87978347D02*
G01*
X130095144Y-87989432D01*
X130128821Y-88007433D01*
X130158341Y-88031659D01*
X130182567Y-88061179D01*
X130200568Y-88094856D01*
X130211653Y-88131396D01*
X130216000Y-88175538D01*
X130216000Y-89624462D01*
X130211653Y-89668604D01*
X130200568Y-89705144D01*
X130182567Y-89738821D01*
X130158341Y-89768341D01*
X130128821Y-89792567D01*
X130095144Y-89810568D01*
X130058604Y-89821653D01*
X130014462Y-89826000D01*
X129065538Y-89826000D01*
X129021396Y-89821653D01*
X128984856Y-89810568D01*
X128951179Y-89792567D01*
X128921659Y-89768341D01*
X128897433Y-89738821D01*
X128879432Y-89705144D01*
X128868347Y-89668604D01*
X128864000Y-89624462D01*
X128864000Y-88175538D01*
X128868347Y-88131396D01*
X128879432Y-88094856D01*
X128897433Y-88061179D01*
X128921659Y-88031659D01*
X128951179Y-88007433D01*
X128984856Y-87989432D01*
X129021396Y-87978347D01*
X129065538Y-87974000D01*
X130014462Y-87974000D01*
X130058604Y-87978347D01*
X130058604Y-87978347D01*
G37*
G36*
X127258604Y-87978347D02*
G01*
X127295144Y-87989432D01*
X127328821Y-88007433D01*
X127358341Y-88031659D01*
X127382567Y-88061179D01*
X127400568Y-88094856D01*
X127411653Y-88131396D01*
X127416000Y-88175538D01*
X127416000Y-89624462D01*
X127411653Y-89668604D01*
X127400568Y-89705144D01*
X127382567Y-89738821D01*
X127358341Y-89768341D01*
X127328821Y-89792567D01*
X127295144Y-89810568D01*
X127258604Y-89821653D01*
X127214462Y-89826000D01*
X126265538Y-89826000D01*
X126221396Y-89821653D01*
X126184856Y-89810568D01*
X126151179Y-89792567D01*
X126121659Y-89768341D01*
X126097433Y-89738821D01*
X126079432Y-89705144D01*
X126068347Y-89668604D01*
X126064000Y-89624462D01*
X126064000Y-88175538D01*
X126068347Y-88131396D01*
X126079432Y-88094856D01*
X126097433Y-88061179D01*
X126121659Y-88031659D01*
X126151179Y-88007433D01*
X126184856Y-87989432D01*
X126221396Y-87978347D01*
X126265538Y-87974000D01*
X127214462Y-87974000D01*
X127258604Y-87978347D01*
X127258604Y-87978347D01*
G37*
G36*
X106081004Y-85514547D02*
G01*
X106117544Y-85525632D01*
X106151221Y-85543633D01*
X106180741Y-85567859D01*
X106204967Y-85597379D01*
X106222968Y-85631056D01*
X106234053Y-85667596D01*
X106238400Y-85711738D01*
X106238400Y-87160662D01*
X106234053Y-87204804D01*
X106222968Y-87241344D01*
X106204967Y-87275021D01*
X106180741Y-87304541D01*
X106151221Y-87328767D01*
X106117544Y-87346768D01*
X106081004Y-87357853D01*
X106036862Y-87362200D01*
X105087938Y-87362200D01*
X105043796Y-87357853D01*
X105007256Y-87346768D01*
X104973579Y-87328767D01*
X104944059Y-87304541D01*
X104919833Y-87275021D01*
X104901832Y-87241344D01*
X104890747Y-87204804D01*
X104886400Y-87160662D01*
X104886400Y-85711738D01*
X104890747Y-85667596D01*
X104901832Y-85631056D01*
X104919833Y-85597379D01*
X104944059Y-85567859D01*
X104973579Y-85543633D01*
X105007256Y-85525632D01*
X105043796Y-85514547D01*
X105087938Y-85510200D01*
X106036862Y-85510200D01*
X106081004Y-85514547D01*
X106081004Y-85514547D01*
G37*
G36*
X103281004Y-85514547D02*
G01*
X103317544Y-85525632D01*
X103351221Y-85543633D01*
X103380741Y-85567859D01*
X103404967Y-85597379D01*
X103422968Y-85631056D01*
X103434053Y-85667596D01*
X103438400Y-85711738D01*
X103438400Y-87160662D01*
X103434053Y-87204804D01*
X103422968Y-87241344D01*
X103404967Y-87275021D01*
X103380741Y-87304541D01*
X103351221Y-87328767D01*
X103317544Y-87346768D01*
X103281004Y-87357853D01*
X103236862Y-87362200D01*
X102287938Y-87362200D01*
X102243796Y-87357853D01*
X102207256Y-87346768D01*
X102173579Y-87328767D01*
X102144059Y-87304541D01*
X102119833Y-87275021D01*
X102101832Y-87241344D01*
X102090747Y-87204804D01*
X102086400Y-87160662D01*
X102086400Y-85711738D01*
X102090747Y-85667596D01*
X102101832Y-85631056D01*
X102119833Y-85597379D01*
X102144059Y-85567859D01*
X102173579Y-85543633D01*
X102207256Y-85525632D01*
X102243796Y-85514547D01*
X102287938Y-85510200D01*
X103236862Y-85510200D01*
X103281004Y-85514547D01*
X103281004Y-85514547D01*
G37*
G36*
X146822604Y-83914347D02*
G01*
X146859144Y-83925432D01*
X146892821Y-83943433D01*
X146922341Y-83967659D01*
X146946567Y-83997179D01*
X146964568Y-84030856D01*
X146975653Y-84067396D01*
X146980000Y-84111538D01*
X146980000Y-85560462D01*
X146975653Y-85604604D01*
X146964568Y-85641144D01*
X146946567Y-85674821D01*
X146922341Y-85704341D01*
X146892821Y-85728567D01*
X146859144Y-85746568D01*
X146822604Y-85757653D01*
X146778462Y-85762000D01*
X145829538Y-85762000D01*
X145785396Y-85757653D01*
X145748856Y-85746568D01*
X145715179Y-85728567D01*
X145685659Y-85704341D01*
X145661433Y-85674821D01*
X145643432Y-85641144D01*
X145632347Y-85604604D01*
X145628000Y-85560462D01*
X145628000Y-84111538D01*
X145632347Y-84067396D01*
X145643432Y-84030856D01*
X145661433Y-83997179D01*
X145685659Y-83967659D01*
X145715179Y-83943433D01*
X145748856Y-83925432D01*
X145785396Y-83914347D01*
X145829538Y-83910000D01*
X146778462Y-83910000D01*
X146822604Y-83914347D01*
X146822604Y-83914347D01*
G37*
G36*
X127258604Y-83914347D02*
G01*
X127295144Y-83925432D01*
X127328821Y-83943433D01*
X127358341Y-83967659D01*
X127382567Y-83997179D01*
X127400568Y-84030856D01*
X127411653Y-84067396D01*
X127416000Y-84111538D01*
X127416000Y-85560462D01*
X127411653Y-85604604D01*
X127400568Y-85641144D01*
X127382567Y-85674821D01*
X127358341Y-85704341D01*
X127328821Y-85728567D01*
X127295144Y-85746568D01*
X127258604Y-85757653D01*
X127214462Y-85762000D01*
X126265538Y-85762000D01*
X126221396Y-85757653D01*
X126184856Y-85746568D01*
X126151179Y-85728567D01*
X126121659Y-85704341D01*
X126097433Y-85674821D01*
X126079432Y-85641144D01*
X126068347Y-85604604D01*
X126064000Y-85560462D01*
X126064000Y-84111538D01*
X126068347Y-84067396D01*
X126079432Y-84030856D01*
X126097433Y-83997179D01*
X126121659Y-83967659D01*
X126151179Y-83943433D01*
X126184856Y-83925432D01*
X126221396Y-83914347D01*
X126265538Y-83910000D01*
X127214462Y-83910000D01*
X127258604Y-83914347D01*
X127258604Y-83914347D01*
G37*
G36*
X149622604Y-83914347D02*
G01*
X149659144Y-83925432D01*
X149692821Y-83943433D01*
X149722341Y-83967659D01*
X149746567Y-83997179D01*
X149764568Y-84030856D01*
X149775653Y-84067396D01*
X149780000Y-84111538D01*
X149780000Y-85560462D01*
X149775653Y-85604604D01*
X149764568Y-85641144D01*
X149746567Y-85674821D01*
X149722341Y-85704341D01*
X149692821Y-85728567D01*
X149659144Y-85746568D01*
X149622604Y-85757653D01*
X149578462Y-85762000D01*
X148629538Y-85762000D01*
X148585396Y-85757653D01*
X148548856Y-85746568D01*
X148515179Y-85728567D01*
X148485659Y-85704341D01*
X148461433Y-85674821D01*
X148443432Y-85641144D01*
X148432347Y-85604604D01*
X148428000Y-85560462D01*
X148428000Y-84111538D01*
X148432347Y-84067396D01*
X148443432Y-84030856D01*
X148461433Y-83997179D01*
X148485659Y-83967659D01*
X148515179Y-83943433D01*
X148548856Y-83925432D01*
X148585396Y-83914347D01*
X148629538Y-83910000D01*
X149578462Y-83910000D01*
X149622604Y-83914347D01*
X149622604Y-83914347D01*
G37*
G36*
X153674604Y-83914347D02*
G01*
X153711144Y-83925432D01*
X153744821Y-83943433D01*
X153774341Y-83967659D01*
X153798567Y-83997179D01*
X153816568Y-84030856D01*
X153827653Y-84067396D01*
X153832000Y-84111538D01*
X153832000Y-85560462D01*
X153827653Y-85604604D01*
X153816568Y-85641144D01*
X153798567Y-85674821D01*
X153774341Y-85704341D01*
X153744821Y-85728567D01*
X153711144Y-85746568D01*
X153674604Y-85757653D01*
X153630462Y-85762000D01*
X152681538Y-85762000D01*
X152637396Y-85757653D01*
X152600856Y-85746568D01*
X152567179Y-85728567D01*
X152537659Y-85704341D01*
X152513433Y-85674821D01*
X152495432Y-85641144D01*
X152484347Y-85604604D01*
X152480000Y-85560462D01*
X152480000Y-84111538D01*
X152484347Y-84067396D01*
X152495432Y-84030856D01*
X152513433Y-83997179D01*
X152537659Y-83967659D01*
X152567179Y-83943433D01*
X152600856Y-83925432D01*
X152637396Y-83914347D01*
X152681538Y-83910000D01*
X153630462Y-83910000D01*
X153674604Y-83914347D01*
X153674604Y-83914347D01*
G37*
G36*
X130058604Y-83914347D02*
G01*
X130095144Y-83925432D01*
X130128821Y-83943433D01*
X130158341Y-83967659D01*
X130182567Y-83997179D01*
X130200568Y-84030856D01*
X130211653Y-84067396D01*
X130216000Y-84111538D01*
X130216000Y-85560462D01*
X130211653Y-85604604D01*
X130200568Y-85641144D01*
X130182567Y-85674821D01*
X130158341Y-85704341D01*
X130128821Y-85728567D01*
X130095144Y-85746568D01*
X130058604Y-85757653D01*
X130014462Y-85762000D01*
X129065538Y-85762000D01*
X129021396Y-85757653D01*
X128984856Y-85746568D01*
X128951179Y-85728567D01*
X128921659Y-85704341D01*
X128897433Y-85674821D01*
X128879432Y-85641144D01*
X128868347Y-85604604D01*
X128864000Y-85560462D01*
X128864000Y-84111538D01*
X128868347Y-84067396D01*
X128879432Y-84030856D01*
X128897433Y-83997179D01*
X128921659Y-83967659D01*
X128951179Y-83943433D01*
X128984856Y-83925432D01*
X129021396Y-83914347D01*
X129065538Y-83910000D01*
X130014462Y-83910000D01*
X130058604Y-83914347D01*
X130058604Y-83914347D01*
G37*
G36*
X121422604Y-83914347D02*
G01*
X121459144Y-83925432D01*
X121492821Y-83943433D01*
X121522341Y-83967659D01*
X121546567Y-83997179D01*
X121564568Y-84030856D01*
X121575653Y-84067396D01*
X121580000Y-84111538D01*
X121580000Y-85560462D01*
X121575653Y-85604604D01*
X121564568Y-85641144D01*
X121546567Y-85674821D01*
X121522341Y-85704341D01*
X121492821Y-85728567D01*
X121459144Y-85746568D01*
X121422604Y-85757653D01*
X121378462Y-85762000D01*
X120429538Y-85762000D01*
X120385396Y-85757653D01*
X120348856Y-85746568D01*
X120315179Y-85728567D01*
X120285659Y-85704341D01*
X120261433Y-85674821D01*
X120243432Y-85641144D01*
X120232347Y-85604604D01*
X120228000Y-85560462D01*
X120228000Y-84111538D01*
X120232347Y-84067396D01*
X120243432Y-84030856D01*
X120261433Y-83997179D01*
X120285659Y-83967659D01*
X120315179Y-83943433D01*
X120348856Y-83925432D01*
X120385396Y-83914347D01*
X120429538Y-83910000D01*
X121378462Y-83910000D01*
X121422604Y-83914347D01*
X121422604Y-83914347D01*
G37*
G36*
X124222604Y-83914347D02*
G01*
X124259144Y-83925432D01*
X124292821Y-83943433D01*
X124322341Y-83967659D01*
X124346567Y-83997179D01*
X124364568Y-84030856D01*
X124375653Y-84067396D01*
X124380000Y-84111538D01*
X124380000Y-85560462D01*
X124375653Y-85604604D01*
X124364568Y-85641144D01*
X124346567Y-85674821D01*
X124322341Y-85704341D01*
X124292821Y-85728567D01*
X124259144Y-85746568D01*
X124222604Y-85757653D01*
X124178462Y-85762000D01*
X123229538Y-85762000D01*
X123185396Y-85757653D01*
X123148856Y-85746568D01*
X123115179Y-85728567D01*
X123085659Y-85704341D01*
X123061433Y-85674821D01*
X123043432Y-85641144D01*
X123032347Y-85604604D01*
X123028000Y-85560462D01*
X123028000Y-84111538D01*
X123032347Y-84067396D01*
X123043432Y-84030856D01*
X123061433Y-83997179D01*
X123085659Y-83967659D01*
X123115179Y-83943433D01*
X123148856Y-83925432D01*
X123185396Y-83914347D01*
X123229538Y-83910000D01*
X124178462Y-83910000D01*
X124222604Y-83914347D01*
X124222604Y-83914347D01*
G37*
G36*
X156474604Y-83914347D02*
G01*
X156511144Y-83925432D01*
X156544821Y-83943433D01*
X156574341Y-83967659D01*
X156598567Y-83997179D01*
X156616568Y-84030856D01*
X156627653Y-84067396D01*
X156632000Y-84111538D01*
X156632000Y-85560462D01*
X156627653Y-85604604D01*
X156616568Y-85641144D01*
X156598567Y-85674821D01*
X156574341Y-85704341D01*
X156544821Y-85728567D01*
X156511144Y-85746568D01*
X156474604Y-85757653D01*
X156430462Y-85762000D01*
X155481538Y-85762000D01*
X155437396Y-85757653D01*
X155400856Y-85746568D01*
X155367179Y-85728567D01*
X155337659Y-85704341D01*
X155313433Y-85674821D01*
X155295432Y-85641144D01*
X155284347Y-85604604D01*
X155280000Y-85560462D01*
X155280000Y-84111538D01*
X155284347Y-84067396D01*
X155295432Y-84030856D01*
X155313433Y-83997179D01*
X155337659Y-83967659D01*
X155367179Y-83943433D01*
X155400856Y-83925432D01*
X155437396Y-83914347D01*
X155481538Y-83910000D01*
X156430462Y-83910000D01*
X156474604Y-83914347D01*
X156474604Y-83914347D01*
G37*
G36*
X103281004Y-82974547D02*
G01*
X103317544Y-82985632D01*
X103351221Y-83003633D01*
X103380741Y-83027859D01*
X103404967Y-83057379D01*
X103422968Y-83091056D01*
X103434053Y-83127596D01*
X103438400Y-83171738D01*
X103438400Y-84620662D01*
X103434053Y-84664804D01*
X103422968Y-84701344D01*
X103404967Y-84735021D01*
X103380741Y-84764541D01*
X103351221Y-84788767D01*
X103317544Y-84806768D01*
X103281004Y-84817853D01*
X103236862Y-84822200D01*
X102287938Y-84822200D01*
X102243796Y-84817853D01*
X102207256Y-84806768D01*
X102173579Y-84788767D01*
X102144059Y-84764541D01*
X102119833Y-84735021D01*
X102101832Y-84701344D01*
X102090747Y-84664804D01*
X102086400Y-84620662D01*
X102086400Y-83171738D01*
X102090747Y-83127596D01*
X102101832Y-83091056D01*
X102119833Y-83057379D01*
X102144059Y-83027859D01*
X102173579Y-83003633D01*
X102207256Y-82985632D01*
X102243796Y-82974547D01*
X102287938Y-82970200D01*
X103236862Y-82970200D01*
X103281004Y-82974547D01*
X103281004Y-82974547D01*
G37*
G36*
X106081004Y-82974547D02*
G01*
X106117544Y-82985632D01*
X106151221Y-83003633D01*
X106180741Y-83027859D01*
X106204967Y-83057379D01*
X106222968Y-83091056D01*
X106234053Y-83127596D01*
X106238400Y-83171738D01*
X106238400Y-84620662D01*
X106234053Y-84664804D01*
X106222968Y-84701344D01*
X106204967Y-84735021D01*
X106180741Y-84764541D01*
X106151221Y-84788767D01*
X106117544Y-84806768D01*
X106081004Y-84817853D01*
X106036862Y-84822200D01*
X105087938Y-84822200D01*
X105043796Y-84817853D01*
X105007256Y-84806768D01*
X104973579Y-84788767D01*
X104944059Y-84764541D01*
X104919833Y-84735021D01*
X104901832Y-84701344D01*
X104890747Y-84664804D01*
X104886400Y-84620662D01*
X104886400Y-83171738D01*
X104890747Y-83127596D01*
X104901832Y-83091056D01*
X104919833Y-83057379D01*
X104944059Y-83027859D01*
X104973579Y-83003633D01*
X105007256Y-82985632D01*
X105043796Y-82974547D01*
X105087938Y-82970200D01*
X106036862Y-82970200D01*
X106081004Y-82974547D01*
X106081004Y-82974547D01*
G37*
G36*
X93629004Y-80942547D02*
G01*
X93665544Y-80953632D01*
X93699221Y-80971633D01*
X93728741Y-80995859D01*
X93752967Y-81025379D01*
X93770968Y-81059056D01*
X93782053Y-81095596D01*
X93786400Y-81139738D01*
X93786400Y-82588662D01*
X93782053Y-82632804D01*
X93770968Y-82669344D01*
X93752967Y-82703021D01*
X93728741Y-82732541D01*
X93699221Y-82756767D01*
X93665544Y-82774768D01*
X93629004Y-82785853D01*
X93584862Y-82790200D01*
X92635938Y-82790200D01*
X92591796Y-82785853D01*
X92555256Y-82774768D01*
X92521579Y-82756767D01*
X92492059Y-82732541D01*
X92467833Y-82703021D01*
X92449832Y-82669344D01*
X92438747Y-82632804D01*
X92434400Y-82588662D01*
X92434400Y-81139738D01*
X92438747Y-81095596D01*
X92449832Y-81059056D01*
X92467833Y-81025379D01*
X92492059Y-80995859D01*
X92521579Y-80971633D01*
X92555256Y-80953632D01*
X92591796Y-80942547D01*
X92635938Y-80938200D01*
X93584862Y-80938200D01*
X93629004Y-80942547D01*
X93629004Y-80942547D01*
G37*
G36*
X96429004Y-80942547D02*
G01*
X96465544Y-80953632D01*
X96499221Y-80971633D01*
X96528741Y-80995859D01*
X96552967Y-81025379D01*
X96570968Y-81059056D01*
X96582053Y-81095596D01*
X96586400Y-81139738D01*
X96586400Y-82588662D01*
X96582053Y-82632804D01*
X96570968Y-82669344D01*
X96552967Y-82703021D01*
X96528741Y-82732541D01*
X96499221Y-82756767D01*
X96465544Y-82774768D01*
X96429004Y-82785853D01*
X96384862Y-82790200D01*
X95435938Y-82790200D01*
X95391796Y-82785853D01*
X95355256Y-82774768D01*
X95321579Y-82756767D01*
X95292059Y-82732541D01*
X95267833Y-82703021D01*
X95249832Y-82669344D01*
X95238747Y-82632804D01*
X95234400Y-82588662D01*
X95234400Y-81139738D01*
X95238747Y-81095596D01*
X95249832Y-81059056D01*
X95267833Y-81025379D01*
X95292059Y-80995859D01*
X95321579Y-80971633D01*
X95355256Y-80953632D01*
X95391796Y-80942547D01*
X95435938Y-80938200D01*
X96384862Y-80938200D01*
X96429004Y-80942547D01*
X96429004Y-80942547D01*
G37*
G36*
X149622604Y-80866347D02*
G01*
X149659144Y-80877432D01*
X149692821Y-80895433D01*
X149722341Y-80919659D01*
X149746567Y-80949179D01*
X149764568Y-80982856D01*
X149775653Y-81019396D01*
X149780000Y-81063538D01*
X149780000Y-82512462D01*
X149775653Y-82556604D01*
X149764568Y-82593144D01*
X149746567Y-82626821D01*
X149722341Y-82656341D01*
X149692821Y-82680567D01*
X149659144Y-82698568D01*
X149622604Y-82709653D01*
X149578462Y-82714000D01*
X148629538Y-82714000D01*
X148585396Y-82709653D01*
X148548856Y-82698568D01*
X148515179Y-82680567D01*
X148485659Y-82656341D01*
X148461433Y-82626821D01*
X148443432Y-82593144D01*
X148432347Y-82556604D01*
X148428000Y-82512462D01*
X148428000Y-81063538D01*
X148432347Y-81019396D01*
X148443432Y-80982856D01*
X148461433Y-80949179D01*
X148485659Y-80919659D01*
X148515179Y-80895433D01*
X148548856Y-80877432D01*
X148585396Y-80866347D01*
X148629538Y-80862000D01*
X149578462Y-80862000D01*
X149622604Y-80866347D01*
X149622604Y-80866347D01*
G37*
G36*
X146822604Y-80866347D02*
G01*
X146859144Y-80877432D01*
X146892821Y-80895433D01*
X146922341Y-80919659D01*
X146946567Y-80949179D01*
X146964568Y-80982856D01*
X146975653Y-81019396D01*
X146980000Y-81063538D01*
X146980000Y-82512462D01*
X146975653Y-82556604D01*
X146964568Y-82593144D01*
X146946567Y-82626821D01*
X146922341Y-82656341D01*
X146892821Y-82680567D01*
X146859144Y-82698568D01*
X146822604Y-82709653D01*
X146778462Y-82714000D01*
X145829538Y-82714000D01*
X145785396Y-82709653D01*
X145748856Y-82698568D01*
X145715179Y-82680567D01*
X145685659Y-82656341D01*
X145661433Y-82626821D01*
X145643432Y-82593144D01*
X145632347Y-82556604D01*
X145628000Y-82512462D01*
X145628000Y-81063538D01*
X145632347Y-81019396D01*
X145643432Y-80982856D01*
X145661433Y-80949179D01*
X145685659Y-80919659D01*
X145715179Y-80895433D01*
X145748856Y-80877432D01*
X145785396Y-80866347D01*
X145829538Y-80862000D01*
X146778462Y-80862000D01*
X146822604Y-80866347D01*
X146822604Y-80866347D01*
G37*
G36*
X124222604Y-80866347D02*
G01*
X124259144Y-80877432D01*
X124292821Y-80895433D01*
X124322341Y-80919659D01*
X124346567Y-80949179D01*
X124364568Y-80982856D01*
X124375653Y-81019396D01*
X124380000Y-81063538D01*
X124380000Y-82512462D01*
X124375653Y-82556604D01*
X124364568Y-82593144D01*
X124346567Y-82626821D01*
X124322341Y-82656341D01*
X124292821Y-82680567D01*
X124259144Y-82698568D01*
X124222604Y-82709653D01*
X124178462Y-82714000D01*
X123229538Y-82714000D01*
X123185396Y-82709653D01*
X123148856Y-82698568D01*
X123115179Y-82680567D01*
X123085659Y-82656341D01*
X123061433Y-82626821D01*
X123043432Y-82593144D01*
X123032347Y-82556604D01*
X123028000Y-82512462D01*
X123028000Y-81063538D01*
X123032347Y-81019396D01*
X123043432Y-80982856D01*
X123061433Y-80949179D01*
X123085659Y-80919659D01*
X123115179Y-80895433D01*
X123148856Y-80877432D01*
X123185396Y-80866347D01*
X123229538Y-80862000D01*
X124178462Y-80862000D01*
X124222604Y-80866347D01*
X124222604Y-80866347D01*
G37*
G36*
X121422604Y-80866347D02*
G01*
X121459144Y-80877432D01*
X121492821Y-80895433D01*
X121522341Y-80919659D01*
X121546567Y-80949179D01*
X121564568Y-80982856D01*
X121575653Y-81019396D01*
X121580000Y-81063538D01*
X121580000Y-82512462D01*
X121575653Y-82556604D01*
X121564568Y-82593144D01*
X121546567Y-82626821D01*
X121522341Y-82656341D01*
X121492821Y-82680567D01*
X121459144Y-82698568D01*
X121422604Y-82709653D01*
X121378462Y-82714000D01*
X120429538Y-82714000D01*
X120385396Y-82709653D01*
X120348856Y-82698568D01*
X120315179Y-82680567D01*
X120285659Y-82656341D01*
X120261433Y-82626821D01*
X120243432Y-82593144D01*
X120232347Y-82556604D01*
X120228000Y-82512462D01*
X120228000Y-81063538D01*
X120232347Y-81019396D01*
X120243432Y-80982856D01*
X120261433Y-80949179D01*
X120285659Y-80919659D01*
X120315179Y-80895433D01*
X120348856Y-80877432D01*
X120385396Y-80866347D01*
X120429538Y-80862000D01*
X121378462Y-80862000D01*
X121422604Y-80866347D01*
X121422604Y-80866347D01*
G37*
G36*
X158207804Y-80028147D02*
G01*
X158244344Y-80039232D01*
X158278021Y-80057233D01*
X158307541Y-80081459D01*
X158331767Y-80110979D01*
X158349768Y-80144656D01*
X158360853Y-80181196D01*
X158365200Y-80225338D01*
X158365200Y-81674262D01*
X158360853Y-81718404D01*
X158349768Y-81754944D01*
X158331767Y-81788621D01*
X158307541Y-81818141D01*
X158278021Y-81842367D01*
X158244344Y-81860368D01*
X158207804Y-81871453D01*
X158163662Y-81875800D01*
X157214738Y-81875800D01*
X157170596Y-81871453D01*
X157134056Y-81860368D01*
X157100379Y-81842367D01*
X157070859Y-81818141D01*
X157046633Y-81788621D01*
X157028632Y-81754944D01*
X157017547Y-81718404D01*
X157013200Y-81674262D01*
X157013200Y-80225338D01*
X157017547Y-80181196D01*
X157028632Y-80144656D01*
X157046633Y-80110979D01*
X157070859Y-80081459D01*
X157100379Y-80057233D01*
X157134056Y-80039232D01*
X157170596Y-80028147D01*
X157214738Y-80023800D01*
X158163662Y-80023800D01*
X158207804Y-80028147D01*
X158207804Y-80028147D01*
G37*
G36*
X155407804Y-80028147D02*
G01*
X155444344Y-80039232D01*
X155478021Y-80057233D01*
X155507541Y-80081459D01*
X155531767Y-80110979D01*
X155549768Y-80144656D01*
X155560853Y-80181196D01*
X155565200Y-80225338D01*
X155565200Y-81674262D01*
X155560853Y-81718404D01*
X155549768Y-81754944D01*
X155531767Y-81788621D01*
X155507541Y-81818141D01*
X155478021Y-81842367D01*
X155444344Y-81860368D01*
X155407804Y-81871453D01*
X155363662Y-81875800D01*
X154414738Y-81875800D01*
X154370596Y-81871453D01*
X154334056Y-81860368D01*
X154300379Y-81842367D01*
X154270859Y-81818141D01*
X154246633Y-81788621D01*
X154228632Y-81754944D01*
X154217547Y-81718404D01*
X154213200Y-81674262D01*
X154213200Y-80225338D01*
X154217547Y-80181196D01*
X154228632Y-80144656D01*
X154246633Y-80110979D01*
X154270859Y-80081459D01*
X154300379Y-80057233D01*
X154334056Y-80039232D01*
X154370596Y-80028147D01*
X154414738Y-80023800D01*
X155363662Y-80023800D01*
X155407804Y-80028147D01*
X155407804Y-80028147D01*
G37*
G36*
X131842604Y-79850347D02*
G01*
X131879144Y-79861432D01*
X131912821Y-79879433D01*
X131942341Y-79903659D01*
X131966567Y-79933179D01*
X131984568Y-79966856D01*
X131995653Y-80003396D01*
X132000000Y-80047538D01*
X132000000Y-81496462D01*
X131995653Y-81540604D01*
X131984568Y-81577144D01*
X131966567Y-81610821D01*
X131942341Y-81640341D01*
X131912821Y-81664567D01*
X131879144Y-81682568D01*
X131842604Y-81693653D01*
X131798462Y-81698000D01*
X130849538Y-81698000D01*
X130805396Y-81693653D01*
X130768856Y-81682568D01*
X130735179Y-81664567D01*
X130705659Y-81640341D01*
X130681433Y-81610821D01*
X130663432Y-81577144D01*
X130652347Y-81540604D01*
X130648000Y-81496462D01*
X130648000Y-80047538D01*
X130652347Y-80003396D01*
X130663432Y-79966856D01*
X130681433Y-79933179D01*
X130705659Y-79903659D01*
X130735179Y-79879433D01*
X130768856Y-79861432D01*
X130805396Y-79850347D01*
X130849538Y-79846000D01*
X131798462Y-79846000D01*
X131842604Y-79850347D01*
X131842604Y-79850347D01*
G37*
G36*
X129042604Y-79850347D02*
G01*
X129079144Y-79861432D01*
X129112821Y-79879433D01*
X129142341Y-79903659D01*
X129166567Y-79933179D01*
X129184568Y-79966856D01*
X129195653Y-80003396D01*
X129200000Y-80047538D01*
X129200000Y-81496462D01*
X129195653Y-81540604D01*
X129184568Y-81577144D01*
X129166567Y-81610821D01*
X129142341Y-81640341D01*
X129112821Y-81664567D01*
X129079144Y-81682568D01*
X129042604Y-81693653D01*
X128998462Y-81698000D01*
X128049538Y-81698000D01*
X128005396Y-81693653D01*
X127968856Y-81682568D01*
X127935179Y-81664567D01*
X127905659Y-81640341D01*
X127881433Y-81610821D01*
X127863432Y-81577144D01*
X127852347Y-81540604D01*
X127848000Y-81496462D01*
X127848000Y-80047538D01*
X127852347Y-80003396D01*
X127863432Y-79966856D01*
X127881433Y-79933179D01*
X127905659Y-79903659D01*
X127935179Y-79879433D01*
X127968856Y-79861432D01*
X128005396Y-79850347D01*
X128049538Y-79846000D01*
X128998462Y-79846000D01*
X129042604Y-79850347D01*
X129042604Y-79850347D01*
G37*
G36*
X102525004Y-77894547D02*
G01*
X102561544Y-77905632D01*
X102595221Y-77923633D01*
X102624741Y-77947859D01*
X102648967Y-77977379D01*
X102666968Y-78011056D01*
X102678053Y-78047596D01*
X102682400Y-78091738D01*
X102682400Y-79540662D01*
X102678053Y-79584804D01*
X102666968Y-79621344D01*
X102648967Y-79655021D01*
X102624741Y-79684541D01*
X102595221Y-79708767D01*
X102561544Y-79726768D01*
X102525004Y-79737853D01*
X102480862Y-79742200D01*
X101531938Y-79742200D01*
X101487796Y-79737853D01*
X101451256Y-79726768D01*
X101417579Y-79708767D01*
X101388059Y-79684541D01*
X101363833Y-79655021D01*
X101345832Y-79621344D01*
X101334747Y-79584804D01*
X101330400Y-79540662D01*
X101330400Y-78091738D01*
X101334747Y-78047596D01*
X101345832Y-78011056D01*
X101363833Y-77977379D01*
X101388059Y-77947859D01*
X101417579Y-77923633D01*
X101451256Y-77905632D01*
X101487796Y-77894547D01*
X101531938Y-77890200D01*
X102480862Y-77890200D01*
X102525004Y-77894547D01*
X102525004Y-77894547D01*
G37*
G36*
X93629004Y-77894547D02*
G01*
X93665544Y-77905632D01*
X93699221Y-77923633D01*
X93728741Y-77947859D01*
X93752967Y-77977379D01*
X93770968Y-78011056D01*
X93782053Y-78047596D01*
X93786400Y-78091738D01*
X93786400Y-79540662D01*
X93782053Y-79584804D01*
X93770968Y-79621344D01*
X93752967Y-79655021D01*
X93728741Y-79684541D01*
X93699221Y-79708767D01*
X93665544Y-79726768D01*
X93629004Y-79737853D01*
X93584862Y-79742200D01*
X92635938Y-79742200D01*
X92591796Y-79737853D01*
X92555256Y-79726768D01*
X92521579Y-79708767D01*
X92492059Y-79684541D01*
X92467833Y-79655021D01*
X92449832Y-79621344D01*
X92438747Y-79584804D01*
X92434400Y-79540662D01*
X92434400Y-78091738D01*
X92438747Y-78047596D01*
X92449832Y-78011056D01*
X92467833Y-77977379D01*
X92492059Y-77947859D01*
X92521579Y-77923633D01*
X92555256Y-77905632D01*
X92591796Y-77894547D01*
X92635938Y-77890200D01*
X93584862Y-77890200D01*
X93629004Y-77894547D01*
X93629004Y-77894547D01*
G37*
G36*
X99725004Y-77894547D02*
G01*
X99761544Y-77905632D01*
X99795221Y-77923633D01*
X99824741Y-77947859D01*
X99848967Y-77977379D01*
X99866968Y-78011056D01*
X99878053Y-78047596D01*
X99882400Y-78091738D01*
X99882400Y-79540662D01*
X99878053Y-79584804D01*
X99866968Y-79621344D01*
X99848967Y-79655021D01*
X99824741Y-79684541D01*
X99795221Y-79708767D01*
X99761544Y-79726768D01*
X99725004Y-79737853D01*
X99680862Y-79742200D01*
X98731938Y-79742200D01*
X98687796Y-79737853D01*
X98651256Y-79726768D01*
X98617579Y-79708767D01*
X98588059Y-79684541D01*
X98563833Y-79655021D01*
X98545832Y-79621344D01*
X98534747Y-79584804D01*
X98530400Y-79540662D01*
X98530400Y-78091738D01*
X98534747Y-78047596D01*
X98545832Y-78011056D01*
X98563833Y-77977379D01*
X98588059Y-77947859D01*
X98617579Y-77923633D01*
X98651256Y-77905632D01*
X98687796Y-77894547D01*
X98731938Y-77890200D01*
X99680862Y-77890200D01*
X99725004Y-77894547D01*
X99725004Y-77894547D01*
G37*
G36*
X96429004Y-77894547D02*
G01*
X96465544Y-77905632D01*
X96499221Y-77923633D01*
X96528741Y-77947859D01*
X96552967Y-77977379D01*
X96570968Y-78011056D01*
X96582053Y-78047596D01*
X96586400Y-78091738D01*
X96586400Y-79540662D01*
X96582053Y-79584804D01*
X96570968Y-79621344D01*
X96552967Y-79655021D01*
X96528741Y-79684541D01*
X96499221Y-79708767D01*
X96465544Y-79726768D01*
X96429004Y-79737853D01*
X96384862Y-79742200D01*
X95435938Y-79742200D01*
X95391796Y-79737853D01*
X95355256Y-79726768D01*
X95321579Y-79708767D01*
X95292059Y-79684541D01*
X95267833Y-79655021D01*
X95249832Y-79621344D01*
X95238747Y-79584804D01*
X95234400Y-79540662D01*
X95234400Y-78091738D01*
X95238747Y-78047596D01*
X95249832Y-78011056D01*
X95267833Y-77977379D01*
X95292059Y-77947859D01*
X95321579Y-77923633D01*
X95355256Y-77905632D01*
X95391796Y-77894547D01*
X95435938Y-77890200D01*
X96384862Y-77890200D01*
X96429004Y-77894547D01*
X96429004Y-77894547D01*
G37*
G36*
X121422604Y-77818347D02*
G01*
X121459144Y-77829432D01*
X121492821Y-77847433D01*
X121522341Y-77871659D01*
X121546567Y-77901179D01*
X121564568Y-77934856D01*
X121575653Y-77971396D01*
X121580000Y-78015538D01*
X121580000Y-79464462D01*
X121575653Y-79508604D01*
X121564568Y-79545144D01*
X121546567Y-79578821D01*
X121522341Y-79608341D01*
X121492821Y-79632567D01*
X121459144Y-79650568D01*
X121422604Y-79661653D01*
X121378462Y-79666000D01*
X120429538Y-79666000D01*
X120385396Y-79661653D01*
X120348856Y-79650568D01*
X120315179Y-79632567D01*
X120285659Y-79608341D01*
X120261433Y-79578821D01*
X120243432Y-79545144D01*
X120232347Y-79508604D01*
X120228000Y-79464462D01*
X120228000Y-78015538D01*
X120232347Y-77971396D01*
X120243432Y-77934856D01*
X120261433Y-77901179D01*
X120285659Y-77871659D01*
X120315179Y-77847433D01*
X120348856Y-77829432D01*
X120385396Y-77818347D01*
X120429538Y-77814000D01*
X121378462Y-77814000D01*
X121422604Y-77818347D01*
X121422604Y-77818347D01*
G37*
G36*
X146822604Y-77818347D02*
G01*
X146859144Y-77829432D01*
X146892821Y-77847433D01*
X146922341Y-77871659D01*
X146946567Y-77901179D01*
X146964568Y-77934856D01*
X146975653Y-77971396D01*
X146980000Y-78015538D01*
X146980000Y-79464462D01*
X146975653Y-79508604D01*
X146964568Y-79545144D01*
X146946567Y-79578821D01*
X146922341Y-79608341D01*
X146892821Y-79632567D01*
X146859144Y-79650568D01*
X146822604Y-79661653D01*
X146778462Y-79666000D01*
X145829538Y-79666000D01*
X145785396Y-79661653D01*
X145748856Y-79650568D01*
X145715179Y-79632567D01*
X145685659Y-79608341D01*
X145661433Y-79578821D01*
X145643432Y-79545144D01*
X145632347Y-79508604D01*
X145628000Y-79464462D01*
X145628000Y-78015538D01*
X145632347Y-77971396D01*
X145643432Y-77934856D01*
X145661433Y-77901179D01*
X145685659Y-77871659D01*
X145715179Y-77847433D01*
X145748856Y-77829432D01*
X145785396Y-77818347D01*
X145829538Y-77814000D01*
X146778462Y-77814000D01*
X146822604Y-77818347D01*
X146822604Y-77818347D01*
G37*
G36*
X149622604Y-77818347D02*
G01*
X149659144Y-77829432D01*
X149692821Y-77847433D01*
X149722341Y-77871659D01*
X149746567Y-77901179D01*
X149764568Y-77934856D01*
X149775653Y-77971396D01*
X149780000Y-78015538D01*
X149780000Y-79464462D01*
X149775653Y-79508604D01*
X149764568Y-79545144D01*
X149746567Y-79578821D01*
X149722341Y-79608341D01*
X149692821Y-79632567D01*
X149659144Y-79650568D01*
X149622604Y-79661653D01*
X149578462Y-79666000D01*
X148629538Y-79666000D01*
X148585396Y-79661653D01*
X148548856Y-79650568D01*
X148515179Y-79632567D01*
X148485659Y-79608341D01*
X148461433Y-79578821D01*
X148443432Y-79545144D01*
X148432347Y-79508604D01*
X148428000Y-79464462D01*
X148428000Y-78015538D01*
X148432347Y-77971396D01*
X148443432Y-77934856D01*
X148461433Y-77901179D01*
X148485659Y-77871659D01*
X148515179Y-77847433D01*
X148548856Y-77829432D01*
X148585396Y-77818347D01*
X148629538Y-77814000D01*
X149578462Y-77814000D01*
X149622604Y-77818347D01*
X149622604Y-77818347D01*
G37*
G36*
X124222604Y-77818347D02*
G01*
X124259144Y-77829432D01*
X124292821Y-77847433D01*
X124322341Y-77871659D01*
X124346567Y-77901179D01*
X124364568Y-77934856D01*
X124375653Y-77971396D01*
X124380000Y-78015538D01*
X124380000Y-79464462D01*
X124375653Y-79508604D01*
X124364568Y-79545144D01*
X124346567Y-79578821D01*
X124322341Y-79608341D01*
X124292821Y-79632567D01*
X124259144Y-79650568D01*
X124222604Y-79661653D01*
X124178462Y-79666000D01*
X123229538Y-79666000D01*
X123185396Y-79661653D01*
X123148856Y-79650568D01*
X123115179Y-79632567D01*
X123085659Y-79608341D01*
X123061433Y-79578821D01*
X123043432Y-79545144D01*
X123032347Y-79508604D01*
X123028000Y-79464462D01*
X123028000Y-78015538D01*
X123032347Y-77971396D01*
X123043432Y-77934856D01*
X123061433Y-77901179D01*
X123085659Y-77871659D01*
X123115179Y-77847433D01*
X123148856Y-77829432D01*
X123185396Y-77818347D01*
X123229538Y-77814000D01*
X124178462Y-77814000D01*
X124222604Y-77818347D01*
X124222604Y-77818347D01*
G37*
G36*
X127768604Y-75280347D02*
G01*
X127805144Y-75291432D01*
X127838821Y-75309433D01*
X127868341Y-75333659D01*
X127892567Y-75363179D01*
X127910568Y-75396856D01*
X127921653Y-75433396D01*
X127926000Y-75477538D01*
X127926000Y-76426462D01*
X127921653Y-76470604D01*
X127910568Y-76507144D01*
X127892567Y-76540821D01*
X127868341Y-76570341D01*
X127838821Y-76594567D01*
X127805144Y-76612568D01*
X127768604Y-76623653D01*
X127724462Y-76628000D01*
X126275538Y-76628000D01*
X126231396Y-76623653D01*
X126194856Y-76612568D01*
X126161179Y-76594567D01*
X126131659Y-76570341D01*
X126107433Y-76540821D01*
X126089432Y-76507144D01*
X126078347Y-76470604D01*
X126074000Y-76426462D01*
X126074000Y-75477538D01*
X126078347Y-75433396D01*
X126089432Y-75396856D01*
X126107433Y-75363179D01*
X126131659Y-75333659D01*
X126161179Y-75309433D01*
X126194856Y-75291432D01*
X126231396Y-75280347D01*
X126275538Y-75276000D01*
X127724462Y-75276000D01*
X127768604Y-75280347D01*
X127768604Y-75280347D01*
G37*
G36*
X153676604Y-74772347D02*
G01*
X153713144Y-74783432D01*
X153746821Y-74801433D01*
X153776341Y-74825659D01*
X153800567Y-74855179D01*
X153818568Y-74888856D01*
X153829653Y-74925396D01*
X153834000Y-74969538D01*
X153834000Y-75918462D01*
X153829653Y-75962604D01*
X153818568Y-75999144D01*
X153800567Y-76032821D01*
X153776341Y-76062341D01*
X153746821Y-76086567D01*
X153713144Y-76104568D01*
X153676604Y-76115653D01*
X153632462Y-76120000D01*
X152183538Y-76120000D01*
X152139396Y-76115653D01*
X152102856Y-76104568D01*
X152069179Y-76086567D01*
X152039659Y-76062341D01*
X152015433Y-76032821D01*
X151997432Y-75999144D01*
X151986347Y-75962604D01*
X151982000Y-75918462D01*
X151982000Y-74969538D01*
X151986347Y-74925396D01*
X151997432Y-74888856D01*
X152015433Y-74855179D01*
X152039659Y-74825659D01*
X152069179Y-74801433D01*
X152102856Y-74783432D01*
X152139396Y-74772347D01*
X152183538Y-74768000D01*
X153632462Y-74768000D01*
X153676604Y-74772347D01*
X153676604Y-74772347D01*
G37*
G36*
X100825400Y-76035000D02*
G01*
X99123400Y-76035000D01*
X99123400Y-74333000D01*
X100825400Y-74333000D01*
X100825400Y-76035000D01*
X100825400Y-76035000D01*
G37*
G36*
X93631004Y-74340547D02*
G01*
X93667544Y-74351632D01*
X93701221Y-74369633D01*
X93730741Y-74393859D01*
X93754967Y-74423379D01*
X93772968Y-74457056D01*
X93784053Y-74493596D01*
X93788400Y-74537738D01*
X93788400Y-75486662D01*
X93784053Y-75530804D01*
X93772968Y-75567344D01*
X93754967Y-75601021D01*
X93730741Y-75630541D01*
X93701221Y-75654767D01*
X93667544Y-75672768D01*
X93631004Y-75683853D01*
X93586862Y-75688200D01*
X92137938Y-75688200D01*
X92093796Y-75683853D01*
X92057256Y-75672768D01*
X92023579Y-75654767D01*
X91994059Y-75630541D01*
X91969833Y-75601021D01*
X91951832Y-75567344D01*
X91940747Y-75530804D01*
X91936400Y-75486662D01*
X91936400Y-74537738D01*
X91940747Y-74493596D01*
X91951832Y-74457056D01*
X91969833Y-74423379D01*
X91994059Y-74393859D01*
X92023579Y-74369633D01*
X92057256Y-74351632D01*
X92093796Y-74340547D01*
X92137938Y-74336200D01*
X93586862Y-74336200D01*
X93631004Y-74340547D01*
X93631004Y-74340547D01*
G37*
G36*
X127768604Y-72480347D02*
G01*
X127805144Y-72491432D01*
X127838821Y-72509433D01*
X127868341Y-72533659D01*
X127892567Y-72563179D01*
X127910568Y-72596856D01*
X127921653Y-72633396D01*
X127926000Y-72677538D01*
X127926000Y-73626462D01*
X127921653Y-73670604D01*
X127910568Y-73707144D01*
X127892567Y-73740821D01*
X127868341Y-73770341D01*
X127838821Y-73794567D01*
X127805144Y-73812568D01*
X127768604Y-73823653D01*
X127724462Y-73828000D01*
X126275538Y-73828000D01*
X126231396Y-73823653D01*
X126194856Y-73812568D01*
X126161179Y-73794567D01*
X126131659Y-73770341D01*
X126107433Y-73740821D01*
X126089432Y-73707144D01*
X126078347Y-73670604D01*
X126074000Y-73626462D01*
X126074000Y-72677538D01*
X126078347Y-72633396D01*
X126089432Y-72596856D01*
X126107433Y-72563179D01*
X126131659Y-72533659D01*
X126161179Y-72509433D01*
X126194856Y-72491432D01*
X126231396Y-72480347D01*
X126275538Y-72476000D01*
X127724462Y-72476000D01*
X127768604Y-72480347D01*
X127768604Y-72480347D01*
G37*
G36*
X100222628Y-71865703D02*
G01*
X100377500Y-71929853D01*
X100516881Y-72022985D01*
X100635415Y-72141519D01*
X100728547Y-72280900D01*
X100792697Y-72435772D01*
X100825400Y-72600184D01*
X100825400Y-72767816D01*
X100792697Y-72932228D01*
X100728547Y-73087100D01*
X100635415Y-73226481D01*
X100516881Y-73345015D01*
X100377500Y-73438147D01*
X100222628Y-73502297D01*
X100058216Y-73535000D01*
X99890584Y-73535000D01*
X99726172Y-73502297D01*
X99571300Y-73438147D01*
X99431919Y-73345015D01*
X99313385Y-73226481D01*
X99220253Y-73087100D01*
X99156103Y-72932228D01*
X99123400Y-72767816D01*
X99123400Y-72600184D01*
X99156103Y-72435772D01*
X99220253Y-72280900D01*
X99313385Y-72141519D01*
X99431919Y-72022985D01*
X99571300Y-71929853D01*
X99726172Y-71865703D01*
X99890584Y-71833000D01*
X100058216Y-71833000D01*
X100222628Y-71865703D01*
X100222628Y-71865703D01*
G37*
G36*
X121152228Y-71825703D02*
G01*
X121307100Y-71889853D01*
X121446481Y-71982985D01*
X121565015Y-72101519D01*
X121658147Y-72240900D01*
X121722297Y-72395772D01*
X121755000Y-72560184D01*
X121755000Y-72727816D01*
X121722297Y-72892228D01*
X121658147Y-73047100D01*
X121565015Y-73186481D01*
X121446481Y-73305015D01*
X121307100Y-73398147D01*
X121152228Y-73462297D01*
X120987816Y-73495000D01*
X120820184Y-73495000D01*
X120655772Y-73462297D01*
X120500900Y-73398147D01*
X120361519Y-73305015D01*
X120242985Y-73186481D01*
X120149853Y-73047100D01*
X120085703Y-72892228D01*
X120053000Y-72727816D01*
X120053000Y-72560184D01*
X120085703Y-72395772D01*
X120149853Y-72240900D01*
X120242985Y-72101519D01*
X120361519Y-71982985D01*
X120500900Y-71889853D01*
X120655772Y-71825703D01*
X120820184Y-71793000D01*
X120987816Y-71793000D01*
X121152228Y-71825703D01*
X121152228Y-71825703D01*
G37*
G36*
X124255000Y-73495000D02*
G01*
X122553000Y-73495000D01*
X122553000Y-71793000D01*
X124255000Y-71793000D01*
X124255000Y-73495000D01*
X124255000Y-73495000D01*
G37*
G36*
X146552228Y-71825703D02*
G01*
X146707100Y-71889853D01*
X146846481Y-71982985D01*
X146965015Y-72101519D01*
X147058147Y-72240900D01*
X147122297Y-72395772D01*
X147155000Y-72560184D01*
X147155000Y-72727816D01*
X147122297Y-72892228D01*
X147058147Y-73047100D01*
X146965015Y-73186481D01*
X146846481Y-73305015D01*
X146707100Y-73398147D01*
X146552228Y-73462297D01*
X146387816Y-73495000D01*
X146220184Y-73495000D01*
X146055772Y-73462297D01*
X145900900Y-73398147D01*
X145761519Y-73305015D01*
X145642985Y-73186481D01*
X145549853Y-73047100D01*
X145485703Y-72892228D01*
X145453000Y-72727816D01*
X145453000Y-72560184D01*
X145485703Y-72395772D01*
X145549853Y-72240900D01*
X145642985Y-72101519D01*
X145761519Y-71982985D01*
X145900900Y-71889853D01*
X146055772Y-71825703D01*
X146220184Y-71793000D01*
X146387816Y-71793000D01*
X146552228Y-71825703D01*
X146552228Y-71825703D01*
G37*
G36*
X149655000Y-73495000D02*
G01*
X147953000Y-73495000D01*
X147953000Y-71793000D01*
X149655000Y-71793000D01*
X149655000Y-73495000D01*
X149655000Y-73495000D01*
G37*
G36*
X153676604Y-71972347D02*
G01*
X153713144Y-71983432D01*
X153746821Y-72001433D01*
X153776341Y-72025659D01*
X153800567Y-72055179D01*
X153818568Y-72088856D01*
X153829653Y-72125396D01*
X153834000Y-72169538D01*
X153834000Y-73118462D01*
X153829653Y-73162604D01*
X153818568Y-73199144D01*
X153800567Y-73232821D01*
X153776341Y-73262341D01*
X153746821Y-73286567D01*
X153713144Y-73304568D01*
X153676604Y-73315653D01*
X153632462Y-73320000D01*
X152183538Y-73320000D01*
X152139396Y-73315653D01*
X152102856Y-73304568D01*
X152069179Y-73286567D01*
X152039659Y-73262341D01*
X152015433Y-73232821D01*
X151997432Y-73199144D01*
X151986347Y-73162604D01*
X151982000Y-73118462D01*
X151982000Y-72169538D01*
X151986347Y-72125396D01*
X151997432Y-72088856D01*
X152015433Y-72055179D01*
X152039659Y-72025659D01*
X152069179Y-72001433D01*
X152102856Y-71983432D01*
X152139396Y-71972347D01*
X152183538Y-71968000D01*
X153632462Y-71968000D01*
X153676604Y-71972347D01*
X153676604Y-71972347D01*
G37*
G36*
X93631004Y-71540547D02*
G01*
X93667544Y-71551632D01*
X93701221Y-71569633D01*
X93730741Y-71593859D01*
X93754967Y-71623379D01*
X93772968Y-71657056D01*
X93784053Y-71693596D01*
X93788400Y-71737738D01*
X93788400Y-72686662D01*
X93784053Y-72730804D01*
X93772968Y-72767344D01*
X93754967Y-72801021D01*
X93730741Y-72830541D01*
X93701221Y-72854767D01*
X93667544Y-72872768D01*
X93631004Y-72883853D01*
X93586862Y-72888200D01*
X92137938Y-72888200D01*
X92093796Y-72883853D01*
X92057256Y-72872768D01*
X92023579Y-72854767D01*
X91994059Y-72830541D01*
X91969833Y-72801021D01*
X91951832Y-72767344D01*
X91940747Y-72730804D01*
X91936400Y-72686662D01*
X91936400Y-71737738D01*
X91940747Y-71693596D01*
X91951832Y-71657056D01*
X91969833Y-71623379D01*
X91994059Y-71593859D01*
X92023579Y-71569633D01*
X92057256Y-71551632D01*
X92093796Y-71540547D01*
X92137938Y-71536200D01*
X93586862Y-71536200D01*
X93631004Y-71540547D01*
X93631004Y-71540547D01*
G37*
G36*
X150661000Y-66841000D02*
G01*
X149059000Y-66841000D01*
X149059000Y-65239000D01*
X150661000Y-65239000D01*
X150661000Y-66841000D01*
X150661000Y-66841000D01*
G37*
G36*
X152593642Y-65269781D02*
G01*
X152739414Y-65330162D01*
X152739416Y-65330163D01*
X152870608Y-65417822D01*
X152982178Y-65529392D01*
X153069837Y-65660584D01*
X153069838Y-65660586D01*
X153130219Y-65806358D01*
X153161000Y-65961107D01*
X153161000Y-66118893D01*
X153130219Y-66273642D01*
X153086231Y-66379837D01*
X153069837Y-66419416D01*
X152982178Y-66550608D01*
X152870608Y-66662178D01*
X152739416Y-66749837D01*
X152739415Y-66749838D01*
X152739414Y-66749838D01*
X152593642Y-66810219D01*
X152438893Y-66841000D01*
X152281107Y-66841000D01*
X152126358Y-66810219D01*
X151980586Y-66749838D01*
X151980585Y-66749838D01*
X151980584Y-66749837D01*
X151849392Y-66662178D01*
X151737822Y-66550608D01*
X151650163Y-66419416D01*
X151633769Y-66379837D01*
X151589781Y-66273642D01*
X151559000Y-66118893D01*
X151559000Y-65961107D01*
X151589781Y-65806358D01*
X151650162Y-65660586D01*
X151650163Y-65660584D01*
X151737822Y-65529392D01*
X151849392Y-65417822D01*
X151980584Y-65330163D01*
X151980586Y-65330162D01*
X152126358Y-65269781D01*
X152281107Y-65239000D01*
X152438893Y-65239000D01*
X152593642Y-65269781D01*
X152593642Y-65269781D01*
G37*
G36*
X127543642Y-64899781D02*
G01*
X127689414Y-64960162D01*
X127689416Y-64960163D01*
X127820608Y-65047822D01*
X127932178Y-65159392D01*
X128019837Y-65290584D01*
X128019838Y-65290586D01*
X128080219Y-65436358D01*
X128111000Y-65591107D01*
X128111000Y-65748893D01*
X128080219Y-65903642D01*
X128019838Y-66049414D01*
X128019837Y-66049416D01*
X127932178Y-66180608D01*
X127820608Y-66292178D01*
X127689416Y-66379837D01*
X127689415Y-66379838D01*
X127689414Y-66379838D01*
X127543642Y-66440219D01*
X127388893Y-66471000D01*
X127231107Y-66471000D01*
X127076358Y-66440219D01*
X126930586Y-66379838D01*
X126930585Y-66379838D01*
X126930584Y-66379837D01*
X126799392Y-66292178D01*
X126687822Y-66180608D01*
X126600163Y-66049416D01*
X126600162Y-66049414D01*
X126539781Y-65903642D01*
X126509000Y-65748893D01*
X126509000Y-65591107D01*
X126539781Y-65436358D01*
X126600162Y-65290586D01*
X126600163Y-65290584D01*
X126687822Y-65159392D01*
X126799392Y-65047822D01*
X126930584Y-64960163D01*
X126930586Y-64960162D01*
X127076358Y-64899781D01*
X127231107Y-64869000D01*
X127388893Y-64869000D01*
X127543642Y-64899781D01*
X127543642Y-64899781D01*
G37*
G36*
X125611000Y-66471000D02*
G01*
X124009000Y-66471000D01*
X124009000Y-64869000D01*
X125611000Y-64869000D01*
X125611000Y-66471000D01*
X125611000Y-66471000D01*
G37*
G36*
X100676042Y-64837981D02*
G01*
X100821814Y-64898362D01*
X100821816Y-64898363D01*
X100953008Y-64986022D01*
X101064578Y-65097592D01*
X101152237Y-65228784D01*
X101152238Y-65228786D01*
X101212619Y-65374558D01*
X101243400Y-65529307D01*
X101243400Y-65687093D01*
X101212619Y-65841842D01*
X101163217Y-65961108D01*
X101152237Y-65987616D01*
X101064578Y-66118808D01*
X100953008Y-66230378D01*
X100821816Y-66318037D01*
X100821815Y-66318038D01*
X100821814Y-66318038D01*
X100676042Y-66378419D01*
X100521293Y-66409200D01*
X100363507Y-66409200D01*
X100208758Y-66378419D01*
X100062986Y-66318038D01*
X100062985Y-66318038D01*
X100062984Y-66318037D01*
X99931792Y-66230378D01*
X99820222Y-66118808D01*
X99732563Y-65987616D01*
X99721583Y-65961108D01*
X99672181Y-65841842D01*
X99641400Y-65687093D01*
X99641400Y-65529307D01*
X99672181Y-65374558D01*
X99732562Y-65228786D01*
X99732563Y-65228784D01*
X99820222Y-65097592D01*
X99931792Y-64986022D01*
X100062984Y-64898363D01*
X100062986Y-64898362D01*
X100208758Y-64837981D01*
X100363507Y-64807200D01*
X100521293Y-64807200D01*
X100676042Y-64837981D01*
X100676042Y-64837981D01*
G37*
G36*
X98743400Y-66409200D02*
G01*
X97141400Y-66409200D01*
X97141400Y-64807200D01*
X98743400Y-64807200D01*
X98743400Y-66409200D01*
X98743400Y-66409200D01*
G37*
G36*
X152593642Y-63269781D02*
G01*
X152739414Y-63330162D01*
X152739416Y-63330163D01*
X152870608Y-63417822D01*
X152982178Y-63529392D01*
X153069837Y-63660584D01*
X153069838Y-63660586D01*
X153130219Y-63806358D01*
X153161000Y-63961107D01*
X153161000Y-64118893D01*
X153130219Y-64273642D01*
X153086231Y-64379837D01*
X153069837Y-64419416D01*
X152982178Y-64550608D01*
X152870608Y-64662178D01*
X152739416Y-64749837D01*
X152739415Y-64749838D01*
X152739414Y-64749838D01*
X152593642Y-64810219D01*
X152438893Y-64841000D01*
X152281107Y-64841000D01*
X152126358Y-64810219D01*
X151980586Y-64749838D01*
X151980585Y-64749838D01*
X151980584Y-64749837D01*
X151849392Y-64662178D01*
X151737822Y-64550608D01*
X151650163Y-64419416D01*
X151633769Y-64379837D01*
X151589781Y-64273642D01*
X151559000Y-64118893D01*
X151559000Y-63961107D01*
X151589781Y-63806358D01*
X151650162Y-63660586D01*
X151650163Y-63660584D01*
X151737822Y-63529392D01*
X151849392Y-63417822D01*
X151980584Y-63330163D01*
X151980586Y-63330162D01*
X152126358Y-63269781D01*
X152281107Y-63239000D01*
X152438893Y-63239000D01*
X152593642Y-63269781D01*
X152593642Y-63269781D01*
G37*
G36*
X150093642Y-63269781D02*
G01*
X150239414Y-63330162D01*
X150239416Y-63330163D01*
X150370608Y-63417822D01*
X150482178Y-63529392D01*
X150569837Y-63660584D01*
X150569838Y-63660586D01*
X150630219Y-63806358D01*
X150661000Y-63961107D01*
X150661000Y-64118893D01*
X150630219Y-64273642D01*
X150586231Y-64379837D01*
X150569837Y-64419416D01*
X150482178Y-64550608D01*
X150370608Y-64662178D01*
X150239416Y-64749837D01*
X150239415Y-64749838D01*
X150239414Y-64749838D01*
X150093642Y-64810219D01*
X149938893Y-64841000D01*
X149781107Y-64841000D01*
X149626358Y-64810219D01*
X149480586Y-64749838D01*
X149480585Y-64749838D01*
X149480584Y-64749837D01*
X149349392Y-64662178D01*
X149237822Y-64550608D01*
X149150163Y-64419416D01*
X149133769Y-64379837D01*
X149089781Y-64273642D01*
X149059000Y-64118893D01*
X149059000Y-63961107D01*
X149089781Y-63806358D01*
X149150162Y-63660586D01*
X149150163Y-63660584D01*
X149237822Y-63529392D01*
X149349392Y-63417822D01*
X149480584Y-63330163D01*
X149480586Y-63330162D01*
X149626358Y-63269781D01*
X149781107Y-63239000D01*
X149938893Y-63239000D01*
X150093642Y-63269781D01*
X150093642Y-63269781D01*
G37*
G36*
X127543642Y-62899781D02*
G01*
X127689414Y-62960162D01*
X127689416Y-62960163D01*
X127820608Y-63047822D01*
X127932178Y-63159392D01*
X128019837Y-63290584D01*
X128019838Y-63290586D01*
X128080219Y-63436358D01*
X128111000Y-63591107D01*
X128111000Y-63748893D01*
X128080219Y-63903642D01*
X128019838Y-64049414D01*
X128019837Y-64049416D01*
X127932178Y-64180608D01*
X127820608Y-64292178D01*
X127689416Y-64379837D01*
X127689415Y-64379838D01*
X127689414Y-64379838D01*
X127543642Y-64440219D01*
X127388893Y-64471000D01*
X127231107Y-64471000D01*
X127076358Y-64440219D01*
X126930586Y-64379838D01*
X126930585Y-64379838D01*
X126930584Y-64379837D01*
X126799392Y-64292178D01*
X126687822Y-64180608D01*
X126600163Y-64049416D01*
X126600162Y-64049414D01*
X126539781Y-63903642D01*
X126509000Y-63748893D01*
X126509000Y-63591107D01*
X126539781Y-63436358D01*
X126600162Y-63290586D01*
X126600163Y-63290584D01*
X126687822Y-63159392D01*
X126799392Y-63047822D01*
X126930584Y-62960163D01*
X126930586Y-62960162D01*
X127076358Y-62899781D01*
X127231107Y-62869000D01*
X127388893Y-62869000D01*
X127543642Y-62899781D01*
X127543642Y-62899781D01*
G37*
G36*
X125043642Y-62899781D02*
G01*
X125189414Y-62960162D01*
X125189416Y-62960163D01*
X125320608Y-63047822D01*
X125432178Y-63159392D01*
X125519837Y-63290584D01*
X125519838Y-63290586D01*
X125580219Y-63436358D01*
X125611000Y-63591107D01*
X125611000Y-63748893D01*
X125580219Y-63903642D01*
X125519838Y-64049414D01*
X125519837Y-64049416D01*
X125432178Y-64180608D01*
X125320608Y-64292178D01*
X125189416Y-64379837D01*
X125189415Y-64379838D01*
X125189414Y-64379838D01*
X125043642Y-64440219D01*
X124888893Y-64471000D01*
X124731107Y-64471000D01*
X124576358Y-64440219D01*
X124430586Y-64379838D01*
X124430585Y-64379838D01*
X124430584Y-64379837D01*
X124299392Y-64292178D01*
X124187822Y-64180608D01*
X124100163Y-64049416D01*
X124100162Y-64049414D01*
X124039781Y-63903642D01*
X124009000Y-63748893D01*
X124009000Y-63591107D01*
X124039781Y-63436358D01*
X124100162Y-63290586D01*
X124100163Y-63290584D01*
X124187822Y-63159392D01*
X124299392Y-63047822D01*
X124430584Y-62960163D01*
X124430586Y-62960162D01*
X124576358Y-62899781D01*
X124731107Y-62869000D01*
X124888893Y-62869000D01*
X125043642Y-62899781D01*
X125043642Y-62899781D01*
G37*
G36*
X100676042Y-62837981D02*
G01*
X100821814Y-62898362D01*
X100821816Y-62898363D01*
X100953008Y-62986022D01*
X101064578Y-63097592D01*
X101152237Y-63228784D01*
X101152238Y-63228786D01*
X101212619Y-63374558D01*
X101243400Y-63529307D01*
X101243400Y-63687093D01*
X101212619Y-63841842D01*
X101163217Y-63961108D01*
X101152237Y-63987616D01*
X101064578Y-64118808D01*
X100953008Y-64230378D01*
X100821816Y-64318037D01*
X100821815Y-64318038D01*
X100821814Y-64318038D01*
X100676042Y-64378419D01*
X100521293Y-64409200D01*
X100363507Y-64409200D01*
X100208758Y-64378419D01*
X100062986Y-64318038D01*
X100062985Y-64318038D01*
X100062984Y-64318037D01*
X99931792Y-64230378D01*
X99820222Y-64118808D01*
X99732563Y-63987616D01*
X99721583Y-63961108D01*
X99672181Y-63841842D01*
X99641400Y-63687093D01*
X99641400Y-63529307D01*
X99672181Y-63374558D01*
X99732562Y-63228786D01*
X99732563Y-63228784D01*
X99820222Y-63097592D01*
X99931792Y-62986022D01*
X100062984Y-62898363D01*
X100062986Y-62898362D01*
X100208758Y-62837981D01*
X100363507Y-62807200D01*
X100521293Y-62807200D01*
X100676042Y-62837981D01*
X100676042Y-62837981D01*
G37*
G36*
X98176042Y-62837981D02*
G01*
X98321814Y-62898362D01*
X98321816Y-62898363D01*
X98453008Y-62986022D01*
X98564578Y-63097592D01*
X98652237Y-63228784D01*
X98652238Y-63228786D01*
X98712619Y-63374558D01*
X98743400Y-63529307D01*
X98743400Y-63687093D01*
X98712619Y-63841842D01*
X98663217Y-63961108D01*
X98652237Y-63987616D01*
X98564578Y-64118808D01*
X98453008Y-64230378D01*
X98321816Y-64318037D01*
X98321815Y-64318038D01*
X98321814Y-64318038D01*
X98176042Y-64378419D01*
X98021293Y-64409200D01*
X97863507Y-64409200D01*
X97708758Y-64378419D01*
X97562986Y-64318038D01*
X97562985Y-64318038D01*
X97562984Y-64318037D01*
X97431792Y-64230378D01*
X97320222Y-64118808D01*
X97232563Y-63987616D01*
X97221583Y-63961108D01*
X97172181Y-63841842D01*
X97141400Y-63687093D01*
X97141400Y-63529307D01*
X97172181Y-63374558D01*
X97232562Y-63228786D01*
X97232563Y-63228784D01*
X97320222Y-63097592D01*
X97431792Y-62986022D01*
X97562984Y-62898363D01*
X97562986Y-62898362D01*
X97708758Y-62837981D01*
X97863507Y-62807200D01*
X98021293Y-62807200D01*
X98176042Y-62837981D01*
X98176042Y-62837981D01*
G37*
G36*
X145615331Y-59598211D02*
G01*
X145943092Y-59733974D01*
X146238070Y-59931072D01*
X146488928Y-60181930D01*
X146686026Y-60476908D01*
X146821789Y-60804669D01*
X146891000Y-61152616D01*
X146891000Y-61507384D01*
X146821789Y-61855331D01*
X146686026Y-62183092D01*
X146488928Y-62478070D01*
X146238070Y-62728928D01*
X145943092Y-62926026D01*
X145615331Y-63061789D01*
X145267384Y-63131000D01*
X144912616Y-63131000D01*
X144564669Y-63061789D01*
X144236908Y-62926026D01*
X143941930Y-62728928D01*
X143691072Y-62478070D01*
X143493974Y-62183092D01*
X143358211Y-61855331D01*
X143289000Y-61507384D01*
X143289000Y-61152616D01*
X143358211Y-60804669D01*
X143493974Y-60476908D01*
X143691072Y-60181930D01*
X143941930Y-59931072D01*
X144236908Y-59733974D01*
X144564669Y-59598211D01*
X144912616Y-59529000D01*
X145267384Y-59529000D01*
X145615331Y-59598211D01*
X145615331Y-59598211D01*
G37*
G36*
X157655331Y-59598211D02*
G01*
X157983092Y-59733974D01*
X158278070Y-59931072D01*
X158528928Y-60181930D01*
X158726026Y-60476908D01*
X158861789Y-60804669D01*
X158931000Y-61152616D01*
X158931000Y-61507384D01*
X158861789Y-61855331D01*
X158726026Y-62183092D01*
X158528928Y-62478070D01*
X158278070Y-62728928D01*
X157983092Y-62926026D01*
X157655331Y-63061789D01*
X157307384Y-63131000D01*
X156952616Y-63131000D01*
X156604669Y-63061789D01*
X156276908Y-62926026D01*
X155981930Y-62728928D01*
X155731072Y-62478070D01*
X155533974Y-62183092D01*
X155398211Y-61855331D01*
X155329000Y-61507384D01*
X155329000Y-61152616D01*
X155398211Y-60804669D01*
X155533974Y-60476908D01*
X155731072Y-60181930D01*
X155981930Y-59931072D01*
X156276908Y-59733974D01*
X156604669Y-59598211D01*
X156952616Y-59529000D01*
X157307384Y-59529000D01*
X157655331Y-59598211D01*
X157655331Y-59598211D01*
G37*
G36*
X120565331Y-59228211D02*
G01*
X120893092Y-59363974D01*
X121188070Y-59561072D01*
X121438928Y-59811930D01*
X121636026Y-60106908D01*
X121771789Y-60434669D01*
X121841000Y-60782616D01*
X121841000Y-61137384D01*
X121771789Y-61485331D01*
X121636026Y-61813092D01*
X121438928Y-62108070D01*
X121188070Y-62358928D01*
X120893092Y-62556026D01*
X120565331Y-62691789D01*
X120217384Y-62761000D01*
X119862616Y-62761000D01*
X119514669Y-62691789D01*
X119186908Y-62556026D01*
X118891930Y-62358928D01*
X118641072Y-62108070D01*
X118443974Y-61813092D01*
X118308211Y-61485331D01*
X118239000Y-61137384D01*
X118239000Y-60782616D01*
X118308211Y-60434669D01*
X118443974Y-60106908D01*
X118641072Y-59811930D01*
X118891930Y-59561072D01*
X119186908Y-59363974D01*
X119514669Y-59228211D01*
X119862616Y-59159000D01*
X120217384Y-59159000D01*
X120565331Y-59228211D01*
X120565331Y-59228211D01*
G37*
G36*
X132605331Y-59228211D02*
G01*
X132933092Y-59363974D01*
X133228070Y-59561072D01*
X133478928Y-59811930D01*
X133676026Y-60106908D01*
X133811789Y-60434669D01*
X133881000Y-60782616D01*
X133881000Y-61137384D01*
X133811789Y-61485331D01*
X133676026Y-61813092D01*
X133478928Y-62108070D01*
X133228070Y-62358928D01*
X132933092Y-62556026D01*
X132605331Y-62691789D01*
X132257384Y-62761000D01*
X131902616Y-62761000D01*
X131554669Y-62691789D01*
X131226908Y-62556026D01*
X130931930Y-62358928D01*
X130681072Y-62108070D01*
X130483974Y-61813092D01*
X130348211Y-61485331D01*
X130279000Y-61137384D01*
X130279000Y-60782616D01*
X130348211Y-60434669D01*
X130483974Y-60106908D01*
X130681072Y-59811930D01*
X130931930Y-59561072D01*
X131226908Y-59363974D01*
X131554669Y-59228211D01*
X131902616Y-59159000D01*
X132257384Y-59159000D01*
X132605331Y-59228211D01*
X132605331Y-59228211D01*
G37*
G36*
X93697731Y-59166411D02*
G01*
X94025492Y-59302174D01*
X94320470Y-59499272D01*
X94571328Y-59750130D01*
X94768426Y-60045108D01*
X94904189Y-60372869D01*
X94973400Y-60720816D01*
X94973400Y-61075584D01*
X94904189Y-61423531D01*
X94768426Y-61751292D01*
X94571328Y-62046270D01*
X94320470Y-62297128D01*
X94025492Y-62494226D01*
X93697731Y-62629989D01*
X93349784Y-62699200D01*
X92995016Y-62699200D01*
X92647069Y-62629989D01*
X92319308Y-62494226D01*
X92024330Y-62297128D01*
X91773472Y-62046270D01*
X91576374Y-61751292D01*
X91440611Y-61423531D01*
X91371400Y-61075584D01*
X91371400Y-60720816D01*
X91440611Y-60372869D01*
X91576374Y-60045108D01*
X91773472Y-59750130D01*
X92024330Y-59499272D01*
X92319308Y-59302174D01*
X92647069Y-59166411D01*
X92995016Y-59097200D01*
X93349784Y-59097200D01*
X93697731Y-59166411D01*
X93697731Y-59166411D01*
G37*
G36*
X105737731Y-59166411D02*
G01*
X106065492Y-59302174D01*
X106360470Y-59499272D01*
X106611328Y-59750130D01*
X106808426Y-60045108D01*
X106944189Y-60372869D01*
X107013400Y-60720816D01*
X107013400Y-61075584D01*
X106944189Y-61423531D01*
X106808426Y-61751292D01*
X106611328Y-62046270D01*
X106360470Y-62297128D01*
X106065492Y-62494226D01*
X105737731Y-62629989D01*
X105389784Y-62699200D01*
X105035016Y-62699200D01*
X104687069Y-62629989D01*
X104359308Y-62494226D01*
X104064330Y-62297128D01*
X103813472Y-62046270D01*
X103616374Y-61751292D01*
X103480611Y-61423531D01*
X103411400Y-61075584D01*
X103411400Y-60720816D01*
X103480611Y-60372869D01*
X103616374Y-60045108D01*
X103813472Y-59750130D01*
X104064330Y-59499272D01*
X104359308Y-59302174D01*
X104687069Y-59166411D01*
X105035016Y-59097200D01*
X105389784Y-59097200D01*
X105737731Y-59166411D01*
X105737731Y-59166411D01*
G37*
M02*
