G04 #@! TF.GenerationSoftware,KiCad,Pcbnew,(5.1.2)-2*
G04 #@! TF.CreationDate,2019-08-09T03:15:36+05:30*
G04 #@! TF.ProjectId,renesas-prog,72656e65-7361-4732-9d70-726f672e6b69,rev?*
G04 #@! TF.SameCoordinates,Original*
G04 #@! TF.FileFunction,Paste,Top*
G04 #@! TF.FilePolarity,Positive*
%FSLAX46Y46*%
G04 Gerber Fmt 4.6, Leading zero omitted, Abs format (unit mm)*
G04 Created by KiCad (PCBNEW (5.1.2)-2) date 2019-08-09 03:15:36*
%MOMM*%
%LPD*%
G04 APERTURE LIST*
%ADD10R,0.450000X1.750000*%
%ADD11C,0.100000*%
%ADD12C,1.250000*%
G04 APERTURE END LIST*
D10*
X148683000Y-103544000D03*
X149333000Y-103544000D03*
X149983000Y-103544000D03*
X150633000Y-103544000D03*
X151283000Y-103544000D03*
X151933000Y-103544000D03*
X152583000Y-103544000D03*
X153233000Y-103544000D03*
X153883000Y-103544000D03*
X154533000Y-103544000D03*
X155183000Y-103544000D03*
X155833000Y-103544000D03*
X156483000Y-103544000D03*
X157133000Y-103544000D03*
X157133000Y-110744000D03*
X156483000Y-110744000D03*
X155833000Y-110744000D03*
X155183000Y-110744000D03*
X154533000Y-110744000D03*
X153883000Y-110744000D03*
X153233000Y-110744000D03*
X152583000Y-110744000D03*
X151933000Y-110744000D03*
X151283000Y-110744000D03*
X150633000Y-110744000D03*
X149983000Y-110744000D03*
X149333000Y-110744000D03*
X148683000Y-110744000D03*
X121759000Y-103588000D03*
X122409000Y-103588000D03*
X123059000Y-103588000D03*
X123709000Y-103588000D03*
X124359000Y-103588000D03*
X125009000Y-103588000D03*
X125659000Y-103588000D03*
X126309000Y-103588000D03*
X126959000Y-103588000D03*
X127609000Y-103588000D03*
X128259000Y-103588000D03*
X128909000Y-103588000D03*
X129559000Y-103588000D03*
X130209000Y-103588000D03*
X130209000Y-110788000D03*
X129559000Y-110788000D03*
X128909000Y-110788000D03*
X128259000Y-110788000D03*
X127609000Y-110788000D03*
X126959000Y-110788000D03*
X126309000Y-110788000D03*
X125659000Y-110788000D03*
X125009000Y-110788000D03*
X124359000Y-110788000D03*
X123709000Y-110788000D03*
X123059000Y-110788000D03*
X122409000Y-110788000D03*
X121759000Y-110788000D03*
D11*
G36*
X153557504Y-72020204D02*
G01*
X153581773Y-72023804D01*
X153605571Y-72029765D01*
X153628671Y-72038030D01*
X153650849Y-72048520D01*
X153671893Y-72061133D01*
X153691598Y-72075747D01*
X153709777Y-72092223D01*
X153726253Y-72110402D01*
X153740867Y-72130107D01*
X153753480Y-72151151D01*
X153763970Y-72173329D01*
X153772235Y-72196429D01*
X153778196Y-72220227D01*
X153781796Y-72244496D01*
X153783000Y-72269000D01*
X153783000Y-73019000D01*
X153781796Y-73043504D01*
X153778196Y-73067773D01*
X153772235Y-73091571D01*
X153763970Y-73114671D01*
X153753480Y-73136849D01*
X153740867Y-73157893D01*
X153726253Y-73177598D01*
X153709777Y-73195777D01*
X153691598Y-73212253D01*
X153671893Y-73226867D01*
X153650849Y-73239480D01*
X153628671Y-73249970D01*
X153605571Y-73258235D01*
X153581773Y-73264196D01*
X153557504Y-73267796D01*
X153533000Y-73269000D01*
X152283000Y-73269000D01*
X152258496Y-73267796D01*
X152234227Y-73264196D01*
X152210429Y-73258235D01*
X152187329Y-73249970D01*
X152165151Y-73239480D01*
X152144107Y-73226867D01*
X152124402Y-73212253D01*
X152106223Y-73195777D01*
X152089747Y-73177598D01*
X152075133Y-73157893D01*
X152062520Y-73136849D01*
X152052030Y-73114671D01*
X152043765Y-73091571D01*
X152037804Y-73067773D01*
X152034204Y-73043504D01*
X152033000Y-73019000D01*
X152033000Y-72269000D01*
X152034204Y-72244496D01*
X152037804Y-72220227D01*
X152043765Y-72196429D01*
X152052030Y-72173329D01*
X152062520Y-72151151D01*
X152075133Y-72130107D01*
X152089747Y-72110402D01*
X152106223Y-72092223D01*
X152124402Y-72075747D01*
X152144107Y-72061133D01*
X152165151Y-72048520D01*
X152187329Y-72038030D01*
X152210429Y-72029765D01*
X152234227Y-72023804D01*
X152258496Y-72020204D01*
X152283000Y-72019000D01*
X153533000Y-72019000D01*
X153557504Y-72020204D01*
X153557504Y-72020204D01*
G37*
D12*
X152908000Y-72644000D03*
D11*
G36*
X153557504Y-74820204D02*
G01*
X153581773Y-74823804D01*
X153605571Y-74829765D01*
X153628671Y-74838030D01*
X153650849Y-74848520D01*
X153671893Y-74861133D01*
X153691598Y-74875747D01*
X153709777Y-74892223D01*
X153726253Y-74910402D01*
X153740867Y-74930107D01*
X153753480Y-74951151D01*
X153763970Y-74973329D01*
X153772235Y-74996429D01*
X153778196Y-75020227D01*
X153781796Y-75044496D01*
X153783000Y-75069000D01*
X153783000Y-75819000D01*
X153781796Y-75843504D01*
X153778196Y-75867773D01*
X153772235Y-75891571D01*
X153763970Y-75914671D01*
X153753480Y-75936849D01*
X153740867Y-75957893D01*
X153726253Y-75977598D01*
X153709777Y-75995777D01*
X153691598Y-76012253D01*
X153671893Y-76026867D01*
X153650849Y-76039480D01*
X153628671Y-76049970D01*
X153605571Y-76058235D01*
X153581773Y-76064196D01*
X153557504Y-76067796D01*
X153533000Y-76069000D01*
X152283000Y-76069000D01*
X152258496Y-76067796D01*
X152234227Y-76064196D01*
X152210429Y-76058235D01*
X152187329Y-76049970D01*
X152165151Y-76039480D01*
X152144107Y-76026867D01*
X152124402Y-76012253D01*
X152106223Y-75995777D01*
X152089747Y-75977598D01*
X152075133Y-75957893D01*
X152062520Y-75936849D01*
X152052030Y-75914671D01*
X152043765Y-75891571D01*
X152037804Y-75867773D01*
X152034204Y-75843504D01*
X152033000Y-75819000D01*
X152033000Y-75069000D01*
X152034204Y-75044496D01*
X152037804Y-75020227D01*
X152043765Y-74996429D01*
X152052030Y-74973329D01*
X152062520Y-74951151D01*
X152075133Y-74930107D01*
X152089747Y-74910402D01*
X152106223Y-74892223D01*
X152124402Y-74875747D01*
X152144107Y-74861133D01*
X152165151Y-74848520D01*
X152187329Y-74838030D01*
X152210429Y-74829765D01*
X152234227Y-74823804D01*
X152258496Y-74820204D01*
X152283000Y-74819000D01*
X153533000Y-74819000D01*
X153557504Y-74820204D01*
X153557504Y-74820204D01*
G37*
D12*
X152908000Y-75444000D03*
D11*
G36*
X127649504Y-72528204D02*
G01*
X127673773Y-72531804D01*
X127697571Y-72537765D01*
X127720671Y-72546030D01*
X127742849Y-72556520D01*
X127763893Y-72569133D01*
X127783598Y-72583747D01*
X127801777Y-72600223D01*
X127818253Y-72618402D01*
X127832867Y-72638107D01*
X127845480Y-72659151D01*
X127855970Y-72681329D01*
X127864235Y-72704429D01*
X127870196Y-72728227D01*
X127873796Y-72752496D01*
X127875000Y-72777000D01*
X127875000Y-73527000D01*
X127873796Y-73551504D01*
X127870196Y-73575773D01*
X127864235Y-73599571D01*
X127855970Y-73622671D01*
X127845480Y-73644849D01*
X127832867Y-73665893D01*
X127818253Y-73685598D01*
X127801777Y-73703777D01*
X127783598Y-73720253D01*
X127763893Y-73734867D01*
X127742849Y-73747480D01*
X127720671Y-73757970D01*
X127697571Y-73766235D01*
X127673773Y-73772196D01*
X127649504Y-73775796D01*
X127625000Y-73777000D01*
X126375000Y-73777000D01*
X126350496Y-73775796D01*
X126326227Y-73772196D01*
X126302429Y-73766235D01*
X126279329Y-73757970D01*
X126257151Y-73747480D01*
X126236107Y-73734867D01*
X126216402Y-73720253D01*
X126198223Y-73703777D01*
X126181747Y-73685598D01*
X126167133Y-73665893D01*
X126154520Y-73644849D01*
X126144030Y-73622671D01*
X126135765Y-73599571D01*
X126129804Y-73575773D01*
X126126204Y-73551504D01*
X126125000Y-73527000D01*
X126125000Y-72777000D01*
X126126204Y-72752496D01*
X126129804Y-72728227D01*
X126135765Y-72704429D01*
X126144030Y-72681329D01*
X126154520Y-72659151D01*
X126167133Y-72638107D01*
X126181747Y-72618402D01*
X126198223Y-72600223D01*
X126216402Y-72583747D01*
X126236107Y-72569133D01*
X126257151Y-72556520D01*
X126279329Y-72546030D01*
X126302429Y-72537765D01*
X126326227Y-72531804D01*
X126350496Y-72528204D01*
X126375000Y-72527000D01*
X127625000Y-72527000D01*
X127649504Y-72528204D01*
X127649504Y-72528204D01*
G37*
D12*
X127000000Y-73152000D03*
D11*
G36*
X127649504Y-75328204D02*
G01*
X127673773Y-75331804D01*
X127697571Y-75337765D01*
X127720671Y-75346030D01*
X127742849Y-75356520D01*
X127763893Y-75369133D01*
X127783598Y-75383747D01*
X127801777Y-75400223D01*
X127818253Y-75418402D01*
X127832867Y-75438107D01*
X127845480Y-75459151D01*
X127855970Y-75481329D01*
X127864235Y-75504429D01*
X127870196Y-75528227D01*
X127873796Y-75552496D01*
X127875000Y-75577000D01*
X127875000Y-76327000D01*
X127873796Y-76351504D01*
X127870196Y-76375773D01*
X127864235Y-76399571D01*
X127855970Y-76422671D01*
X127845480Y-76444849D01*
X127832867Y-76465893D01*
X127818253Y-76485598D01*
X127801777Y-76503777D01*
X127783598Y-76520253D01*
X127763893Y-76534867D01*
X127742849Y-76547480D01*
X127720671Y-76557970D01*
X127697571Y-76566235D01*
X127673773Y-76572196D01*
X127649504Y-76575796D01*
X127625000Y-76577000D01*
X126375000Y-76577000D01*
X126350496Y-76575796D01*
X126326227Y-76572196D01*
X126302429Y-76566235D01*
X126279329Y-76557970D01*
X126257151Y-76547480D01*
X126236107Y-76534867D01*
X126216402Y-76520253D01*
X126198223Y-76503777D01*
X126181747Y-76485598D01*
X126167133Y-76465893D01*
X126154520Y-76444849D01*
X126144030Y-76422671D01*
X126135765Y-76399571D01*
X126129804Y-76375773D01*
X126126204Y-76351504D01*
X126125000Y-76327000D01*
X126125000Y-75577000D01*
X126126204Y-75552496D01*
X126129804Y-75528227D01*
X126135765Y-75504429D01*
X126144030Y-75481329D01*
X126154520Y-75459151D01*
X126167133Y-75438107D01*
X126181747Y-75418402D01*
X126198223Y-75400223D01*
X126216402Y-75383747D01*
X126236107Y-75369133D01*
X126257151Y-75356520D01*
X126279329Y-75346030D01*
X126302429Y-75337765D01*
X126326227Y-75331804D01*
X126350496Y-75328204D01*
X126375000Y-75327000D01*
X127625000Y-75327000D01*
X127649504Y-75328204D01*
X127649504Y-75328204D01*
G37*
D12*
X127000000Y-75952000D03*
D11*
G36*
X158088704Y-80076004D02*
G01*
X158112973Y-80079604D01*
X158136771Y-80085565D01*
X158159871Y-80093830D01*
X158182049Y-80104320D01*
X158203093Y-80116933D01*
X158222798Y-80131547D01*
X158240977Y-80148023D01*
X158257453Y-80166202D01*
X158272067Y-80185907D01*
X158284680Y-80206951D01*
X158295170Y-80229129D01*
X158303435Y-80252229D01*
X158309396Y-80276027D01*
X158312996Y-80300296D01*
X158314200Y-80324800D01*
X158314200Y-81574800D01*
X158312996Y-81599304D01*
X158309396Y-81623573D01*
X158303435Y-81647371D01*
X158295170Y-81670471D01*
X158284680Y-81692649D01*
X158272067Y-81713693D01*
X158257453Y-81733398D01*
X158240977Y-81751577D01*
X158222798Y-81768053D01*
X158203093Y-81782667D01*
X158182049Y-81795280D01*
X158159871Y-81805770D01*
X158136771Y-81814035D01*
X158112973Y-81819996D01*
X158088704Y-81823596D01*
X158064200Y-81824800D01*
X157314200Y-81824800D01*
X157289696Y-81823596D01*
X157265427Y-81819996D01*
X157241629Y-81814035D01*
X157218529Y-81805770D01*
X157196351Y-81795280D01*
X157175307Y-81782667D01*
X157155602Y-81768053D01*
X157137423Y-81751577D01*
X157120947Y-81733398D01*
X157106333Y-81713693D01*
X157093720Y-81692649D01*
X157083230Y-81670471D01*
X157074965Y-81647371D01*
X157069004Y-81623573D01*
X157065404Y-81599304D01*
X157064200Y-81574800D01*
X157064200Y-80324800D01*
X157065404Y-80300296D01*
X157069004Y-80276027D01*
X157074965Y-80252229D01*
X157083230Y-80229129D01*
X157093720Y-80206951D01*
X157106333Y-80185907D01*
X157120947Y-80166202D01*
X157137423Y-80148023D01*
X157155602Y-80131547D01*
X157175307Y-80116933D01*
X157196351Y-80104320D01*
X157218529Y-80093830D01*
X157241629Y-80085565D01*
X157265427Y-80079604D01*
X157289696Y-80076004D01*
X157314200Y-80074800D01*
X158064200Y-80074800D01*
X158088704Y-80076004D01*
X158088704Y-80076004D01*
G37*
D12*
X157689200Y-80949800D03*
D11*
G36*
X155288704Y-80076004D02*
G01*
X155312973Y-80079604D01*
X155336771Y-80085565D01*
X155359871Y-80093830D01*
X155382049Y-80104320D01*
X155403093Y-80116933D01*
X155422798Y-80131547D01*
X155440977Y-80148023D01*
X155457453Y-80166202D01*
X155472067Y-80185907D01*
X155484680Y-80206951D01*
X155495170Y-80229129D01*
X155503435Y-80252229D01*
X155509396Y-80276027D01*
X155512996Y-80300296D01*
X155514200Y-80324800D01*
X155514200Y-81574800D01*
X155512996Y-81599304D01*
X155509396Y-81623573D01*
X155503435Y-81647371D01*
X155495170Y-81670471D01*
X155484680Y-81692649D01*
X155472067Y-81713693D01*
X155457453Y-81733398D01*
X155440977Y-81751577D01*
X155422798Y-81768053D01*
X155403093Y-81782667D01*
X155382049Y-81795280D01*
X155359871Y-81805770D01*
X155336771Y-81814035D01*
X155312973Y-81819996D01*
X155288704Y-81823596D01*
X155264200Y-81824800D01*
X154514200Y-81824800D01*
X154489696Y-81823596D01*
X154465427Y-81819996D01*
X154441629Y-81814035D01*
X154418529Y-81805770D01*
X154396351Y-81795280D01*
X154375307Y-81782667D01*
X154355602Y-81768053D01*
X154337423Y-81751577D01*
X154320947Y-81733398D01*
X154306333Y-81713693D01*
X154293720Y-81692649D01*
X154283230Y-81670471D01*
X154274965Y-81647371D01*
X154269004Y-81623573D01*
X154265404Y-81599304D01*
X154264200Y-81574800D01*
X154264200Y-80324800D01*
X154265404Y-80300296D01*
X154269004Y-80276027D01*
X154274965Y-80252229D01*
X154283230Y-80229129D01*
X154293720Y-80206951D01*
X154306333Y-80185907D01*
X154320947Y-80166202D01*
X154337423Y-80148023D01*
X154355602Y-80131547D01*
X154375307Y-80116933D01*
X154396351Y-80104320D01*
X154418529Y-80093830D01*
X154441629Y-80085565D01*
X154465427Y-80079604D01*
X154489696Y-80076004D01*
X154514200Y-80074800D01*
X155264200Y-80074800D01*
X155288704Y-80076004D01*
X155288704Y-80076004D01*
G37*
D12*
X154889200Y-80949800D03*
D11*
G36*
X156355504Y-83962204D02*
G01*
X156379773Y-83965804D01*
X156403571Y-83971765D01*
X156426671Y-83980030D01*
X156448849Y-83990520D01*
X156469893Y-84003133D01*
X156489598Y-84017747D01*
X156507777Y-84034223D01*
X156524253Y-84052402D01*
X156538867Y-84072107D01*
X156551480Y-84093151D01*
X156561970Y-84115329D01*
X156570235Y-84138429D01*
X156576196Y-84162227D01*
X156579796Y-84186496D01*
X156581000Y-84211000D01*
X156581000Y-85461000D01*
X156579796Y-85485504D01*
X156576196Y-85509773D01*
X156570235Y-85533571D01*
X156561970Y-85556671D01*
X156551480Y-85578849D01*
X156538867Y-85599893D01*
X156524253Y-85619598D01*
X156507777Y-85637777D01*
X156489598Y-85654253D01*
X156469893Y-85668867D01*
X156448849Y-85681480D01*
X156426671Y-85691970D01*
X156403571Y-85700235D01*
X156379773Y-85706196D01*
X156355504Y-85709796D01*
X156331000Y-85711000D01*
X155581000Y-85711000D01*
X155556496Y-85709796D01*
X155532227Y-85706196D01*
X155508429Y-85700235D01*
X155485329Y-85691970D01*
X155463151Y-85681480D01*
X155442107Y-85668867D01*
X155422402Y-85654253D01*
X155404223Y-85637777D01*
X155387747Y-85619598D01*
X155373133Y-85599893D01*
X155360520Y-85578849D01*
X155350030Y-85556671D01*
X155341765Y-85533571D01*
X155335804Y-85509773D01*
X155332204Y-85485504D01*
X155331000Y-85461000D01*
X155331000Y-84211000D01*
X155332204Y-84186496D01*
X155335804Y-84162227D01*
X155341765Y-84138429D01*
X155350030Y-84115329D01*
X155360520Y-84093151D01*
X155373133Y-84072107D01*
X155387747Y-84052402D01*
X155404223Y-84034223D01*
X155422402Y-84017747D01*
X155442107Y-84003133D01*
X155463151Y-83990520D01*
X155485329Y-83980030D01*
X155508429Y-83971765D01*
X155532227Y-83965804D01*
X155556496Y-83962204D01*
X155581000Y-83961000D01*
X156331000Y-83961000D01*
X156355504Y-83962204D01*
X156355504Y-83962204D01*
G37*
D12*
X155956000Y-84836000D03*
D11*
G36*
X153555504Y-83962204D02*
G01*
X153579773Y-83965804D01*
X153603571Y-83971765D01*
X153626671Y-83980030D01*
X153648849Y-83990520D01*
X153669893Y-84003133D01*
X153689598Y-84017747D01*
X153707777Y-84034223D01*
X153724253Y-84052402D01*
X153738867Y-84072107D01*
X153751480Y-84093151D01*
X153761970Y-84115329D01*
X153770235Y-84138429D01*
X153776196Y-84162227D01*
X153779796Y-84186496D01*
X153781000Y-84211000D01*
X153781000Y-85461000D01*
X153779796Y-85485504D01*
X153776196Y-85509773D01*
X153770235Y-85533571D01*
X153761970Y-85556671D01*
X153751480Y-85578849D01*
X153738867Y-85599893D01*
X153724253Y-85619598D01*
X153707777Y-85637777D01*
X153689598Y-85654253D01*
X153669893Y-85668867D01*
X153648849Y-85681480D01*
X153626671Y-85691970D01*
X153603571Y-85700235D01*
X153579773Y-85706196D01*
X153555504Y-85709796D01*
X153531000Y-85711000D01*
X152781000Y-85711000D01*
X152756496Y-85709796D01*
X152732227Y-85706196D01*
X152708429Y-85700235D01*
X152685329Y-85691970D01*
X152663151Y-85681480D01*
X152642107Y-85668867D01*
X152622402Y-85654253D01*
X152604223Y-85637777D01*
X152587747Y-85619598D01*
X152573133Y-85599893D01*
X152560520Y-85578849D01*
X152550030Y-85556671D01*
X152541765Y-85533571D01*
X152535804Y-85509773D01*
X152532204Y-85485504D01*
X152531000Y-85461000D01*
X152531000Y-84211000D01*
X152532204Y-84186496D01*
X152535804Y-84162227D01*
X152541765Y-84138429D01*
X152550030Y-84115329D01*
X152560520Y-84093151D01*
X152573133Y-84072107D01*
X152587747Y-84052402D01*
X152604223Y-84034223D01*
X152622402Y-84017747D01*
X152642107Y-84003133D01*
X152663151Y-83990520D01*
X152685329Y-83980030D01*
X152708429Y-83971765D01*
X152732227Y-83965804D01*
X152756496Y-83962204D01*
X152781000Y-83961000D01*
X153531000Y-83961000D01*
X153555504Y-83962204D01*
X153555504Y-83962204D01*
G37*
D12*
X153156000Y-84836000D03*
D11*
G36*
X131723504Y-79898204D02*
G01*
X131747773Y-79901804D01*
X131771571Y-79907765D01*
X131794671Y-79916030D01*
X131816849Y-79926520D01*
X131837893Y-79939133D01*
X131857598Y-79953747D01*
X131875777Y-79970223D01*
X131892253Y-79988402D01*
X131906867Y-80008107D01*
X131919480Y-80029151D01*
X131929970Y-80051329D01*
X131938235Y-80074429D01*
X131944196Y-80098227D01*
X131947796Y-80122496D01*
X131949000Y-80147000D01*
X131949000Y-81397000D01*
X131947796Y-81421504D01*
X131944196Y-81445773D01*
X131938235Y-81469571D01*
X131929970Y-81492671D01*
X131919480Y-81514849D01*
X131906867Y-81535893D01*
X131892253Y-81555598D01*
X131875777Y-81573777D01*
X131857598Y-81590253D01*
X131837893Y-81604867D01*
X131816849Y-81617480D01*
X131794671Y-81627970D01*
X131771571Y-81636235D01*
X131747773Y-81642196D01*
X131723504Y-81645796D01*
X131699000Y-81647000D01*
X130949000Y-81647000D01*
X130924496Y-81645796D01*
X130900227Y-81642196D01*
X130876429Y-81636235D01*
X130853329Y-81627970D01*
X130831151Y-81617480D01*
X130810107Y-81604867D01*
X130790402Y-81590253D01*
X130772223Y-81573777D01*
X130755747Y-81555598D01*
X130741133Y-81535893D01*
X130728520Y-81514849D01*
X130718030Y-81492671D01*
X130709765Y-81469571D01*
X130703804Y-81445773D01*
X130700204Y-81421504D01*
X130699000Y-81397000D01*
X130699000Y-80147000D01*
X130700204Y-80122496D01*
X130703804Y-80098227D01*
X130709765Y-80074429D01*
X130718030Y-80051329D01*
X130728520Y-80029151D01*
X130741133Y-80008107D01*
X130755747Y-79988402D01*
X130772223Y-79970223D01*
X130790402Y-79953747D01*
X130810107Y-79939133D01*
X130831151Y-79926520D01*
X130853329Y-79916030D01*
X130876429Y-79907765D01*
X130900227Y-79901804D01*
X130924496Y-79898204D01*
X130949000Y-79897000D01*
X131699000Y-79897000D01*
X131723504Y-79898204D01*
X131723504Y-79898204D01*
G37*
D12*
X131324000Y-80772000D03*
D11*
G36*
X128923504Y-79898204D02*
G01*
X128947773Y-79901804D01*
X128971571Y-79907765D01*
X128994671Y-79916030D01*
X129016849Y-79926520D01*
X129037893Y-79939133D01*
X129057598Y-79953747D01*
X129075777Y-79970223D01*
X129092253Y-79988402D01*
X129106867Y-80008107D01*
X129119480Y-80029151D01*
X129129970Y-80051329D01*
X129138235Y-80074429D01*
X129144196Y-80098227D01*
X129147796Y-80122496D01*
X129149000Y-80147000D01*
X129149000Y-81397000D01*
X129147796Y-81421504D01*
X129144196Y-81445773D01*
X129138235Y-81469571D01*
X129129970Y-81492671D01*
X129119480Y-81514849D01*
X129106867Y-81535893D01*
X129092253Y-81555598D01*
X129075777Y-81573777D01*
X129057598Y-81590253D01*
X129037893Y-81604867D01*
X129016849Y-81617480D01*
X128994671Y-81627970D01*
X128971571Y-81636235D01*
X128947773Y-81642196D01*
X128923504Y-81645796D01*
X128899000Y-81647000D01*
X128149000Y-81647000D01*
X128124496Y-81645796D01*
X128100227Y-81642196D01*
X128076429Y-81636235D01*
X128053329Y-81627970D01*
X128031151Y-81617480D01*
X128010107Y-81604867D01*
X127990402Y-81590253D01*
X127972223Y-81573777D01*
X127955747Y-81555598D01*
X127941133Y-81535893D01*
X127928520Y-81514849D01*
X127918030Y-81492671D01*
X127909765Y-81469571D01*
X127903804Y-81445773D01*
X127900204Y-81421504D01*
X127899000Y-81397000D01*
X127899000Y-80147000D01*
X127900204Y-80122496D01*
X127903804Y-80098227D01*
X127909765Y-80074429D01*
X127918030Y-80051329D01*
X127928520Y-80029151D01*
X127941133Y-80008107D01*
X127955747Y-79988402D01*
X127972223Y-79970223D01*
X127990402Y-79953747D01*
X128010107Y-79939133D01*
X128031151Y-79926520D01*
X128053329Y-79916030D01*
X128076429Y-79907765D01*
X128100227Y-79901804D01*
X128124496Y-79898204D01*
X128149000Y-79897000D01*
X128899000Y-79897000D01*
X128923504Y-79898204D01*
X128923504Y-79898204D01*
G37*
D12*
X128524000Y-80772000D03*
D11*
G36*
X129939504Y-83962204D02*
G01*
X129963773Y-83965804D01*
X129987571Y-83971765D01*
X130010671Y-83980030D01*
X130032849Y-83990520D01*
X130053893Y-84003133D01*
X130073598Y-84017747D01*
X130091777Y-84034223D01*
X130108253Y-84052402D01*
X130122867Y-84072107D01*
X130135480Y-84093151D01*
X130145970Y-84115329D01*
X130154235Y-84138429D01*
X130160196Y-84162227D01*
X130163796Y-84186496D01*
X130165000Y-84211000D01*
X130165000Y-85461000D01*
X130163796Y-85485504D01*
X130160196Y-85509773D01*
X130154235Y-85533571D01*
X130145970Y-85556671D01*
X130135480Y-85578849D01*
X130122867Y-85599893D01*
X130108253Y-85619598D01*
X130091777Y-85637777D01*
X130073598Y-85654253D01*
X130053893Y-85668867D01*
X130032849Y-85681480D01*
X130010671Y-85691970D01*
X129987571Y-85700235D01*
X129963773Y-85706196D01*
X129939504Y-85709796D01*
X129915000Y-85711000D01*
X129165000Y-85711000D01*
X129140496Y-85709796D01*
X129116227Y-85706196D01*
X129092429Y-85700235D01*
X129069329Y-85691970D01*
X129047151Y-85681480D01*
X129026107Y-85668867D01*
X129006402Y-85654253D01*
X128988223Y-85637777D01*
X128971747Y-85619598D01*
X128957133Y-85599893D01*
X128944520Y-85578849D01*
X128934030Y-85556671D01*
X128925765Y-85533571D01*
X128919804Y-85509773D01*
X128916204Y-85485504D01*
X128915000Y-85461000D01*
X128915000Y-84211000D01*
X128916204Y-84186496D01*
X128919804Y-84162227D01*
X128925765Y-84138429D01*
X128934030Y-84115329D01*
X128944520Y-84093151D01*
X128957133Y-84072107D01*
X128971747Y-84052402D01*
X128988223Y-84034223D01*
X129006402Y-84017747D01*
X129026107Y-84003133D01*
X129047151Y-83990520D01*
X129069329Y-83980030D01*
X129092429Y-83971765D01*
X129116227Y-83965804D01*
X129140496Y-83962204D01*
X129165000Y-83961000D01*
X129915000Y-83961000D01*
X129939504Y-83962204D01*
X129939504Y-83962204D01*
G37*
D12*
X129540000Y-84836000D03*
D11*
G36*
X127139504Y-83962204D02*
G01*
X127163773Y-83965804D01*
X127187571Y-83971765D01*
X127210671Y-83980030D01*
X127232849Y-83990520D01*
X127253893Y-84003133D01*
X127273598Y-84017747D01*
X127291777Y-84034223D01*
X127308253Y-84052402D01*
X127322867Y-84072107D01*
X127335480Y-84093151D01*
X127345970Y-84115329D01*
X127354235Y-84138429D01*
X127360196Y-84162227D01*
X127363796Y-84186496D01*
X127365000Y-84211000D01*
X127365000Y-85461000D01*
X127363796Y-85485504D01*
X127360196Y-85509773D01*
X127354235Y-85533571D01*
X127345970Y-85556671D01*
X127335480Y-85578849D01*
X127322867Y-85599893D01*
X127308253Y-85619598D01*
X127291777Y-85637777D01*
X127273598Y-85654253D01*
X127253893Y-85668867D01*
X127232849Y-85681480D01*
X127210671Y-85691970D01*
X127187571Y-85700235D01*
X127163773Y-85706196D01*
X127139504Y-85709796D01*
X127115000Y-85711000D01*
X126365000Y-85711000D01*
X126340496Y-85709796D01*
X126316227Y-85706196D01*
X126292429Y-85700235D01*
X126269329Y-85691970D01*
X126247151Y-85681480D01*
X126226107Y-85668867D01*
X126206402Y-85654253D01*
X126188223Y-85637777D01*
X126171747Y-85619598D01*
X126157133Y-85599893D01*
X126144520Y-85578849D01*
X126134030Y-85556671D01*
X126125765Y-85533571D01*
X126119804Y-85509773D01*
X126116204Y-85485504D01*
X126115000Y-85461000D01*
X126115000Y-84211000D01*
X126116204Y-84186496D01*
X126119804Y-84162227D01*
X126125765Y-84138429D01*
X126134030Y-84115329D01*
X126144520Y-84093151D01*
X126157133Y-84072107D01*
X126171747Y-84052402D01*
X126188223Y-84034223D01*
X126206402Y-84017747D01*
X126226107Y-84003133D01*
X126247151Y-83990520D01*
X126269329Y-83980030D01*
X126292429Y-83971765D01*
X126316227Y-83965804D01*
X126340496Y-83962204D01*
X126365000Y-83961000D01*
X127115000Y-83961000D01*
X127139504Y-83962204D01*
X127139504Y-83962204D01*
G37*
D12*
X126740000Y-84836000D03*
D11*
G36*
X156355504Y-88026204D02*
G01*
X156379773Y-88029804D01*
X156403571Y-88035765D01*
X156426671Y-88044030D01*
X156448849Y-88054520D01*
X156469893Y-88067133D01*
X156489598Y-88081747D01*
X156507777Y-88098223D01*
X156524253Y-88116402D01*
X156538867Y-88136107D01*
X156551480Y-88157151D01*
X156561970Y-88179329D01*
X156570235Y-88202429D01*
X156576196Y-88226227D01*
X156579796Y-88250496D01*
X156581000Y-88275000D01*
X156581000Y-89525000D01*
X156579796Y-89549504D01*
X156576196Y-89573773D01*
X156570235Y-89597571D01*
X156561970Y-89620671D01*
X156551480Y-89642849D01*
X156538867Y-89663893D01*
X156524253Y-89683598D01*
X156507777Y-89701777D01*
X156489598Y-89718253D01*
X156469893Y-89732867D01*
X156448849Y-89745480D01*
X156426671Y-89755970D01*
X156403571Y-89764235D01*
X156379773Y-89770196D01*
X156355504Y-89773796D01*
X156331000Y-89775000D01*
X155581000Y-89775000D01*
X155556496Y-89773796D01*
X155532227Y-89770196D01*
X155508429Y-89764235D01*
X155485329Y-89755970D01*
X155463151Y-89745480D01*
X155442107Y-89732867D01*
X155422402Y-89718253D01*
X155404223Y-89701777D01*
X155387747Y-89683598D01*
X155373133Y-89663893D01*
X155360520Y-89642849D01*
X155350030Y-89620671D01*
X155341765Y-89597571D01*
X155335804Y-89573773D01*
X155332204Y-89549504D01*
X155331000Y-89525000D01*
X155331000Y-88275000D01*
X155332204Y-88250496D01*
X155335804Y-88226227D01*
X155341765Y-88202429D01*
X155350030Y-88179329D01*
X155360520Y-88157151D01*
X155373133Y-88136107D01*
X155387747Y-88116402D01*
X155404223Y-88098223D01*
X155422402Y-88081747D01*
X155442107Y-88067133D01*
X155463151Y-88054520D01*
X155485329Y-88044030D01*
X155508429Y-88035765D01*
X155532227Y-88029804D01*
X155556496Y-88026204D01*
X155581000Y-88025000D01*
X156331000Y-88025000D01*
X156355504Y-88026204D01*
X156355504Y-88026204D01*
G37*
D12*
X155956000Y-88900000D03*
D11*
G36*
X153555504Y-88026204D02*
G01*
X153579773Y-88029804D01*
X153603571Y-88035765D01*
X153626671Y-88044030D01*
X153648849Y-88054520D01*
X153669893Y-88067133D01*
X153689598Y-88081747D01*
X153707777Y-88098223D01*
X153724253Y-88116402D01*
X153738867Y-88136107D01*
X153751480Y-88157151D01*
X153761970Y-88179329D01*
X153770235Y-88202429D01*
X153776196Y-88226227D01*
X153779796Y-88250496D01*
X153781000Y-88275000D01*
X153781000Y-89525000D01*
X153779796Y-89549504D01*
X153776196Y-89573773D01*
X153770235Y-89597571D01*
X153761970Y-89620671D01*
X153751480Y-89642849D01*
X153738867Y-89663893D01*
X153724253Y-89683598D01*
X153707777Y-89701777D01*
X153689598Y-89718253D01*
X153669893Y-89732867D01*
X153648849Y-89745480D01*
X153626671Y-89755970D01*
X153603571Y-89764235D01*
X153579773Y-89770196D01*
X153555504Y-89773796D01*
X153531000Y-89775000D01*
X152781000Y-89775000D01*
X152756496Y-89773796D01*
X152732227Y-89770196D01*
X152708429Y-89764235D01*
X152685329Y-89755970D01*
X152663151Y-89745480D01*
X152642107Y-89732867D01*
X152622402Y-89718253D01*
X152604223Y-89701777D01*
X152587747Y-89683598D01*
X152573133Y-89663893D01*
X152560520Y-89642849D01*
X152550030Y-89620671D01*
X152541765Y-89597571D01*
X152535804Y-89573773D01*
X152532204Y-89549504D01*
X152531000Y-89525000D01*
X152531000Y-88275000D01*
X152532204Y-88250496D01*
X152535804Y-88226227D01*
X152541765Y-88202429D01*
X152550030Y-88179329D01*
X152560520Y-88157151D01*
X152573133Y-88136107D01*
X152587747Y-88116402D01*
X152604223Y-88098223D01*
X152622402Y-88081747D01*
X152642107Y-88067133D01*
X152663151Y-88054520D01*
X152685329Y-88044030D01*
X152708429Y-88035765D01*
X152732227Y-88029804D01*
X152756496Y-88026204D01*
X152781000Y-88025000D01*
X153531000Y-88025000D01*
X153555504Y-88026204D01*
X153555504Y-88026204D01*
G37*
D12*
X153156000Y-88900000D03*
D11*
G36*
X129939504Y-88026204D02*
G01*
X129963773Y-88029804D01*
X129987571Y-88035765D01*
X130010671Y-88044030D01*
X130032849Y-88054520D01*
X130053893Y-88067133D01*
X130073598Y-88081747D01*
X130091777Y-88098223D01*
X130108253Y-88116402D01*
X130122867Y-88136107D01*
X130135480Y-88157151D01*
X130145970Y-88179329D01*
X130154235Y-88202429D01*
X130160196Y-88226227D01*
X130163796Y-88250496D01*
X130165000Y-88275000D01*
X130165000Y-89525000D01*
X130163796Y-89549504D01*
X130160196Y-89573773D01*
X130154235Y-89597571D01*
X130145970Y-89620671D01*
X130135480Y-89642849D01*
X130122867Y-89663893D01*
X130108253Y-89683598D01*
X130091777Y-89701777D01*
X130073598Y-89718253D01*
X130053893Y-89732867D01*
X130032849Y-89745480D01*
X130010671Y-89755970D01*
X129987571Y-89764235D01*
X129963773Y-89770196D01*
X129939504Y-89773796D01*
X129915000Y-89775000D01*
X129165000Y-89775000D01*
X129140496Y-89773796D01*
X129116227Y-89770196D01*
X129092429Y-89764235D01*
X129069329Y-89755970D01*
X129047151Y-89745480D01*
X129026107Y-89732867D01*
X129006402Y-89718253D01*
X128988223Y-89701777D01*
X128971747Y-89683598D01*
X128957133Y-89663893D01*
X128944520Y-89642849D01*
X128934030Y-89620671D01*
X128925765Y-89597571D01*
X128919804Y-89573773D01*
X128916204Y-89549504D01*
X128915000Y-89525000D01*
X128915000Y-88275000D01*
X128916204Y-88250496D01*
X128919804Y-88226227D01*
X128925765Y-88202429D01*
X128934030Y-88179329D01*
X128944520Y-88157151D01*
X128957133Y-88136107D01*
X128971747Y-88116402D01*
X128988223Y-88098223D01*
X129006402Y-88081747D01*
X129026107Y-88067133D01*
X129047151Y-88054520D01*
X129069329Y-88044030D01*
X129092429Y-88035765D01*
X129116227Y-88029804D01*
X129140496Y-88026204D01*
X129165000Y-88025000D01*
X129915000Y-88025000D01*
X129939504Y-88026204D01*
X129939504Y-88026204D01*
G37*
D12*
X129540000Y-88900000D03*
D11*
G36*
X127139504Y-88026204D02*
G01*
X127163773Y-88029804D01*
X127187571Y-88035765D01*
X127210671Y-88044030D01*
X127232849Y-88054520D01*
X127253893Y-88067133D01*
X127273598Y-88081747D01*
X127291777Y-88098223D01*
X127308253Y-88116402D01*
X127322867Y-88136107D01*
X127335480Y-88157151D01*
X127345970Y-88179329D01*
X127354235Y-88202429D01*
X127360196Y-88226227D01*
X127363796Y-88250496D01*
X127365000Y-88275000D01*
X127365000Y-89525000D01*
X127363796Y-89549504D01*
X127360196Y-89573773D01*
X127354235Y-89597571D01*
X127345970Y-89620671D01*
X127335480Y-89642849D01*
X127322867Y-89663893D01*
X127308253Y-89683598D01*
X127291777Y-89701777D01*
X127273598Y-89718253D01*
X127253893Y-89732867D01*
X127232849Y-89745480D01*
X127210671Y-89755970D01*
X127187571Y-89764235D01*
X127163773Y-89770196D01*
X127139504Y-89773796D01*
X127115000Y-89775000D01*
X126365000Y-89775000D01*
X126340496Y-89773796D01*
X126316227Y-89770196D01*
X126292429Y-89764235D01*
X126269329Y-89755970D01*
X126247151Y-89745480D01*
X126226107Y-89732867D01*
X126206402Y-89718253D01*
X126188223Y-89701777D01*
X126171747Y-89683598D01*
X126157133Y-89663893D01*
X126144520Y-89642849D01*
X126134030Y-89620671D01*
X126125765Y-89597571D01*
X126119804Y-89573773D01*
X126116204Y-89549504D01*
X126115000Y-89525000D01*
X126115000Y-88275000D01*
X126116204Y-88250496D01*
X126119804Y-88226227D01*
X126125765Y-88202429D01*
X126134030Y-88179329D01*
X126144520Y-88157151D01*
X126157133Y-88136107D01*
X126171747Y-88116402D01*
X126188223Y-88098223D01*
X126206402Y-88081747D01*
X126226107Y-88067133D01*
X126247151Y-88054520D01*
X126269329Y-88044030D01*
X126292429Y-88035765D01*
X126316227Y-88029804D01*
X126340496Y-88026204D01*
X126365000Y-88025000D01*
X127115000Y-88025000D01*
X127139504Y-88026204D01*
X127139504Y-88026204D01*
G37*
D12*
X126740000Y-88900000D03*
D11*
G36*
X146703504Y-83962204D02*
G01*
X146727773Y-83965804D01*
X146751571Y-83971765D01*
X146774671Y-83980030D01*
X146796849Y-83990520D01*
X146817893Y-84003133D01*
X146837598Y-84017747D01*
X146855777Y-84034223D01*
X146872253Y-84052402D01*
X146886867Y-84072107D01*
X146899480Y-84093151D01*
X146909970Y-84115329D01*
X146918235Y-84138429D01*
X146924196Y-84162227D01*
X146927796Y-84186496D01*
X146929000Y-84211000D01*
X146929000Y-85461000D01*
X146927796Y-85485504D01*
X146924196Y-85509773D01*
X146918235Y-85533571D01*
X146909970Y-85556671D01*
X146899480Y-85578849D01*
X146886867Y-85599893D01*
X146872253Y-85619598D01*
X146855777Y-85637777D01*
X146837598Y-85654253D01*
X146817893Y-85668867D01*
X146796849Y-85681480D01*
X146774671Y-85691970D01*
X146751571Y-85700235D01*
X146727773Y-85706196D01*
X146703504Y-85709796D01*
X146679000Y-85711000D01*
X145929000Y-85711000D01*
X145904496Y-85709796D01*
X145880227Y-85706196D01*
X145856429Y-85700235D01*
X145833329Y-85691970D01*
X145811151Y-85681480D01*
X145790107Y-85668867D01*
X145770402Y-85654253D01*
X145752223Y-85637777D01*
X145735747Y-85619598D01*
X145721133Y-85599893D01*
X145708520Y-85578849D01*
X145698030Y-85556671D01*
X145689765Y-85533571D01*
X145683804Y-85509773D01*
X145680204Y-85485504D01*
X145679000Y-85461000D01*
X145679000Y-84211000D01*
X145680204Y-84186496D01*
X145683804Y-84162227D01*
X145689765Y-84138429D01*
X145698030Y-84115329D01*
X145708520Y-84093151D01*
X145721133Y-84072107D01*
X145735747Y-84052402D01*
X145752223Y-84034223D01*
X145770402Y-84017747D01*
X145790107Y-84003133D01*
X145811151Y-83990520D01*
X145833329Y-83980030D01*
X145856429Y-83971765D01*
X145880227Y-83965804D01*
X145904496Y-83962204D01*
X145929000Y-83961000D01*
X146679000Y-83961000D01*
X146703504Y-83962204D01*
X146703504Y-83962204D01*
G37*
D12*
X146304000Y-84836000D03*
D11*
G36*
X149503504Y-83962204D02*
G01*
X149527773Y-83965804D01*
X149551571Y-83971765D01*
X149574671Y-83980030D01*
X149596849Y-83990520D01*
X149617893Y-84003133D01*
X149637598Y-84017747D01*
X149655777Y-84034223D01*
X149672253Y-84052402D01*
X149686867Y-84072107D01*
X149699480Y-84093151D01*
X149709970Y-84115329D01*
X149718235Y-84138429D01*
X149724196Y-84162227D01*
X149727796Y-84186496D01*
X149729000Y-84211000D01*
X149729000Y-85461000D01*
X149727796Y-85485504D01*
X149724196Y-85509773D01*
X149718235Y-85533571D01*
X149709970Y-85556671D01*
X149699480Y-85578849D01*
X149686867Y-85599893D01*
X149672253Y-85619598D01*
X149655777Y-85637777D01*
X149637598Y-85654253D01*
X149617893Y-85668867D01*
X149596849Y-85681480D01*
X149574671Y-85691970D01*
X149551571Y-85700235D01*
X149527773Y-85706196D01*
X149503504Y-85709796D01*
X149479000Y-85711000D01*
X148729000Y-85711000D01*
X148704496Y-85709796D01*
X148680227Y-85706196D01*
X148656429Y-85700235D01*
X148633329Y-85691970D01*
X148611151Y-85681480D01*
X148590107Y-85668867D01*
X148570402Y-85654253D01*
X148552223Y-85637777D01*
X148535747Y-85619598D01*
X148521133Y-85599893D01*
X148508520Y-85578849D01*
X148498030Y-85556671D01*
X148489765Y-85533571D01*
X148483804Y-85509773D01*
X148480204Y-85485504D01*
X148479000Y-85461000D01*
X148479000Y-84211000D01*
X148480204Y-84186496D01*
X148483804Y-84162227D01*
X148489765Y-84138429D01*
X148498030Y-84115329D01*
X148508520Y-84093151D01*
X148521133Y-84072107D01*
X148535747Y-84052402D01*
X148552223Y-84034223D01*
X148570402Y-84017747D01*
X148590107Y-84003133D01*
X148611151Y-83990520D01*
X148633329Y-83980030D01*
X148656429Y-83971765D01*
X148680227Y-83965804D01*
X148704496Y-83962204D01*
X148729000Y-83961000D01*
X149479000Y-83961000D01*
X149503504Y-83962204D01*
X149503504Y-83962204D01*
G37*
D12*
X149104000Y-84836000D03*
D11*
G36*
X121303504Y-80914204D02*
G01*
X121327773Y-80917804D01*
X121351571Y-80923765D01*
X121374671Y-80932030D01*
X121396849Y-80942520D01*
X121417893Y-80955133D01*
X121437598Y-80969747D01*
X121455777Y-80986223D01*
X121472253Y-81004402D01*
X121486867Y-81024107D01*
X121499480Y-81045151D01*
X121509970Y-81067329D01*
X121518235Y-81090429D01*
X121524196Y-81114227D01*
X121527796Y-81138496D01*
X121529000Y-81163000D01*
X121529000Y-82413000D01*
X121527796Y-82437504D01*
X121524196Y-82461773D01*
X121518235Y-82485571D01*
X121509970Y-82508671D01*
X121499480Y-82530849D01*
X121486867Y-82551893D01*
X121472253Y-82571598D01*
X121455777Y-82589777D01*
X121437598Y-82606253D01*
X121417893Y-82620867D01*
X121396849Y-82633480D01*
X121374671Y-82643970D01*
X121351571Y-82652235D01*
X121327773Y-82658196D01*
X121303504Y-82661796D01*
X121279000Y-82663000D01*
X120529000Y-82663000D01*
X120504496Y-82661796D01*
X120480227Y-82658196D01*
X120456429Y-82652235D01*
X120433329Y-82643970D01*
X120411151Y-82633480D01*
X120390107Y-82620867D01*
X120370402Y-82606253D01*
X120352223Y-82589777D01*
X120335747Y-82571598D01*
X120321133Y-82551893D01*
X120308520Y-82530849D01*
X120298030Y-82508671D01*
X120289765Y-82485571D01*
X120283804Y-82461773D01*
X120280204Y-82437504D01*
X120279000Y-82413000D01*
X120279000Y-81163000D01*
X120280204Y-81138496D01*
X120283804Y-81114227D01*
X120289765Y-81090429D01*
X120298030Y-81067329D01*
X120308520Y-81045151D01*
X120321133Y-81024107D01*
X120335747Y-81004402D01*
X120352223Y-80986223D01*
X120370402Y-80969747D01*
X120390107Y-80955133D01*
X120411151Y-80942520D01*
X120433329Y-80932030D01*
X120456429Y-80923765D01*
X120480227Y-80917804D01*
X120504496Y-80914204D01*
X120529000Y-80913000D01*
X121279000Y-80913000D01*
X121303504Y-80914204D01*
X121303504Y-80914204D01*
G37*
D12*
X120904000Y-81788000D03*
D11*
G36*
X124103504Y-80914204D02*
G01*
X124127773Y-80917804D01*
X124151571Y-80923765D01*
X124174671Y-80932030D01*
X124196849Y-80942520D01*
X124217893Y-80955133D01*
X124237598Y-80969747D01*
X124255777Y-80986223D01*
X124272253Y-81004402D01*
X124286867Y-81024107D01*
X124299480Y-81045151D01*
X124309970Y-81067329D01*
X124318235Y-81090429D01*
X124324196Y-81114227D01*
X124327796Y-81138496D01*
X124329000Y-81163000D01*
X124329000Y-82413000D01*
X124327796Y-82437504D01*
X124324196Y-82461773D01*
X124318235Y-82485571D01*
X124309970Y-82508671D01*
X124299480Y-82530849D01*
X124286867Y-82551893D01*
X124272253Y-82571598D01*
X124255777Y-82589777D01*
X124237598Y-82606253D01*
X124217893Y-82620867D01*
X124196849Y-82633480D01*
X124174671Y-82643970D01*
X124151571Y-82652235D01*
X124127773Y-82658196D01*
X124103504Y-82661796D01*
X124079000Y-82663000D01*
X123329000Y-82663000D01*
X123304496Y-82661796D01*
X123280227Y-82658196D01*
X123256429Y-82652235D01*
X123233329Y-82643970D01*
X123211151Y-82633480D01*
X123190107Y-82620867D01*
X123170402Y-82606253D01*
X123152223Y-82589777D01*
X123135747Y-82571598D01*
X123121133Y-82551893D01*
X123108520Y-82530849D01*
X123098030Y-82508671D01*
X123089765Y-82485571D01*
X123083804Y-82461773D01*
X123080204Y-82437504D01*
X123079000Y-82413000D01*
X123079000Y-81163000D01*
X123080204Y-81138496D01*
X123083804Y-81114227D01*
X123089765Y-81090429D01*
X123098030Y-81067329D01*
X123108520Y-81045151D01*
X123121133Y-81024107D01*
X123135747Y-81004402D01*
X123152223Y-80986223D01*
X123170402Y-80969747D01*
X123190107Y-80955133D01*
X123211151Y-80942520D01*
X123233329Y-80932030D01*
X123256429Y-80923765D01*
X123280227Y-80917804D01*
X123304496Y-80914204D01*
X123329000Y-80913000D01*
X124079000Y-80913000D01*
X124103504Y-80914204D01*
X124103504Y-80914204D01*
G37*
D12*
X123704000Y-81788000D03*
D11*
G36*
X146703504Y-80914204D02*
G01*
X146727773Y-80917804D01*
X146751571Y-80923765D01*
X146774671Y-80932030D01*
X146796849Y-80942520D01*
X146817893Y-80955133D01*
X146837598Y-80969747D01*
X146855777Y-80986223D01*
X146872253Y-81004402D01*
X146886867Y-81024107D01*
X146899480Y-81045151D01*
X146909970Y-81067329D01*
X146918235Y-81090429D01*
X146924196Y-81114227D01*
X146927796Y-81138496D01*
X146929000Y-81163000D01*
X146929000Y-82413000D01*
X146927796Y-82437504D01*
X146924196Y-82461773D01*
X146918235Y-82485571D01*
X146909970Y-82508671D01*
X146899480Y-82530849D01*
X146886867Y-82551893D01*
X146872253Y-82571598D01*
X146855777Y-82589777D01*
X146837598Y-82606253D01*
X146817893Y-82620867D01*
X146796849Y-82633480D01*
X146774671Y-82643970D01*
X146751571Y-82652235D01*
X146727773Y-82658196D01*
X146703504Y-82661796D01*
X146679000Y-82663000D01*
X145929000Y-82663000D01*
X145904496Y-82661796D01*
X145880227Y-82658196D01*
X145856429Y-82652235D01*
X145833329Y-82643970D01*
X145811151Y-82633480D01*
X145790107Y-82620867D01*
X145770402Y-82606253D01*
X145752223Y-82589777D01*
X145735747Y-82571598D01*
X145721133Y-82551893D01*
X145708520Y-82530849D01*
X145698030Y-82508671D01*
X145689765Y-82485571D01*
X145683804Y-82461773D01*
X145680204Y-82437504D01*
X145679000Y-82413000D01*
X145679000Y-81163000D01*
X145680204Y-81138496D01*
X145683804Y-81114227D01*
X145689765Y-81090429D01*
X145698030Y-81067329D01*
X145708520Y-81045151D01*
X145721133Y-81024107D01*
X145735747Y-81004402D01*
X145752223Y-80986223D01*
X145770402Y-80969747D01*
X145790107Y-80955133D01*
X145811151Y-80942520D01*
X145833329Y-80932030D01*
X145856429Y-80923765D01*
X145880227Y-80917804D01*
X145904496Y-80914204D01*
X145929000Y-80913000D01*
X146679000Y-80913000D01*
X146703504Y-80914204D01*
X146703504Y-80914204D01*
G37*
D12*
X146304000Y-81788000D03*
D11*
G36*
X149503504Y-80914204D02*
G01*
X149527773Y-80917804D01*
X149551571Y-80923765D01*
X149574671Y-80932030D01*
X149596849Y-80942520D01*
X149617893Y-80955133D01*
X149637598Y-80969747D01*
X149655777Y-80986223D01*
X149672253Y-81004402D01*
X149686867Y-81024107D01*
X149699480Y-81045151D01*
X149709970Y-81067329D01*
X149718235Y-81090429D01*
X149724196Y-81114227D01*
X149727796Y-81138496D01*
X149729000Y-81163000D01*
X149729000Y-82413000D01*
X149727796Y-82437504D01*
X149724196Y-82461773D01*
X149718235Y-82485571D01*
X149709970Y-82508671D01*
X149699480Y-82530849D01*
X149686867Y-82551893D01*
X149672253Y-82571598D01*
X149655777Y-82589777D01*
X149637598Y-82606253D01*
X149617893Y-82620867D01*
X149596849Y-82633480D01*
X149574671Y-82643970D01*
X149551571Y-82652235D01*
X149527773Y-82658196D01*
X149503504Y-82661796D01*
X149479000Y-82663000D01*
X148729000Y-82663000D01*
X148704496Y-82661796D01*
X148680227Y-82658196D01*
X148656429Y-82652235D01*
X148633329Y-82643970D01*
X148611151Y-82633480D01*
X148590107Y-82620867D01*
X148570402Y-82606253D01*
X148552223Y-82589777D01*
X148535747Y-82571598D01*
X148521133Y-82551893D01*
X148508520Y-82530849D01*
X148498030Y-82508671D01*
X148489765Y-82485571D01*
X148483804Y-82461773D01*
X148480204Y-82437504D01*
X148479000Y-82413000D01*
X148479000Y-81163000D01*
X148480204Y-81138496D01*
X148483804Y-81114227D01*
X148489765Y-81090429D01*
X148498030Y-81067329D01*
X148508520Y-81045151D01*
X148521133Y-81024107D01*
X148535747Y-81004402D01*
X148552223Y-80986223D01*
X148570402Y-80969747D01*
X148590107Y-80955133D01*
X148611151Y-80942520D01*
X148633329Y-80932030D01*
X148656429Y-80923765D01*
X148680227Y-80917804D01*
X148704496Y-80914204D01*
X148729000Y-80913000D01*
X149479000Y-80913000D01*
X149503504Y-80914204D01*
X149503504Y-80914204D01*
G37*
D12*
X149104000Y-81788000D03*
D11*
G36*
X121303504Y-83962204D02*
G01*
X121327773Y-83965804D01*
X121351571Y-83971765D01*
X121374671Y-83980030D01*
X121396849Y-83990520D01*
X121417893Y-84003133D01*
X121437598Y-84017747D01*
X121455777Y-84034223D01*
X121472253Y-84052402D01*
X121486867Y-84072107D01*
X121499480Y-84093151D01*
X121509970Y-84115329D01*
X121518235Y-84138429D01*
X121524196Y-84162227D01*
X121527796Y-84186496D01*
X121529000Y-84211000D01*
X121529000Y-85461000D01*
X121527796Y-85485504D01*
X121524196Y-85509773D01*
X121518235Y-85533571D01*
X121509970Y-85556671D01*
X121499480Y-85578849D01*
X121486867Y-85599893D01*
X121472253Y-85619598D01*
X121455777Y-85637777D01*
X121437598Y-85654253D01*
X121417893Y-85668867D01*
X121396849Y-85681480D01*
X121374671Y-85691970D01*
X121351571Y-85700235D01*
X121327773Y-85706196D01*
X121303504Y-85709796D01*
X121279000Y-85711000D01*
X120529000Y-85711000D01*
X120504496Y-85709796D01*
X120480227Y-85706196D01*
X120456429Y-85700235D01*
X120433329Y-85691970D01*
X120411151Y-85681480D01*
X120390107Y-85668867D01*
X120370402Y-85654253D01*
X120352223Y-85637777D01*
X120335747Y-85619598D01*
X120321133Y-85599893D01*
X120308520Y-85578849D01*
X120298030Y-85556671D01*
X120289765Y-85533571D01*
X120283804Y-85509773D01*
X120280204Y-85485504D01*
X120279000Y-85461000D01*
X120279000Y-84211000D01*
X120280204Y-84186496D01*
X120283804Y-84162227D01*
X120289765Y-84138429D01*
X120298030Y-84115329D01*
X120308520Y-84093151D01*
X120321133Y-84072107D01*
X120335747Y-84052402D01*
X120352223Y-84034223D01*
X120370402Y-84017747D01*
X120390107Y-84003133D01*
X120411151Y-83990520D01*
X120433329Y-83980030D01*
X120456429Y-83971765D01*
X120480227Y-83965804D01*
X120504496Y-83962204D01*
X120529000Y-83961000D01*
X121279000Y-83961000D01*
X121303504Y-83962204D01*
X121303504Y-83962204D01*
G37*
D12*
X120904000Y-84836000D03*
D11*
G36*
X124103504Y-83962204D02*
G01*
X124127773Y-83965804D01*
X124151571Y-83971765D01*
X124174671Y-83980030D01*
X124196849Y-83990520D01*
X124217893Y-84003133D01*
X124237598Y-84017747D01*
X124255777Y-84034223D01*
X124272253Y-84052402D01*
X124286867Y-84072107D01*
X124299480Y-84093151D01*
X124309970Y-84115329D01*
X124318235Y-84138429D01*
X124324196Y-84162227D01*
X124327796Y-84186496D01*
X124329000Y-84211000D01*
X124329000Y-85461000D01*
X124327796Y-85485504D01*
X124324196Y-85509773D01*
X124318235Y-85533571D01*
X124309970Y-85556671D01*
X124299480Y-85578849D01*
X124286867Y-85599893D01*
X124272253Y-85619598D01*
X124255777Y-85637777D01*
X124237598Y-85654253D01*
X124217893Y-85668867D01*
X124196849Y-85681480D01*
X124174671Y-85691970D01*
X124151571Y-85700235D01*
X124127773Y-85706196D01*
X124103504Y-85709796D01*
X124079000Y-85711000D01*
X123329000Y-85711000D01*
X123304496Y-85709796D01*
X123280227Y-85706196D01*
X123256429Y-85700235D01*
X123233329Y-85691970D01*
X123211151Y-85681480D01*
X123190107Y-85668867D01*
X123170402Y-85654253D01*
X123152223Y-85637777D01*
X123135747Y-85619598D01*
X123121133Y-85599893D01*
X123108520Y-85578849D01*
X123098030Y-85556671D01*
X123089765Y-85533571D01*
X123083804Y-85509773D01*
X123080204Y-85485504D01*
X123079000Y-85461000D01*
X123079000Y-84211000D01*
X123080204Y-84186496D01*
X123083804Y-84162227D01*
X123089765Y-84138429D01*
X123098030Y-84115329D01*
X123108520Y-84093151D01*
X123121133Y-84072107D01*
X123135747Y-84052402D01*
X123152223Y-84034223D01*
X123170402Y-84017747D01*
X123190107Y-84003133D01*
X123211151Y-83990520D01*
X123233329Y-83980030D01*
X123256429Y-83971765D01*
X123280227Y-83965804D01*
X123304496Y-83962204D01*
X123329000Y-83961000D01*
X124079000Y-83961000D01*
X124103504Y-83962204D01*
X124103504Y-83962204D01*
G37*
D12*
X123704000Y-84836000D03*
D11*
G36*
X146703504Y-77866204D02*
G01*
X146727773Y-77869804D01*
X146751571Y-77875765D01*
X146774671Y-77884030D01*
X146796849Y-77894520D01*
X146817893Y-77907133D01*
X146837598Y-77921747D01*
X146855777Y-77938223D01*
X146872253Y-77956402D01*
X146886867Y-77976107D01*
X146899480Y-77997151D01*
X146909970Y-78019329D01*
X146918235Y-78042429D01*
X146924196Y-78066227D01*
X146927796Y-78090496D01*
X146929000Y-78115000D01*
X146929000Y-79365000D01*
X146927796Y-79389504D01*
X146924196Y-79413773D01*
X146918235Y-79437571D01*
X146909970Y-79460671D01*
X146899480Y-79482849D01*
X146886867Y-79503893D01*
X146872253Y-79523598D01*
X146855777Y-79541777D01*
X146837598Y-79558253D01*
X146817893Y-79572867D01*
X146796849Y-79585480D01*
X146774671Y-79595970D01*
X146751571Y-79604235D01*
X146727773Y-79610196D01*
X146703504Y-79613796D01*
X146679000Y-79615000D01*
X145929000Y-79615000D01*
X145904496Y-79613796D01*
X145880227Y-79610196D01*
X145856429Y-79604235D01*
X145833329Y-79595970D01*
X145811151Y-79585480D01*
X145790107Y-79572867D01*
X145770402Y-79558253D01*
X145752223Y-79541777D01*
X145735747Y-79523598D01*
X145721133Y-79503893D01*
X145708520Y-79482849D01*
X145698030Y-79460671D01*
X145689765Y-79437571D01*
X145683804Y-79413773D01*
X145680204Y-79389504D01*
X145679000Y-79365000D01*
X145679000Y-78115000D01*
X145680204Y-78090496D01*
X145683804Y-78066227D01*
X145689765Y-78042429D01*
X145698030Y-78019329D01*
X145708520Y-77997151D01*
X145721133Y-77976107D01*
X145735747Y-77956402D01*
X145752223Y-77938223D01*
X145770402Y-77921747D01*
X145790107Y-77907133D01*
X145811151Y-77894520D01*
X145833329Y-77884030D01*
X145856429Y-77875765D01*
X145880227Y-77869804D01*
X145904496Y-77866204D01*
X145929000Y-77865000D01*
X146679000Y-77865000D01*
X146703504Y-77866204D01*
X146703504Y-77866204D01*
G37*
D12*
X146304000Y-78740000D03*
D11*
G36*
X149503504Y-77866204D02*
G01*
X149527773Y-77869804D01*
X149551571Y-77875765D01*
X149574671Y-77884030D01*
X149596849Y-77894520D01*
X149617893Y-77907133D01*
X149637598Y-77921747D01*
X149655777Y-77938223D01*
X149672253Y-77956402D01*
X149686867Y-77976107D01*
X149699480Y-77997151D01*
X149709970Y-78019329D01*
X149718235Y-78042429D01*
X149724196Y-78066227D01*
X149727796Y-78090496D01*
X149729000Y-78115000D01*
X149729000Y-79365000D01*
X149727796Y-79389504D01*
X149724196Y-79413773D01*
X149718235Y-79437571D01*
X149709970Y-79460671D01*
X149699480Y-79482849D01*
X149686867Y-79503893D01*
X149672253Y-79523598D01*
X149655777Y-79541777D01*
X149637598Y-79558253D01*
X149617893Y-79572867D01*
X149596849Y-79585480D01*
X149574671Y-79595970D01*
X149551571Y-79604235D01*
X149527773Y-79610196D01*
X149503504Y-79613796D01*
X149479000Y-79615000D01*
X148729000Y-79615000D01*
X148704496Y-79613796D01*
X148680227Y-79610196D01*
X148656429Y-79604235D01*
X148633329Y-79595970D01*
X148611151Y-79585480D01*
X148590107Y-79572867D01*
X148570402Y-79558253D01*
X148552223Y-79541777D01*
X148535747Y-79523598D01*
X148521133Y-79503893D01*
X148508520Y-79482849D01*
X148498030Y-79460671D01*
X148489765Y-79437571D01*
X148483804Y-79413773D01*
X148480204Y-79389504D01*
X148479000Y-79365000D01*
X148479000Y-78115000D01*
X148480204Y-78090496D01*
X148483804Y-78066227D01*
X148489765Y-78042429D01*
X148498030Y-78019329D01*
X148508520Y-77997151D01*
X148521133Y-77976107D01*
X148535747Y-77956402D01*
X148552223Y-77938223D01*
X148570402Y-77921747D01*
X148590107Y-77907133D01*
X148611151Y-77894520D01*
X148633329Y-77884030D01*
X148656429Y-77875765D01*
X148680227Y-77869804D01*
X148704496Y-77866204D01*
X148729000Y-77865000D01*
X149479000Y-77865000D01*
X149503504Y-77866204D01*
X149503504Y-77866204D01*
G37*
D12*
X149104000Y-78740000D03*
D11*
G36*
X121303504Y-77866204D02*
G01*
X121327773Y-77869804D01*
X121351571Y-77875765D01*
X121374671Y-77884030D01*
X121396849Y-77894520D01*
X121417893Y-77907133D01*
X121437598Y-77921747D01*
X121455777Y-77938223D01*
X121472253Y-77956402D01*
X121486867Y-77976107D01*
X121499480Y-77997151D01*
X121509970Y-78019329D01*
X121518235Y-78042429D01*
X121524196Y-78066227D01*
X121527796Y-78090496D01*
X121529000Y-78115000D01*
X121529000Y-79365000D01*
X121527796Y-79389504D01*
X121524196Y-79413773D01*
X121518235Y-79437571D01*
X121509970Y-79460671D01*
X121499480Y-79482849D01*
X121486867Y-79503893D01*
X121472253Y-79523598D01*
X121455777Y-79541777D01*
X121437598Y-79558253D01*
X121417893Y-79572867D01*
X121396849Y-79585480D01*
X121374671Y-79595970D01*
X121351571Y-79604235D01*
X121327773Y-79610196D01*
X121303504Y-79613796D01*
X121279000Y-79615000D01*
X120529000Y-79615000D01*
X120504496Y-79613796D01*
X120480227Y-79610196D01*
X120456429Y-79604235D01*
X120433329Y-79595970D01*
X120411151Y-79585480D01*
X120390107Y-79572867D01*
X120370402Y-79558253D01*
X120352223Y-79541777D01*
X120335747Y-79523598D01*
X120321133Y-79503893D01*
X120308520Y-79482849D01*
X120298030Y-79460671D01*
X120289765Y-79437571D01*
X120283804Y-79413773D01*
X120280204Y-79389504D01*
X120279000Y-79365000D01*
X120279000Y-78115000D01*
X120280204Y-78090496D01*
X120283804Y-78066227D01*
X120289765Y-78042429D01*
X120298030Y-78019329D01*
X120308520Y-77997151D01*
X120321133Y-77976107D01*
X120335747Y-77956402D01*
X120352223Y-77938223D01*
X120370402Y-77921747D01*
X120390107Y-77907133D01*
X120411151Y-77894520D01*
X120433329Y-77884030D01*
X120456429Y-77875765D01*
X120480227Y-77869804D01*
X120504496Y-77866204D01*
X120529000Y-77865000D01*
X121279000Y-77865000D01*
X121303504Y-77866204D01*
X121303504Y-77866204D01*
G37*
D12*
X120904000Y-78740000D03*
D11*
G36*
X124103504Y-77866204D02*
G01*
X124127773Y-77869804D01*
X124151571Y-77875765D01*
X124174671Y-77884030D01*
X124196849Y-77894520D01*
X124217893Y-77907133D01*
X124237598Y-77921747D01*
X124255777Y-77938223D01*
X124272253Y-77956402D01*
X124286867Y-77976107D01*
X124299480Y-77997151D01*
X124309970Y-78019329D01*
X124318235Y-78042429D01*
X124324196Y-78066227D01*
X124327796Y-78090496D01*
X124329000Y-78115000D01*
X124329000Y-79365000D01*
X124327796Y-79389504D01*
X124324196Y-79413773D01*
X124318235Y-79437571D01*
X124309970Y-79460671D01*
X124299480Y-79482849D01*
X124286867Y-79503893D01*
X124272253Y-79523598D01*
X124255777Y-79541777D01*
X124237598Y-79558253D01*
X124217893Y-79572867D01*
X124196849Y-79585480D01*
X124174671Y-79595970D01*
X124151571Y-79604235D01*
X124127773Y-79610196D01*
X124103504Y-79613796D01*
X124079000Y-79615000D01*
X123329000Y-79615000D01*
X123304496Y-79613796D01*
X123280227Y-79610196D01*
X123256429Y-79604235D01*
X123233329Y-79595970D01*
X123211151Y-79585480D01*
X123190107Y-79572867D01*
X123170402Y-79558253D01*
X123152223Y-79541777D01*
X123135747Y-79523598D01*
X123121133Y-79503893D01*
X123108520Y-79482849D01*
X123098030Y-79460671D01*
X123089765Y-79437571D01*
X123083804Y-79413773D01*
X123080204Y-79389504D01*
X123079000Y-79365000D01*
X123079000Y-78115000D01*
X123080204Y-78090496D01*
X123083804Y-78066227D01*
X123089765Y-78042429D01*
X123098030Y-78019329D01*
X123108520Y-77997151D01*
X123121133Y-77976107D01*
X123135747Y-77956402D01*
X123152223Y-77938223D01*
X123170402Y-77921747D01*
X123190107Y-77907133D01*
X123211151Y-77894520D01*
X123233329Y-77884030D01*
X123256429Y-77875765D01*
X123280227Y-77869804D01*
X123304496Y-77866204D01*
X123329000Y-77865000D01*
X124079000Y-77865000D01*
X124103504Y-77866204D01*
X124103504Y-77866204D01*
G37*
D12*
X123704000Y-78740000D03*
D11*
G36*
X155339504Y-92598204D02*
G01*
X155363773Y-92601804D01*
X155387571Y-92607765D01*
X155410671Y-92616030D01*
X155432849Y-92626520D01*
X155453893Y-92639133D01*
X155473598Y-92653747D01*
X155491777Y-92670223D01*
X155508253Y-92688402D01*
X155522867Y-92708107D01*
X155535480Y-92729151D01*
X155545970Y-92751329D01*
X155554235Y-92774429D01*
X155560196Y-92798227D01*
X155563796Y-92822496D01*
X155565000Y-92847000D01*
X155565000Y-94097000D01*
X155563796Y-94121504D01*
X155560196Y-94145773D01*
X155554235Y-94169571D01*
X155545970Y-94192671D01*
X155535480Y-94214849D01*
X155522867Y-94235893D01*
X155508253Y-94255598D01*
X155491777Y-94273777D01*
X155473598Y-94290253D01*
X155453893Y-94304867D01*
X155432849Y-94317480D01*
X155410671Y-94327970D01*
X155387571Y-94336235D01*
X155363773Y-94342196D01*
X155339504Y-94345796D01*
X155315000Y-94347000D01*
X154565000Y-94347000D01*
X154540496Y-94345796D01*
X154516227Y-94342196D01*
X154492429Y-94336235D01*
X154469329Y-94327970D01*
X154447151Y-94317480D01*
X154426107Y-94304867D01*
X154406402Y-94290253D01*
X154388223Y-94273777D01*
X154371747Y-94255598D01*
X154357133Y-94235893D01*
X154344520Y-94214849D01*
X154334030Y-94192671D01*
X154325765Y-94169571D01*
X154319804Y-94145773D01*
X154316204Y-94121504D01*
X154315000Y-94097000D01*
X154315000Y-92847000D01*
X154316204Y-92822496D01*
X154319804Y-92798227D01*
X154325765Y-92774429D01*
X154334030Y-92751329D01*
X154344520Y-92729151D01*
X154357133Y-92708107D01*
X154371747Y-92688402D01*
X154388223Y-92670223D01*
X154406402Y-92653747D01*
X154426107Y-92639133D01*
X154447151Y-92626520D01*
X154469329Y-92616030D01*
X154492429Y-92607765D01*
X154516227Y-92601804D01*
X154540496Y-92598204D01*
X154565000Y-92597000D01*
X155315000Y-92597000D01*
X155339504Y-92598204D01*
X155339504Y-92598204D01*
G37*
D12*
X154940000Y-93472000D03*
D11*
G36*
X158139504Y-92598204D02*
G01*
X158163773Y-92601804D01*
X158187571Y-92607765D01*
X158210671Y-92616030D01*
X158232849Y-92626520D01*
X158253893Y-92639133D01*
X158273598Y-92653747D01*
X158291777Y-92670223D01*
X158308253Y-92688402D01*
X158322867Y-92708107D01*
X158335480Y-92729151D01*
X158345970Y-92751329D01*
X158354235Y-92774429D01*
X158360196Y-92798227D01*
X158363796Y-92822496D01*
X158365000Y-92847000D01*
X158365000Y-94097000D01*
X158363796Y-94121504D01*
X158360196Y-94145773D01*
X158354235Y-94169571D01*
X158345970Y-94192671D01*
X158335480Y-94214849D01*
X158322867Y-94235893D01*
X158308253Y-94255598D01*
X158291777Y-94273777D01*
X158273598Y-94290253D01*
X158253893Y-94304867D01*
X158232849Y-94317480D01*
X158210671Y-94327970D01*
X158187571Y-94336235D01*
X158163773Y-94342196D01*
X158139504Y-94345796D01*
X158115000Y-94347000D01*
X157365000Y-94347000D01*
X157340496Y-94345796D01*
X157316227Y-94342196D01*
X157292429Y-94336235D01*
X157269329Y-94327970D01*
X157247151Y-94317480D01*
X157226107Y-94304867D01*
X157206402Y-94290253D01*
X157188223Y-94273777D01*
X157171747Y-94255598D01*
X157157133Y-94235893D01*
X157144520Y-94214849D01*
X157134030Y-94192671D01*
X157125765Y-94169571D01*
X157119804Y-94145773D01*
X157116204Y-94121504D01*
X157115000Y-94097000D01*
X157115000Y-92847000D01*
X157116204Y-92822496D01*
X157119804Y-92798227D01*
X157125765Y-92774429D01*
X157134030Y-92751329D01*
X157144520Y-92729151D01*
X157157133Y-92708107D01*
X157171747Y-92688402D01*
X157188223Y-92670223D01*
X157206402Y-92653747D01*
X157226107Y-92639133D01*
X157247151Y-92626520D01*
X157269329Y-92616030D01*
X157292429Y-92607765D01*
X157316227Y-92601804D01*
X157340496Y-92598204D01*
X157365000Y-92597000D01*
X158115000Y-92597000D01*
X158139504Y-92598204D01*
X158139504Y-92598204D01*
G37*
D12*
X157740000Y-93472000D03*
D11*
G36*
X128923504Y-92598204D02*
G01*
X128947773Y-92601804D01*
X128971571Y-92607765D01*
X128994671Y-92616030D01*
X129016849Y-92626520D01*
X129037893Y-92639133D01*
X129057598Y-92653747D01*
X129075777Y-92670223D01*
X129092253Y-92688402D01*
X129106867Y-92708107D01*
X129119480Y-92729151D01*
X129129970Y-92751329D01*
X129138235Y-92774429D01*
X129144196Y-92798227D01*
X129147796Y-92822496D01*
X129149000Y-92847000D01*
X129149000Y-94097000D01*
X129147796Y-94121504D01*
X129144196Y-94145773D01*
X129138235Y-94169571D01*
X129129970Y-94192671D01*
X129119480Y-94214849D01*
X129106867Y-94235893D01*
X129092253Y-94255598D01*
X129075777Y-94273777D01*
X129057598Y-94290253D01*
X129037893Y-94304867D01*
X129016849Y-94317480D01*
X128994671Y-94327970D01*
X128971571Y-94336235D01*
X128947773Y-94342196D01*
X128923504Y-94345796D01*
X128899000Y-94347000D01*
X128149000Y-94347000D01*
X128124496Y-94345796D01*
X128100227Y-94342196D01*
X128076429Y-94336235D01*
X128053329Y-94327970D01*
X128031151Y-94317480D01*
X128010107Y-94304867D01*
X127990402Y-94290253D01*
X127972223Y-94273777D01*
X127955747Y-94255598D01*
X127941133Y-94235893D01*
X127928520Y-94214849D01*
X127918030Y-94192671D01*
X127909765Y-94169571D01*
X127903804Y-94145773D01*
X127900204Y-94121504D01*
X127899000Y-94097000D01*
X127899000Y-92847000D01*
X127900204Y-92822496D01*
X127903804Y-92798227D01*
X127909765Y-92774429D01*
X127918030Y-92751329D01*
X127928520Y-92729151D01*
X127941133Y-92708107D01*
X127955747Y-92688402D01*
X127972223Y-92670223D01*
X127990402Y-92653747D01*
X128010107Y-92639133D01*
X128031151Y-92626520D01*
X128053329Y-92616030D01*
X128076429Y-92607765D01*
X128100227Y-92601804D01*
X128124496Y-92598204D01*
X128149000Y-92597000D01*
X128899000Y-92597000D01*
X128923504Y-92598204D01*
X128923504Y-92598204D01*
G37*
D12*
X128524000Y-93472000D03*
D11*
G36*
X131723504Y-92598204D02*
G01*
X131747773Y-92601804D01*
X131771571Y-92607765D01*
X131794671Y-92616030D01*
X131816849Y-92626520D01*
X131837893Y-92639133D01*
X131857598Y-92653747D01*
X131875777Y-92670223D01*
X131892253Y-92688402D01*
X131906867Y-92708107D01*
X131919480Y-92729151D01*
X131929970Y-92751329D01*
X131938235Y-92774429D01*
X131944196Y-92798227D01*
X131947796Y-92822496D01*
X131949000Y-92847000D01*
X131949000Y-94097000D01*
X131947796Y-94121504D01*
X131944196Y-94145773D01*
X131938235Y-94169571D01*
X131929970Y-94192671D01*
X131919480Y-94214849D01*
X131906867Y-94235893D01*
X131892253Y-94255598D01*
X131875777Y-94273777D01*
X131857598Y-94290253D01*
X131837893Y-94304867D01*
X131816849Y-94317480D01*
X131794671Y-94327970D01*
X131771571Y-94336235D01*
X131747773Y-94342196D01*
X131723504Y-94345796D01*
X131699000Y-94347000D01*
X130949000Y-94347000D01*
X130924496Y-94345796D01*
X130900227Y-94342196D01*
X130876429Y-94336235D01*
X130853329Y-94327970D01*
X130831151Y-94317480D01*
X130810107Y-94304867D01*
X130790402Y-94290253D01*
X130772223Y-94273777D01*
X130755747Y-94255598D01*
X130741133Y-94235893D01*
X130728520Y-94214849D01*
X130718030Y-94192671D01*
X130709765Y-94169571D01*
X130703804Y-94145773D01*
X130700204Y-94121504D01*
X130699000Y-94097000D01*
X130699000Y-92847000D01*
X130700204Y-92822496D01*
X130703804Y-92798227D01*
X130709765Y-92774429D01*
X130718030Y-92751329D01*
X130728520Y-92729151D01*
X130741133Y-92708107D01*
X130755747Y-92688402D01*
X130772223Y-92670223D01*
X130790402Y-92653747D01*
X130810107Y-92639133D01*
X130831151Y-92626520D01*
X130853329Y-92616030D01*
X130876429Y-92607765D01*
X130900227Y-92601804D01*
X130924496Y-92598204D01*
X130949000Y-92597000D01*
X131699000Y-92597000D01*
X131723504Y-92598204D01*
X131723504Y-92598204D01*
G37*
D12*
X131324000Y-93472000D03*
D11*
G36*
X155339504Y-95646204D02*
G01*
X155363773Y-95649804D01*
X155387571Y-95655765D01*
X155410671Y-95664030D01*
X155432849Y-95674520D01*
X155453893Y-95687133D01*
X155473598Y-95701747D01*
X155491777Y-95718223D01*
X155508253Y-95736402D01*
X155522867Y-95756107D01*
X155535480Y-95777151D01*
X155545970Y-95799329D01*
X155554235Y-95822429D01*
X155560196Y-95846227D01*
X155563796Y-95870496D01*
X155565000Y-95895000D01*
X155565000Y-97145000D01*
X155563796Y-97169504D01*
X155560196Y-97193773D01*
X155554235Y-97217571D01*
X155545970Y-97240671D01*
X155535480Y-97262849D01*
X155522867Y-97283893D01*
X155508253Y-97303598D01*
X155491777Y-97321777D01*
X155473598Y-97338253D01*
X155453893Y-97352867D01*
X155432849Y-97365480D01*
X155410671Y-97375970D01*
X155387571Y-97384235D01*
X155363773Y-97390196D01*
X155339504Y-97393796D01*
X155315000Y-97395000D01*
X154565000Y-97395000D01*
X154540496Y-97393796D01*
X154516227Y-97390196D01*
X154492429Y-97384235D01*
X154469329Y-97375970D01*
X154447151Y-97365480D01*
X154426107Y-97352867D01*
X154406402Y-97338253D01*
X154388223Y-97321777D01*
X154371747Y-97303598D01*
X154357133Y-97283893D01*
X154344520Y-97262849D01*
X154334030Y-97240671D01*
X154325765Y-97217571D01*
X154319804Y-97193773D01*
X154316204Y-97169504D01*
X154315000Y-97145000D01*
X154315000Y-95895000D01*
X154316204Y-95870496D01*
X154319804Y-95846227D01*
X154325765Y-95822429D01*
X154334030Y-95799329D01*
X154344520Y-95777151D01*
X154357133Y-95756107D01*
X154371747Y-95736402D01*
X154388223Y-95718223D01*
X154406402Y-95701747D01*
X154426107Y-95687133D01*
X154447151Y-95674520D01*
X154469329Y-95664030D01*
X154492429Y-95655765D01*
X154516227Y-95649804D01*
X154540496Y-95646204D01*
X154565000Y-95645000D01*
X155315000Y-95645000D01*
X155339504Y-95646204D01*
X155339504Y-95646204D01*
G37*
D12*
X154940000Y-96520000D03*
D11*
G36*
X158139504Y-95646204D02*
G01*
X158163773Y-95649804D01*
X158187571Y-95655765D01*
X158210671Y-95664030D01*
X158232849Y-95674520D01*
X158253893Y-95687133D01*
X158273598Y-95701747D01*
X158291777Y-95718223D01*
X158308253Y-95736402D01*
X158322867Y-95756107D01*
X158335480Y-95777151D01*
X158345970Y-95799329D01*
X158354235Y-95822429D01*
X158360196Y-95846227D01*
X158363796Y-95870496D01*
X158365000Y-95895000D01*
X158365000Y-97145000D01*
X158363796Y-97169504D01*
X158360196Y-97193773D01*
X158354235Y-97217571D01*
X158345970Y-97240671D01*
X158335480Y-97262849D01*
X158322867Y-97283893D01*
X158308253Y-97303598D01*
X158291777Y-97321777D01*
X158273598Y-97338253D01*
X158253893Y-97352867D01*
X158232849Y-97365480D01*
X158210671Y-97375970D01*
X158187571Y-97384235D01*
X158163773Y-97390196D01*
X158139504Y-97393796D01*
X158115000Y-97395000D01*
X157365000Y-97395000D01*
X157340496Y-97393796D01*
X157316227Y-97390196D01*
X157292429Y-97384235D01*
X157269329Y-97375970D01*
X157247151Y-97365480D01*
X157226107Y-97352867D01*
X157206402Y-97338253D01*
X157188223Y-97321777D01*
X157171747Y-97303598D01*
X157157133Y-97283893D01*
X157144520Y-97262849D01*
X157134030Y-97240671D01*
X157125765Y-97217571D01*
X157119804Y-97193773D01*
X157116204Y-97169504D01*
X157115000Y-97145000D01*
X157115000Y-95895000D01*
X157116204Y-95870496D01*
X157119804Y-95846227D01*
X157125765Y-95822429D01*
X157134030Y-95799329D01*
X157144520Y-95777151D01*
X157157133Y-95756107D01*
X157171747Y-95736402D01*
X157188223Y-95718223D01*
X157206402Y-95701747D01*
X157226107Y-95687133D01*
X157247151Y-95674520D01*
X157269329Y-95664030D01*
X157292429Y-95655765D01*
X157316227Y-95649804D01*
X157340496Y-95646204D01*
X157365000Y-95645000D01*
X158115000Y-95645000D01*
X158139504Y-95646204D01*
X158139504Y-95646204D01*
G37*
D12*
X157740000Y-96520000D03*
D11*
G36*
X128923504Y-95646204D02*
G01*
X128947773Y-95649804D01*
X128971571Y-95655765D01*
X128994671Y-95664030D01*
X129016849Y-95674520D01*
X129037893Y-95687133D01*
X129057598Y-95701747D01*
X129075777Y-95718223D01*
X129092253Y-95736402D01*
X129106867Y-95756107D01*
X129119480Y-95777151D01*
X129129970Y-95799329D01*
X129138235Y-95822429D01*
X129144196Y-95846227D01*
X129147796Y-95870496D01*
X129149000Y-95895000D01*
X129149000Y-97145000D01*
X129147796Y-97169504D01*
X129144196Y-97193773D01*
X129138235Y-97217571D01*
X129129970Y-97240671D01*
X129119480Y-97262849D01*
X129106867Y-97283893D01*
X129092253Y-97303598D01*
X129075777Y-97321777D01*
X129057598Y-97338253D01*
X129037893Y-97352867D01*
X129016849Y-97365480D01*
X128994671Y-97375970D01*
X128971571Y-97384235D01*
X128947773Y-97390196D01*
X128923504Y-97393796D01*
X128899000Y-97395000D01*
X128149000Y-97395000D01*
X128124496Y-97393796D01*
X128100227Y-97390196D01*
X128076429Y-97384235D01*
X128053329Y-97375970D01*
X128031151Y-97365480D01*
X128010107Y-97352867D01*
X127990402Y-97338253D01*
X127972223Y-97321777D01*
X127955747Y-97303598D01*
X127941133Y-97283893D01*
X127928520Y-97262849D01*
X127918030Y-97240671D01*
X127909765Y-97217571D01*
X127903804Y-97193773D01*
X127900204Y-97169504D01*
X127899000Y-97145000D01*
X127899000Y-95895000D01*
X127900204Y-95870496D01*
X127903804Y-95846227D01*
X127909765Y-95822429D01*
X127918030Y-95799329D01*
X127928520Y-95777151D01*
X127941133Y-95756107D01*
X127955747Y-95736402D01*
X127972223Y-95718223D01*
X127990402Y-95701747D01*
X128010107Y-95687133D01*
X128031151Y-95674520D01*
X128053329Y-95664030D01*
X128076429Y-95655765D01*
X128100227Y-95649804D01*
X128124496Y-95646204D01*
X128149000Y-95645000D01*
X128899000Y-95645000D01*
X128923504Y-95646204D01*
X128923504Y-95646204D01*
G37*
D12*
X128524000Y-96520000D03*
D11*
G36*
X131723504Y-95646204D02*
G01*
X131747773Y-95649804D01*
X131771571Y-95655765D01*
X131794671Y-95664030D01*
X131816849Y-95674520D01*
X131837893Y-95687133D01*
X131857598Y-95701747D01*
X131875777Y-95718223D01*
X131892253Y-95736402D01*
X131906867Y-95756107D01*
X131919480Y-95777151D01*
X131929970Y-95799329D01*
X131938235Y-95822429D01*
X131944196Y-95846227D01*
X131947796Y-95870496D01*
X131949000Y-95895000D01*
X131949000Y-97145000D01*
X131947796Y-97169504D01*
X131944196Y-97193773D01*
X131938235Y-97217571D01*
X131929970Y-97240671D01*
X131919480Y-97262849D01*
X131906867Y-97283893D01*
X131892253Y-97303598D01*
X131875777Y-97321777D01*
X131857598Y-97338253D01*
X131837893Y-97352867D01*
X131816849Y-97365480D01*
X131794671Y-97375970D01*
X131771571Y-97384235D01*
X131747773Y-97390196D01*
X131723504Y-97393796D01*
X131699000Y-97395000D01*
X130949000Y-97395000D01*
X130924496Y-97393796D01*
X130900227Y-97390196D01*
X130876429Y-97384235D01*
X130853329Y-97375970D01*
X130831151Y-97365480D01*
X130810107Y-97352867D01*
X130790402Y-97338253D01*
X130772223Y-97321777D01*
X130755747Y-97303598D01*
X130741133Y-97283893D01*
X130728520Y-97262849D01*
X130718030Y-97240671D01*
X130709765Y-97217571D01*
X130703804Y-97193773D01*
X130700204Y-97169504D01*
X130699000Y-97145000D01*
X130699000Y-95895000D01*
X130700204Y-95870496D01*
X130703804Y-95846227D01*
X130709765Y-95822429D01*
X130718030Y-95799329D01*
X130728520Y-95777151D01*
X130741133Y-95756107D01*
X130755747Y-95736402D01*
X130772223Y-95718223D01*
X130790402Y-95701747D01*
X130810107Y-95687133D01*
X130831151Y-95674520D01*
X130853329Y-95664030D01*
X130876429Y-95655765D01*
X130900227Y-95649804D01*
X130924496Y-95646204D01*
X130949000Y-95645000D01*
X131699000Y-95645000D01*
X131723504Y-95646204D01*
X131723504Y-95646204D01*
G37*
D12*
X131324000Y-96520000D03*
D11*
G36*
X114949504Y-132472204D02*
G01*
X114973773Y-132475804D01*
X114997571Y-132481765D01*
X115020671Y-132490030D01*
X115042849Y-132500520D01*
X115063893Y-132513133D01*
X115083598Y-132527747D01*
X115101777Y-132544223D01*
X115118253Y-132562402D01*
X115132867Y-132582107D01*
X115145480Y-132603151D01*
X115155970Y-132625329D01*
X115164235Y-132648429D01*
X115170196Y-132672227D01*
X115173796Y-132696496D01*
X115175000Y-132721000D01*
X115175000Y-133471000D01*
X115173796Y-133495504D01*
X115170196Y-133519773D01*
X115164235Y-133543571D01*
X115155970Y-133566671D01*
X115145480Y-133588849D01*
X115132867Y-133609893D01*
X115118253Y-133629598D01*
X115101777Y-133647777D01*
X115083598Y-133664253D01*
X115063893Y-133678867D01*
X115042849Y-133691480D01*
X115020671Y-133701970D01*
X114997571Y-133710235D01*
X114973773Y-133716196D01*
X114949504Y-133719796D01*
X114925000Y-133721000D01*
X113675000Y-133721000D01*
X113650496Y-133719796D01*
X113626227Y-133716196D01*
X113602429Y-133710235D01*
X113579329Y-133701970D01*
X113557151Y-133691480D01*
X113536107Y-133678867D01*
X113516402Y-133664253D01*
X113498223Y-133647777D01*
X113481747Y-133629598D01*
X113467133Y-133609893D01*
X113454520Y-133588849D01*
X113444030Y-133566671D01*
X113435765Y-133543571D01*
X113429804Y-133519773D01*
X113426204Y-133495504D01*
X113425000Y-133471000D01*
X113425000Y-132721000D01*
X113426204Y-132696496D01*
X113429804Y-132672227D01*
X113435765Y-132648429D01*
X113444030Y-132625329D01*
X113454520Y-132603151D01*
X113467133Y-132582107D01*
X113481747Y-132562402D01*
X113498223Y-132544223D01*
X113516402Y-132527747D01*
X113536107Y-132513133D01*
X113557151Y-132500520D01*
X113579329Y-132490030D01*
X113602429Y-132481765D01*
X113626227Y-132475804D01*
X113650496Y-132472204D01*
X113675000Y-132471000D01*
X114925000Y-132471000D01*
X114949504Y-132472204D01*
X114949504Y-132472204D01*
G37*
D12*
X114300000Y-133096000D03*
D11*
G36*
X114949504Y-129672204D02*
G01*
X114973773Y-129675804D01*
X114997571Y-129681765D01*
X115020671Y-129690030D01*
X115042849Y-129700520D01*
X115063893Y-129713133D01*
X115083598Y-129727747D01*
X115101777Y-129744223D01*
X115118253Y-129762402D01*
X115132867Y-129782107D01*
X115145480Y-129803151D01*
X115155970Y-129825329D01*
X115164235Y-129848429D01*
X115170196Y-129872227D01*
X115173796Y-129896496D01*
X115175000Y-129921000D01*
X115175000Y-130671000D01*
X115173796Y-130695504D01*
X115170196Y-130719773D01*
X115164235Y-130743571D01*
X115155970Y-130766671D01*
X115145480Y-130788849D01*
X115132867Y-130809893D01*
X115118253Y-130829598D01*
X115101777Y-130847777D01*
X115083598Y-130864253D01*
X115063893Y-130878867D01*
X115042849Y-130891480D01*
X115020671Y-130901970D01*
X114997571Y-130910235D01*
X114973773Y-130916196D01*
X114949504Y-130919796D01*
X114925000Y-130921000D01*
X113675000Y-130921000D01*
X113650496Y-130919796D01*
X113626227Y-130916196D01*
X113602429Y-130910235D01*
X113579329Y-130901970D01*
X113557151Y-130891480D01*
X113536107Y-130878867D01*
X113516402Y-130864253D01*
X113498223Y-130847777D01*
X113481747Y-130829598D01*
X113467133Y-130809893D01*
X113454520Y-130788849D01*
X113444030Y-130766671D01*
X113435765Y-130743571D01*
X113429804Y-130719773D01*
X113426204Y-130695504D01*
X113425000Y-130671000D01*
X113425000Y-129921000D01*
X113426204Y-129896496D01*
X113429804Y-129872227D01*
X113435765Y-129848429D01*
X113444030Y-129825329D01*
X113454520Y-129803151D01*
X113467133Y-129782107D01*
X113481747Y-129762402D01*
X113498223Y-129744223D01*
X113516402Y-129727747D01*
X113536107Y-129713133D01*
X113557151Y-129700520D01*
X113579329Y-129690030D01*
X113602429Y-129681765D01*
X113626227Y-129675804D01*
X113650496Y-129672204D01*
X113675000Y-129671000D01*
X114925000Y-129671000D01*
X114949504Y-129672204D01*
X114949504Y-129672204D01*
G37*
D12*
X114300000Y-130296000D03*
D11*
G36*
X107485904Y-118074404D02*
G01*
X107510173Y-118078004D01*
X107533971Y-118083965D01*
X107557071Y-118092230D01*
X107579249Y-118102720D01*
X107600293Y-118115333D01*
X107619998Y-118129947D01*
X107638177Y-118146423D01*
X107654653Y-118164602D01*
X107669267Y-118184307D01*
X107681880Y-118205351D01*
X107692370Y-118227529D01*
X107700635Y-118250629D01*
X107706596Y-118274427D01*
X107710196Y-118298696D01*
X107711400Y-118323200D01*
X107711400Y-119573200D01*
X107710196Y-119597704D01*
X107706596Y-119621973D01*
X107700635Y-119645771D01*
X107692370Y-119668871D01*
X107681880Y-119691049D01*
X107669267Y-119712093D01*
X107654653Y-119731798D01*
X107638177Y-119749977D01*
X107619998Y-119766453D01*
X107600293Y-119781067D01*
X107579249Y-119793680D01*
X107557071Y-119804170D01*
X107533971Y-119812435D01*
X107510173Y-119818396D01*
X107485904Y-119821996D01*
X107461400Y-119823200D01*
X106711400Y-119823200D01*
X106686896Y-119821996D01*
X106662627Y-119818396D01*
X106638829Y-119812435D01*
X106615729Y-119804170D01*
X106593551Y-119793680D01*
X106572507Y-119781067D01*
X106552802Y-119766453D01*
X106534623Y-119749977D01*
X106518147Y-119731798D01*
X106503533Y-119712093D01*
X106490920Y-119691049D01*
X106480430Y-119668871D01*
X106472165Y-119645771D01*
X106466204Y-119621973D01*
X106462604Y-119597704D01*
X106461400Y-119573200D01*
X106461400Y-118323200D01*
X106462604Y-118298696D01*
X106466204Y-118274427D01*
X106472165Y-118250629D01*
X106480430Y-118227529D01*
X106490920Y-118205351D01*
X106503533Y-118184307D01*
X106518147Y-118164602D01*
X106534623Y-118146423D01*
X106552802Y-118129947D01*
X106572507Y-118115333D01*
X106593551Y-118102720D01*
X106615729Y-118092230D01*
X106638829Y-118083965D01*
X106662627Y-118078004D01*
X106686896Y-118074404D01*
X106711400Y-118073200D01*
X107461400Y-118073200D01*
X107485904Y-118074404D01*
X107485904Y-118074404D01*
G37*
D12*
X107086400Y-118948200D03*
D11*
G36*
X104685904Y-118074404D02*
G01*
X104710173Y-118078004D01*
X104733971Y-118083965D01*
X104757071Y-118092230D01*
X104779249Y-118102720D01*
X104800293Y-118115333D01*
X104819998Y-118129947D01*
X104838177Y-118146423D01*
X104854653Y-118164602D01*
X104869267Y-118184307D01*
X104881880Y-118205351D01*
X104892370Y-118227529D01*
X104900635Y-118250629D01*
X104906596Y-118274427D01*
X104910196Y-118298696D01*
X104911400Y-118323200D01*
X104911400Y-119573200D01*
X104910196Y-119597704D01*
X104906596Y-119621973D01*
X104900635Y-119645771D01*
X104892370Y-119668871D01*
X104881880Y-119691049D01*
X104869267Y-119712093D01*
X104854653Y-119731798D01*
X104838177Y-119749977D01*
X104819998Y-119766453D01*
X104800293Y-119781067D01*
X104779249Y-119793680D01*
X104757071Y-119804170D01*
X104733971Y-119812435D01*
X104710173Y-119818396D01*
X104685904Y-119821996D01*
X104661400Y-119823200D01*
X103911400Y-119823200D01*
X103886896Y-119821996D01*
X103862627Y-119818396D01*
X103838829Y-119812435D01*
X103815729Y-119804170D01*
X103793551Y-119793680D01*
X103772507Y-119781067D01*
X103752802Y-119766453D01*
X103734623Y-119749977D01*
X103718147Y-119731798D01*
X103703533Y-119712093D01*
X103690920Y-119691049D01*
X103680430Y-119668871D01*
X103672165Y-119645771D01*
X103666204Y-119621973D01*
X103662604Y-119597704D01*
X103661400Y-119573200D01*
X103661400Y-118323200D01*
X103662604Y-118298696D01*
X103666204Y-118274427D01*
X103672165Y-118250629D01*
X103680430Y-118227529D01*
X103690920Y-118205351D01*
X103703533Y-118184307D01*
X103718147Y-118164602D01*
X103734623Y-118146423D01*
X103752802Y-118129947D01*
X103772507Y-118115333D01*
X103793551Y-118102720D01*
X103815729Y-118092230D01*
X103838829Y-118083965D01*
X103862627Y-118078004D01*
X103886896Y-118074404D01*
X103911400Y-118073200D01*
X104661400Y-118073200D01*
X104685904Y-118074404D01*
X104685904Y-118074404D01*
G37*
D12*
X104286400Y-118948200D03*
D11*
G36*
X112409504Y-129672204D02*
G01*
X112433773Y-129675804D01*
X112457571Y-129681765D01*
X112480671Y-129690030D01*
X112502849Y-129700520D01*
X112523893Y-129713133D01*
X112543598Y-129727747D01*
X112561777Y-129744223D01*
X112578253Y-129762402D01*
X112592867Y-129782107D01*
X112605480Y-129803151D01*
X112615970Y-129825329D01*
X112624235Y-129848429D01*
X112630196Y-129872227D01*
X112633796Y-129896496D01*
X112635000Y-129921000D01*
X112635000Y-130671000D01*
X112633796Y-130695504D01*
X112630196Y-130719773D01*
X112624235Y-130743571D01*
X112615970Y-130766671D01*
X112605480Y-130788849D01*
X112592867Y-130809893D01*
X112578253Y-130829598D01*
X112561777Y-130847777D01*
X112543598Y-130864253D01*
X112523893Y-130878867D01*
X112502849Y-130891480D01*
X112480671Y-130901970D01*
X112457571Y-130910235D01*
X112433773Y-130916196D01*
X112409504Y-130919796D01*
X112385000Y-130921000D01*
X111135000Y-130921000D01*
X111110496Y-130919796D01*
X111086227Y-130916196D01*
X111062429Y-130910235D01*
X111039329Y-130901970D01*
X111017151Y-130891480D01*
X110996107Y-130878867D01*
X110976402Y-130864253D01*
X110958223Y-130847777D01*
X110941747Y-130829598D01*
X110927133Y-130809893D01*
X110914520Y-130788849D01*
X110904030Y-130766671D01*
X110895765Y-130743571D01*
X110889804Y-130719773D01*
X110886204Y-130695504D01*
X110885000Y-130671000D01*
X110885000Y-129921000D01*
X110886204Y-129896496D01*
X110889804Y-129872227D01*
X110895765Y-129848429D01*
X110904030Y-129825329D01*
X110914520Y-129803151D01*
X110927133Y-129782107D01*
X110941747Y-129762402D01*
X110958223Y-129744223D01*
X110976402Y-129727747D01*
X110996107Y-129713133D01*
X111017151Y-129700520D01*
X111039329Y-129690030D01*
X111062429Y-129681765D01*
X111086227Y-129675804D01*
X111110496Y-129672204D01*
X111135000Y-129671000D01*
X112385000Y-129671000D01*
X112409504Y-129672204D01*
X112409504Y-129672204D01*
G37*
D12*
X111760000Y-130296000D03*
D11*
G36*
X112409504Y-132472204D02*
G01*
X112433773Y-132475804D01*
X112457571Y-132481765D01*
X112480671Y-132490030D01*
X112502849Y-132500520D01*
X112523893Y-132513133D01*
X112543598Y-132527747D01*
X112561777Y-132544223D01*
X112578253Y-132562402D01*
X112592867Y-132582107D01*
X112605480Y-132603151D01*
X112615970Y-132625329D01*
X112624235Y-132648429D01*
X112630196Y-132672227D01*
X112633796Y-132696496D01*
X112635000Y-132721000D01*
X112635000Y-133471000D01*
X112633796Y-133495504D01*
X112630196Y-133519773D01*
X112624235Y-133543571D01*
X112615970Y-133566671D01*
X112605480Y-133588849D01*
X112592867Y-133609893D01*
X112578253Y-133629598D01*
X112561777Y-133647777D01*
X112543598Y-133664253D01*
X112523893Y-133678867D01*
X112502849Y-133691480D01*
X112480671Y-133701970D01*
X112457571Y-133710235D01*
X112433773Y-133716196D01*
X112409504Y-133719796D01*
X112385000Y-133721000D01*
X111135000Y-133721000D01*
X111110496Y-133719796D01*
X111086227Y-133716196D01*
X111062429Y-133710235D01*
X111039329Y-133701970D01*
X111017151Y-133691480D01*
X110996107Y-133678867D01*
X110976402Y-133664253D01*
X110958223Y-133647777D01*
X110941747Y-133629598D01*
X110927133Y-133609893D01*
X110914520Y-133588849D01*
X110904030Y-133566671D01*
X110895765Y-133543571D01*
X110889804Y-133519773D01*
X110886204Y-133495504D01*
X110885000Y-133471000D01*
X110885000Y-132721000D01*
X110886204Y-132696496D01*
X110889804Y-132672227D01*
X110895765Y-132648429D01*
X110904030Y-132625329D01*
X110914520Y-132603151D01*
X110927133Y-132582107D01*
X110941747Y-132562402D01*
X110958223Y-132544223D01*
X110976402Y-132527747D01*
X110996107Y-132513133D01*
X111017151Y-132500520D01*
X111039329Y-132490030D01*
X111062429Y-132481765D01*
X111086227Y-132475804D01*
X111110496Y-132472204D01*
X111135000Y-132471000D01*
X112385000Y-132471000D01*
X112409504Y-132472204D01*
X112409504Y-132472204D01*
G37*
D12*
X111760000Y-133096000D03*
D11*
G36*
X104685904Y-120614404D02*
G01*
X104710173Y-120618004D01*
X104733971Y-120623965D01*
X104757071Y-120632230D01*
X104779249Y-120642720D01*
X104800293Y-120655333D01*
X104819998Y-120669947D01*
X104838177Y-120686423D01*
X104854653Y-120704602D01*
X104869267Y-120724307D01*
X104881880Y-120745351D01*
X104892370Y-120767529D01*
X104900635Y-120790629D01*
X104906596Y-120814427D01*
X104910196Y-120838696D01*
X104911400Y-120863200D01*
X104911400Y-122113200D01*
X104910196Y-122137704D01*
X104906596Y-122161973D01*
X104900635Y-122185771D01*
X104892370Y-122208871D01*
X104881880Y-122231049D01*
X104869267Y-122252093D01*
X104854653Y-122271798D01*
X104838177Y-122289977D01*
X104819998Y-122306453D01*
X104800293Y-122321067D01*
X104779249Y-122333680D01*
X104757071Y-122344170D01*
X104733971Y-122352435D01*
X104710173Y-122358396D01*
X104685904Y-122361996D01*
X104661400Y-122363200D01*
X103911400Y-122363200D01*
X103886896Y-122361996D01*
X103862627Y-122358396D01*
X103838829Y-122352435D01*
X103815729Y-122344170D01*
X103793551Y-122333680D01*
X103772507Y-122321067D01*
X103752802Y-122306453D01*
X103734623Y-122289977D01*
X103718147Y-122271798D01*
X103703533Y-122252093D01*
X103690920Y-122231049D01*
X103680430Y-122208871D01*
X103672165Y-122185771D01*
X103666204Y-122161973D01*
X103662604Y-122137704D01*
X103661400Y-122113200D01*
X103661400Y-120863200D01*
X103662604Y-120838696D01*
X103666204Y-120814427D01*
X103672165Y-120790629D01*
X103680430Y-120767529D01*
X103690920Y-120745351D01*
X103703533Y-120724307D01*
X103718147Y-120704602D01*
X103734623Y-120686423D01*
X103752802Y-120669947D01*
X103772507Y-120655333D01*
X103793551Y-120642720D01*
X103815729Y-120632230D01*
X103838829Y-120623965D01*
X103862627Y-120618004D01*
X103886896Y-120614404D01*
X103911400Y-120613200D01*
X104661400Y-120613200D01*
X104685904Y-120614404D01*
X104685904Y-120614404D01*
G37*
D12*
X104286400Y-121488200D03*
D11*
G36*
X107485904Y-120614404D02*
G01*
X107510173Y-120618004D01*
X107533971Y-120623965D01*
X107557071Y-120632230D01*
X107579249Y-120642720D01*
X107600293Y-120655333D01*
X107619998Y-120669947D01*
X107638177Y-120686423D01*
X107654653Y-120704602D01*
X107669267Y-120724307D01*
X107681880Y-120745351D01*
X107692370Y-120767529D01*
X107700635Y-120790629D01*
X107706596Y-120814427D01*
X107710196Y-120838696D01*
X107711400Y-120863200D01*
X107711400Y-122113200D01*
X107710196Y-122137704D01*
X107706596Y-122161973D01*
X107700635Y-122185771D01*
X107692370Y-122208871D01*
X107681880Y-122231049D01*
X107669267Y-122252093D01*
X107654653Y-122271798D01*
X107638177Y-122289977D01*
X107619998Y-122306453D01*
X107600293Y-122321067D01*
X107579249Y-122333680D01*
X107557071Y-122344170D01*
X107533971Y-122352435D01*
X107510173Y-122358396D01*
X107485904Y-122361996D01*
X107461400Y-122363200D01*
X106711400Y-122363200D01*
X106686896Y-122361996D01*
X106662627Y-122358396D01*
X106638829Y-122352435D01*
X106615729Y-122344170D01*
X106593551Y-122333680D01*
X106572507Y-122321067D01*
X106552802Y-122306453D01*
X106534623Y-122289977D01*
X106518147Y-122271798D01*
X106503533Y-122252093D01*
X106490920Y-122231049D01*
X106480430Y-122208871D01*
X106472165Y-122185771D01*
X106466204Y-122161973D01*
X106462604Y-122137704D01*
X106461400Y-122113200D01*
X106461400Y-120863200D01*
X106462604Y-120838696D01*
X106466204Y-120814427D01*
X106472165Y-120790629D01*
X106480430Y-120767529D01*
X106490920Y-120745351D01*
X106503533Y-120724307D01*
X106518147Y-120704602D01*
X106534623Y-120686423D01*
X106552802Y-120669947D01*
X106572507Y-120655333D01*
X106593551Y-120642720D01*
X106615729Y-120632230D01*
X106638829Y-120623965D01*
X106662627Y-120618004D01*
X106686896Y-120614404D01*
X106711400Y-120613200D01*
X107461400Y-120613200D01*
X107485904Y-120614404D01*
X107485904Y-120614404D01*
G37*
D12*
X107086400Y-121488200D03*
D11*
G36*
X105961904Y-83022404D02*
G01*
X105986173Y-83026004D01*
X106009971Y-83031965D01*
X106033071Y-83040230D01*
X106055249Y-83050720D01*
X106076293Y-83063333D01*
X106095998Y-83077947D01*
X106114177Y-83094423D01*
X106130653Y-83112602D01*
X106145267Y-83132307D01*
X106157880Y-83153351D01*
X106168370Y-83175529D01*
X106176635Y-83198629D01*
X106182596Y-83222427D01*
X106186196Y-83246696D01*
X106187400Y-83271200D01*
X106187400Y-84521200D01*
X106186196Y-84545704D01*
X106182596Y-84569973D01*
X106176635Y-84593771D01*
X106168370Y-84616871D01*
X106157880Y-84639049D01*
X106145267Y-84660093D01*
X106130653Y-84679798D01*
X106114177Y-84697977D01*
X106095998Y-84714453D01*
X106076293Y-84729067D01*
X106055249Y-84741680D01*
X106033071Y-84752170D01*
X106009971Y-84760435D01*
X105986173Y-84766396D01*
X105961904Y-84769996D01*
X105937400Y-84771200D01*
X105187400Y-84771200D01*
X105162896Y-84769996D01*
X105138627Y-84766396D01*
X105114829Y-84760435D01*
X105091729Y-84752170D01*
X105069551Y-84741680D01*
X105048507Y-84729067D01*
X105028802Y-84714453D01*
X105010623Y-84697977D01*
X104994147Y-84679798D01*
X104979533Y-84660093D01*
X104966920Y-84639049D01*
X104956430Y-84616871D01*
X104948165Y-84593771D01*
X104942204Y-84569973D01*
X104938604Y-84545704D01*
X104937400Y-84521200D01*
X104937400Y-83271200D01*
X104938604Y-83246696D01*
X104942204Y-83222427D01*
X104948165Y-83198629D01*
X104956430Y-83175529D01*
X104966920Y-83153351D01*
X104979533Y-83132307D01*
X104994147Y-83112602D01*
X105010623Y-83094423D01*
X105028802Y-83077947D01*
X105048507Y-83063333D01*
X105069551Y-83050720D01*
X105091729Y-83040230D01*
X105114829Y-83031965D01*
X105138627Y-83026004D01*
X105162896Y-83022404D01*
X105187400Y-83021200D01*
X105937400Y-83021200D01*
X105961904Y-83022404D01*
X105961904Y-83022404D01*
G37*
D12*
X105562400Y-83896200D03*
D11*
G36*
X103161904Y-83022404D02*
G01*
X103186173Y-83026004D01*
X103209971Y-83031965D01*
X103233071Y-83040230D01*
X103255249Y-83050720D01*
X103276293Y-83063333D01*
X103295998Y-83077947D01*
X103314177Y-83094423D01*
X103330653Y-83112602D01*
X103345267Y-83132307D01*
X103357880Y-83153351D01*
X103368370Y-83175529D01*
X103376635Y-83198629D01*
X103382596Y-83222427D01*
X103386196Y-83246696D01*
X103387400Y-83271200D01*
X103387400Y-84521200D01*
X103386196Y-84545704D01*
X103382596Y-84569973D01*
X103376635Y-84593771D01*
X103368370Y-84616871D01*
X103357880Y-84639049D01*
X103345267Y-84660093D01*
X103330653Y-84679798D01*
X103314177Y-84697977D01*
X103295998Y-84714453D01*
X103276293Y-84729067D01*
X103255249Y-84741680D01*
X103233071Y-84752170D01*
X103209971Y-84760435D01*
X103186173Y-84766396D01*
X103161904Y-84769996D01*
X103137400Y-84771200D01*
X102387400Y-84771200D01*
X102362896Y-84769996D01*
X102338627Y-84766396D01*
X102314829Y-84760435D01*
X102291729Y-84752170D01*
X102269551Y-84741680D01*
X102248507Y-84729067D01*
X102228802Y-84714453D01*
X102210623Y-84697977D01*
X102194147Y-84679798D01*
X102179533Y-84660093D01*
X102166920Y-84639049D01*
X102156430Y-84616871D01*
X102148165Y-84593771D01*
X102142204Y-84569973D01*
X102138604Y-84545704D01*
X102137400Y-84521200D01*
X102137400Y-83271200D01*
X102138604Y-83246696D01*
X102142204Y-83222427D01*
X102148165Y-83198629D01*
X102156430Y-83175529D01*
X102166920Y-83153351D01*
X102179533Y-83132307D01*
X102194147Y-83112602D01*
X102210623Y-83094423D01*
X102228802Y-83077947D01*
X102248507Y-83063333D01*
X102269551Y-83050720D01*
X102291729Y-83040230D01*
X102314829Y-83031965D01*
X102338627Y-83026004D01*
X102362896Y-83022404D01*
X102387400Y-83021200D01*
X103137400Y-83021200D01*
X103161904Y-83022404D01*
X103161904Y-83022404D01*
G37*
D12*
X102762400Y-83896200D03*
D11*
G36*
X103161904Y-85562404D02*
G01*
X103186173Y-85566004D01*
X103209971Y-85571965D01*
X103233071Y-85580230D01*
X103255249Y-85590720D01*
X103276293Y-85603333D01*
X103295998Y-85617947D01*
X103314177Y-85634423D01*
X103330653Y-85652602D01*
X103345267Y-85672307D01*
X103357880Y-85693351D01*
X103368370Y-85715529D01*
X103376635Y-85738629D01*
X103382596Y-85762427D01*
X103386196Y-85786696D01*
X103387400Y-85811200D01*
X103387400Y-87061200D01*
X103386196Y-87085704D01*
X103382596Y-87109973D01*
X103376635Y-87133771D01*
X103368370Y-87156871D01*
X103357880Y-87179049D01*
X103345267Y-87200093D01*
X103330653Y-87219798D01*
X103314177Y-87237977D01*
X103295998Y-87254453D01*
X103276293Y-87269067D01*
X103255249Y-87281680D01*
X103233071Y-87292170D01*
X103209971Y-87300435D01*
X103186173Y-87306396D01*
X103161904Y-87309996D01*
X103137400Y-87311200D01*
X102387400Y-87311200D01*
X102362896Y-87309996D01*
X102338627Y-87306396D01*
X102314829Y-87300435D01*
X102291729Y-87292170D01*
X102269551Y-87281680D01*
X102248507Y-87269067D01*
X102228802Y-87254453D01*
X102210623Y-87237977D01*
X102194147Y-87219798D01*
X102179533Y-87200093D01*
X102166920Y-87179049D01*
X102156430Y-87156871D01*
X102148165Y-87133771D01*
X102142204Y-87109973D01*
X102138604Y-87085704D01*
X102137400Y-87061200D01*
X102137400Y-85811200D01*
X102138604Y-85786696D01*
X102142204Y-85762427D01*
X102148165Y-85738629D01*
X102156430Y-85715529D01*
X102166920Y-85693351D01*
X102179533Y-85672307D01*
X102194147Y-85652602D01*
X102210623Y-85634423D01*
X102228802Y-85617947D01*
X102248507Y-85603333D01*
X102269551Y-85590720D01*
X102291729Y-85580230D01*
X102314829Y-85571965D01*
X102338627Y-85566004D01*
X102362896Y-85562404D01*
X102387400Y-85561200D01*
X103137400Y-85561200D01*
X103161904Y-85562404D01*
X103161904Y-85562404D01*
G37*
D12*
X102762400Y-86436200D03*
D11*
G36*
X105961904Y-85562404D02*
G01*
X105986173Y-85566004D01*
X106009971Y-85571965D01*
X106033071Y-85580230D01*
X106055249Y-85590720D01*
X106076293Y-85603333D01*
X106095998Y-85617947D01*
X106114177Y-85634423D01*
X106130653Y-85652602D01*
X106145267Y-85672307D01*
X106157880Y-85693351D01*
X106168370Y-85715529D01*
X106176635Y-85738629D01*
X106182596Y-85762427D01*
X106186196Y-85786696D01*
X106187400Y-85811200D01*
X106187400Y-87061200D01*
X106186196Y-87085704D01*
X106182596Y-87109973D01*
X106176635Y-87133771D01*
X106168370Y-87156871D01*
X106157880Y-87179049D01*
X106145267Y-87200093D01*
X106130653Y-87219798D01*
X106114177Y-87237977D01*
X106095998Y-87254453D01*
X106076293Y-87269067D01*
X106055249Y-87281680D01*
X106033071Y-87292170D01*
X106009971Y-87300435D01*
X105986173Y-87306396D01*
X105961904Y-87309996D01*
X105937400Y-87311200D01*
X105187400Y-87311200D01*
X105162896Y-87309996D01*
X105138627Y-87306396D01*
X105114829Y-87300435D01*
X105091729Y-87292170D01*
X105069551Y-87281680D01*
X105048507Y-87269067D01*
X105028802Y-87254453D01*
X105010623Y-87237977D01*
X104994147Y-87219798D01*
X104979533Y-87200093D01*
X104966920Y-87179049D01*
X104956430Y-87156871D01*
X104948165Y-87133771D01*
X104942204Y-87109973D01*
X104938604Y-87085704D01*
X104937400Y-87061200D01*
X104937400Y-85811200D01*
X104938604Y-85786696D01*
X104942204Y-85762427D01*
X104948165Y-85738629D01*
X104956430Y-85715529D01*
X104966920Y-85693351D01*
X104979533Y-85672307D01*
X104994147Y-85652602D01*
X105010623Y-85634423D01*
X105028802Y-85617947D01*
X105048507Y-85603333D01*
X105069551Y-85590720D01*
X105091729Y-85580230D01*
X105114829Y-85571965D01*
X105138627Y-85566004D01*
X105162896Y-85562404D01*
X105187400Y-85561200D01*
X105937400Y-85561200D01*
X105961904Y-85562404D01*
X105961904Y-85562404D01*
G37*
D12*
X105562400Y-86436200D03*
D11*
G36*
X110275904Y-96480404D02*
G01*
X110300173Y-96484004D01*
X110323971Y-96489965D01*
X110347071Y-96498230D01*
X110369249Y-96508720D01*
X110390293Y-96521333D01*
X110409998Y-96535947D01*
X110428177Y-96552423D01*
X110444653Y-96570602D01*
X110459267Y-96590307D01*
X110471880Y-96611351D01*
X110482370Y-96633529D01*
X110490635Y-96656629D01*
X110496596Y-96680427D01*
X110500196Y-96704696D01*
X110501400Y-96729200D01*
X110501400Y-97479200D01*
X110500196Y-97503704D01*
X110496596Y-97527973D01*
X110490635Y-97551771D01*
X110482370Y-97574871D01*
X110471880Y-97597049D01*
X110459267Y-97618093D01*
X110444653Y-97637798D01*
X110428177Y-97655977D01*
X110409998Y-97672453D01*
X110390293Y-97687067D01*
X110369249Y-97699680D01*
X110347071Y-97710170D01*
X110323971Y-97718435D01*
X110300173Y-97724396D01*
X110275904Y-97727996D01*
X110251400Y-97729200D01*
X109001400Y-97729200D01*
X108976896Y-97727996D01*
X108952627Y-97724396D01*
X108928829Y-97718435D01*
X108905729Y-97710170D01*
X108883551Y-97699680D01*
X108862507Y-97687067D01*
X108842802Y-97672453D01*
X108824623Y-97655977D01*
X108808147Y-97637798D01*
X108793533Y-97618093D01*
X108780920Y-97597049D01*
X108770430Y-97574871D01*
X108762165Y-97551771D01*
X108756204Y-97527973D01*
X108752604Y-97503704D01*
X108751400Y-97479200D01*
X108751400Y-96729200D01*
X108752604Y-96704696D01*
X108756204Y-96680427D01*
X108762165Y-96656629D01*
X108770430Y-96633529D01*
X108780920Y-96611351D01*
X108793533Y-96590307D01*
X108808147Y-96570602D01*
X108824623Y-96552423D01*
X108842802Y-96535947D01*
X108862507Y-96521333D01*
X108883551Y-96508720D01*
X108905729Y-96498230D01*
X108928829Y-96489965D01*
X108952627Y-96484004D01*
X108976896Y-96480404D01*
X109001400Y-96479200D01*
X110251400Y-96479200D01*
X110275904Y-96480404D01*
X110275904Y-96480404D01*
G37*
D12*
X109626400Y-97104200D03*
D11*
G36*
X110275904Y-99280404D02*
G01*
X110300173Y-99284004D01*
X110323971Y-99289965D01*
X110347071Y-99298230D01*
X110369249Y-99308720D01*
X110390293Y-99321333D01*
X110409998Y-99335947D01*
X110428177Y-99352423D01*
X110444653Y-99370602D01*
X110459267Y-99390307D01*
X110471880Y-99411351D01*
X110482370Y-99433529D01*
X110490635Y-99456629D01*
X110496596Y-99480427D01*
X110500196Y-99504696D01*
X110501400Y-99529200D01*
X110501400Y-100279200D01*
X110500196Y-100303704D01*
X110496596Y-100327973D01*
X110490635Y-100351771D01*
X110482370Y-100374871D01*
X110471880Y-100397049D01*
X110459267Y-100418093D01*
X110444653Y-100437798D01*
X110428177Y-100455977D01*
X110409998Y-100472453D01*
X110390293Y-100487067D01*
X110369249Y-100499680D01*
X110347071Y-100510170D01*
X110323971Y-100518435D01*
X110300173Y-100524396D01*
X110275904Y-100527996D01*
X110251400Y-100529200D01*
X109001400Y-100529200D01*
X108976896Y-100527996D01*
X108952627Y-100524396D01*
X108928829Y-100518435D01*
X108905729Y-100510170D01*
X108883551Y-100499680D01*
X108862507Y-100487067D01*
X108842802Y-100472453D01*
X108824623Y-100455977D01*
X108808147Y-100437798D01*
X108793533Y-100418093D01*
X108780920Y-100397049D01*
X108770430Y-100374871D01*
X108762165Y-100351771D01*
X108756204Y-100327973D01*
X108752604Y-100303704D01*
X108751400Y-100279200D01*
X108751400Y-99529200D01*
X108752604Y-99504696D01*
X108756204Y-99480427D01*
X108762165Y-99456629D01*
X108770430Y-99433529D01*
X108780920Y-99411351D01*
X108793533Y-99390307D01*
X108808147Y-99370602D01*
X108824623Y-99352423D01*
X108842802Y-99335947D01*
X108862507Y-99321333D01*
X108883551Y-99308720D01*
X108905729Y-99298230D01*
X108928829Y-99289965D01*
X108952627Y-99284004D01*
X108976896Y-99280404D01*
X109001400Y-99279200D01*
X110251400Y-99279200D01*
X110275904Y-99280404D01*
X110275904Y-99280404D01*
G37*
D12*
X109626400Y-99904200D03*
D11*
G36*
X107735904Y-96480404D02*
G01*
X107760173Y-96484004D01*
X107783971Y-96489965D01*
X107807071Y-96498230D01*
X107829249Y-96508720D01*
X107850293Y-96521333D01*
X107869998Y-96535947D01*
X107888177Y-96552423D01*
X107904653Y-96570602D01*
X107919267Y-96590307D01*
X107931880Y-96611351D01*
X107942370Y-96633529D01*
X107950635Y-96656629D01*
X107956596Y-96680427D01*
X107960196Y-96704696D01*
X107961400Y-96729200D01*
X107961400Y-97479200D01*
X107960196Y-97503704D01*
X107956596Y-97527973D01*
X107950635Y-97551771D01*
X107942370Y-97574871D01*
X107931880Y-97597049D01*
X107919267Y-97618093D01*
X107904653Y-97637798D01*
X107888177Y-97655977D01*
X107869998Y-97672453D01*
X107850293Y-97687067D01*
X107829249Y-97699680D01*
X107807071Y-97710170D01*
X107783971Y-97718435D01*
X107760173Y-97724396D01*
X107735904Y-97727996D01*
X107711400Y-97729200D01*
X106461400Y-97729200D01*
X106436896Y-97727996D01*
X106412627Y-97724396D01*
X106388829Y-97718435D01*
X106365729Y-97710170D01*
X106343551Y-97699680D01*
X106322507Y-97687067D01*
X106302802Y-97672453D01*
X106284623Y-97655977D01*
X106268147Y-97637798D01*
X106253533Y-97618093D01*
X106240920Y-97597049D01*
X106230430Y-97574871D01*
X106222165Y-97551771D01*
X106216204Y-97527973D01*
X106212604Y-97503704D01*
X106211400Y-97479200D01*
X106211400Y-96729200D01*
X106212604Y-96704696D01*
X106216204Y-96680427D01*
X106222165Y-96656629D01*
X106230430Y-96633529D01*
X106240920Y-96611351D01*
X106253533Y-96590307D01*
X106268147Y-96570602D01*
X106284623Y-96552423D01*
X106302802Y-96535947D01*
X106322507Y-96521333D01*
X106343551Y-96508720D01*
X106365729Y-96498230D01*
X106388829Y-96489965D01*
X106412627Y-96484004D01*
X106436896Y-96480404D01*
X106461400Y-96479200D01*
X107711400Y-96479200D01*
X107735904Y-96480404D01*
X107735904Y-96480404D01*
G37*
D12*
X107086400Y-97104200D03*
D11*
G36*
X107735904Y-99280404D02*
G01*
X107760173Y-99284004D01*
X107783971Y-99289965D01*
X107807071Y-99298230D01*
X107829249Y-99308720D01*
X107850293Y-99321333D01*
X107869998Y-99335947D01*
X107888177Y-99352423D01*
X107904653Y-99370602D01*
X107919267Y-99390307D01*
X107931880Y-99411351D01*
X107942370Y-99433529D01*
X107950635Y-99456629D01*
X107956596Y-99480427D01*
X107960196Y-99504696D01*
X107961400Y-99529200D01*
X107961400Y-100279200D01*
X107960196Y-100303704D01*
X107956596Y-100327973D01*
X107950635Y-100351771D01*
X107942370Y-100374871D01*
X107931880Y-100397049D01*
X107919267Y-100418093D01*
X107904653Y-100437798D01*
X107888177Y-100455977D01*
X107869998Y-100472453D01*
X107850293Y-100487067D01*
X107829249Y-100499680D01*
X107807071Y-100510170D01*
X107783971Y-100518435D01*
X107760173Y-100524396D01*
X107735904Y-100527996D01*
X107711400Y-100529200D01*
X106461400Y-100529200D01*
X106436896Y-100527996D01*
X106412627Y-100524396D01*
X106388829Y-100518435D01*
X106365729Y-100510170D01*
X106343551Y-100499680D01*
X106322507Y-100487067D01*
X106302802Y-100472453D01*
X106284623Y-100455977D01*
X106268147Y-100437798D01*
X106253533Y-100418093D01*
X106240920Y-100397049D01*
X106230430Y-100374871D01*
X106222165Y-100351771D01*
X106216204Y-100327973D01*
X106212604Y-100303704D01*
X106211400Y-100279200D01*
X106211400Y-99529200D01*
X106212604Y-99504696D01*
X106216204Y-99480427D01*
X106222165Y-99456629D01*
X106230430Y-99433529D01*
X106240920Y-99411351D01*
X106253533Y-99390307D01*
X106268147Y-99370602D01*
X106284623Y-99352423D01*
X106302802Y-99335947D01*
X106322507Y-99321333D01*
X106343551Y-99308720D01*
X106365729Y-99298230D01*
X106388829Y-99289965D01*
X106412627Y-99284004D01*
X106436896Y-99280404D01*
X106461400Y-99279200D01*
X107711400Y-99279200D01*
X107735904Y-99280404D01*
X107735904Y-99280404D01*
G37*
D12*
X107086400Y-99904200D03*
D11*
G36*
X90971904Y-90892404D02*
G01*
X90996173Y-90896004D01*
X91019971Y-90901965D01*
X91043071Y-90910230D01*
X91065249Y-90920720D01*
X91086293Y-90933333D01*
X91105998Y-90947947D01*
X91124177Y-90964423D01*
X91140653Y-90982602D01*
X91155267Y-91002307D01*
X91167880Y-91023351D01*
X91178370Y-91045529D01*
X91186635Y-91068629D01*
X91192596Y-91092427D01*
X91196196Y-91116696D01*
X91197400Y-91141200D01*
X91197400Y-91891200D01*
X91196196Y-91915704D01*
X91192596Y-91939973D01*
X91186635Y-91963771D01*
X91178370Y-91986871D01*
X91167880Y-92009049D01*
X91155267Y-92030093D01*
X91140653Y-92049798D01*
X91124177Y-92067977D01*
X91105998Y-92084453D01*
X91086293Y-92099067D01*
X91065249Y-92111680D01*
X91043071Y-92122170D01*
X91019971Y-92130435D01*
X90996173Y-92136396D01*
X90971904Y-92139996D01*
X90947400Y-92141200D01*
X89697400Y-92141200D01*
X89672896Y-92139996D01*
X89648627Y-92136396D01*
X89624829Y-92130435D01*
X89601729Y-92122170D01*
X89579551Y-92111680D01*
X89558507Y-92099067D01*
X89538802Y-92084453D01*
X89520623Y-92067977D01*
X89504147Y-92049798D01*
X89489533Y-92030093D01*
X89476920Y-92009049D01*
X89466430Y-91986871D01*
X89458165Y-91963771D01*
X89452204Y-91939973D01*
X89448604Y-91915704D01*
X89447400Y-91891200D01*
X89447400Y-91141200D01*
X89448604Y-91116696D01*
X89452204Y-91092427D01*
X89458165Y-91068629D01*
X89466430Y-91045529D01*
X89476920Y-91023351D01*
X89489533Y-91002307D01*
X89504147Y-90982602D01*
X89520623Y-90964423D01*
X89538802Y-90947947D01*
X89558507Y-90933333D01*
X89579551Y-90920720D01*
X89601729Y-90910230D01*
X89624829Y-90901965D01*
X89648627Y-90896004D01*
X89672896Y-90892404D01*
X89697400Y-90891200D01*
X90947400Y-90891200D01*
X90971904Y-90892404D01*
X90971904Y-90892404D01*
G37*
D12*
X90322400Y-91516200D03*
D11*
G36*
X90971904Y-93692404D02*
G01*
X90996173Y-93696004D01*
X91019971Y-93701965D01*
X91043071Y-93710230D01*
X91065249Y-93720720D01*
X91086293Y-93733333D01*
X91105998Y-93747947D01*
X91124177Y-93764423D01*
X91140653Y-93782602D01*
X91155267Y-93802307D01*
X91167880Y-93823351D01*
X91178370Y-93845529D01*
X91186635Y-93868629D01*
X91192596Y-93892427D01*
X91196196Y-93916696D01*
X91197400Y-93941200D01*
X91197400Y-94691200D01*
X91196196Y-94715704D01*
X91192596Y-94739973D01*
X91186635Y-94763771D01*
X91178370Y-94786871D01*
X91167880Y-94809049D01*
X91155267Y-94830093D01*
X91140653Y-94849798D01*
X91124177Y-94867977D01*
X91105998Y-94884453D01*
X91086293Y-94899067D01*
X91065249Y-94911680D01*
X91043071Y-94922170D01*
X91019971Y-94930435D01*
X90996173Y-94936396D01*
X90971904Y-94939996D01*
X90947400Y-94941200D01*
X89697400Y-94941200D01*
X89672896Y-94939996D01*
X89648627Y-94936396D01*
X89624829Y-94930435D01*
X89601729Y-94922170D01*
X89579551Y-94911680D01*
X89558507Y-94899067D01*
X89538802Y-94884453D01*
X89520623Y-94867977D01*
X89504147Y-94849798D01*
X89489533Y-94830093D01*
X89476920Y-94809049D01*
X89466430Y-94786871D01*
X89458165Y-94763771D01*
X89452204Y-94739973D01*
X89448604Y-94715704D01*
X89447400Y-94691200D01*
X89447400Y-93941200D01*
X89448604Y-93916696D01*
X89452204Y-93892427D01*
X89458165Y-93868629D01*
X89466430Y-93845529D01*
X89476920Y-93823351D01*
X89489533Y-93802307D01*
X89504147Y-93782602D01*
X89520623Y-93764423D01*
X89538802Y-93747947D01*
X89558507Y-93733333D01*
X89579551Y-93720720D01*
X89601729Y-93710230D01*
X89624829Y-93701965D01*
X89648627Y-93696004D01*
X89672896Y-93692404D01*
X89697400Y-93691200D01*
X90947400Y-93691200D01*
X90971904Y-93692404D01*
X90971904Y-93692404D01*
G37*
D12*
X90322400Y-94316200D03*
D11*
G36*
X96309904Y-80990404D02*
G01*
X96334173Y-80994004D01*
X96357971Y-80999965D01*
X96381071Y-81008230D01*
X96403249Y-81018720D01*
X96424293Y-81031333D01*
X96443998Y-81045947D01*
X96462177Y-81062423D01*
X96478653Y-81080602D01*
X96493267Y-81100307D01*
X96505880Y-81121351D01*
X96516370Y-81143529D01*
X96524635Y-81166629D01*
X96530596Y-81190427D01*
X96534196Y-81214696D01*
X96535400Y-81239200D01*
X96535400Y-82489200D01*
X96534196Y-82513704D01*
X96530596Y-82537973D01*
X96524635Y-82561771D01*
X96516370Y-82584871D01*
X96505880Y-82607049D01*
X96493267Y-82628093D01*
X96478653Y-82647798D01*
X96462177Y-82665977D01*
X96443998Y-82682453D01*
X96424293Y-82697067D01*
X96403249Y-82709680D01*
X96381071Y-82720170D01*
X96357971Y-82728435D01*
X96334173Y-82734396D01*
X96309904Y-82737996D01*
X96285400Y-82739200D01*
X95535400Y-82739200D01*
X95510896Y-82737996D01*
X95486627Y-82734396D01*
X95462829Y-82728435D01*
X95439729Y-82720170D01*
X95417551Y-82709680D01*
X95396507Y-82697067D01*
X95376802Y-82682453D01*
X95358623Y-82665977D01*
X95342147Y-82647798D01*
X95327533Y-82628093D01*
X95314920Y-82607049D01*
X95304430Y-82584871D01*
X95296165Y-82561771D01*
X95290204Y-82537973D01*
X95286604Y-82513704D01*
X95285400Y-82489200D01*
X95285400Y-81239200D01*
X95286604Y-81214696D01*
X95290204Y-81190427D01*
X95296165Y-81166629D01*
X95304430Y-81143529D01*
X95314920Y-81121351D01*
X95327533Y-81100307D01*
X95342147Y-81080602D01*
X95358623Y-81062423D01*
X95376802Y-81045947D01*
X95396507Y-81031333D01*
X95417551Y-81018720D01*
X95439729Y-81008230D01*
X95462829Y-80999965D01*
X95486627Y-80994004D01*
X95510896Y-80990404D01*
X95535400Y-80989200D01*
X96285400Y-80989200D01*
X96309904Y-80990404D01*
X96309904Y-80990404D01*
G37*
D12*
X95910400Y-81864200D03*
D11*
G36*
X93509904Y-80990404D02*
G01*
X93534173Y-80994004D01*
X93557971Y-80999965D01*
X93581071Y-81008230D01*
X93603249Y-81018720D01*
X93624293Y-81031333D01*
X93643998Y-81045947D01*
X93662177Y-81062423D01*
X93678653Y-81080602D01*
X93693267Y-81100307D01*
X93705880Y-81121351D01*
X93716370Y-81143529D01*
X93724635Y-81166629D01*
X93730596Y-81190427D01*
X93734196Y-81214696D01*
X93735400Y-81239200D01*
X93735400Y-82489200D01*
X93734196Y-82513704D01*
X93730596Y-82537973D01*
X93724635Y-82561771D01*
X93716370Y-82584871D01*
X93705880Y-82607049D01*
X93693267Y-82628093D01*
X93678653Y-82647798D01*
X93662177Y-82665977D01*
X93643998Y-82682453D01*
X93624293Y-82697067D01*
X93603249Y-82709680D01*
X93581071Y-82720170D01*
X93557971Y-82728435D01*
X93534173Y-82734396D01*
X93509904Y-82737996D01*
X93485400Y-82739200D01*
X92735400Y-82739200D01*
X92710896Y-82737996D01*
X92686627Y-82734396D01*
X92662829Y-82728435D01*
X92639729Y-82720170D01*
X92617551Y-82709680D01*
X92596507Y-82697067D01*
X92576802Y-82682453D01*
X92558623Y-82665977D01*
X92542147Y-82647798D01*
X92527533Y-82628093D01*
X92514920Y-82607049D01*
X92504430Y-82584871D01*
X92496165Y-82561771D01*
X92490204Y-82537973D01*
X92486604Y-82513704D01*
X92485400Y-82489200D01*
X92485400Y-81239200D01*
X92486604Y-81214696D01*
X92490204Y-81190427D01*
X92496165Y-81166629D01*
X92504430Y-81143529D01*
X92514920Y-81121351D01*
X92527533Y-81100307D01*
X92542147Y-81080602D01*
X92558623Y-81062423D01*
X92576802Y-81045947D01*
X92596507Y-81031333D01*
X92617551Y-81018720D01*
X92639729Y-81008230D01*
X92662829Y-80999965D01*
X92686627Y-80994004D01*
X92710896Y-80990404D01*
X92735400Y-80989200D01*
X93485400Y-80989200D01*
X93509904Y-80990404D01*
X93509904Y-80990404D01*
G37*
D12*
X93110400Y-81864200D03*
D11*
G36*
X96309904Y-77942404D02*
G01*
X96334173Y-77946004D01*
X96357971Y-77951965D01*
X96381071Y-77960230D01*
X96403249Y-77970720D01*
X96424293Y-77983333D01*
X96443998Y-77997947D01*
X96462177Y-78014423D01*
X96478653Y-78032602D01*
X96493267Y-78052307D01*
X96505880Y-78073351D01*
X96516370Y-78095529D01*
X96524635Y-78118629D01*
X96530596Y-78142427D01*
X96534196Y-78166696D01*
X96535400Y-78191200D01*
X96535400Y-79441200D01*
X96534196Y-79465704D01*
X96530596Y-79489973D01*
X96524635Y-79513771D01*
X96516370Y-79536871D01*
X96505880Y-79559049D01*
X96493267Y-79580093D01*
X96478653Y-79599798D01*
X96462177Y-79617977D01*
X96443998Y-79634453D01*
X96424293Y-79649067D01*
X96403249Y-79661680D01*
X96381071Y-79672170D01*
X96357971Y-79680435D01*
X96334173Y-79686396D01*
X96309904Y-79689996D01*
X96285400Y-79691200D01*
X95535400Y-79691200D01*
X95510896Y-79689996D01*
X95486627Y-79686396D01*
X95462829Y-79680435D01*
X95439729Y-79672170D01*
X95417551Y-79661680D01*
X95396507Y-79649067D01*
X95376802Y-79634453D01*
X95358623Y-79617977D01*
X95342147Y-79599798D01*
X95327533Y-79580093D01*
X95314920Y-79559049D01*
X95304430Y-79536871D01*
X95296165Y-79513771D01*
X95290204Y-79489973D01*
X95286604Y-79465704D01*
X95285400Y-79441200D01*
X95285400Y-78191200D01*
X95286604Y-78166696D01*
X95290204Y-78142427D01*
X95296165Y-78118629D01*
X95304430Y-78095529D01*
X95314920Y-78073351D01*
X95327533Y-78052307D01*
X95342147Y-78032602D01*
X95358623Y-78014423D01*
X95376802Y-77997947D01*
X95396507Y-77983333D01*
X95417551Y-77970720D01*
X95439729Y-77960230D01*
X95462829Y-77951965D01*
X95486627Y-77946004D01*
X95510896Y-77942404D01*
X95535400Y-77941200D01*
X96285400Y-77941200D01*
X96309904Y-77942404D01*
X96309904Y-77942404D01*
G37*
D12*
X95910400Y-78816200D03*
D11*
G36*
X93509904Y-77942404D02*
G01*
X93534173Y-77946004D01*
X93557971Y-77951965D01*
X93581071Y-77960230D01*
X93603249Y-77970720D01*
X93624293Y-77983333D01*
X93643998Y-77997947D01*
X93662177Y-78014423D01*
X93678653Y-78032602D01*
X93693267Y-78052307D01*
X93705880Y-78073351D01*
X93716370Y-78095529D01*
X93724635Y-78118629D01*
X93730596Y-78142427D01*
X93734196Y-78166696D01*
X93735400Y-78191200D01*
X93735400Y-79441200D01*
X93734196Y-79465704D01*
X93730596Y-79489973D01*
X93724635Y-79513771D01*
X93716370Y-79536871D01*
X93705880Y-79559049D01*
X93693267Y-79580093D01*
X93678653Y-79599798D01*
X93662177Y-79617977D01*
X93643998Y-79634453D01*
X93624293Y-79649067D01*
X93603249Y-79661680D01*
X93581071Y-79672170D01*
X93557971Y-79680435D01*
X93534173Y-79686396D01*
X93509904Y-79689996D01*
X93485400Y-79691200D01*
X92735400Y-79691200D01*
X92710896Y-79689996D01*
X92686627Y-79686396D01*
X92662829Y-79680435D01*
X92639729Y-79672170D01*
X92617551Y-79661680D01*
X92596507Y-79649067D01*
X92576802Y-79634453D01*
X92558623Y-79617977D01*
X92542147Y-79599798D01*
X92527533Y-79580093D01*
X92514920Y-79559049D01*
X92504430Y-79536871D01*
X92496165Y-79513771D01*
X92490204Y-79489973D01*
X92486604Y-79465704D01*
X92485400Y-79441200D01*
X92485400Y-78191200D01*
X92486604Y-78166696D01*
X92490204Y-78142427D01*
X92496165Y-78118629D01*
X92504430Y-78095529D01*
X92514920Y-78073351D01*
X92527533Y-78052307D01*
X92542147Y-78032602D01*
X92558623Y-78014423D01*
X92576802Y-77997947D01*
X92596507Y-77983333D01*
X92617551Y-77970720D01*
X92639729Y-77960230D01*
X92662829Y-77951965D01*
X92686627Y-77946004D01*
X92710896Y-77942404D01*
X92735400Y-77941200D01*
X93485400Y-77941200D01*
X93509904Y-77942404D01*
X93509904Y-77942404D01*
G37*
D12*
X93110400Y-78816200D03*
D11*
G36*
X99605904Y-77942404D02*
G01*
X99630173Y-77946004D01*
X99653971Y-77951965D01*
X99677071Y-77960230D01*
X99699249Y-77970720D01*
X99720293Y-77983333D01*
X99739998Y-77997947D01*
X99758177Y-78014423D01*
X99774653Y-78032602D01*
X99789267Y-78052307D01*
X99801880Y-78073351D01*
X99812370Y-78095529D01*
X99820635Y-78118629D01*
X99826596Y-78142427D01*
X99830196Y-78166696D01*
X99831400Y-78191200D01*
X99831400Y-79441200D01*
X99830196Y-79465704D01*
X99826596Y-79489973D01*
X99820635Y-79513771D01*
X99812370Y-79536871D01*
X99801880Y-79559049D01*
X99789267Y-79580093D01*
X99774653Y-79599798D01*
X99758177Y-79617977D01*
X99739998Y-79634453D01*
X99720293Y-79649067D01*
X99699249Y-79661680D01*
X99677071Y-79672170D01*
X99653971Y-79680435D01*
X99630173Y-79686396D01*
X99605904Y-79689996D01*
X99581400Y-79691200D01*
X98831400Y-79691200D01*
X98806896Y-79689996D01*
X98782627Y-79686396D01*
X98758829Y-79680435D01*
X98735729Y-79672170D01*
X98713551Y-79661680D01*
X98692507Y-79649067D01*
X98672802Y-79634453D01*
X98654623Y-79617977D01*
X98638147Y-79599798D01*
X98623533Y-79580093D01*
X98610920Y-79559049D01*
X98600430Y-79536871D01*
X98592165Y-79513771D01*
X98586204Y-79489973D01*
X98582604Y-79465704D01*
X98581400Y-79441200D01*
X98581400Y-78191200D01*
X98582604Y-78166696D01*
X98586204Y-78142427D01*
X98592165Y-78118629D01*
X98600430Y-78095529D01*
X98610920Y-78073351D01*
X98623533Y-78052307D01*
X98638147Y-78032602D01*
X98654623Y-78014423D01*
X98672802Y-77997947D01*
X98692507Y-77983333D01*
X98713551Y-77970720D01*
X98735729Y-77960230D01*
X98758829Y-77951965D01*
X98782627Y-77946004D01*
X98806896Y-77942404D01*
X98831400Y-77941200D01*
X99581400Y-77941200D01*
X99605904Y-77942404D01*
X99605904Y-77942404D01*
G37*
D12*
X99206400Y-78816200D03*
D11*
G36*
X102405904Y-77942404D02*
G01*
X102430173Y-77946004D01*
X102453971Y-77951965D01*
X102477071Y-77960230D01*
X102499249Y-77970720D01*
X102520293Y-77983333D01*
X102539998Y-77997947D01*
X102558177Y-78014423D01*
X102574653Y-78032602D01*
X102589267Y-78052307D01*
X102601880Y-78073351D01*
X102612370Y-78095529D01*
X102620635Y-78118629D01*
X102626596Y-78142427D01*
X102630196Y-78166696D01*
X102631400Y-78191200D01*
X102631400Y-79441200D01*
X102630196Y-79465704D01*
X102626596Y-79489973D01*
X102620635Y-79513771D01*
X102612370Y-79536871D01*
X102601880Y-79559049D01*
X102589267Y-79580093D01*
X102574653Y-79599798D01*
X102558177Y-79617977D01*
X102539998Y-79634453D01*
X102520293Y-79649067D01*
X102499249Y-79661680D01*
X102477071Y-79672170D01*
X102453971Y-79680435D01*
X102430173Y-79686396D01*
X102405904Y-79689996D01*
X102381400Y-79691200D01*
X101631400Y-79691200D01*
X101606896Y-79689996D01*
X101582627Y-79686396D01*
X101558829Y-79680435D01*
X101535729Y-79672170D01*
X101513551Y-79661680D01*
X101492507Y-79649067D01*
X101472802Y-79634453D01*
X101454623Y-79617977D01*
X101438147Y-79599798D01*
X101423533Y-79580093D01*
X101410920Y-79559049D01*
X101400430Y-79536871D01*
X101392165Y-79513771D01*
X101386204Y-79489973D01*
X101382604Y-79465704D01*
X101381400Y-79441200D01*
X101381400Y-78191200D01*
X101382604Y-78166696D01*
X101386204Y-78142427D01*
X101392165Y-78118629D01*
X101400430Y-78095529D01*
X101410920Y-78073351D01*
X101423533Y-78052307D01*
X101438147Y-78032602D01*
X101454623Y-78014423D01*
X101472802Y-77997947D01*
X101492507Y-77983333D01*
X101513551Y-77970720D01*
X101535729Y-77960230D01*
X101558829Y-77951965D01*
X101582627Y-77946004D01*
X101606896Y-77942404D01*
X101631400Y-77941200D01*
X102381400Y-77941200D01*
X102405904Y-77942404D01*
X102405904Y-77942404D01*
G37*
D12*
X102006400Y-78816200D03*
D11*
G36*
X93511904Y-74388404D02*
G01*
X93536173Y-74392004D01*
X93559971Y-74397965D01*
X93583071Y-74406230D01*
X93605249Y-74416720D01*
X93626293Y-74429333D01*
X93645998Y-74443947D01*
X93664177Y-74460423D01*
X93680653Y-74478602D01*
X93695267Y-74498307D01*
X93707880Y-74519351D01*
X93718370Y-74541529D01*
X93726635Y-74564629D01*
X93732596Y-74588427D01*
X93736196Y-74612696D01*
X93737400Y-74637200D01*
X93737400Y-75387200D01*
X93736196Y-75411704D01*
X93732596Y-75435973D01*
X93726635Y-75459771D01*
X93718370Y-75482871D01*
X93707880Y-75505049D01*
X93695267Y-75526093D01*
X93680653Y-75545798D01*
X93664177Y-75563977D01*
X93645998Y-75580453D01*
X93626293Y-75595067D01*
X93605249Y-75607680D01*
X93583071Y-75618170D01*
X93559971Y-75626435D01*
X93536173Y-75632396D01*
X93511904Y-75635996D01*
X93487400Y-75637200D01*
X92237400Y-75637200D01*
X92212896Y-75635996D01*
X92188627Y-75632396D01*
X92164829Y-75626435D01*
X92141729Y-75618170D01*
X92119551Y-75607680D01*
X92098507Y-75595067D01*
X92078802Y-75580453D01*
X92060623Y-75563977D01*
X92044147Y-75545798D01*
X92029533Y-75526093D01*
X92016920Y-75505049D01*
X92006430Y-75482871D01*
X91998165Y-75459771D01*
X91992204Y-75435973D01*
X91988604Y-75411704D01*
X91987400Y-75387200D01*
X91987400Y-74637200D01*
X91988604Y-74612696D01*
X91992204Y-74588427D01*
X91998165Y-74564629D01*
X92006430Y-74541529D01*
X92016920Y-74519351D01*
X92029533Y-74498307D01*
X92044147Y-74478602D01*
X92060623Y-74460423D01*
X92078802Y-74443947D01*
X92098507Y-74429333D01*
X92119551Y-74416720D01*
X92141729Y-74406230D01*
X92164829Y-74397965D01*
X92188627Y-74392004D01*
X92212896Y-74388404D01*
X92237400Y-74387200D01*
X93487400Y-74387200D01*
X93511904Y-74388404D01*
X93511904Y-74388404D01*
G37*
D12*
X92862400Y-75012200D03*
D11*
G36*
X93511904Y-71588404D02*
G01*
X93536173Y-71592004D01*
X93559971Y-71597965D01*
X93583071Y-71606230D01*
X93605249Y-71616720D01*
X93626293Y-71629333D01*
X93645998Y-71643947D01*
X93664177Y-71660423D01*
X93680653Y-71678602D01*
X93695267Y-71698307D01*
X93707880Y-71719351D01*
X93718370Y-71741529D01*
X93726635Y-71764629D01*
X93732596Y-71788427D01*
X93736196Y-71812696D01*
X93737400Y-71837200D01*
X93737400Y-72587200D01*
X93736196Y-72611704D01*
X93732596Y-72635973D01*
X93726635Y-72659771D01*
X93718370Y-72682871D01*
X93707880Y-72705049D01*
X93695267Y-72726093D01*
X93680653Y-72745798D01*
X93664177Y-72763977D01*
X93645998Y-72780453D01*
X93626293Y-72795067D01*
X93605249Y-72807680D01*
X93583071Y-72818170D01*
X93559971Y-72826435D01*
X93536173Y-72832396D01*
X93511904Y-72835996D01*
X93487400Y-72837200D01*
X92237400Y-72837200D01*
X92212896Y-72835996D01*
X92188627Y-72832396D01*
X92164829Y-72826435D01*
X92141729Y-72818170D01*
X92119551Y-72807680D01*
X92098507Y-72795067D01*
X92078802Y-72780453D01*
X92060623Y-72763977D01*
X92044147Y-72745798D01*
X92029533Y-72726093D01*
X92016920Y-72705049D01*
X92006430Y-72682871D01*
X91998165Y-72659771D01*
X91992204Y-72635973D01*
X91988604Y-72611704D01*
X91987400Y-72587200D01*
X91987400Y-71837200D01*
X91988604Y-71812696D01*
X91992204Y-71788427D01*
X91998165Y-71764629D01*
X92006430Y-71741529D01*
X92016920Y-71719351D01*
X92029533Y-71698307D01*
X92044147Y-71678602D01*
X92060623Y-71660423D01*
X92078802Y-71643947D01*
X92098507Y-71629333D01*
X92119551Y-71616720D01*
X92141729Y-71606230D01*
X92164829Y-71597965D01*
X92188627Y-71592004D01*
X92212896Y-71588404D01*
X92237400Y-71587200D01*
X93487400Y-71587200D01*
X93511904Y-71588404D01*
X93511904Y-71588404D01*
G37*
D12*
X92862400Y-72212200D03*
D10*
X94733400Y-99136200D03*
X95383400Y-99136200D03*
X96033400Y-99136200D03*
X96683400Y-99136200D03*
X97333400Y-99136200D03*
X97983400Y-99136200D03*
X98633400Y-99136200D03*
X99283400Y-99136200D03*
X99933400Y-99136200D03*
X100583400Y-99136200D03*
X101233400Y-99136200D03*
X101883400Y-99136200D03*
X102533400Y-99136200D03*
X103183400Y-99136200D03*
X103183400Y-91936200D03*
X102533400Y-91936200D03*
X101883400Y-91936200D03*
X101233400Y-91936200D03*
X100583400Y-91936200D03*
X99933400Y-91936200D03*
X99283400Y-91936200D03*
X98633400Y-91936200D03*
X97983400Y-91936200D03*
X97333400Y-91936200D03*
X96683400Y-91936200D03*
X96033400Y-91936200D03*
X95383400Y-91936200D03*
X94733400Y-91936200D03*
M02*
