G04 #@! TF.GenerationSoftware,KiCad,Pcbnew,(5.1.10)-1*
G04 #@! TF.CreationDate,2021-09-10T17:11:06+05:30*
G04 #@! TF.ProjectId,RL78-flash-programmer,524c3738-2d66-46c6-9173-682d70726f67,V1.2*
G04 #@! TF.SameCoordinates,Original*
G04 #@! TF.FileFunction,Legend,Top*
G04 #@! TF.FilePolarity,Positive*
%FSLAX46Y46*%
G04 Gerber Fmt 4.6, Leading zero omitted, Abs format (unit mm)*
G04 Created by KiCad (PCBNEW (5.1.10)-1) date 2021-09-10 17:11:06*
%MOMM*%
%LPD*%
G01*
G04 APERTURE LIST*
%ADD10C,0.203200*%
%ADD11C,0.150000*%
%ADD12C,0.275000*%
%ADD13C,0.250000*%
%ADD14C,0.120000*%
G04 APERTURE END LIST*
D10*
X183339619Y-74119619D02*
X183339619Y-73103619D01*
X183726666Y-73103619D01*
X183823428Y-73152000D01*
X183871809Y-73200380D01*
X183920190Y-73297142D01*
X183920190Y-73442285D01*
X183871809Y-73539047D01*
X183823428Y-73587428D01*
X183726666Y-73635809D01*
X183339619Y-73635809D01*
X184936190Y-74119619D02*
X184597523Y-73635809D01*
X184355619Y-74119619D02*
X184355619Y-73103619D01*
X184742666Y-73103619D01*
X184839428Y-73152000D01*
X184887809Y-73200380D01*
X184936190Y-73297142D01*
X184936190Y-73442285D01*
X184887809Y-73539047D01*
X184839428Y-73587428D01*
X184742666Y-73635809D01*
X184355619Y-73635809D01*
X185323238Y-73829333D02*
X185807047Y-73829333D01*
X185226476Y-74119619D02*
X185565142Y-73103619D01*
X185903809Y-74119619D01*
X186581142Y-73587428D02*
X186726285Y-73635809D01*
X186774666Y-73684190D01*
X186823047Y-73780952D01*
X186823047Y-73926095D01*
X186774666Y-74022857D01*
X186726285Y-74071238D01*
X186629523Y-74119619D01*
X186242476Y-74119619D01*
X186242476Y-73103619D01*
X186581142Y-73103619D01*
X186677904Y-73152000D01*
X186726285Y-73200380D01*
X186774666Y-73297142D01*
X186774666Y-73393904D01*
X186726285Y-73490666D01*
X186677904Y-73539047D01*
X186581142Y-73587428D01*
X186242476Y-73587428D01*
X187258476Y-74119619D02*
X187258476Y-73103619D01*
X187258476Y-73587428D02*
X187839047Y-73587428D01*
X187839047Y-74119619D02*
X187839047Y-73103619D01*
X188322857Y-73103619D02*
X188322857Y-73926095D01*
X188371238Y-74022857D01*
X188419619Y-74071238D01*
X188516380Y-74119619D01*
X188709904Y-74119619D01*
X188806666Y-74071238D01*
X188855047Y-74022857D01*
X188903428Y-73926095D01*
X188903428Y-73103619D01*
X189387238Y-74022857D02*
X189435619Y-74071238D01*
X189387238Y-74119619D01*
X189338857Y-74071238D01*
X189387238Y-74022857D01*
X189387238Y-74119619D01*
X190064571Y-73635809D02*
X190064571Y-74119619D01*
X189725904Y-73103619D02*
X190064571Y-73635809D01*
X190403238Y-73103619D01*
X190741904Y-73103619D02*
X190741904Y-73926095D01*
X190790285Y-74022857D01*
X190838666Y-74071238D01*
X190935428Y-74119619D01*
X191128952Y-74119619D01*
X191225714Y-74071238D01*
X191274095Y-74022857D01*
X191322476Y-73926095D01*
X191322476Y-73103619D01*
X192435238Y-73635809D02*
X192386857Y-73587428D01*
X192290095Y-73539047D01*
X192193333Y-73539047D01*
X192096571Y-73587428D01*
X192048190Y-73635809D01*
X191999809Y-73732571D01*
X191999809Y-73829333D01*
X192048190Y-73926095D01*
X192096571Y-73974476D01*
X192193333Y-74022857D01*
X192290095Y-74022857D01*
X192386857Y-73974476D01*
X192435238Y-73926095D01*
X192435238Y-73539047D02*
X192435238Y-73926095D01*
X192483619Y-73974476D01*
X192532000Y-73974476D01*
X192628761Y-73926095D01*
X192677142Y-73829333D01*
X192677142Y-73587428D01*
X192580380Y-73442285D01*
X192435238Y-73345523D01*
X192241714Y-73297142D01*
X192048190Y-73345523D01*
X191903047Y-73442285D01*
X191806285Y-73587428D01*
X191757904Y-73780952D01*
X191806285Y-73974476D01*
X191903047Y-74119619D01*
X192048190Y-74216380D01*
X192241714Y-74264761D01*
X192435238Y-74216380D01*
X192580380Y-74119619D01*
X193644761Y-73152000D02*
X193548000Y-73103619D01*
X193402857Y-73103619D01*
X193257714Y-73152000D01*
X193160952Y-73248761D01*
X193112571Y-73345523D01*
X193064190Y-73539047D01*
X193064190Y-73684190D01*
X193112571Y-73877714D01*
X193160952Y-73974476D01*
X193257714Y-74071238D01*
X193402857Y-74119619D01*
X193499619Y-74119619D01*
X193644761Y-74071238D01*
X193693142Y-74022857D01*
X193693142Y-73684190D01*
X193499619Y-73684190D01*
X194128571Y-74119619D02*
X194128571Y-73103619D01*
X194467238Y-73829333D01*
X194805904Y-73103619D01*
X194805904Y-74119619D01*
X195241333Y-73829333D02*
X195725142Y-73829333D01*
X195144571Y-74119619D02*
X195483238Y-73103619D01*
X195821904Y-74119619D01*
X196160571Y-74119619D02*
X196160571Y-73103619D01*
X197128190Y-74119619D02*
X196644380Y-74119619D01*
X196644380Y-73103619D01*
X197466857Y-74022857D02*
X197515238Y-74071238D01*
X197466857Y-74119619D01*
X197418476Y-74071238D01*
X197466857Y-74022857D01*
X197466857Y-74119619D01*
X198531238Y-74022857D02*
X198482857Y-74071238D01*
X198337714Y-74119619D01*
X198240952Y-74119619D01*
X198095809Y-74071238D01*
X197999047Y-73974476D01*
X197950666Y-73877714D01*
X197902285Y-73684190D01*
X197902285Y-73539047D01*
X197950666Y-73345523D01*
X197999047Y-73248761D01*
X198095809Y-73152000D01*
X198240952Y-73103619D01*
X198337714Y-73103619D01*
X198482857Y-73152000D01*
X198531238Y-73200380D01*
X199160190Y-73103619D02*
X199353714Y-73103619D01*
X199450476Y-73152000D01*
X199547238Y-73248761D01*
X199595619Y-73442285D01*
X199595619Y-73780952D01*
X199547238Y-73974476D01*
X199450476Y-74071238D01*
X199353714Y-74119619D01*
X199160190Y-74119619D01*
X199063428Y-74071238D01*
X198966666Y-73974476D01*
X198918285Y-73780952D01*
X198918285Y-73442285D01*
X198966666Y-73248761D01*
X199063428Y-73152000D01*
X199160190Y-73103619D01*
X200031047Y-74119619D02*
X200031047Y-73103619D01*
X200369714Y-73829333D01*
X200708380Y-73103619D01*
X200708380Y-74119619D01*
D11*
X89368380Y-60880190D02*
X89368380Y-60308761D01*
X90368380Y-60594476D02*
X89368380Y-60594476D01*
X90368380Y-59499238D02*
X90368380Y-59975428D01*
X89368380Y-59975428D01*
X90320761Y-58451619D02*
X90368380Y-58308761D01*
X90368380Y-58070666D01*
X90320761Y-57975428D01*
X90273142Y-57927809D01*
X90177904Y-57880190D01*
X90082666Y-57880190D01*
X89987428Y-57927809D01*
X89939809Y-57975428D01*
X89892190Y-58070666D01*
X89844571Y-58261142D01*
X89796952Y-58356380D01*
X89749333Y-58404000D01*
X89654095Y-58451619D01*
X89558857Y-58451619D01*
X89463619Y-58404000D01*
X89416000Y-58356380D01*
X89368380Y-58261142D01*
X89368380Y-58023047D01*
X89416000Y-57880190D01*
X90368380Y-57451619D02*
X89368380Y-57451619D01*
X89844571Y-57451619D02*
X89844571Y-56880190D01*
X90368380Y-56880190D02*
X89368380Y-56880190D01*
X89368380Y-56213523D02*
X89368380Y-56023047D01*
X89416000Y-55927809D01*
X89511238Y-55832571D01*
X89701714Y-55784952D01*
X90035047Y-55784952D01*
X90225523Y-55832571D01*
X90320761Y-55927809D01*
X90368380Y-56023047D01*
X90368380Y-56213523D01*
X90320761Y-56308761D01*
X90225523Y-56404000D01*
X90035047Y-56451619D01*
X89701714Y-56451619D01*
X89511238Y-56404000D01*
X89416000Y-56308761D01*
X89368380Y-56213523D01*
X90368380Y-54784952D02*
X89892190Y-55118285D01*
X90368380Y-55356380D02*
X89368380Y-55356380D01*
X89368380Y-54975428D01*
X89416000Y-54880190D01*
X89463619Y-54832571D01*
X89558857Y-54784952D01*
X89701714Y-54784952D01*
X89796952Y-54832571D01*
X89844571Y-54880190D01*
X89892190Y-54975428D01*
X89892190Y-55356380D01*
X89368380Y-54499238D02*
X89368380Y-53927809D01*
X90368380Y-54213523D02*
X89368380Y-54213523D01*
X115260380Y-60737333D02*
X114784190Y-61070666D01*
X115260380Y-61308761D02*
X114260380Y-61308761D01*
X114260380Y-60927809D01*
X114308000Y-60832571D01*
X114355619Y-60784952D01*
X114450857Y-60737333D01*
X114593714Y-60737333D01*
X114688952Y-60784952D01*
X114736571Y-60832571D01*
X114784190Y-60927809D01*
X114784190Y-61308761D01*
X115212761Y-60356380D02*
X115260380Y-60213523D01*
X115260380Y-59975428D01*
X115212761Y-59880190D01*
X115165142Y-59832571D01*
X115069904Y-59784952D01*
X114974666Y-59784952D01*
X114879428Y-59832571D01*
X114831809Y-59880190D01*
X114784190Y-59975428D01*
X114736571Y-60165904D01*
X114688952Y-60261142D01*
X114641333Y-60308761D01*
X114546095Y-60356380D01*
X114450857Y-60356380D01*
X114355619Y-60308761D01*
X114308000Y-60261142D01*
X114260380Y-60165904D01*
X114260380Y-59927809D01*
X114308000Y-59784952D01*
X114260380Y-59499238D02*
X114260380Y-58927809D01*
X115260380Y-59213523D02*
X114260380Y-59213523D01*
X115212761Y-57880190D02*
X115260380Y-57737333D01*
X115260380Y-57499238D01*
X115212761Y-57403999D01*
X115165142Y-57356380D01*
X115069904Y-57308761D01*
X114974666Y-57308761D01*
X114879428Y-57356380D01*
X114831809Y-57403999D01*
X114784190Y-57499238D01*
X114736571Y-57689714D01*
X114688952Y-57784952D01*
X114641333Y-57832571D01*
X114546095Y-57880190D01*
X114450857Y-57880190D01*
X114355619Y-57832571D01*
X114308000Y-57784952D01*
X114260380Y-57689714D01*
X114260380Y-57451619D01*
X114308000Y-57308761D01*
X115260380Y-56880190D02*
X114260380Y-56880190D01*
X114736571Y-56880190D02*
X114736571Y-56308761D01*
X115260380Y-56308761D02*
X114260380Y-56308761D01*
X114260380Y-55642095D02*
X114260380Y-55451619D01*
X114308000Y-55356380D01*
X114403238Y-55261142D01*
X114593714Y-55213523D01*
X114927047Y-55213523D01*
X115117523Y-55261142D01*
X115212761Y-55356380D01*
X115260380Y-55451619D01*
X115260380Y-55642095D01*
X115212761Y-55737333D01*
X115117523Y-55832571D01*
X114927047Y-55880190D01*
X114593714Y-55880190D01*
X114403238Y-55832571D01*
X114308000Y-55737333D01*
X114260380Y-55642095D01*
X115260380Y-54213523D02*
X114784190Y-54546857D01*
X115260380Y-54784952D02*
X114260380Y-54784952D01*
X114260380Y-54404000D01*
X114308000Y-54308761D01*
X114355619Y-54261142D01*
X114450857Y-54213523D01*
X114593714Y-54213523D01*
X114688952Y-54261142D01*
X114736571Y-54308761D01*
X114784190Y-54404000D01*
X114784190Y-54784952D01*
X114260380Y-53927809D02*
X114260380Y-53356380D01*
X115260380Y-53642095D02*
X114260380Y-53642095D01*
D12*
X183769714Y-54042571D02*
X184269714Y-55542571D01*
X184769714Y-54042571D01*
X185269714Y-54756857D02*
X185769714Y-54756857D01*
X185984000Y-55542571D02*
X185269714Y-55542571D01*
X185269714Y-54042571D01*
X185984000Y-54042571D01*
X187484000Y-55542571D02*
X186984000Y-54828285D01*
X186626857Y-55542571D02*
X186626857Y-54042571D01*
X187198285Y-54042571D01*
X187341142Y-54114000D01*
X187412571Y-54185428D01*
X187484000Y-54328285D01*
X187484000Y-54542571D01*
X187412571Y-54685428D01*
X187341142Y-54756857D01*
X187198285Y-54828285D01*
X186626857Y-54828285D01*
X188126857Y-54971142D02*
X189269714Y-54971142D01*
X190769714Y-55542571D02*
X189912571Y-55542571D01*
X190341142Y-55542571D02*
X190341142Y-54042571D01*
X190198285Y-54256857D01*
X190055428Y-54399714D01*
X189912571Y-54471142D01*
X191412571Y-55399714D02*
X191484000Y-55471142D01*
X191412571Y-55542571D01*
X191341142Y-55471142D01*
X191412571Y-55399714D01*
X191412571Y-55542571D01*
X192412571Y-54042571D02*
X192555428Y-54042571D01*
X192698285Y-54114000D01*
X192769714Y-54185428D01*
X192841142Y-54328285D01*
X192912571Y-54614000D01*
X192912571Y-54971142D01*
X192841142Y-55256857D01*
X192769714Y-55399714D01*
X192698285Y-55471142D01*
X192555428Y-55542571D01*
X192412571Y-55542571D01*
X192269714Y-55471142D01*
X192198285Y-55399714D01*
X192126857Y-55256857D01*
X192055428Y-54971142D01*
X192055428Y-54614000D01*
X192126857Y-54328285D01*
X192198285Y-54185428D01*
X192269714Y-54114000D01*
X192412571Y-54042571D01*
X193555428Y-55399714D02*
X193626857Y-55471142D01*
X193555428Y-55542571D01*
X193484000Y-55471142D01*
X193555428Y-55399714D01*
X193555428Y-55542571D01*
X194555428Y-54042571D02*
X194698285Y-54042571D01*
X194841142Y-54114000D01*
X194912571Y-54185428D01*
X194984000Y-54328285D01*
X195055428Y-54614000D01*
X195055428Y-54971142D01*
X194984000Y-55256857D01*
X194912571Y-55399714D01*
X194841142Y-55471142D01*
X194698285Y-55542571D01*
X194555428Y-55542571D01*
X194412571Y-55471142D01*
X194341142Y-55399714D01*
X194269714Y-55256857D01*
X194198285Y-54971142D01*
X194198285Y-54614000D01*
X194269714Y-54328285D01*
X194341142Y-54185428D01*
X194412571Y-54114000D01*
X194555428Y-54042571D01*
D13*
X170402857Y-71316619D02*
X170450476Y-71269000D01*
X170545714Y-71221380D01*
X170783809Y-71221380D01*
X170879047Y-71269000D01*
X170926666Y-71316619D01*
X170974285Y-71411857D01*
X170974285Y-71507095D01*
X170926666Y-71649952D01*
X170355238Y-72221380D01*
X170974285Y-72221380D01*
X171593333Y-71221380D02*
X171688571Y-71221380D01*
X171783809Y-71269000D01*
X171831428Y-71316619D01*
X171879047Y-71411857D01*
X171926666Y-71602333D01*
X171926666Y-71840428D01*
X171879047Y-72030904D01*
X171831428Y-72126142D01*
X171783809Y-72173761D01*
X171688571Y-72221380D01*
X171593333Y-72221380D01*
X171498095Y-72173761D01*
X171450476Y-72126142D01*
X171402857Y-72030904D01*
X171355238Y-71840428D01*
X171355238Y-71602333D01*
X171402857Y-71411857D01*
X171450476Y-71316619D01*
X171498095Y-71269000D01*
X171593333Y-71221380D01*
X172307619Y-71316619D02*
X172355238Y-71269000D01*
X172450476Y-71221380D01*
X172688571Y-71221380D01*
X172783809Y-71269000D01*
X172831428Y-71316619D01*
X172879047Y-71411857D01*
X172879047Y-71507095D01*
X172831428Y-71649952D01*
X172260000Y-72221380D01*
X172879047Y-72221380D01*
X173831428Y-72221380D02*
X173260000Y-72221380D01*
X173545714Y-72221380D02*
X173545714Y-71221380D01*
X173450476Y-71364238D01*
X173355238Y-71459476D01*
X173260000Y-71507095D01*
X174260000Y-71840428D02*
X175021904Y-71840428D01*
X175688571Y-71221380D02*
X175783809Y-71221380D01*
X175879047Y-71269000D01*
X175926666Y-71316619D01*
X175974285Y-71411857D01*
X176021904Y-71602333D01*
X176021904Y-71840428D01*
X175974285Y-72030904D01*
X175926666Y-72126142D01*
X175879047Y-72173761D01*
X175783809Y-72221380D01*
X175688571Y-72221380D01*
X175593333Y-72173761D01*
X175545714Y-72126142D01*
X175498095Y-72030904D01*
X175450476Y-71840428D01*
X175450476Y-71602333D01*
X175498095Y-71411857D01*
X175545714Y-71316619D01*
X175593333Y-71269000D01*
X175688571Y-71221380D01*
X176498095Y-72221380D02*
X176688571Y-72221380D01*
X176783809Y-72173761D01*
X176831428Y-72126142D01*
X176926666Y-71983285D01*
X176974285Y-71792809D01*
X176974285Y-71411857D01*
X176926666Y-71316619D01*
X176879047Y-71269000D01*
X176783809Y-71221380D01*
X176593333Y-71221380D01*
X176498095Y-71269000D01*
X176450476Y-71316619D01*
X176402857Y-71411857D01*
X176402857Y-71649952D01*
X176450476Y-71745190D01*
X176498095Y-71792809D01*
X176593333Y-71840428D01*
X176783809Y-71840428D01*
X176879047Y-71792809D01*
X176926666Y-71745190D01*
X176974285Y-71649952D01*
X177402857Y-71840428D02*
X178164761Y-71840428D01*
X178831428Y-71221380D02*
X178926666Y-71221380D01*
X179021904Y-71269000D01*
X179069523Y-71316619D01*
X179117142Y-71411857D01*
X179164761Y-71602333D01*
X179164761Y-71840428D01*
X179117142Y-72030904D01*
X179069523Y-72126142D01*
X179021904Y-72173761D01*
X178926666Y-72221380D01*
X178831428Y-72221380D01*
X178736190Y-72173761D01*
X178688571Y-72126142D01*
X178640952Y-72030904D01*
X178593333Y-71840428D01*
X178593333Y-71602333D01*
X178640952Y-71411857D01*
X178688571Y-71316619D01*
X178736190Y-71269000D01*
X178831428Y-71221380D01*
X179640952Y-72221380D02*
X179831428Y-72221380D01*
X179926666Y-72173761D01*
X179974285Y-72126142D01*
X180069523Y-71983285D01*
X180117142Y-71792809D01*
X180117142Y-71411857D01*
X180069523Y-71316619D01*
X180021904Y-71269000D01*
X179926666Y-71221380D01*
X179736190Y-71221380D01*
X179640952Y-71269000D01*
X179593333Y-71316619D01*
X179545714Y-71411857D01*
X179545714Y-71649952D01*
X179593333Y-71745190D01*
X179640952Y-71792809D01*
X179736190Y-71840428D01*
X179926666Y-71840428D01*
X180021904Y-71792809D01*
X180069523Y-71745190D01*
X180117142Y-71649952D01*
X169998095Y-73971380D02*
X169664761Y-73495190D01*
X169426666Y-73971380D02*
X169426666Y-72971380D01*
X169807619Y-72971380D01*
X169902857Y-73019000D01*
X169950476Y-73066619D01*
X169998095Y-73161857D01*
X169998095Y-73304714D01*
X169950476Y-73399952D01*
X169902857Y-73447571D01*
X169807619Y-73495190D01*
X169426666Y-73495190D01*
X170902857Y-73971380D02*
X170426666Y-73971380D01*
X170426666Y-72971380D01*
X171140952Y-72971380D02*
X171807619Y-72971380D01*
X171379047Y-73971380D01*
X172331428Y-73399952D02*
X172236190Y-73352333D01*
X172188571Y-73304714D01*
X172140952Y-73209476D01*
X172140952Y-73161857D01*
X172188571Y-73066619D01*
X172236190Y-73019000D01*
X172331428Y-72971380D01*
X172521904Y-72971380D01*
X172617142Y-73019000D01*
X172664761Y-73066619D01*
X172712380Y-73161857D01*
X172712380Y-73209476D01*
X172664761Y-73304714D01*
X172617142Y-73352333D01*
X172521904Y-73399952D01*
X172331428Y-73399952D01*
X172236190Y-73447571D01*
X172188571Y-73495190D01*
X172140952Y-73590428D01*
X172140952Y-73780904D01*
X172188571Y-73876142D01*
X172236190Y-73923761D01*
X172331428Y-73971380D01*
X172521904Y-73971380D01*
X172617142Y-73923761D01*
X172664761Y-73876142D01*
X172712380Y-73780904D01*
X172712380Y-73590428D01*
X172664761Y-73495190D01*
X172617142Y-73447571D01*
X172521904Y-73399952D01*
X173140952Y-73590428D02*
X173902857Y-73590428D01*
X174807619Y-73304714D02*
X174807619Y-73971380D01*
X174379047Y-73304714D02*
X174379047Y-73828523D01*
X174426666Y-73923761D01*
X174521904Y-73971380D01*
X174664761Y-73971380D01*
X174760000Y-73923761D01*
X174807619Y-73876142D01*
X175855238Y-73876142D02*
X175807619Y-73923761D01*
X175664761Y-73971380D01*
X175569523Y-73971380D01*
X175426666Y-73923761D01*
X175331428Y-73828523D01*
X175283809Y-73733285D01*
X175236190Y-73542809D01*
X175236190Y-73399952D01*
X175283809Y-73209476D01*
X175331428Y-73114238D01*
X175426666Y-73019000D01*
X175569523Y-72971380D01*
X175664761Y-72971380D01*
X175807619Y-73019000D01*
X175855238Y-73066619D01*
X176283809Y-73590428D02*
X177045714Y-73590428D01*
X177521904Y-73971380D02*
X177521904Y-72971380D01*
X177902857Y-72971380D01*
X177998095Y-73019000D01*
X178045714Y-73066619D01*
X178093333Y-73161857D01*
X178093333Y-73304714D01*
X178045714Y-73399952D01*
X177998095Y-73447571D01*
X177902857Y-73495190D01*
X177521904Y-73495190D01*
X179093333Y-73971380D02*
X178760000Y-73495190D01*
X178521904Y-73971380D02*
X178521904Y-72971380D01*
X178902857Y-72971380D01*
X178998095Y-73019000D01*
X179045714Y-73066619D01*
X179093333Y-73161857D01*
X179093333Y-73304714D01*
X179045714Y-73399952D01*
X178998095Y-73447571D01*
X178902857Y-73495190D01*
X178521904Y-73495190D01*
X179712380Y-72971380D02*
X179902857Y-72971380D01*
X179998095Y-73019000D01*
X180093333Y-73114238D01*
X180140952Y-73304714D01*
X180140952Y-73638047D01*
X180093333Y-73828523D01*
X179998095Y-73923761D01*
X179902857Y-73971380D01*
X179712380Y-73971380D01*
X179617142Y-73923761D01*
X179521904Y-73828523D01*
X179474285Y-73638047D01*
X179474285Y-73304714D01*
X179521904Y-73114238D01*
X179617142Y-73019000D01*
X179712380Y-72971380D01*
X181093333Y-73019000D02*
X180998095Y-72971380D01*
X180855238Y-72971380D01*
X180712380Y-73019000D01*
X180617142Y-73114238D01*
X180569523Y-73209476D01*
X180521904Y-73399952D01*
X180521904Y-73542809D01*
X180569523Y-73733285D01*
X180617142Y-73828523D01*
X180712380Y-73923761D01*
X180855238Y-73971380D01*
X180950476Y-73971380D01*
X181093333Y-73923761D01*
X181140952Y-73876142D01*
X181140952Y-73542809D01*
X180950476Y-73542809D01*
D11*
X152685714Y-59380380D02*
X152114285Y-59380380D01*
X152400000Y-59380380D02*
X152400000Y-58380380D01*
X152304761Y-58523238D01*
X152209523Y-58618476D01*
X152114285Y-58666095D01*
X90384380Y-74112380D02*
X90051047Y-73636190D01*
X89812952Y-74112380D02*
X89812952Y-73112380D01*
X90193904Y-73112380D01*
X90289142Y-73160000D01*
X90336761Y-73207619D01*
X90384380Y-73302857D01*
X90384380Y-73445714D01*
X90336761Y-73540952D01*
X90289142Y-73588571D01*
X90193904Y-73636190D01*
X89812952Y-73636190D01*
X90765333Y-74064761D02*
X90908190Y-74112380D01*
X91146285Y-74112380D01*
X91241523Y-74064761D01*
X91289142Y-74017142D01*
X91336761Y-73921904D01*
X91336761Y-73826666D01*
X91289142Y-73731428D01*
X91241523Y-73683809D01*
X91146285Y-73636190D01*
X90955809Y-73588571D01*
X90860571Y-73540952D01*
X90812952Y-73493333D01*
X90765333Y-73398095D01*
X90765333Y-73302857D01*
X90812952Y-73207619D01*
X90860571Y-73160000D01*
X90955809Y-73112380D01*
X91193904Y-73112380D01*
X91336761Y-73160000D01*
X91622476Y-73112380D02*
X92193904Y-73112380D01*
X91908190Y-74112380D02*
X91908190Y-73112380D01*
X90241523Y-64476380D02*
X90812952Y-64476380D01*
X90527238Y-65476380D02*
X90527238Y-64476380D01*
X91622476Y-65476380D02*
X91146285Y-65476380D01*
X91146285Y-64476380D01*
X108267523Y-64984380D02*
X107791333Y-64984380D01*
X107743714Y-65460571D01*
X107791333Y-65412952D01*
X107886571Y-65365333D01*
X108124666Y-65365333D01*
X108219904Y-65412952D01*
X108267523Y-65460571D01*
X108315142Y-65555809D01*
X108315142Y-65793904D01*
X108267523Y-65889142D01*
X108219904Y-65936761D01*
X108124666Y-65984380D01*
X107886571Y-65984380D01*
X107791333Y-65936761D01*
X107743714Y-65889142D01*
X108600857Y-64984380D02*
X108934190Y-65984380D01*
X109267523Y-64984380D01*
X108458095Y-72652000D02*
X108362857Y-72604380D01*
X108220000Y-72604380D01*
X108077142Y-72652000D01*
X107981904Y-72747238D01*
X107934285Y-72842476D01*
X107886666Y-73032952D01*
X107886666Y-73175809D01*
X107934285Y-73366285D01*
X107981904Y-73461523D01*
X108077142Y-73556761D01*
X108220000Y-73604380D01*
X108315238Y-73604380D01*
X108458095Y-73556761D01*
X108505714Y-73509142D01*
X108505714Y-73175809D01*
X108315238Y-73175809D01*
X108934285Y-73604380D02*
X108934285Y-72604380D01*
X109505714Y-73604380D01*
X109505714Y-72604380D01*
X109981904Y-73604380D02*
X109981904Y-72604380D01*
X110220000Y-72604380D01*
X110362857Y-72652000D01*
X110458095Y-72747238D01*
X110505714Y-72842476D01*
X110553333Y-73032952D01*
X110553333Y-73175809D01*
X110505714Y-73366285D01*
X110458095Y-73461523D01*
X110362857Y-73556761D01*
X110220000Y-73604380D01*
X109981904Y-73604380D01*
D14*
X96714000Y-72196000D02*
X96714000Y-70866000D01*
X98044000Y-72196000D02*
X96714000Y-72196000D01*
X96714000Y-69596000D02*
X96714000Y-66996000D01*
X99314000Y-69596000D02*
X96714000Y-69596000D01*
X99314000Y-72196000D02*
X99314000Y-69596000D01*
X96714000Y-66996000D02*
X109534000Y-66996000D01*
X99314000Y-72196000D02*
X109534000Y-72196000D01*
X109534000Y-72196000D02*
X109534000Y-66996000D01*
X92008000Y-72196000D02*
X90678000Y-72196000D01*
X92008000Y-70866000D02*
X92008000Y-72196000D01*
X92008000Y-69596000D02*
X89348000Y-69596000D01*
X89348000Y-69596000D02*
X89348000Y-66996000D01*
X92008000Y-69596000D02*
X92008000Y-66996000D01*
X92008000Y-66996000D02*
X89348000Y-66996000D01*
X122190000Y-54804000D02*
X120540000Y-54804000D01*
X120540000Y-54804000D02*
X120540000Y-72704000D01*
X120540000Y-72704000D02*
X125840000Y-72704000D01*
X125840000Y-72704000D02*
X125840000Y-54804000D01*
X125840000Y-54804000D02*
X124190000Y-54804000D01*
X124190000Y-54804000D02*
G75*
G02*
X122190000Y-54804000I-1000000J0D01*
G01*
X145144000Y-54550000D02*
X143494000Y-54550000D01*
X145144000Y-72450000D02*
X145144000Y-54550000D01*
X139844000Y-72450000D02*
X145144000Y-72450000D01*
X139844000Y-54550000D02*
X139844000Y-72450000D01*
X141494000Y-54550000D02*
X139844000Y-54550000D01*
X143494000Y-54550000D02*
G75*
G02*
X141494000Y-54550000I-1000000J0D01*
G01*
X180374302Y-62055000D02*
X180374302Y-62855000D01*
X179974302Y-62455000D02*
X180774302Y-62455000D01*
X188465000Y-64237000D02*
X188465000Y-65303000D01*
X188425000Y-64002000D02*
X188425000Y-65538000D01*
X188385000Y-63822000D02*
X188385000Y-65718000D01*
X188345000Y-63672000D02*
X188345000Y-65868000D01*
X188305000Y-63541000D02*
X188305000Y-65999000D01*
X188265000Y-63424000D02*
X188265000Y-66116000D01*
X188225000Y-63317000D02*
X188225000Y-66223000D01*
X188185000Y-63218000D02*
X188185000Y-66322000D01*
X188145000Y-63125000D02*
X188145000Y-66415000D01*
X188105000Y-63039000D02*
X188105000Y-66501000D01*
X188065000Y-62957000D02*
X188065000Y-66583000D01*
X188025000Y-62880000D02*
X188025000Y-66660000D01*
X187985000Y-62806000D02*
X187985000Y-66734000D01*
X187945000Y-62736000D02*
X187945000Y-66804000D01*
X187905000Y-62668000D02*
X187905000Y-66872000D01*
X187865000Y-62604000D02*
X187865000Y-66936000D01*
X187825000Y-62542000D02*
X187825000Y-66998000D01*
X187785000Y-62483000D02*
X187785000Y-67057000D01*
X187745000Y-62425000D02*
X187745000Y-67115000D01*
X187705000Y-62370000D02*
X187705000Y-67170000D01*
X187665000Y-62316000D02*
X187665000Y-67224000D01*
X187625000Y-62265000D02*
X187625000Y-67275000D01*
X187585000Y-62214000D02*
X187585000Y-67326000D01*
X187545000Y-62166000D02*
X187545000Y-67374000D01*
X187505000Y-62119000D02*
X187505000Y-67421000D01*
X187465000Y-62073000D02*
X187465000Y-67467000D01*
X187425000Y-62029000D02*
X187425000Y-67511000D01*
X187385000Y-61986000D02*
X187385000Y-67554000D01*
X187345000Y-61944000D02*
X187345000Y-67596000D01*
X187305000Y-61903000D02*
X187305000Y-67637000D01*
X187265000Y-61863000D02*
X187265000Y-67677000D01*
X187225000Y-61825000D02*
X187225000Y-67715000D01*
X187185000Y-61787000D02*
X187185000Y-67753000D01*
X187145000Y-61751000D02*
X187145000Y-67789000D01*
X187105000Y-61715000D02*
X187105000Y-67825000D01*
X187065000Y-61680000D02*
X187065000Y-67860000D01*
X187025000Y-61646000D02*
X187025000Y-67894000D01*
X186985000Y-61614000D02*
X186985000Y-67926000D01*
X186945000Y-61581000D02*
X186945000Y-67959000D01*
X186905000Y-61550000D02*
X186905000Y-67990000D01*
X186865000Y-61520000D02*
X186865000Y-68020000D01*
X186825000Y-61490000D02*
X186825000Y-68050000D01*
X186785000Y-61461000D02*
X186785000Y-68079000D01*
X186745000Y-61432000D02*
X186745000Y-68108000D01*
X186705000Y-61405000D02*
X186705000Y-68135000D01*
X186665000Y-65810000D02*
X186665000Y-68162000D01*
X186665000Y-61378000D02*
X186665000Y-63730000D01*
X186625000Y-65810000D02*
X186625000Y-68188000D01*
X186625000Y-61352000D02*
X186625000Y-63730000D01*
X186585000Y-65810000D02*
X186585000Y-68214000D01*
X186585000Y-61326000D02*
X186585000Y-63730000D01*
X186545000Y-65810000D02*
X186545000Y-68239000D01*
X186545000Y-61301000D02*
X186545000Y-63730000D01*
X186505000Y-65810000D02*
X186505000Y-68263000D01*
X186505000Y-61277000D02*
X186505000Y-63730000D01*
X186465000Y-65810000D02*
X186465000Y-68287000D01*
X186465000Y-61253000D02*
X186465000Y-63730000D01*
X186425000Y-65810000D02*
X186425000Y-68310000D01*
X186425000Y-61230000D02*
X186425000Y-63730000D01*
X186385000Y-65810000D02*
X186385000Y-68332000D01*
X186385000Y-61208000D02*
X186385000Y-63730000D01*
X186345000Y-65810000D02*
X186345000Y-68354000D01*
X186345000Y-61186000D02*
X186345000Y-63730000D01*
X186305000Y-65810000D02*
X186305000Y-68376000D01*
X186305000Y-61164000D02*
X186305000Y-63730000D01*
X186265000Y-65810000D02*
X186265000Y-68397000D01*
X186265000Y-61143000D02*
X186265000Y-63730000D01*
X186225000Y-65810000D02*
X186225000Y-68417000D01*
X186225000Y-61123000D02*
X186225000Y-63730000D01*
X186185000Y-65810000D02*
X186185000Y-68436000D01*
X186185000Y-61104000D02*
X186185000Y-63730000D01*
X186145000Y-65810000D02*
X186145000Y-68456000D01*
X186145000Y-61084000D02*
X186145000Y-63730000D01*
X186105000Y-65810000D02*
X186105000Y-68474000D01*
X186105000Y-61066000D02*
X186105000Y-63730000D01*
X186065000Y-65810000D02*
X186065000Y-68492000D01*
X186065000Y-61048000D02*
X186065000Y-63730000D01*
X186025000Y-65810000D02*
X186025000Y-68510000D01*
X186025000Y-61030000D02*
X186025000Y-63730000D01*
X185985000Y-65810000D02*
X185985000Y-68527000D01*
X185985000Y-61013000D02*
X185985000Y-63730000D01*
X185945000Y-65810000D02*
X185945000Y-68544000D01*
X185945000Y-60996000D02*
X185945000Y-63730000D01*
X185905000Y-65810000D02*
X185905000Y-68560000D01*
X185905000Y-60980000D02*
X185905000Y-63730000D01*
X185865000Y-65810000D02*
X185865000Y-68575000D01*
X185865000Y-60965000D02*
X185865000Y-63730000D01*
X185825000Y-65810000D02*
X185825000Y-68591000D01*
X185825000Y-60949000D02*
X185825000Y-63730000D01*
X185785000Y-65810000D02*
X185785000Y-68605000D01*
X185785000Y-60935000D02*
X185785000Y-63730000D01*
X185745000Y-65810000D02*
X185745000Y-68620000D01*
X185745000Y-60920000D02*
X185745000Y-63730000D01*
X185705000Y-65810000D02*
X185705000Y-68633000D01*
X185705000Y-60907000D02*
X185705000Y-63730000D01*
X185665000Y-65810000D02*
X185665000Y-68647000D01*
X185665000Y-60893000D02*
X185665000Y-63730000D01*
X185625000Y-65810000D02*
X185625000Y-68659000D01*
X185625000Y-60881000D02*
X185625000Y-63730000D01*
X185585000Y-65810000D02*
X185585000Y-68672000D01*
X185585000Y-60868000D02*
X185585000Y-63730000D01*
X185545000Y-65810000D02*
X185545000Y-68684000D01*
X185545000Y-60856000D02*
X185545000Y-63730000D01*
X185505000Y-65810000D02*
X185505000Y-68695000D01*
X185505000Y-60845000D02*
X185505000Y-63730000D01*
X185465000Y-65810000D02*
X185465000Y-68706000D01*
X185465000Y-60834000D02*
X185465000Y-63730000D01*
X185425000Y-65810000D02*
X185425000Y-68717000D01*
X185425000Y-60823000D02*
X185425000Y-63730000D01*
X185385000Y-65810000D02*
X185385000Y-68727000D01*
X185385000Y-60813000D02*
X185385000Y-63730000D01*
X185345000Y-65810000D02*
X185345000Y-68737000D01*
X185345000Y-60803000D02*
X185345000Y-63730000D01*
X185305000Y-65810000D02*
X185305000Y-68746000D01*
X185305000Y-60794000D02*
X185305000Y-63730000D01*
X185265000Y-65810000D02*
X185265000Y-68755000D01*
X185265000Y-60785000D02*
X185265000Y-63730000D01*
X185225000Y-65810000D02*
X185225000Y-68764000D01*
X185225000Y-60776000D02*
X185225000Y-63730000D01*
X185185000Y-65810000D02*
X185185000Y-68772000D01*
X185185000Y-60768000D02*
X185185000Y-63730000D01*
X185145000Y-65810000D02*
X185145000Y-68780000D01*
X185145000Y-60760000D02*
X185145000Y-63730000D01*
X185105000Y-65810000D02*
X185105000Y-68787000D01*
X185105000Y-60753000D02*
X185105000Y-63730000D01*
X185064000Y-65810000D02*
X185064000Y-68794000D01*
X185064000Y-60746000D02*
X185064000Y-63730000D01*
X185024000Y-65810000D02*
X185024000Y-68800000D01*
X185024000Y-60740000D02*
X185024000Y-63730000D01*
X184984000Y-65810000D02*
X184984000Y-68807000D01*
X184984000Y-60733000D02*
X184984000Y-63730000D01*
X184944000Y-65810000D02*
X184944000Y-68812000D01*
X184944000Y-60728000D02*
X184944000Y-63730000D01*
X184904000Y-65810000D02*
X184904000Y-68818000D01*
X184904000Y-60722000D02*
X184904000Y-63730000D01*
X184864000Y-65810000D02*
X184864000Y-68822000D01*
X184864000Y-60718000D02*
X184864000Y-63730000D01*
X184824000Y-65810000D02*
X184824000Y-68827000D01*
X184824000Y-60713000D02*
X184824000Y-63730000D01*
X184784000Y-65810000D02*
X184784000Y-68831000D01*
X184784000Y-60709000D02*
X184784000Y-63730000D01*
X184744000Y-65810000D02*
X184744000Y-68835000D01*
X184744000Y-60705000D02*
X184744000Y-63730000D01*
X184704000Y-65810000D02*
X184704000Y-68838000D01*
X184704000Y-60702000D02*
X184704000Y-63730000D01*
X184664000Y-65810000D02*
X184664000Y-68841000D01*
X184664000Y-60699000D02*
X184664000Y-63730000D01*
X184624000Y-65810000D02*
X184624000Y-68844000D01*
X184624000Y-60696000D02*
X184624000Y-63730000D01*
X184584000Y-60694000D02*
X184584000Y-68846000D01*
X184544000Y-60693000D02*
X184544000Y-68847000D01*
X184504000Y-60691000D02*
X184504000Y-68849000D01*
X184464000Y-60690000D02*
X184464000Y-68850000D01*
X184424000Y-60690000D02*
X184424000Y-68850000D01*
X184384000Y-60690000D02*
X184384000Y-68850000D01*
X188504000Y-64770000D02*
G75*
G03*
X188504000Y-64770000I-4120000J0D01*
G01*
X111866000Y-69117936D02*
X111866000Y-70322064D01*
X113686000Y-69117936D02*
X113686000Y-70322064D01*
X134141800Y-69270336D02*
X134141800Y-70474464D01*
X135961800Y-69270336D02*
X135961800Y-70474464D01*
X116480000Y-69117936D02*
X116480000Y-70322064D01*
X114660000Y-69117936D02*
X114660000Y-70322064D01*
X131601800Y-69270336D02*
X131601800Y-70474464D01*
X133421800Y-69270336D02*
X133421800Y-70474464D01*
X169193800Y-68950464D02*
X169193800Y-67746336D01*
X171013800Y-68950464D02*
X171013800Y-67746336D01*
X168473800Y-68950464D02*
X168473800Y-67746336D01*
X166653800Y-68950464D02*
X166653800Y-67746336D01*
X156097864Y-74722400D02*
X154893736Y-74722400D01*
X156097864Y-72902400D02*
X154893736Y-72902400D01*
X156097864Y-70362400D02*
X154893736Y-70362400D01*
X156097864Y-72182400D02*
X154893736Y-72182400D01*
X160481736Y-53598400D02*
X161685864Y-53598400D01*
X160481736Y-55418400D02*
X161685864Y-55418400D01*
X173045800Y-58094336D02*
X173045800Y-59298464D01*
X171225800Y-58094336D02*
X171225800Y-59298464D01*
X174273800Y-58094336D02*
X174273800Y-59298464D01*
X176093800Y-58094336D02*
X176093800Y-59298464D01*
X176093800Y-64190336D02*
X176093800Y-65394464D01*
X174273800Y-64190336D02*
X174273800Y-65394464D01*
X179785736Y-57958400D02*
X180989864Y-57958400D01*
X179785736Y-56138400D02*
X180989864Y-56138400D01*
X191228000Y-62628400D02*
X191728000Y-62128400D01*
X191228000Y-61628400D02*
X191228000Y-62628400D01*
X191728000Y-62128400D02*
X191228000Y-61628400D01*
X208668000Y-69538400D02*
X200308000Y-69538400D01*
X208668000Y-57218400D02*
X208668000Y-69538400D01*
X200308000Y-57218400D02*
X208668000Y-57218400D01*
X191948000Y-69538400D02*
X196208000Y-69538400D01*
X191948000Y-57218400D02*
X191948000Y-69538400D01*
X196208000Y-57218400D02*
X191948000Y-57218400D01*
D11*
X155588800Y-58394400D02*
X153988800Y-58394400D01*
X155588800Y-68469400D02*
X161338800Y-68469400D01*
X155588800Y-57819400D02*
X161338800Y-57819400D01*
X155588800Y-68469400D02*
X155588800Y-67819400D01*
X161338800Y-68469400D02*
X161338800Y-67819400D01*
X161338800Y-57819400D02*
X161338800Y-58469400D01*
X155588800Y-57819400D02*
X155588800Y-58394400D01*
D14*
X101352000Y-51488000D02*
X100852000Y-51488000D01*
X101352000Y-52228000D02*
X101352000Y-51488000D01*
X94779000Y-55365000D02*
X94826000Y-55319000D01*
X92482000Y-57663000D02*
X92517000Y-57627000D01*
X94586000Y-55149000D02*
X94621000Y-55114000D01*
X92277000Y-57457000D02*
X92324000Y-57411000D01*
X90992000Y-61649000D02*
X90992000Y-51728000D01*
X101112000Y-61649000D02*
X101112000Y-51728000D01*
X101112000Y-51728000D02*
X90992000Y-51728000D01*
X101112000Y-61649000D02*
X90992000Y-61649000D01*
X101112000Y-58689000D02*
X90992000Y-58689000D01*
X101112000Y-53788000D02*
X90992000Y-53788000D01*
X101112000Y-52288000D02*
X90992000Y-52288000D01*
X95232000Y-56388000D02*
G75*
G03*
X95232000Y-56388000I-1680000J0D01*
G01*
X97868682Y-54853244D02*
G75*
G02*
X98552000Y-54708000I683318J-1534756D01*
G01*
X97016574Y-57071042D02*
G75*
G02*
X97017000Y-55704000I1535426J683042D01*
G01*
X99235042Y-57923426D02*
G75*
G02*
X97868000Y-57923000I-683042J1535426D01*
G01*
X100087426Y-55704958D02*
G75*
G02*
X100087000Y-57072000I-1535426J-683042D01*
G01*
X98523195Y-54707747D02*
G75*
G02*
X99236000Y-54853000I28805J-1680253D01*
G01*
X107424000Y-56388000D02*
G75*
G03*
X107424000Y-56388000I-1680000J0D01*
G01*
X113304000Y-52288000D02*
X103184000Y-52288000D01*
X113304000Y-53788000D02*
X103184000Y-53788000D01*
X113304000Y-58689000D02*
X103184000Y-58689000D01*
X113304000Y-61649000D02*
X103184000Y-61649000D01*
X113304000Y-51728000D02*
X103184000Y-51728000D01*
X113304000Y-61649000D02*
X113304000Y-51728000D01*
X103184000Y-61649000D02*
X103184000Y-51728000D01*
X104469000Y-57457000D02*
X104516000Y-57411000D01*
X106778000Y-55149000D02*
X106813000Y-55114000D01*
X104674000Y-57663000D02*
X104709000Y-57627000D01*
X106971000Y-55365000D02*
X107018000Y-55319000D01*
X113544000Y-52228000D02*
X113544000Y-51488000D01*
X113544000Y-51488000D02*
X113044000Y-51488000D01*
X110715195Y-54707747D02*
G75*
G02*
X111428000Y-54853000I28805J-1680253D01*
G01*
X112279426Y-55704958D02*
G75*
G02*
X112279000Y-57072000I-1535426J-683042D01*
G01*
X111427042Y-57923426D02*
G75*
G02*
X110060000Y-57923000I-683042J1535426D01*
G01*
X109208574Y-57071042D02*
G75*
G02*
X109209000Y-55704000I1535426J683042D01*
G01*
X110060682Y-54853244D02*
G75*
G02*
X110744000Y-54708000I683318J-1534756D01*
G01*
D11*
X97202666Y-64984380D02*
X97202666Y-65698666D01*
X97155047Y-65841523D01*
X97059809Y-65936761D01*
X96916952Y-65984380D01*
X96821714Y-65984380D01*
X97821714Y-65412952D02*
X97726476Y-65365333D01*
X97678857Y-65317714D01*
X97631238Y-65222476D01*
X97631238Y-65174857D01*
X97678857Y-65079619D01*
X97726476Y-65032000D01*
X97821714Y-64984380D01*
X98012190Y-64984380D01*
X98107428Y-65032000D01*
X98155047Y-65079619D01*
X98202666Y-65174857D01*
X98202666Y-65222476D01*
X98155047Y-65317714D01*
X98107428Y-65365333D01*
X98012190Y-65412952D01*
X97821714Y-65412952D01*
X97726476Y-65460571D01*
X97678857Y-65508190D01*
X97631238Y-65603428D01*
X97631238Y-65793904D01*
X97678857Y-65889142D01*
X97726476Y-65936761D01*
X97821714Y-65984380D01*
X98012190Y-65984380D01*
X98107428Y-65936761D01*
X98155047Y-65889142D01*
X98202666Y-65793904D01*
X98202666Y-65603428D01*
X98155047Y-65508190D01*
X98107428Y-65460571D01*
X98012190Y-65412952D01*
X93138666Y-70064380D02*
X93138666Y-70778666D01*
X93091047Y-70921523D01*
X92995809Y-71016761D01*
X92852952Y-71064380D01*
X92757714Y-71064380D01*
X94138666Y-71064380D02*
X93567238Y-71064380D01*
X93852952Y-71064380D02*
X93852952Y-70064380D01*
X93757714Y-70207238D01*
X93662476Y-70302476D01*
X93567238Y-70350095D01*
X129032095Y-54062380D02*
X129032095Y-54871904D01*
X129079714Y-54967142D01*
X129127333Y-55014761D01*
X129222571Y-55062380D01*
X129413047Y-55062380D01*
X129508285Y-55014761D01*
X129555904Y-54967142D01*
X129603523Y-54871904D01*
X129603523Y-54062380D01*
X130603523Y-55062380D02*
X130032095Y-55062380D01*
X130317809Y-55062380D02*
X130317809Y-54062380D01*
X130222571Y-54205238D01*
X130127333Y-54300476D01*
X130032095Y-54348095D01*
X137668095Y-52284380D02*
X137668095Y-53093904D01*
X137715714Y-53189142D01*
X137763333Y-53236761D01*
X137858571Y-53284380D01*
X138049047Y-53284380D01*
X138144285Y-53236761D01*
X138191904Y-53189142D01*
X138239523Y-53093904D01*
X138239523Y-52284380D01*
X138668095Y-52379619D02*
X138715714Y-52332000D01*
X138810952Y-52284380D01*
X139049047Y-52284380D01*
X139144285Y-52332000D01*
X139191904Y-52379619D01*
X139239523Y-52474857D01*
X139239523Y-52570095D01*
X139191904Y-52712952D01*
X138620476Y-53284380D01*
X139239523Y-53284380D01*
X179697142Y-54713142D02*
X179649523Y-54760761D01*
X179506666Y-54808380D01*
X179411428Y-54808380D01*
X179268571Y-54760761D01*
X179173333Y-54665523D01*
X179125714Y-54570285D01*
X179078095Y-54379809D01*
X179078095Y-54236952D01*
X179125714Y-54046476D01*
X179173333Y-53951238D01*
X179268571Y-53856000D01*
X179411428Y-53808380D01*
X179506666Y-53808380D01*
X179649523Y-53856000D01*
X179697142Y-53903619D01*
X180649523Y-54808380D02*
X180078095Y-54808380D01*
X180363809Y-54808380D02*
X180363809Y-53808380D01*
X180268571Y-53951238D01*
X180173333Y-54046476D01*
X180078095Y-54094095D01*
X181268571Y-53808380D02*
X181363809Y-53808380D01*
X181459047Y-53856000D01*
X181506666Y-53903619D01*
X181554285Y-53998857D01*
X181601904Y-54189333D01*
X181601904Y-54427428D01*
X181554285Y-54617904D01*
X181506666Y-54713142D01*
X181459047Y-54760761D01*
X181363809Y-54808380D01*
X181268571Y-54808380D01*
X181173333Y-54760761D01*
X181125714Y-54713142D01*
X181078095Y-54617904D01*
X181030476Y-54427428D01*
X181030476Y-54189333D01*
X181078095Y-53998857D01*
X181125714Y-53903619D01*
X181173333Y-53856000D01*
X181268571Y-53808380D01*
X112609333Y-65381142D02*
X112561714Y-65428761D01*
X112418857Y-65476380D01*
X112323619Y-65476380D01*
X112180761Y-65428761D01*
X112085523Y-65333523D01*
X112037904Y-65238285D01*
X111990285Y-65047809D01*
X111990285Y-64904952D01*
X112037904Y-64714476D01*
X112085523Y-64619238D01*
X112180761Y-64524000D01*
X112323619Y-64476380D01*
X112418857Y-64476380D01*
X112561714Y-64524000D01*
X112609333Y-64571619D01*
X113561714Y-65476380D02*
X112990285Y-65476380D01*
X113276000Y-65476380D02*
X113276000Y-64476380D01*
X113180761Y-64619238D01*
X113085523Y-64714476D01*
X112990285Y-64762095D01*
X134961333Y-65889142D02*
X134913714Y-65936761D01*
X134770857Y-65984380D01*
X134675619Y-65984380D01*
X134532761Y-65936761D01*
X134437523Y-65841523D01*
X134389904Y-65746285D01*
X134342285Y-65555809D01*
X134342285Y-65412952D01*
X134389904Y-65222476D01*
X134437523Y-65127238D01*
X134532761Y-65032000D01*
X134675619Y-64984380D01*
X134770857Y-64984380D01*
X134913714Y-65032000D01*
X134961333Y-65079619D01*
X135342285Y-65079619D02*
X135389904Y-65032000D01*
X135485142Y-64984380D01*
X135723238Y-64984380D01*
X135818476Y-65032000D01*
X135866095Y-65079619D01*
X135913714Y-65174857D01*
X135913714Y-65270095D01*
X135866095Y-65412952D01*
X135294666Y-65984380D01*
X135913714Y-65984380D01*
X115403333Y-65381142D02*
X115355714Y-65428761D01*
X115212857Y-65476380D01*
X115117619Y-65476380D01*
X114974761Y-65428761D01*
X114879523Y-65333523D01*
X114831904Y-65238285D01*
X114784285Y-65047809D01*
X114784285Y-64904952D01*
X114831904Y-64714476D01*
X114879523Y-64619238D01*
X114974761Y-64524000D01*
X115117619Y-64476380D01*
X115212857Y-64476380D01*
X115355714Y-64524000D01*
X115403333Y-64571619D01*
X115736666Y-64476380D02*
X116355714Y-64476380D01*
X116022380Y-64857333D01*
X116165238Y-64857333D01*
X116260476Y-64904952D01*
X116308095Y-64952571D01*
X116355714Y-65047809D01*
X116355714Y-65285904D01*
X116308095Y-65381142D01*
X116260476Y-65428761D01*
X116165238Y-65476380D01*
X115879523Y-65476380D01*
X115784285Y-65428761D01*
X115736666Y-65381142D01*
X132421333Y-65889142D02*
X132373714Y-65936761D01*
X132230857Y-65984380D01*
X132135619Y-65984380D01*
X131992761Y-65936761D01*
X131897523Y-65841523D01*
X131849904Y-65746285D01*
X131802285Y-65555809D01*
X131802285Y-65412952D01*
X131849904Y-65222476D01*
X131897523Y-65127238D01*
X131992761Y-65032000D01*
X132135619Y-64984380D01*
X132230857Y-64984380D01*
X132373714Y-65032000D01*
X132421333Y-65079619D01*
X133278476Y-65317714D02*
X133278476Y-65984380D01*
X133040380Y-64936761D02*
X132802285Y-65651047D01*
X133421333Y-65651047D01*
X173061333Y-68937142D02*
X173013714Y-68984761D01*
X172870857Y-69032380D01*
X172775619Y-69032380D01*
X172632761Y-68984761D01*
X172537523Y-68889523D01*
X172489904Y-68794285D01*
X172442285Y-68603809D01*
X172442285Y-68460952D01*
X172489904Y-68270476D01*
X172537523Y-68175238D01*
X172632761Y-68080000D01*
X172775619Y-68032380D01*
X172870857Y-68032380D01*
X173013714Y-68080000D01*
X173061333Y-68127619D01*
X173966095Y-68032380D02*
X173489904Y-68032380D01*
X173442285Y-68508571D01*
X173489904Y-68460952D01*
X173585142Y-68413333D01*
X173823238Y-68413333D01*
X173918476Y-68460952D01*
X173966095Y-68508571D01*
X174013714Y-68603809D01*
X174013714Y-68841904D01*
X173966095Y-68937142D01*
X173918476Y-68984761D01*
X173823238Y-69032380D01*
X173585142Y-69032380D01*
X173489904Y-68984761D01*
X173442285Y-68937142D01*
X164933333Y-68937142D02*
X164885714Y-68984761D01*
X164742857Y-69032380D01*
X164647619Y-69032380D01*
X164504761Y-68984761D01*
X164409523Y-68889523D01*
X164361904Y-68794285D01*
X164314285Y-68603809D01*
X164314285Y-68460952D01*
X164361904Y-68270476D01*
X164409523Y-68175238D01*
X164504761Y-68080000D01*
X164647619Y-68032380D01*
X164742857Y-68032380D01*
X164885714Y-68080000D01*
X164933333Y-68127619D01*
X165790476Y-68032380D02*
X165600000Y-68032380D01*
X165504761Y-68080000D01*
X165457142Y-68127619D01*
X165361904Y-68270476D01*
X165314285Y-68460952D01*
X165314285Y-68841904D01*
X165361904Y-68937142D01*
X165409523Y-68984761D01*
X165504761Y-69032380D01*
X165695238Y-69032380D01*
X165790476Y-68984761D01*
X165838095Y-68937142D01*
X165885714Y-68841904D01*
X165885714Y-68603809D01*
X165838095Y-68508571D01*
X165790476Y-68460952D01*
X165695238Y-68413333D01*
X165504761Y-68413333D01*
X165409523Y-68460952D01*
X165361904Y-68508571D01*
X165314285Y-68603809D01*
X160615333Y-74271142D02*
X160567714Y-74318761D01*
X160424857Y-74366380D01*
X160329619Y-74366380D01*
X160186761Y-74318761D01*
X160091523Y-74223523D01*
X160043904Y-74128285D01*
X159996285Y-73937809D01*
X159996285Y-73794952D01*
X160043904Y-73604476D01*
X160091523Y-73509238D01*
X160186761Y-73414000D01*
X160329619Y-73366380D01*
X160424857Y-73366380D01*
X160567714Y-73414000D01*
X160615333Y-73461619D01*
X160948666Y-73366380D02*
X161615333Y-73366380D01*
X161186761Y-74366380D01*
X160615333Y-71731142D02*
X160567714Y-71778761D01*
X160424857Y-71826380D01*
X160329619Y-71826380D01*
X160186761Y-71778761D01*
X160091523Y-71683523D01*
X160043904Y-71588285D01*
X159996285Y-71397809D01*
X159996285Y-71254952D01*
X160043904Y-71064476D01*
X160091523Y-70969238D01*
X160186761Y-70874000D01*
X160329619Y-70826380D01*
X160424857Y-70826380D01*
X160567714Y-70874000D01*
X160615333Y-70921619D01*
X161186761Y-71254952D02*
X161091523Y-71207333D01*
X161043904Y-71159714D01*
X160996285Y-71064476D01*
X160996285Y-71016857D01*
X161043904Y-70921619D01*
X161091523Y-70874000D01*
X161186761Y-70826380D01*
X161377238Y-70826380D01*
X161472476Y-70874000D01*
X161520095Y-70921619D01*
X161567714Y-71016857D01*
X161567714Y-71064476D01*
X161520095Y-71159714D01*
X161472476Y-71207333D01*
X161377238Y-71254952D01*
X161186761Y-71254952D01*
X161091523Y-71302571D01*
X161043904Y-71350190D01*
X160996285Y-71445428D01*
X160996285Y-71635904D01*
X161043904Y-71731142D01*
X161091523Y-71778761D01*
X161186761Y-71826380D01*
X161377238Y-71826380D01*
X161472476Y-71778761D01*
X161520095Y-71731142D01*
X161567714Y-71635904D01*
X161567714Y-71445428D01*
X161520095Y-71350190D01*
X161472476Y-71302571D01*
X161377238Y-71254952D01*
X155789333Y-54713142D02*
X155741714Y-54760761D01*
X155598857Y-54808380D01*
X155503619Y-54808380D01*
X155360761Y-54760761D01*
X155265523Y-54665523D01*
X155217904Y-54570285D01*
X155170285Y-54379809D01*
X155170285Y-54236952D01*
X155217904Y-54046476D01*
X155265523Y-53951238D01*
X155360761Y-53856000D01*
X155503619Y-53808380D01*
X155598857Y-53808380D01*
X155741714Y-53856000D01*
X155789333Y-53903619D01*
X156265523Y-54808380D02*
X156456000Y-54808380D01*
X156551238Y-54760761D01*
X156598857Y-54713142D01*
X156694095Y-54570285D01*
X156741714Y-54379809D01*
X156741714Y-53998857D01*
X156694095Y-53903619D01*
X156646476Y-53856000D01*
X156551238Y-53808380D01*
X156360761Y-53808380D01*
X156265523Y-53856000D01*
X156217904Y-53903619D01*
X156170285Y-53998857D01*
X156170285Y-54236952D01*
X156217904Y-54332190D01*
X156265523Y-54379809D01*
X156360761Y-54427428D01*
X156551238Y-54427428D01*
X156646476Y-54379809D01*
X156694095Y-54332190D01*
X156741714Y-54236952D01*
X169505333Y-60396380D02*
X169172000Y-59920190D01*
X168933904Y-60396380D02*
X168933904Y-59396380D01*
X169314857Y-59396380D01*
X169410095Y-59444000D01*
X169457714Y-59491619D01*
X169505333Y-59586857D01*
X169505333Y-59729714D01*
X169457714Y-59824952D01*
X169410095Y-59872571D01*
X169314857Y-59920190D01*
X168933904Y-59920190D01*
X170457714Y-60396380D02*
X169886285Y-60396380D01*
X170172000Y-60396380D02*
X170172000Y-59396380D01*
X170076761Y-59539238D01*
X169981523Y-59634476D01*
X169886285Y-59682095D01*
X177633333Y-60396380D02*
X177300000Y-59920190D01*
X177061904Y-60396380D02*
X177061904Y-59396380D01*
X177442857Y-59396380D01*
X177538095Y-59444000D01*
X177585714Y-59491619D01*
X177633333Y-59586857D01*
X177633333Y-59729714D01*
X177585714Y-59824952D01*
X177538095Y-59872571D01*
X177442857Y-59920190D01*
X177061904Y-59920190D01*
X178014285Y-59491619D02*
X178061904Y-59444000D01*
X178157142Y-59396380D01*
X178395238Y-59396380D01*
X178490476Y-59444000D01*
X178538095Y-59491619D01*
X178585714Y-59586857D01*
X178585714Y-59682095D01*
X178538095Y-59824952D01*
X177966666Y-60396380D01*
X178585714Y-60396380D01*
X177633333Y-65476380D02*
X177300000Y-65000190D01*
X177061904Y-65476380D02*
X177061904Y-64476380D01*
X177442857Y-64476380D01*
X177538095Y-64524000D01*
X177585714Y-64571619D01*
X177633333Y-64666857D01*
X177633333Y-64809714D01*
X177585714Y-64904952D01*
X177538095Y-64952571D01*
X177442857Y-65000190D01*
X177061904Y-65000190D01*
X177966666Y-64476380D02*
X178585714Y-64476380D01*
X178252380Y-64857333D01*
X178395238Y-64857333D01*
X178490476Y-64904952D01*
X178538095Y-64952571D01*
X178585714Y-65047809D01*
X178585714Y-65285904D01*
X178538095Y-65381142D01*
X178490476Y-65428761D01*
X178395238Y-65476380D01*
X178109523Y-65476380D01*
X178014285Y-65428761D01*
X177966666Y-65381142D01*
X180935333Y-60396380D02*
X180602000Y-59920190D01*
X180363904Y-60396380D02*
X180363904Y-59396380D01*
X180744857Y-59396380D01*
X180840095Y-59444000D01*
X180887714Y-59491619D01*
X180935333Y-59586857D01*
X180935333Y-59729714D01*
X180887714Y-59824952D01*
X180840095Y-59872571D01*
X180744857Y-59920190D01*
X180363904Y-59920190D01*
X181792476Y-59729714D02*
X181792476Y-60396380D01*
X181554380Y-59348761D02*
X181316285Y-60063047D01*
X181935333Y-60063047D01*
X201520466Y-54443380D02*
X201520466Y-55157666D01*
X201472847Y-55300523D01*
X201377609Y-55395761D01*
X201234752Y-55443380D01*
X201139514Y-55443380D01*
X201949038Y-54538619D02*
X201996657Y-54491000D01*
X202091895Y-54443380D01*
X202329990Y-54443380D01*
X202425228Y-54491000D01*
X202472847Y-54538619D01*
X202520466Y-54633857D01*
X202520466Y-54729095D01*
X202472847Y-54871952D01*
X201901419Y-55443380D01*
X202520466Y-55443380D01*
X155161895Y-55484780D02*
X155161895Y-56294304D01*
X155209514Y-56389542D01*
X155257133Y-56437161D01*
X155352371Y-56484780D01*
X155542847Y-56484780D01*
X155638085Y-56437161D01*
X155685704Y-56389542D01*
X155733323Y-56294304D01*
X155733323Y-55484780D01*
X156114276Y-55484780D02*
X156733323Y-55484780D01*
X156399990Y-55865733D01*
X156542847Y-55865733D01*
X156638085Y-55913352D01*
X156685704Y-55960971D01*
X156733323Y-56056209D01*
X156733323Y-56294304D01*
X156685704Y-56389542D01*
X156638085Y-56437161D01*
X156542847Y-56484780D01*
X156257133Y-56484780D01*
X156161895Y-56437161D01*
X156114276Y-56389542D01*
X95718666Y-62100380D02*
X95718666Y-62814666D01*
X95671047Y-62957523D01*
X95575809Y-63052761D01*
X95432952Y-63100380D01*
X95337714Y-63100380D01*
X96099619Y-62100380D02*
X96718666Y-62100380D01*
X96385333Y-62481333D01*
X96528190Y-62481333D01*
X96623428Y-62528952D01*
X96671047Y-62576571D01*
X96718666Y-62671809D01*
X96718666Y-62909904D01*
X96671047Y-63005142D01*
X96623428Y-63052761D01*
X96528190Y-63100380D01*
X96242476Y-63100380D01*
X96147238Y-63052761D01*
X96099619Y-63005142D01*
X107910666Y-62100380D02*
X107910666Y-62814666D01*
X107863047Y-62957523D01*
X107767809Y-63052761D01*
X107624952Y-63100380D01*
X107529714Y-63100380D01*
X108815428Y-62433714D02*
X108815428Y-63100380D01*
X108577333Y-62052761D02*
X108339238Y-62767047D01*
X108958285Y-62767047D01*
M02*
