G04 #@! TF.GenerationSoftware,KiCad,Pcbnew,(5.1.10)-1*
G04 #@! TF.CreationDate,2021-09-10T17:11:06+05:30*
G04 #@! TF.ProjectId,RL78-flash-programmer,524c3738-2d66-46c6-9173-682d70726f67,V1.2*
G04 #@! TF.SameCoordinates,Original*
G04 #@! TF.FileFunction,Soldermask,Top*
G04 #@! TF.FilePolarity,Negative*
%FSLAX46Y46*%
G04 Gerber Fmt 4.6, Leading zero omitted, Abs format (unit mm)*
G04 Created by KiCad (PCBNEW (5.1.10)-1) date 2021-09-10 17:11:06*
%MOMM*%
%LPD*%
G01*
G04 APERTURE LIST*
%ADD10O,1.802000X1.802000*%
%ADD11O,1.702000X1.702000*%
%ADD12C,1.702000*%
%ADD13C,1.802000*%
%ADD14C,3.602000*%
%ADD15C,2.702000*%
%ADD16C,0.100000*%
G04 APERTURE END LIST*
G36*
G01*
X98894000Y-71767000D02*
X97194000Y-71767000D01*
G75*
G02*
X97143000Y-71716000I0J51000D01*
G01*
X97143000Y-70016000D01*
G75*
G02*
X97194000Y-69965000I51000J0D01*
G01*
X98894000Y-69965000D01*
G75*
G02*
X98945000Y-70016000I0J-51000D01*
G01*
X98945000Y-71716000D01*
G75*
G02*
X98894000Y-71767000I-51000J0D01*
G01*
G37*
D10*
X98044000Y-68326000D03*
X100584000Y-70866000D03*
X100584000Y-68326000D03*
X103124000Y-70866000D03*
X103124000Y-68326000D03*
X105664000Y-70866000D03*
X105664000Y-68326000D03*
X108204000Y-70866000D03*
X108204000Y-68326000D03*
G36*
G01*
X91579000Y-70016000D02*
X91579000Y-71716000D01*
G75*
G02*
X91528000Y-71767000I-51000J0D01*
G01*
X89828000Y-71767000D01*
G75*
G02*
X89777000Y-71716000I0J51000D01*
G01*
X89777000Y-70016000D01*
G75*
G02*
X89828000Y-69965000I51000J0D01*
G01*
X91528000Y-69965000D01*
G75*
G02*
X91579000Y-70016000I0J-51000D01*
G01*
G37*
X90678000Y-68326000D03*
D11*
X127000000Y-56134000D03*
X119380000Y-71374000D03*
X127000000Y-58674000D03*
X119380000Y-68834000D03*
X127000000Y-61214000D03*
X119380000Y-66294000D03*
X127000000Y-63754000D03*
X119380000Y-63754000D03*
X127000000Y-66294000D03*
X119380000Y-61214000D03*
X127000000Y-68834000D03*
X119380000Y-58674000D03*
X127000000Y-71374000D03*
G36*
G01*
X118529000Y-56934000D02*
X118529000Y-55334000D01*
G75*
G02*
X118580000Y-55283000I51000J0D01*
G01*
X120180000Y-55283000D01*
G75*
G02*
X120231000Y-55334000I0J-51000D01*
G01*
X120231000Y-56934000D01*
G75*
G02*
X120180000Y-56985000I-51000J0D01*
G01*
X118580000Y-56985000D01*
G75*
G02*
X118529000Y-56934000I0J51000D01*
G01*
G37*
G36*
G01*
X137833000Y-56680000D02*
X137833000Y-55080000D01*
G75*
G02*
X137884000Y-55029000I51000J0D01*
G01*
X139484000Y-55029000D01*
G75*
G02*
X139535000Y-55080000I0J-51000D01*
G01*
X139535000Y-56680000D01*
G75*
G02*
X139484000Y-56731000I-51000J0D01*
G01*
X137884000Y-56731000D01*
G75*
G02*
X137833000Y-56680000I0J51000D01*
G01*
G37*
X146304000Y-71120000D03*
X138684000Y-58420000D03*
X146304000Y-68580000D03*
X138684000Y-60960000D03*
X146304000Y-66040000D03*
X138684000Y-63500000D03*
X146304000Y-63500000D03*
X138684000Y-66040000D03*
X146304000Y-60960000D03*
X138684000Y-68580000D03*
X146304000Y-58420000D03*
X138684000Y-71120000D03*
X146304000Y-55880000D03*
G36*
G01*
X182283000Y-65570000D02*
X182283000Y-63970000D01*
G75*
G02*
X182334000Y-63919000I51000J0D01*
G01*
X183934000Y-63919000D01*
G75*
G02*
X183985000Y-63970000I0J-51000D01*
G01*
X183985000Y-65570000D01*
G75*
G02*
X183934000Y-65621000I-51000J0D01*
G01*
X182334000Y-65621000D01*
G75*
G02*
X182283000Y-65570000I0J51000D01*
G01*
G37*
D12*
X185634000Y-64770000D03*
G36*
G01*
X112117894Y-67469000D02*
X113434106Y-67469000D01*
G75*
G02*
X113702000Y-67736894I0J-267894D01*
G01*
X113702000Y-68728106D01*
G75*
G02*
X113434106Y-68996000I-267894J0D01*
G01*
X112117894Y-68996000D01*
G75*
G02*
X111850000Y-68728106I0J267894D01*
G01*
X111850000Y-67736894D01*
G75*
G02*
X112117894Y-67469000I267894J0D01*
G01*
G37*
G36*
G01*
X112117894Y-70444000D02*
X113434106Y-70444000D01*
G75*
G02*
X113702000Y-70711894I0J-267894D01*
G01*
X113702000Y-71703106D01*
G75*
G02*
X113434106Y-71971000I-267894J0D01*
G01*
X112117894Y-71971000D01*
G75*
G02*
X111850000Y-71703106I0J267894D01*
G01*
X111850000Y-70711894D01*
G75*
G02*
X112117894Y-70444000I267894J0D01*
G01*
G37*
G36*
G01*
X134393694Y-67621400D02*
X135709906Y-67621400D01*
G75*
G02*
X135977800Y-67889294I0J-267894D01*
G01*
X135977800Y-68880506D01*
G75*
G02*
X135709906Y-69148400I-267894J0D01*
G01*
X134393694Y-69148400D01*
G75*
G02*
X134125800Y-68880506I0J267894D01*
G01*
X134125800Y-67889294D01*
G75*
G02*
X134393694Y-67621400I267894J0D01*
G01*
G37*
G36*
G01*
X134393694Y-70596400D02*
X135709906Y-70596400D01*
G75*
G02*
X135977800Y-70864294I0J-267894D01*
G01*
X135977800Y-71855506D01*
G75*
G02*
X135709906Y-72123400I-267894J0D01*
G01*
X134393694Y-72123400D01*
G75*
G02*
X134125800Y-71855506I0J267894D01*
G01*
X134125800Y-70864294D01*
G75*
G02*
X134393694Y-70596400I267894J0D01*
G01*
G37*
G36*
G01*
X114911894Y-70444000D02*
X116228106Y-70444000D01*
G75*
G02*
X116496000Y-70711894I0J-267894D01*
G01*
X116496000Y-71703106D01*
G75*
G02*
X116228106Y-71971000I-267894J0D01*
G01*
X114911894Y-71971000D01*
G75*
G02*
X114644000Y-71703106I0J267894D01*
G01*
X114644000Y-70711894D01*
G75*
G02*
X114911894Y-70444000I267894J0D01*
G01*
G37*
G36*
G01*
X114911894Y-67469000D02*
X116228106Y-67469000D01*
G75*
G02*
X116496000Y-67736894I0J-267894D01*
G01*
X116496000Y-68728106D01*
G75*
G02*
X116228106Y-68996000I-267894J0D01*
G01*
X114911894Y-68996000D01*
G75*
G02*
X114644000Y-68728106I0J267894D01*
G01*
X114644000Y-67736894D01*
G75*
G02*
X114911894Y-67469000I267894J0D01*
G01*
G37*
G36*
G01*
X131853694Y-67621400D02*
X133169906Y-67621400D01*
G75*
G02*
X133437800Y-67889294I0J-267894D01*
G01*
X133437800Y-68880506D01*
G75*
G02*
X133169906Y-69148400I-267894J0D01*
G01*
X131853694Y-69148400D01*
G75*
G02*
X131585800Y-68880506I0J267894D01*
G01*
X131585800Y-67889294D01*
G75*
G02*
X131853694Y-67621400I267894J0D01*
G01*
G37*
G36*
G01*
X131853694Y-70596400D02*
X133169906Y-70596400D01*
G75*
G02*
X133437800Y-70864294I0J-267894D01*
G01*
X133437800Y-71855506D01*
G75*
G02*
X133169906Y-72123400I-267894J0D01*
G01*
X131853694Y-72123400D01*
G75*
G02*
X131585800Y-71855506I0J267894D01*
G01*
X131585800Y-70864294D01*
G75*
G02*
X131853694Y-70596400I267894J0D01*
G01*
G37*
G36*
G01*
X170761906Y-67624400D02*
X169445694Y-67624400D01*
G75*
G02*
X169177800Y-67356506I0J267894D01*
G01*
X169177800Y-66365294D01*
G75*
G02*
X169445694Y-66097400I267894J0D01*
G01*
X170761906Y-66097400D01*
G75*
G02*
X171029800Y-66365294I0J-267894D01*
G01*
X171029800Y-67356506D01*
G75*
G02*
X170761906Y-67624400I-267894J0D01*
G01*
G37*
G36*
G01*
X170761906Y-70599400D02*
X169445694Y-70599400D01*
G75*
G02*
X169177800Y-70331506I0J267894D01*
G01*
X169177800Y-69340294D01*
G75*
G02*
X169445694Y-69072400I267894J0D01*
G01*
X170761906Y-69072400D01*
G75*
G02*
X171029800Y-69340294I0J-267894D01*
G01*
X171029800Y-70331506D01*
G75*
G02*
X170761906Y-70599400I-267894J0D01*
G01*
G37*
G36*
G01*
X168221906Y-70599400D02*
X166905694Y-70599400D01*
G75*
G02*
X166637800Y-70331506I0J267894D01*
G01*
X166637800Y-69340294D01*
G75*
G02*
X166905694Y-69072400I267894J0D01*
G01*
X168221906Y-69072400D01*
G75*
G02*
X168489800Y-69340294I0J-267894D01*
G01*
X168489800Y-70331506D01*
G75*
G02*
X168221906Y-70599400I-267894J0D01*
G01*
G37*
G36*
G01*
X168221906Y-67624400D02*
X166905694Y-67624400D01*
G75*
G02*
X166637800Y-67356506I0J267894D01*
G01*
X166637800Y-66365294D01*
G75*
G02*
X166905694Y-66097400I267894J0D01*
G01*
X168221906Y-66097400D01*
G75*
G02*
X168489800Y-66365294I0J-267894D01*
G01*
X168489800Y-67356506D01*
G75*
G02*
X168221906Y-67624400I-267894J0D01*
G01*
G37*
G36*
G01*
X154771800Y-73154294D02*
X154771800Y-74470506D01*
G75*
G02*
X154503906Y-74738400I-267894J0D01*
G01*
X153512694Y-74738400D01*
G75*
G02*
X153244800Y-74470506I0J267894D01*
G01*
X153244800Y-73154294D01*
G75*
G02*
X153512694Y-72886400I267894J0D01*
G01*
X154503906Y-72886400D01*
G75*
G02*
X154771800Y-73154294I0J-267894D01*
G01*
G37*
G36*
G01*
X157746800Y-73154294D02*
X157746800Y-74470506D01*
G75*
G02*
X157478906Y-74738400I-267894J0D01*
G01*
X156487694Y-74738400D01*
G75*
G02*
X156219800Y-74470506I0J267894D01*
G01*
X156219800Y-73154294D01*
G75*
G02*
X156487694Y-72886400I267894J0D01*
G01*
X157478906Y-72886400D01*
G75*
G02*
X157746800Y-73154294I0J-267894D01*
G01*
G37*
G36*
G01*
X157746800Y-70614294D02*
X157746800Y-71930506D01*
G75*
G02*
X157478906Y-72198400I-267894J0D01*
G01*
X156487694Y-72198400D01*
G75*
G02*
X156219800Y-71930506I0J267894D01*
G01*
X156219800Y-70614294D01*
G75*
G02*
X156487694Y-70346400I267894J0D01*
G01*
X157478906Y-70346400D01*
G75*
G02*
X157746800Y-70614294I0J-267894D01*
G01*
G37*
G36*
G01*
X154771800Y-70614294D02*
X154771800Y-71930506D01*
G75*
G02*
X154503906Y-72198400I-267894J0D01*
G01*
X153512694Y-72198400D01*
G75*
G02*
X153244800Y-71930506I0J267894D01*
G01*
X153244800Y-70614294D01*
G75*
G02*
X153512694Y-70346400I267894J0D01*
G01*
X154503906Y-70346400D01*
G75*
G02*
X154771800Y-70614294I0J-267894D01*
G01*
G37*
G36*
G01*
X161807800Y-55166506D02*
X161807800Y-53850294D01*
G75*
G02*
X162075694Y-53582400I267894J0D01*
G01*
X163066906Y-53582400D01*
G75*
G02*
X163334800Y-53850294I0J-267894D01*
G01*
X163334800Y-55166506D01*
G75*
G02*
X163066906Y-55434400I-267894J0D01*
G01*
X162075694Y-55434400D01*
G75*
G02*
X161807800Y-55166506I0J267894D01*
G01*
G37*
G36*
G01*
X158832800Y-55166506D02*
X158832800Y-53850294D01*
G75*
G02*
X159100694Y-53582400I267894J0D01*
G01*
X160091906Y-53582400D01*
G75*
G02*
X160359800Y-53850294I0J-267894D01*
G01*
X160359800Y-55166506D01*
G75*
G02*
X160091906Y-55434400I-267894J0D01*
G01*
X159100694Y-55434400D01*
G75*
G02*
X158832800Y-55166506I0J267894D01*
G01*
G37*
G36*
G01*
X171477694Y-59420400D02*
X172793906Y-59420400D01*
G75*
G02*
X173061800Y-59688294I0J-267894D01*
G01*
X173061800Y-60679506D01*
G75*
G02*
X172793906Y-60947400I-267894J0D01*
G01*
X171477694Y-60947400D01*
G75*
G02*
X171209800Y-60679506I0J267894D01*
G01*
X171209800Y-59688294D01*
G75*
G02*
X171477694Y-59420400I267894J0D01*
G01*
G37*
G36*
G01*
X171477694Y-56445400D02*
X172793906Y-56445400D01*
G75*
G02*
X173061800Y-56713294I0J-267894D01*
G01*
X173061800Y-57704506D01*
G75*
G02*
X172793906Y-57972400I-267894J0D01*
G01*
X171477694Y-57972400D01*
G75*
G02*
X171209800Y-57704506I0J267894D01*
G01*
X171209800Y-56713294D01*
G75*
G02*
X171477694Y-56445400I267894J0D01*
G01*
G37*
G36*
G01*
X174525694Y-56445400D02*
X175841906Y-56445400D01*
G75*
G02*
X176109800Y-56713294I0J-267894D01*
G01*
X176109800Y-57704506D01*
G75*
G02*
X175841906Y-57972400I-267894J0D01*
G01*
X174525694Y-57972400D01*
G75*
G02*
X174257800Y-57704506I0J267894D01*
G01*
X174257800Y-56713294D01*
G75*
G02*
X174525694Y-56445400I267894J0D01*
G01*
G37*
G36*
G01*
X174525694Y-59420400D02*
X175841906Y-59420400D01*
G75*
G02*
X176109800Y-59688294I0J-267894D01*
G01*
X176109800Y-60679506D01*
G75*
G02*
X175841906Y-60947400I-267894J0D01*
G01*
X174525694Y-60947400D01*
G75*
G02*
X174257800Y-60679506I0J267894D01*
G01*
X174257800Y-59688294D01*
G75*
G02*
X174525694Y-59420400I267894J0D01*
G01*
G37*
G36*
G01*
X174525694Y-65516400D02*
X175841906Y-65516400D01*
G75*
G02*
X176109800Y-65784294I0J-267894D01*
G01*
X176109800Y-66775506D01*
G75*
G02*
X175841906Y-67043400I-267894J0D01*
G01*
X174525694Y-67043400D01*
G75*
G02*
X174257800Y-66775506I0J267894D01*
G01*
X174257800Y-65784294D01*
G75*
G02*
X174525694Y-65516400I267894J0D01*
G01*
G37*
G36*
G01*
X174525694Y-62541400D02*
X175841906Y-62541400D01*
G75*
G02*
X176109800Y-62809294I0J-267894D01*
G01*
X176109800Y-63800506D01*
G75*
G02*
X175841906Y-64068400I-267894J0D01*
G01*
X174525694Y-64068400D01*
G75*
G02*
X174257800Y-63800506I0J267894D01*
G01*
X174257800Y-62809294D01*
G75*
G02*
X174525694Y-62541400I267894J0D01*
G01*
G37*
G36*
G01*
X178136800Y-57706506D02*
X178136800Y-56390294D01*
G75*
G02*
X178404694Y-56122400I267894J0D01*
G01*
X179395906Y-56122400D01*
G75*
G02*
X179663800Y-56390294I0J-267894D01*
G01*
X179663800Y-57706506D01*
G75*
G02*
X179395906Y-57974400I-267894J0D01*
G01*
X178404694Y-57974400D01*
G75*
G02*
X178136800Y-57706506I0J267894D01*
G01*
G37*
G36*
G01*
X181111800Y-57706506D02*
X181111800Y-56390294D01*
G75*
G02*
X181379694Y-56122400I267894J0D01*
G01*
X182370906Y-56122400D01*
G75*
G02*
X182638800Y-56390294I0J-267894D01*
G01*
X182638800Y-57706506D01*
G75*
G02*
X182370906Y-57974400I-267894J0D01*
G01*
X181379694Y-57974400D01*
G75*
G02*
X181111800Y-57706506I0J267894D01*
G01*
G37*
G36*
G01*
X192647000Y-62978400D02*
X192647000Y-61278400D01*
G75*
G02*
X192698000Y-61227400I51000J0D01*
G01*
X194398000Y-61227400D01*
G75*
G02*
X194449000Y-61278400I0J-51000D01*
G01*
X194449000Y-62978400D01*
G75*
G02*
X194398000Y-63029400I-51000J0D01*
G01*
X192698000Y-63029400D01*
G75*
G02*
X192647000Y-62978400I0J51000D01*
G01*
G37*
D13*
X193548000Y-64628400D03*
X195548000Y-64628400D03*
X195548000Y-62128400D03*
D14*
X198258000Y-57358400D03*
X198258000Y-69398400D03*
G36*
G01*
X153937800Y-59094400D02*
X153937800Y-58744400D01*
G75*
G02*
X153988800Y-58693400I51000J0D01*
G01*
X155738800Y-58693400D01*
G75*
G02*
X155789800Y-58744400I0J-51000D01*
G01*
X155789800Y-59094400D01*
G75*
G02*
X155738800Y-59145400I-51000J0D01*
G01*
X153988800Y-59145400D01*
G75*
G02*
X153937800Y-59094400I0J51000D01*
G01*
G37*
G36*
G01*
X153937800Y-59744400D02*
X153937800Y-59394400D01*
G75*
G02*
X153988800Y-59343400I51000J0D01*
G01*
X155738800Y-59343400D01*
G75*
G02*
X155789800Y-59394400I0J-51000D01*
G01*
X155789800Y-59744400D01*
G75*
G02*
X155738800Y-59795400I-51000J0D01*
G01*
X153988800Y-59795400D01*
G75*
G02*
X153937800Y-59744400I0J51000D01*
G01*
G37*
G36*
G01*
X153937800Y-60394400D02*
X153937800Y-60044400D01*
G75*
G02*
X153988800Y-59993400I51000J0D01*
G01*
X155738800Y-59993400D01*
G75*
G02*
X155789800Y-60044400I0J-51000D01*
G01*
X155789800Y-60394400D01*
G75*
G02*
X155738800Y-60445400I-51000J0D01*
G01*
X153988800Y-60445400D01*
G75*
G02*
X153937800Y-60394400I0J51000D01*
G01*
G37*
G36*
G01*
X153937800Y-61044400D02*
X153937800Y-60694400D01*
G75*
G02*
X153988800Y-60643400I51000J0D01*
G01*
X155738800Y-60643400D01*
G75*
G02*
X155789800Y-60694400I0J-51000D01*
G01*
X155789800Y-61044400D01*
G75*
G02*
X155738800Y-61095400I-51000J0D01*
G01*
X153988800Y-61095400D01*
G75*
G02*
X153937800Y-61044400I0J51000D01*
G01*
G37*
G36*
G01*
X153937800Y-61694400D02*
X153937800Y-61344400D01*
G75*
G02*
X153988800Y-61293400I51000J0D01*
G01*
X155738800Y-61293400D01*
G75*
G02*
X155789800Y-61344400I0J-51000D01*
G01*
X155789800Y-61694400D01*
G75*
G02*
X155738800Y-61745400I-51000J0D01*
G01*
X153988800Y-61745400D01*
G75*
G02*
X153937800Y-61694400I0J51000D01*
G01*
G37*
G36*
G01*
X153937800Y-62344400D02*
X153937800Y-61994400D01*
G75*
G02*
X153988800Y-61943400I51000J0D01*
G01*
X155738800Y-61943400D01*
G75*
G02*
X155789800Y-61994400I0J-51000D01*
G01*
X155789800Y-62344400D01*
G75*
G02*
X155738800Y-62395400I-51000J0D01*
G01*
X153988800Y-62395400D01*
G75*
G02*
X153937800Y-62344400I0J51000D01*
G01*
G37*
G36*
G01*
X153937800Y-62994400D02*
X153937800Y-62644400D01*
G75*
G02*
X153988800Y-62593400I51000J0D01*
G01*
X155738800Y-62593400D01*
G75*
G02*
X155789800Y-62644400I0J-51000D01*
G01*
X155789800Y-62994400D01*
G75*
G02*
X155738800Y-63045400I-51000J0D01*
G01*
X153988800Y-63045400D01*
G75*
G02*
X153937800Y-62994400I0J51000D01*
G01*
G37*
G36*
G01*
X153937800Y-63644400D02*
X153937800Y-63294400D01*
G75*
G02*
X153988800Y-63243400I51000J0D01*
G01*
X155738800Y-63243400D01*
G75*
G02*
X155789800Y-63294400I0J-51000D01*
G01*
X155789800Y-63644400D01*
G75*
G02*
X155738800Y-63695400I-51000J0D01*
G01*
X153988800Y-63695400D01*
G75*
G02*
X153937800Y-63644400I0J51000D01*
G01*
G37*
G36*
G01*
X153937800Y-64294400D02*
X153937800Y-63944400D01*
G75*
G02*
X153988800Y-63893400I51000J0D01*
G01*
X155738800Y-63893400D01*
G75*
G02*
X155789800Y-63944400I0J-51000D01*
G01*
X155789800Y-64294400D01*
G75*
G02*
X155738800Y-64345400I-51000J0D01*
G01*
X153988800Y-64345400D01*
G75*
G02*
X153937800Y-64294400I0J51000D01*
G01*
G37*
G36*
G01*
X153937800Y-64944400D02*
X153937800Y-64594400D01*
G75*
G02*
X153988800Y-64543400I51000J0D01*
G01*
X155738800Y-64543400D01*
G75*
G02*
X155789800Y-64594400I0J-51000D01*
G01*
X155789800Y-64944400D01*
G75*
G02*
X155738800Y-64995400I-51000J0D01*
G01*
X153988800Y-64995400D01*
G75*
G02*
X153937800Y-64944400I0J51000D01*
G01*
G37*
G36*
G01*
X153937800Y-65594400D02*
X153937800Y-65244400D01*
G75*
G02*
X153988800Y-65193400I51000J0D01*
G01*
X155738800Y-65193400D01*
G75*
G02*
X155789800Y-65244400I0J-51000D01*
G01*
X155789800Y-65594400D01*
G75*
G02*
X155738800Y-65645400I-51000J0D01*
G01*
X153988800Y-65645400D01*
G75*
G02*
X153937800Y-65594400I0J51000D01*
G01*
G37*
G36*
G01*
X153937800Y-66244400D02*
X153937800Y-65894400D01*
G75*
G02*
X153988800Y-65843400I51000J0D01*
G01*
X155738800Y-65843400D01*
G75*
G02*
X155789800Y-65894400I0J-51000D01*
G01*
X155789800Y-66244400D01*
G75*
G02*
X155738800Y-66295400I-51000J0D01*
G01*
X153988800Y-66295400D01*
G75*
G02*
X153937800Y-66244400I0J51000D01*
G01*
G37*
G36*
G01*
X153937800Y-66894400D02*
X153937800Y-66544400D01*
G75*
G02*
X153988800Y-66493400I51000J0D01*
G01*
X155738800Y-66493400D01*
G75*
G02*
X155789800Y-66544400I0J-51000D01*
G01*
X155789800Y-66894400D01*
G75*
G02*
X155738800Y-66945400I-51000J0D01*
G01*
X153988800Y-66945400D01*
G75*
G02*
X153937800Y-66894400I0J51000D01*
G01*
G37*
G36*
G01*
X153937800Y-67544400D02*
X153937800Y-67194400D01*
G75*
G02*
X153988800Y-67143400I51000J0D01*
G01*
X155738800Y-67143400D01*
G75*
G02*
X155789800Y-67194400I0J-51000D01*
G01*
X155789800Y-67544400D01*
G75*
G02*
X155738800Y-67595400I-51000J0D01*
G01*
X153988800Y-67595400D01*
G75*
G02*
X153937800Y-67544400I0J51000D01*
G01*
G37*
G36*
G01*
X161137800Y-67544400D02*
X161137800Y-67194400D01*
G75*
G02*
X161188800Y-67143400I51000J0D01*
G01*
X162938800Y-67143400D01*
G75*
G02*
X162989800Y-67194400I0J-51000D01*
G01*
X162989800Y-67544400D01*
G75*
G02*
X162938800Y-67595400I-51000J0D01*
G01*
X161188800Y-67595400D01*
G75*
G02*
X161137800Y-67544400I0J51000D01*
G01*
G37*
G36*
G01*
X161137800Y-66894400D02*
X161137800Y-66544400D01*
G75*
G02*
X161188800Y-66493400I51000J0D01*
G01*
X162938800Y-66493400D01*
G75*
G02*
X162989800Y-66544400I0J-51000D01*
G01*
X162989800Y-66894400D01*
G75*
G02*
X162938800Y-66945400I-51000J0D01*
G01*
X161188800Y-66945400D01*
G75*
G02*
X161137800Y-66894400I0J51000D01*
G01*
G37*
G36*
G01*
X161137800Y-66244400D02*
X161137800Y-65894400D01*
G75*
G02*
X161188800Y-65843400I51000J0D01*
G01*
X162938800Y-65843400D01*
G75*
G02*
X162989800Y-65894400I0J-51000D01*
G01*
X162989800Y-66244400D01*
G75*
G02*
X162938800Y-66295400I-51000J0D01*
G01*
X161188800Y-66295400D01*
G75*
G02*
X161137800Y-66244400I0J51000D01*
G01*
G37*
G36*
G01*
X161137800Y-65594400D02*
X161137800Y-65244400D01*
G75*
G02*
X161188800Y-65193400I51000J0D01*
G01*
X162938800Y-65193400D01*
G75*
G02*
X162989800Y-65244400I0J-51000D01*
G01*
X162989800Y-65594400D01*
G75*
G02*
X162938800Y-65645400I-51000J0D01*
G01*
X161188800Y-65645400D01*
G75*
G02*
X161137800Y-65594400I0J51000D01*
G01*
G37*
G36*
G01*
X161137800Y-64944400D02*
X161137800Y-64594400D01*
G75*
G02*
X161188800Y-64543400I51000J0D01*
G01*
X162938800Y-64543400D01*
G75*
G02*
X162989800Y-64594400I0J-51000D01*
G01*
X162989800Y-64944400D01*
G75*
G02*
X162938800Y-64995400I-51000J0D01*
G01*
X161188800Y-64995400D01*
G75*
G02*
X161137800Y-64944400I0J51000D01*
G01*
G37*
G36*
G01*
X161137800Y-64294400D02*
X161137800Y-63944400D01*
G75*
G02*
X161188800Y-63893400I51000J0D01*
G01*
X162938800Y-63893400D01*
G75*
G02*
X162989800Y-63944400I0J-51000D01*
G01*
X162989800Y-64294400D01*
G75*
G02*
X162938800Y-64345400I-51000J0D01*
G01*
X161188800Y-64345400D01*
G75*
G02*
X161137800Y-64294400I0J51000D01*
G01*
G37*
G36*
G01*
X161137800Y-63644400D02*
X161137800Y-63294400D01*
G75*
G02*
X161188800Y-63243400I51000J0D01*
G01*
X162938800Y-63243400D01*
G75*
G02*
X162989800Y-63294400I0J-51000D01*
G01*
X162989800Y-63644400D01*
G75*
G02*
X162938800Y-63695400I-51000J0D01*
G01*
X161188800Y-63695400D01*
G75*
G02*
X161137800Y-63644400I0J51000D01*
G01*
G37*
G36*
G01*
X161137800Y-62994400D02*
X161137800Y-62644400D01*
G75*
G02*
X161188800Y-62593400I51000J0D01*
G01*
X162938800Y-62593400D01*
G75*
G02*
X162989800Y-62644400I0J-51000D01*
G01*
X162989800Y-62994400D01*
G75*
G02*
X162938800Y-63045400I-51000J0D01*
G01*
X161188800Y-63045400D01*
G75*
G02*
X161137800Y-62994400I0J51000D01*
G01*
G37*
G36*
G01*
X161137800Y-62344400D02*
X161137800Y-61994400D01*
G75*
G02*
X161188800Y-61943400I51000J0D01*
G01*
X162938800Y-61943400D01*
G75*
G02*
X162989800Y-61994400I0J-51000D01*
G01*
X162989800Y-62344400D01*
G75*
G02*
X162938800Y-62395400I-51000J0D01*
G01*
X161188800Y-62395400D01*
G75*
G02*
X161137800Y-62344400I0J51000D01*
G01*
G37*
G36*
G01*
X161137800Y-61694400D02*
X161137800Y-61344400D01*
G75*
G02*
X161188800Y-61293400I51000J0D01*
G01*
X162938800Y-61293400D01*
G75*
G02*
X162989800Y-61344400I0J-51000D01*
G01*
X162989800Y-61694400D01*
G75*
G02*
X162938800Y-61745400I-51000J0D01*
G01*
X161188800Y-61745400D01*
G75*
G02*
X161137800Y-61694400I0J51000D01*
G01*
G37*
G36*
G01*
X161137800Y-61044400D02*
X161137800Y-60694400D01*
G75*
G02*
X161188800Y-60643400I51000J0D01*
G01*
X162938800Y-60643400D01*
G75*
G02*
X162989800Y-60694400I0J-51000D01*
G01*
X162989800Y-61044400D01*
G75*
G02*
X162938800Y-61095400I-51000J0D01*
G01*
X161188800Y-61095400D01*
G75*
G02*
X161137800Y-61044400I0J51000D01*
G01*
G37*
G36*
G01*
X161137800Y-60394400D02*
X161137800Y-60044400D01*
G75*
G02*
X161188800Y-59993400I51000J0D01*
G01*
X162938800Y-59993400D01*
G75*
G02*
X162989800Y-60044400I0J-51000D01*
G01*
X162989800Y-60394400D01*
G75*
G02*
X162938800Y-60445400I-51000J0D01*
G01*
X161188800Y-60445400D01*
G75*
G02*
X161137800Y-60394400I0J51000D01*
G01*
G37*
G36*
G01*
X161137800Y-59744400D02*
X161137800Y-59394400D01*
G75*
G02*
X161188800Y-59343400I51000J0D01*
G01*
X162938800Y-59343400D01*
G75*
G02*
X162989800Y-59394400I0J-51000D01*
G01*
X162989800Y-59744400D01*
G75*
G02*
X162938800Y-59795400I-51000J0D01*
G01*
X161188800Y-59795400D01*
G75*
G02*
X161137800Y-59744400I0J51000D01*
G01*
G37*
G36*
G01*
X161137800Y-59094400D02*
X161137800Y-58744400D01*
G75*
G02*
X161188800Y-58693400I51000J0D01*
G01*
X162938800Y-58693400D01*
G75*
G02*
X162989800Y-58744400I0J-51000D01*
G01*
X162989800Y-59094400D01*
G75*
G02*
X162938800Y-59145400I-51000J0D01*
G01*
X161188800Y-59145400D01*
G75*
G02*
X161137800Y-59094400I0J51000D01*
G01*
G37*
G36*
G01*
X99903000Y-55088000D02*
X99903000Y-57688000D01*
G75*
G02*
X99852000Y-57739000I-51000J0D01*
G01*
X97252000Y-57739000D01*
G75*
G02*
X97201000Y-57688000I0J51000D01*
G01*
X97201000Y-55088000D01*
G75*
G02*
X97252000Y-55037000I51000J0D01*
G01*
X99852000Y-55037000D01*
G75*
G02*
X99903000Y-55088000I0J-51000D01*
G01*
G37*
D15*
X93552000Y-56388000D03*
X105744000Y-56388000D03*
G36*
G01*
X112095000Y-55088000D02*
X112095000Y-57688000D01*
G75*
G02*
X112044000Y-57739000I-51000J0D01*
G01*
X109444000Y-57739000D01*
G75*
G02*
X109393000Y-57688000I0J51000D01*
G01*
X109393000Y-55088000D01*
G75*
G02*
X109444000Y-55037000I51000J0D01*
G01*
X112044000Y-55037000D01*
G75*
G02*
X112095000Y-55088000I0J-51000D01*
G01*
G37*
D16*
G36*
X155791532Y-66944400D02*
G01*
X155791800Y-66945400D01*
X155791800Y-67143400D01*
X155790800Y-67145132D01*
X155789800Y-67145400D01*
X153937800Y-67145400D01*
X153936068Y-67144400D01*
X153935800Y-67143400D01*
X153935800Y-66945400D01*
X153936800Y-66943668D01*
X153937800Y-66943400D01*
X155789800Y-66943400D01*
X155791532Y-66944400D01*
G37*
G36*
X162991532Y-66944400D02*
G01*
X162991800Y-66945400D01*
X162991800Y-67143400D01*
X162990800Y-67145132D01*
X162989800Y-67145400D01*
X161137800Y-67145400D01*
X161136068Y-67144400D01*
X161135800Y-67143400D01*
X161135800Y-66945400D01*
X161136800Y-66943668D01*
X161137800Y-66943400D01*
X162989800Y-66943400D01*
X162991532Y-66944400D01*
G37*
G36*
X162991532Y-66294400D02*
G01*
X162991800Y-66295400D01*
X162991800Y-66493400D01*
X162990800Y-66495132D01*
X162989800Y-66495400D01*
X161137800Y-66495400D01*
X161136068Y-66494400D01*
X161135800Y-66493400D01*
X161135800Y-66295400D01*
X161136800Y-66293668D01*
X161137800Y-66293400D01*
X162989800Y-66293400D01*
X162991532Y-66294400D01*
G37*
G36*
X155791532Y-66294400D02*
G01*
X155791800Y-66295400D01*
X155791800Y-66493400D01*
X155790800Y-66495132D01*
X155789800Y-66495400D01*
X153937800Y-66495400D01*
X153936068Y-66494400D01*
X153935800Y-66493400D01*
X153935800Y-66295400D01*
X153936800Y-66293668D01*
X153937800Y-66293400D01*
X155789800Y-66293400D01*
X155791532Y-66294400D01*
G37*
G36*
X155791532Y-65644400D02*
G01*
X155791800Y-65645400D01*
X155791800Y-65843400D01*
X155790800Y-65845132D01*
X155789800Y-65845400D01*
X153937800Y-65845400D01*
X153936068Y-65844400D01*
X153935800Y-65843400D01*
X153935800Y-65645400D01*
X153936800Y-65643668D01*
X153937800Y-65643400D01*
X155789800Y-65643400D01*
X155791532Y-65644400D01*
G37*
G36*
X162991532Y-65644400D02*
G01*
X162991800Y-65645400D01*
X162991800Y-65843400D01*
X162990800Y-65845132D01*
X162989800Y-65845400D01*
X161137800Y-65845400D01*
X161136068Y-65844400D01*
X161135800Y-65843400D01*
X161135800Y-65645400D01*
X161136800Y-65643668D01*
X161137800Y-65643400D01*
X162989800Y-65643400D01*
X162991532Y-65644400D01*
G37*
G36*
X155791532Y-64994400D02*
G01*
X155791800Y-64995400D01*
X155791800Y-65193400D01*
X155790800Y-65195132D01*
X155789800Y-65195400D01*
X153937800Y-65195400D01*
X153936068Y-65194400D01*
X153935800Y-65193400D01*
X153935800Y-64995400D01*
X153936800Y-64993668D01*
X153937800Y-64993400D01*
X155789800Y-64993400D01*
X155791532Y-64994400D01*
G37*
G36*
X162991532Y-64994400D02*
G01*
X162991800Y-64995400D01*
X162991800Y-65193400D01*
X162990800Y-65195132D01*
X162989800Y-65195400D01*
X161137800Y-65195400D01*
X161136068Y-65194400D01*
X161135800Y-65193400D01*
X161135800Y-64995400D01*
X161136800Y-64993668D01*
X161137800Y-64993400D01*
X162989800Y-64993400D01*
X162991532Y-64994400D01*
G37*
G36*
X194670277Y-64450853D02*
G01*
X194670779Y-64452610D01*
X194653339Y-64540286D01*
X194653339Y-64716514D01*
X194670779Y-64804190D01*
X194670136Y-64806084D01*
X194668174Y-64806474D01*
X194666903Y-64805161D01*
X194661627Y-64787769D01*
X194650262Y-64766505D01*
X194634967Y-64747868D01*
X194616330Y-64732573D01*
X194595066Y-64721208D01*
X194571991Y-64714208D01*
X194548000Y-64711845D01*
X194524009Y-64714208D01*
X194500934Y-64721208D01*
X194479670Y-64732573D01*
X194461033Y-64747868D01*
X194445738Y-64766505D01*
X194434373Y-64787769D01*
X194429097Y-64805161D01*
X194427637Y-64806528D01*
X194425723Y-64805947D01*
X194425221Y-64804190D01*
X194442661Y-64716514D01*
X194442661Y-64540286D01*
X194425221Y-64452610D01*
X194425864Y-64450716D01*
X194427826Y-64450326D01*
X194429097Y-64451639D01*
X194434373Y-64469031D01*
X194445738Y-64490295D01*
X194461033Y-64508932D01*
X194479670Y-64524227D01*
X194500934Y-64535592D01*
X194524009Y-64542592D01*
X194548000Y-64544955D01*
X194571991Y-64542592D01*
X194595066Y-64535592D01*
X194616330Y-64524227D01*
X194634967Y-64508932D01*
X194650262Y-64490295D01*
X194661627Y-64469031D01*
X194666903Y-64451639D01*
X194668363Y-64450272D01*
X194670277Y-64450853D01*
G37*
G36*
X162991532Y-64344400D02*
G01*
X162991800Y-64345400D01*
X162991800Y-64543400D01*
X162990800Y-64545132D01*
X162989800Y-64545400D01*
X161137800Y-64545400D01*
X161136068Y-64544400D01*
X161135800Y-64543400D01*
X161135800Y-64345400D01*
X161136800Y-64343668D01*
X161137800Y-64343400D01*
X162989800Y-64343400D01*
X162991532Y-64344400D01*
G37*
G36*
X155791532Y-64344400D02*
G01*
X155791800Y-64345400D01*
X155791800Y-64543400D01*
X155790800Y-64545132D01*
X155789800Y-64545400D01*
X153937800Y-64545400D01*
X153936068Y-64544400D01*
X153935800Y-64543400D01*
X153935800Y-64345400D01*
X153936800Y-64343668D01*
X153937800Y-64343400D01*
X155789800Y-64343400D01*
X155791532Y-64344400D01*
G37*
G36*
X155791532Y-63694400D02*
G01*
X155791800Y-63695400D01*
X155791800Y-63893400D01*
X155790800Y-63895132D01*
X155789800Y-63895400D01*
X153937800Y-63895400D01*
X153936068Y-63894400D01*
X153935800Y-63893400D01*
X153935800Y-63695400D01*
X153936800Y-63693668D01*
X153937800Y-63693400D01*
X155789800Y-63693400D01*
X155791532Y-63694400D01*
G37*
G36*
X162991532Y-63694400D02*
G01*
X162991800Y-63695400D01*
X162991800Y-63893400D01*
X162990800Y-63895132D01*
X162989800Y-63895400D01*
X161137800Y-63895400D01*
X161136068Y-63894400D01*
X161135800Y-63893400D01*
X161135800Y-63695400D01*
X161136800Y-63693668D01*
X161137800Y-63693400D01*
X162989800Y-63693400D01*
X162991532Y-63694400D01*
G37*
G36*
X155791532Y-63044400D02*
G01*
X155791800Y-63045400D01*
X155791800Y-63243400D01*
X155790800Y-63245132D01*
X155789800Y-63245400D01*
X153937800Y-63245400D01*
X153936068Y-63244400D01*
X153935800Y-63243400D01*
X153935800Y-63045400D01*
X153936800Y-63043668D01*
X153937800Y-63043400D01*
X155789800Y-63043400D01*
X155791532Y-63044400D01*
G37*
G36*
X162991532Y-63044400D02*
G01*
X162991800Y-63045400D01*
X162991800Y-63243400D01*
X162990800Y-63245132D01*
X162989800Y-63245400D01*
X161137800Y-63245400D01*
X161136068Y-63244400D01*
X161135800Y-63243400D01*
X161135800Y-63045400D01*
X161136800Y-63043668D01*
X161137800Y-63043400D01*
X162989800Y-63043400D01*
X162991532Y-63044400D01*
G37*
G36*
X162991532Y-62394400D02*
G01*
X162991800Y-62395400D01*
X162991800Y-62593400D01*
X162990800Y-62595132D01*
X162989800Y-62595400D01*
X161137800Y-62595400D01*
X161136068Y-62594400D01*
X161135800Y-62593400D01*
X161135800Y-62395400D01*
X161136800Y-62393668D01*
X161137800Y-62393400D01*
X162989800Y-62393400D01*
X162991532Y-62394400D01*
G37*
G36*
X155791532Y-62394400D02*
G01*
X155791800Y-62395400D01*
X155791800Y-62593400D01*
X155790800Y-62595132D01*
X155789800Y-62595400D01*
X153937800Y-62595400D01*
X153936068Y-62594400D01*
X153935800Y-62593400D01*
X153935800Y-62395400D01*
X153936800Y-62393668D01*
X153937800Y-62393400D01*
X155789800Y-62393400D01*
X155791532Y-62394400D01*
G37*
G36*
X194450990Y-61811495D02*
G01*
X194453372Y-61835682D01*
X194460372Y-61858757D01*
X194471737Y-61880021D01*
X194487032Y-61898658D01*
X194505669Y-61913953D01*
X194526933Y-61925318D01*
X194550008Y-61932318D01*
X194573999Y-61934681D01*
X194597990Y-61932318D01*
X194621065Y-61925318D01*
X194642329Y-61913953D01*
X194660966Y-61898658D01*
X194676261Y-61880021D01*
X194684828Y-61863992D01*
X194686527Y-61862936D01*
X194688290Y-61863879D01*
X194688440Y-61865700D01*
X194687721Y-61867436D01*
X194653339Y-62040286D01*
X194653339Y-62216514D01*
X194687721Y-62389364D01*
X194688440Y-62391100D01*
X194688179Y-62393082D01*
X194686331Y-62393848D01*
X194684828Y-62392808D01*
X194676261Y-62376779D01*
X194660965Y-62358142D01*
X194642328Y-62342847D01*
X194621065Y-62331482D01*
X194597990Y-62324482D01*
X194573999Y-62322119D01*
X194550008Y-62324482D01*
X194526933Y-62331482D01*
X194505669Y-62342847D01*
X194487032Y-62358143D01*
X194471737Y-62376780D01*
X194460372Y-62398043D01*
X194453372Y-62421118D01*
X194450990Y-62445305D01*
X194449825Y-62446931D01*
X194447835Y-62446735D01*
X194447000Y-62445109D01*
X194447000Y-61811691D01*
X194448000Y-61809959D01*
X194450000Y-61809959D01*
X194450990Y-61811495D01*
G37*
G36*
X155791532Y-61744400D02*
G01*
X155791800Y-61745400D01*
X155791800Y-61943400D01*
X155790800Y-61945132D01*
X155789800Y-61945400D01*
X153937800Y-61945400D01*
X153936068Y-61944400D01*
X153935800Y-61943400D01*
X153935800Y-61745400D01*
X153936800Y-61743668D01*
X153937800Y-61743400D01*
X155789800Y-61743400D01*
X155791532Y-61744400D01*
G37*
G36*
X162991532Y-61744400D02*
G01*
X162991800Y-61745400D01*
X162991800Y-61943400D01*
X162990800Y-61945132D01*
X162989800Y-61945400D01*
X161137800Y-61945400D01*
X161136068Y-61944400D01*
X161135800Y-61943400D01*
X161135800Y-61745400D01*
X161136800Y-61743668D01*
X161137800Y-61743400D01*
X162989800Y-61743400D01*
X162991532Y-61744400D01*
G37*
G36*
X155791532Y-61094400D02*
G01*
X155791800Y-61095400D01*
X155791800Y-61293400D01*
X155790800Y-61295132D01*
X155789800Y-61295400D01*
X153937800Y-61295400D01*
X153936068Y-61294400D01*
X153935800Y-61293400D01*
X153935800Y-61095400D01*
X153936800Y-61093668D01*
X153937800Y-61093400D01*
X155789800Y-61093400D01*
X155791532Y-61094400D01*
G37*
G36*
X162991532Y-61094400D02*
G01*
X162991800Y-61095400D01*
X162991800Y-61293400D01*
X162990800Y-61295132D01*
X162989800Y-61295400D01*
X161137800Y-61295400D01*
X161136068Y-61294400D01*
X161135800Y-61293400D01*
X161135800Y-61095400D01*
X161136800Y-61093668D01*
X161137800Y-61093400D01*
X162989800Y-61093400D01*
X162991532Y-61094400D01*
G37*
G36*
X155791532Y-60444400D02*
G01*
X155791800Y-60445400D01*
X155791800Y-60643400D01*
X155790800Y-60645132D01*
X155789800Y-60645400D01*
X153937800Y-60645400D01*
X153936068Y-60644400D01*
X153935800Y-60643400D01*
X153935800Y-60445400D01*
X153936800Y-60443668D01*
X153937800Y-60443400D01*
X155789800Y-60443400D01*
X155791532Y-60444400D01*
G37*
G36*
X162991532Y-60444400D02*
G01*
X162991800Y-60445400D01*
X162991800Y-60643400D01*
X162990800Y-60645132D01*
X162989800Y-60645400D01*
X161137800Y-60645400D01*
X161136068Y-60644400D01*
X161135800Y-60643400D01*
X161135800Y-60445400D01*
X161136800Y-60443668D01*
X161137800Y-60443400D01*
X162989800Y-60443400D01*
X162991532Y-60444400D01*
G37*
G36*
X155791532Y-59794400D02*
G01*
X155791800Y-59795400D01*
X155791800Y-59993400D01*
X155790800Y-59995132D01*
X155789800Y-59995400D01*
X153937800Y-59995400D01*
X153936068Y-59994400D01*
X153935800Y-59993400D01*
X153935800Y-59795400D01*
X153936800Y-59793668D01*
X153937800Y-59793400D01*
X155789800Y-59793400D01*
X155791532Y-59794400D01*
G37*
G36*
X162991532Y-59794400D02*
G01*
X162991800Y-59795400D01*
X162991800Y-59993400D01*
X162990800Y-59995132D01*
X162989800Y-59995400D01*
X161137800Y-59995400D01*
X161136068Y-59994400D01*
X161135800Y-59993400D01*
X161135800Y-59795400D01*
X161136800Y-59793668D01*
X161137800Y-59793400D01*
X162989800Y-59793400D01*
X162991532Y-59794400D01*
G37*
G36*
X155791532Y-59144400D02*
G01*
X155791800Y-59145400D01*
X155791800Y-59343400D01*
X155790800Y-59345132D01*
X155789800Y-59345400D01*
X153937800Y-59345400D01*
X153936068Y-59344400D01*
X153935800Y-59343400D01*
X153935800Y-59145400D01*
X153936800Y-59143668D01*
X153937800Y-59143400D01*
X155789800Y-59143400D01*
X155791532Y-59144400D01*
G37*
G36*
X162991532Y-59144400D02*
G01*
X162991800Y-59145400D01*
X162991800Y-59343400D01*
X162990800Y-59345132D01*
X162989800Y-59345400D01*
X161137800Y-59345400D01*
X161136068Y-59344400D01*
X161135800Y-59343400D01*
X161135800Y-59145400D01*
X161136800Y-59143668D01*
X161137800Y-59143400D01*
X162989800Y-59143400D01*
X162991532Y-59144400D01*
G37*
M02*
