M48
; DRILL file {KiCad (5.1.10)-1} date 09/10/21 17:11:08
; FORMAT={-:-/ absolute / inch / decimal}
; #@! TF.CreationDate,2021-09-10T17:11:08+05:30
; #@! TF.GenerationSoftware,Kicad,Pcbnew,(5.1.10)-1
; #@! TF.FileFunction,Plated,1,2,PTH
FMAT,2
INCH
T1C0.0197
T2C0.0315
T3C0.0362
T4C0.0394
T5C0.0512
T6C0.0917
%
G90
G05
T1
X5.78Y-2.07
X5.899Y-2.12
X6.246Y-2.799
X6.277Y-2.232
X6.515Y-2.421
X6.599Y-2.564
X6.613Y-2.217
X7.281Y-2.755
T2
X4.7Y-2.21
X4.7Y-2.31
X4.7Y-2.41
X4.7Y-2.51
X4.7Y-2.61
X4.7Y-2.71
X4.7Y-2.81
X5.0Y-2.21
X5.0Y-2.31
X5.0Y-2.41
X5.0Y-2.51
X5.0Y-2.61
X5.0Y-2.71
X5.0Y-2.81
X5.46Y-2.2
X5.46Y-2.3
X5.46Y-2.4
X5.46Y-2.5
X5.46Y-2.6
X5.46Y-2.7
X5.46Y-2.8
X5.76Y-2.2
X5.76Y-2.3
X5.76Y-2.4
X5.76Y-2.5
X5.76Y-2.6
X5.76Y-2.7
X5.76Y-2.8
X7.21Y-2.55
X7.3084Y-2.55
T3
X7.62Y-2.446
X7.62Y-2.5444
X7.6987Y-2.446
X7.6987Y-2.5444
T4
X3.57Y-2.69
X3.57Y-2.79
X3.86Y-2.69
X3.86Y-2.79
X3.96Y-2.69
X3.96Y-2.79
X4.06Y-2.69
X4.06Y-2.79
X4.16Y-2.69
X4.16Y-2.79
X4.26Y-2.69
X4.26Y-2.79
T5
X3.6831Y-2.22
X3.88Y-2.22
X4.1631Y-2.22
X4.36Y-2.22
T6
X7.8054Y-2.2582
X7.8054Y-2.7322
T0
M30
